
<svg id="Group_269" data-name="Group 269" xmlns="http://www.w3.org/2000/svg" xmlns:xlink="http://www.w3.org/1999/xlink" viewBox="-5.24 7560 1925.24 1200.954">
  <defs>
    <style>
      .cls-1, .cls-13, .cls-24, .cls-3, .cls-5, .cls-6 {
        fill: none;
      }

      .cls-2 {
        fill: #7cd179;
      }

      .cls-3 {
        stroke: #ccc;
        stroke-width: 40px;
      }

      .cls-4 {
        fill: #ccc;
      }

      .cls-5, .cls-6 {
        stroke: #fff;
      }

      .cls-12, .cls-5, .cls-6 {
        stroke-linecap: round;
      }

      .cls-12, .cls-13, .cls-34, .cls-5, .cls-6 {
        stroke-miterlimit: 10;
      }

      .cls-5 {
        stroke-width: 2px;
      }

      .cls-6 {
        stroke-width: 4px;
      }

      .cls-12, .cls-7 {
        fill: #fff;
      }

      .cls-8 {
        fill: #b7b6b6;
      }

      .cls-10, .cls-9 {
        fill: #363;
      }

      .cls-10 {
        fill-rule: evenodd;
      }

      .cls-11 {
        clip-path: url(#clip-path);
      }

      .cls-12, .cls-13 {
        stroke: #333;
      }

      .cls-12 {
        stroke-width: 5.318px;
      }

      .cls-13 {
        stroke-width: 0.76px;
      }

      .cls-14 {
        fill: #666;
      }

      .cls-15 {
        fill: #f90;
      }

      .cls-16 {
        fill: #478491;
      }

      .cls-17 {
        fill: #cff;
      }

      .cls-18 {
        fill: #e0b837;
      }

      .cls-19 {
        fill: #5f2a91;
      }

      .cls-20 {
        fill: #dbaade;
      }

      .cls-21 {
        fill: #82cdde;
      }

      .cls-22 {
        fill: #86c16d;
      }

      .cls-23 {
        fill: #e2c342;
      }

      .cls-24 {
        stroke: #707070;
        stroke-width: 3px;
      }

      .cls-25 {
        fill: #f7ccb6;
      }

      .cls-26, .cls-34 {
        fill: #efdbbf;
      }

      .cls-27 {
        fill: #262424;
      }

      .cls-28 {
        fill: #a06b3f;
      }

      .cls-29 {
        fill: #ed8254;
      }

      .cls-30 {
        fill: red;
      }

      .cls-31 {
        fill: #2c3135;
      }

      .cls-32 {
        fill: #6b6765;
      }

      .cls-33 {
        fill: #1d679d;
      }

      .cls-34 {
        stroke: #ceae80;
        stroke-width: 1.034px;
      }

      .cls-35 {
        fill: #1a4c96;
      }

      .cls-36 {
        fill: #37a57e;
      }

      .cls-37 {
        fill: #999;
      }

      .cls-38 {
        fill: #090;
      }
    </style>
    <clipPath id="clip-path">
      <rect class="cls-1" width="1925.24" height="163.371"/>
    </clipPath>
  </defs>
  <g id="Group_55" data-name="Group 55" transform="translate(0 7560)">
    <path id="Path_216" data-name="Path 216" class="cls-2" d="M0,0H1920V1081H0Z"/>
  </g>
  <path id="Path_783" data-name="Path 783" class="cls-3" d="M1703.271,7712.138H1304.505s-159.6,1.208-213.844,126.5" transform="translate(0 2.362)"/>
  <path id="Path_220" data-name="Path 220" class="cls-1" d="M223.4,41.9c0-3.1,2.1-3.8,3.5-3.8h8.9V24.4H223.5c-13.6,0-16.7,10.2-16.7,16.7v9.1h-7.9V64.3h7.9v39.9h16.6V64.3h11.2l1.5-14.1H223.5V41.9Z" transform="translate(1137 7997)"/>
  <g id="Group_64" data-name="Group 64" transform="translate(247 -411)">
    <circle id="Ellipse_24" data-name="Ellipse 24" class="cls-4" cx="63.8" cy="63.8" r="63.8" transform="translate(1446 8062.5)"/>
    <path id="Path_223" data-name="Path 223" class="cls-5" d="M388.3,33.9a23.268,23.268,0,0,1,16.2,16.5" transform="translate(1137 8061)"/>
    <path id="Path_224" data-name="Path 224" class="cls-6" d="M387,21.4a43.33,43.33,0,0,1,30,30.5" transform="translate(1137 8061)"/>
    <path id="Path_225" data-name="Path 225" class="cls-7" d="M398.1,60.8A20.253,20.253,0,0,0,390,44.9c-1.3-1.1-14.5-11.9-30.3-1.1-.9.5-7.1,4.4-8.4,11.4a8.6,8.6,0,0,0-1.6.1c-8.3,1.3-12.9,7.4-12.9,17.1,0,11.2,9.9,14.5,15.2,14.7h43.2c4.4,0,13.7-3.2,14.2-13.2C409.8,65.8,402.7,62,398.1,60.8Zm-3,21.6H352c-1.1,0-10.5-.7-10.5-10,0-7.4,2.9-11.4,8.9-12.4,3.6-.6,8.6,2,10.2,3a2.385,2.385,0,1,0,2.6-4,30.716,30.716,0,0,0-7.2-3.2c1.2-5,6.1-7.9,6.2-8l.2-.1c13.4-9.2,24.1.3,24.6.7l.2.1c10,7.7,5.2,19.5,5,20a2.348,2.348,0,0,0,1.2,3.1,2.92,2.92,0,0,0,.9.2,2.4,2.4,0,0,0,2.2-1.4,23.075,23.075,0,0,0,1.4-4.8c2.5.8,7.2,3,6.9,8C404.2,81.9,395.2,82.4,395.1,82.4Z" transform="translate(1137 8061)"/>
  </g>
  <g id="Group_65" data-name="Group 65" transform="translate(247 -411)">
    <path id="Path_222" data-name="Path 222" class="cls-4" d="M217.5,0A64.55,64.55,0,1,0,282,64.6,64.571,64.571,0,0,0,217.5,0Z" transform="translate(1137 8061)"/>
    <path id="Path_227" data-name="Path 227" class="cls-7" d="M234.5,64.3H223.3v39.9H206.7V64.3h-7.9V50.2h7.9V41.1c0-6.5,3.1-16.7,16.7-16.7h12.3V38.1h-8.9c-1.5,0-3.5.7-3.5,3.8v8.3H236Z" transform="translate(1137 8061)"/>
  </g>
  <g id="Group_66" data-name="Group 66" transform="translate(247 -411)">
    <path id="Path_221" data-name="Path 221" class="cls-4" d="M63.8,1.7a63.8,63.8,0,1,0,63.8,63.8A63.782,63.782,0,0,0,63.8,1.7Z" transform="translate(1137 8061)"/>
    <path id="Path_228" data-name="Path 228" class="cls-7" d="M84.8,31.8H42.2A13.4,13.4,0,0,0,28.8,45.2V87.8a13.4,13.4,0,0,0,13.4,13.4H84.8A13.4,13.4,0,0,0,98.2,87.8V45.2A13.4,13.4,0,0,0,84.8,31.8Z" transform="translate(1137 8061)"/>
    <path id="Path_229" data-name="Path 229" class="cls-7" d="M98.2,59.3V87.7a13.4,13.4,0,0,1-13.4,13.4H42.2A13.4,13.4,0,0,1,28.8,87.7V45.2A13.4,13.4,0,0,1,42.2,31.8H84.8A13.4,13.4,0,0,1,98.2,45.2V59.3Z" transform="translate(1137 8061)"/>
    <path id="Path_230" data-name="Path 230" class="cls-1" d="M88.6,39.8h1.5V51.5H78.4V39.7Zm-35,19.5a12.159,12.159,0,0,1,19.8,0,12.523,12.523,0,0,1,2.3,7.1,12.2,12.2,0,0,1-24.4,0A12.773,12.773,0,0,1,53.6,59.3ZM91.4,87.8a6.594,6.594,0,0,1-6.6,6.6H42.2a6.594,6.594,0,0,1-6.6-6.6V59.3H46a18.724,18.724,0,0,0-1.4,7.1,19,19,0,0,0,38,0,18.724,18.724,0,0,0-1.4-7.1H91.6V87.8Z" transform="translate(1137 8061)"/>
    <path id="Path_231" data-name="Path 231" class="cls-8" d="M90.2,51.5V39.8H78.4l.1,11.8Z" transform="translate(1137 8061)"/>
    <path id="Path_232" data-name="Path 232" class="cls-8" d="M63.5,78.7a12.178,12.178,0,0,0,9.9-19.3,12.159,12.159,0,0,0-19.8,0,12.523,12.523,0,0,0-2.3,7.1A12.249,12.249,0,0,0,63.5,78.7Z" transform="translate(1137 8061)"/>
    <path id="Path_233" data-name="Path 233" class="cls-8" d="M82.5,66.5a19,19,0,0,1-38,0,18.724,18.724,0,0,1,1.4-7.1H35.6V87.8a6.594,6.594,0,0,0,6.6,6.6H84.8a6.594,6.594,0,0,0,6.6-6.6V59.3H81.1A19.631,19.631,0,0,1,82.5,66.5Z" transform="translate(1137 8061)"/>
  </g>
  <g id="Group_176" data-name="Group 176" transform="translate(922 8060.004)">
    <g id="Group_175" data-name="Group 175">
      <path id="Path_537" data-name="Path 537" class="cls-9" d="M159.1,117.5s-8.8,8.3-16.1,3.1c-7.3-5.3-6.1-10.2-6.1-10.2s-1.5-13.8,13.6-25.6c3.8-3,9.8-1.7,9.8-1.7s5.1.7,6.1,4.4-4.6,3.6-4.6,3.6a31.07,31.07,0,0,1-2.5-2c-2-1.5-5,.4-7.4,2.3s-10.3,10.3-8.2,21.6c.4,2.3,3.9,4.3,7.5,2.9a17.67,17.67,0,0,0,3.4-1.9s2.2-.3,3.4.7C159.1,115.8,160.3,116.2,159.1,117.5Z"/>
      <path id="Path_538" data-name="Path 538" class="cls-9" d="M172.2,113.4H159.3s-3.9-1-1.7-5.4c2.2-4.5,10.1-19.8,17.4-24.4,0,0,.2-.6,4.5-.8a19.6,19.6,0,0,1,3.2.4s2.7.8,2.3,3.3c-.3,2.5-2.5,19.8-5.7,33.9l-5.3.1s-.7-.1-.2-1.6c.6-1.5,4.4-19.1,4.5-24.4s-2.1-4.5-2.1-4.5-5.4,2.4-10.9,17c0,0-.6.7.3.8s7.8.2,7.8.2.7-.3.7.6l-1.1,4.3C173.3,112.8,173,113.4,172.2,113.4Z"/>
      <path id="Path_539" data-name="Path 539" class="cls-9" d="M182.4,120.5s-1.2,0-.8-1.3,8.6-34.9,15.2-36.3a31.383,31.383,0,0,1,13.3.5s2.5,1,2.5,3c.1,2,1.3,7.9-1.2,11.3a31.2,31.2,0,0,1-10.4,9.2l6.1,12.4s.6.7-.6.9l-3.3.1s-5.2-2.5-8.8-16.9c0,0-.6-1.4,1.5-1.5s8.8-1.3,9.9-7-3.3-5.7-3.3-5.7-2.4-.5-3.9,2.9-4.7,6.1-11.4,27.4c0,0-.2,1-1,1.1C185.6,120.7,182.4,120.5,182.4,120.5Z"/>
      <path id="Path_540" data-name="Path 540" class="cls-9" d="M212.1,115.9l-4.9.1s-1.4-.3-.7-1.4c.7-1.2,7.7-19.7,15.4-27.9a16.161,16.161,0,0,1,3.4-2.8,10.3,10.3,0,0,1,10.3.6,6.445,6.445,0,0,1,.7,4.6c-.4,3-3.3,22.3-5.2,30.1,0,0,.1.9-.7.9-.8.1-4.7.1-4.7.1s-1.2-.1-.7-1.1,4.7-21.3,4.1-26.9c-.7-5.6-4.7,1.2-4.7,1.2a58.122,58.122,0,0,0-7.4,13.8s-.9,1,.1,1.1c1.1.1,7.7,0,7.7,0s1-.1.7,1-1.4,3.9-1.4,3.9a1.447,1.447,0,0,1-1,.3c-.7,0-8.9-.1-8.9-.1s-.4-.2-.7.6l-.9,1.3A.564.564,0,0,1,212.1,115.9Z"/>
      <path id="Path_541" data-name="Path 541" class="cls-9" d="M240,121s-5.3.7-5.1-2.8c.3-3.5,4.4-23.1,3.7-29s3.4-6.4,3.4-6.4,3.5-.6,3.9,2-4.2,27.1-4.2,27.1-1.4,3.7-.1,2.9c5.4-3.3,14.1-23.4,14.1-23.4s4.2-7.5,7-8.7,3.5.4,3.5.4.3.6-.7,2.5c-1,2-9.2,22.5-20,32.3A12.922,12.922,0,0,1,240,121Z"/>
      <path id="Path_542" data-name="Path 542" class="cls-9" d="M256.9,120.5s-.2.3-1.5.3c-1.1,0-4.1-.3-4.1-.3a2.458,2.458,0,0,1,0-2.2c.7-1.2,14.5-28.2,17.8-31.7a13.991,13.991,0,0,1,3.4-2.8,10.3,10.3,0,0,1,10.3.6,6.445,6.445,0,0,1,.7,4.6c-.4,3-3.3,22.3-5.2,30.1,0,0-.1,1.5-.9,1.6s-4.7.1-4.7.1a1.386,1.386,0,0,1-.5-1.7c.5-1,4.7-21.3,4.1-26.9-.7-5.6-4.7,1.2-4.7,1.2a62.866,62.866,0,0,0-7.4,13.8s-.9,1,.1,1.1c1.1.1,7.7,0,7.7,0s1-.1.7,1-1.4,3.8-1.4,3.8a1.447,1.447,0,0,1-1,.3c-.7,0-8.9-.1-8.9-.1s-.4-.2-.7.6l-.9,1.3S257.3,120.4,256.9,120.5Z"/>
      <path id="Path_543" data-name="Path 543" class="cls-9" d="M281.5,120.5s-1.7.4-1.2-1.4,7.2-27.7,12.3-33.6,8.5-2.9,8.5-2.9,2.1,1.5,1.6,3.6c-.4,2-1.1,15.4-.2,20.6s2.4-1.9,2.4-1.9,4.3-12,5.5-17.5,5.2-5.1,5.2-5.1,3.5,0,2.8,3.4-7.3,23.6-11.9,31.7c-1.7,3-2.9,2.9-2.9,2.9s-5.7.1-6.5-.9c-.6-.5-.6-2.7-.6-2.7l.1-22.3s-6.6,13.3-10,25.5c0,0,.2.8-.9.9C284.7,120.7,281.5,120.5,281.5,120.5Z"/>
    </g>
    <path id="Path_544" data-name="Path 544" class="cls-10" d="M1.2.3H57.5l2.1,10.8H35.4s-1.7-.1-1.1,1.7l2.9,10.5s0,1.6,2,1.3H62.6l2.1,11.7H42.2s-1.7-.4-.7,1.5L47,58.1H21.3Z"/>
    <path id="Path_545" data-name="Path 545" class="cls-9" d="M68,1.6S67.6,0,68.7,0h54.6s.7-.1.7,1c0,1.3.6,11.4.6,11.4s.1.7-.6.6H99l2,11.1h23.8s1.1-.2,1.3,1.3l.3,12.5s-.1.7-1.1.6H102.1l1.2,7.5h24.4s.9-.2.8.9l.6,10.1s.1.8-.9.8c0,0-31.5,0-43.9.1-3,0-5-.1-5-.1s-.8.4-1.1-1.1c0,0-8.1-43-9.9-53C68.1,2.4,68,1.6,68,1.6Z"/>
    <path id="Path_546" data-name="Path 546" class="cls-9" d="M133.7,1.1s-.2-1.1.5-1h31s.7-.2,1.2.7,21.2,30.3,21.2,30.3l.5-30s-.2-1.1.6-1.1h17.4a.712.712,0,0,1,.8.8s-3.2,40.7-4.1,52.5c-.2,2-.3,3.2-.3,3.2s0,1.3-1.1,1.2h-27s-1,.1-1.3-.7L151.4,27l1.7,29.8a.815.815,0,0,1-.9,1H138.9a1,1,0,0,1-1.2-.8c-.2-1-3.3-46.3-3.8-54.6A5.944,5.944,0,0,1,133.7,1.1Z"/>
    <path id="Path_547" data-name="Path 547" class="cls-9" d="M295,57.8s-2,.1-1.6-1.4,12.5-43.5,12.5-43.5H291.8s-1.3.1-1.1-1.4c.2-1.2,1.3-7.3,1.8-9.6.1-.6.2-1,.2-1s0-.9,1.2-.9h60.9s1.2-.1.9.9c-.3.8-2.4,8-3.1,10.6l-.3.9a1.186,1.186,0,0,1-1.3,1H335.7L321.6,56.2s-.1,1.5-1.2,1.5H297.1C295.7,57.8,295,57.8,295,57.8Z"/>
    <path id="Path_548" data-name="Path 548" class="cls-9" d="M212.4,57.8s-1.6.4-1.5-1.1c.1-1.2,4.1-43.4,5.1-53.6.1-1.4.2-2.2.2-2.2a.881.881,0,0,1,.9-.9c1.2.1,52.1,0,54.3,0,.1,0,16.2,0,13.8,15.2L280,42.6s-1.8,15.2-19.2,15.2Zm29.4-43.5-4.4,32.6h12a4.108,4.108,0,0,0,3.9-2.9c.9-3.1,3.8-27.3,3.8-27.3s.1-2.2-2.7-2.3C251.7,14.2,241.8,14.3,241.8,14.3Z"/>
    <rect id="Rectangle_300" data-name="Rectangle 300" class="cls-9" width="297.4" height="1.4" transform="translate(22.1 69.5)"/>
  </g>
  <g id="Group_174" data-name="Group 174" transform="translate(1397 7897.004)">
    <path id="Path_529" data-name="Path 529" class="cls-9" d="M10.4,210.2H0v47.6H23.9v-8.6H10.4Z"/>
    <path id="Path_530" data-name="Path 530" class="cls-9" d="M28.9,257.8H55.8v-8.6H39.3V237.8H55.8V229H39.3V218.9H55.8v-8.7H28.9Z"/>
    <path id="Path_531" data-name="Path 531" class="cls-9" d="M97.6,210.2l-7.8,24c-.7,2.3-1.4,4.6-2,6.9-.5-2.4-1.1-4.8-1.8-7.1l-7.4-23.8H68l-6.9,47.7h10c1.4-10.8,2.9-21.5,3.8-32.4a49.692,49.692,0,0,0,1.9,7.6l8.1,24.8h5.6l8.3-24.2c.9-2.6,1.6-5.4,2.4-8.1.1,2,.2,4,.4,6l3.1,26.4h10l-6.5-47.7H97.6Z"/>
    <path id="Path_532" data-name="Path 532" class="cls-9" d="M141.2,209c-14.3,0-25.4,10.4-25.4,24.9,0,14.6,11.3,25.2,25.7,25.2,14.3,0,25.3-10.8,25.3-25.2C166.8,219.2,155.6,209,141.2,209Zm0,41c-8.6,0-14.9-7.6-14.9-15.9,0-8.5,6.4-16,15.1-16,8.6,0,14.9,7.5,14.9,15.8S149.8,250,141.2,250Z"/>
    <path id="Path_533" data-name="Path 533" class="cls-9" d="M203.6,236.5c0,2.1.1,4.2.2,6.4-.8-1.4-1.9-2.7-2.8-4l-20.8-28.7H170.1v47.7h10.4V233.4q0-3.75-.3-7.5c.9,1.4,1.8,2.8,2.8,4.1l20.9,27.9H214V210.2H203.7v26.3Z"/>
    <path id="Path_534" data-name="Path 534" class="cls-9" d="M233.5,210.2l-16.6,47.7h10.5l3.3-10.4h16.4l3.1,10.4h10.4L244,210.2Zm0,29.3c1.9-6.1,4.3-12.2,5.3-18.6a51.707,51.707,0,0,0,1.6,6.8l3.8,11.9H233.5Z"/>
    <rect id="Rectangle_299" data-name="Rectangle 299" class="cls-9" width="10.4" height="47.7" transform="translate(264.3 210.2)"/>
    <path id="Path_535" data-name="Path 535" class="cls-9" d="M312.8,213.1c-4.5-2.6-9.3-2.9-14.4-2.9H283.7v47.7H298c5.4,0,10.9-.9,15.4-3.8,6.6-4.3,9.9-12.4,9.9-20.1C323.3,226,319.8,217.2,312.8,213.1Zm-14.3,36.1H294V218.9h4.6c8.9,0,14.1,6.7,14.1,15.2C312.8,242.8,307.6,249.2,298.5,249.2Z"/>
    <path id="Path_536" data-name="Path 536" class="cls-9" d="M356.8,195.4H338.5V177.1h-9.7v18.3H310.5v9.8h18.3v18.3h9.7V205.2h18.3Z"/>
  </g>
  <g id="Repeat_Grid_1" data-name="Repeat Grid 1" class="cls-11" transform="translate(-5.24 7829)">
    <g transform="translate(5.24 -7867)">
      <rect id="Rectangle_309" data-name="Rectangle 309" class="cls-4" width="965.24" height="160.371" transform="translate(-5.24 7867)"/>
      <g id="Group_227" data-name="Group 227" transform="translate(20.838 7939.896)">
        <rect id="Rectangle_267" data-name="Rectangle 267" class="cls-7" width="77.364" height="14.251" transform="translate(831.667 0)"/>
        <rect id="Rectangle_268" data-name="Rectangle 268" class="cls-7" width="77.364" height="14.251" transform="translate(693.048 0)"/>
        <rect id="Rectangle_269" data-name="Rectangle 269" class="cls-7" width="77.364" height="14.251" transform="translate(554.453 0)"/>
        <rect id="Rectangle_270" data-name="Rectangle 270" class="cls-7" width="77.364" height="14.251" transform="translate(415.834 0)"/>
        <rect id="Rectangle_271" data-name="Rectangle 271" class="cls-7" width="77.364" height="14.251" transform="translate(277.214 0)"/>
        <rect id="Rectangle_272" data-name="Rectangle 272" class="cls-7" width="77.364" height="14.251" transform="translate(138.62 0)"/>
        <rect id="Rectangle_273" data-name="Rectangle 273" class="cls-7" width="77.364" height="14.251" transform="translate(0 0)"/>
      </g>
    </g>
    <g transform="translate(970.24 -7867)">
      <rect id="Rectangle_309-2" data-name="Rectangle 309" class="cls-4" width="965.24" height="160.371" transform="translate(-5.24 7867)"/>
      <g id="Group_227-2" data-name="Group 227" transform="translate(20.838 7939.896)">
        <rect id="Rectangle_267-2" data-name="Rectangle 267" class="cls-7" width="77.364" height="14.251" transform="translate(831.667 0)"/>
        <rect id="Rectangle_268-2" data-name="Rectangle 268" class="cls-7" width="77.364" height="14.251" transform="translate(693.048 0)"/>
        <rect id="Rectangle_269-2" data-name="Rectangle 269" class="cls-7" width="77.364" height="14.251" transform="translate(554.453 0)"/>
        <rect id="Rectangle_270-2" data-name="Rectangle 270" class="cls-7" width="77.364" height="14.251" transform="translate(415.834 0)"/>
        <rect id="Rectangle_271-2" data-name="Rectangle 271" class="cls-7" width="77.364" height="14.251" transform="translate(277.214 0)"/>
        <rect id="Rectangle_272-2" data-name="Rectangle 272" class="cls-7" width="77.364" height="14.251" transform="translate(138.62 0)"/>
        <rect id="Rectangle_273-2" data-name="Rectangle 273" class="cls-7" width="77.364" height="14.251" transform="translate(0 0)"/>
      </g>
    </g>
  </g>
  <g id="Group_107" data-name="Group 107" transform="matrix(0.978, -0.208, 0.208, 0.978, 85.568, 7624.737)">
    <path id="Path_289" data-name="Path 289" class="cls-7" d="M129.9,54.1c13.9,29.8,15.7,43.4,17.6,53.5,1.4,10.2,2.9,16.9,5,35.9-9.6,10-18.9,19.7-28,28.9-.3.2,1.5-21.3-4-45.5-4.9-24.3-17.1-51.3-30.5-63.4A140.789,140.789,0,0,0,61.4,44c-16.7-8.9-39-15.6-52.7-13.2-27.4,4.5,19.1-7.2,19.1-7.2-3.9-2.8-7.9-5.4-12-8,7.8-2.1,15.5-4.2,23.2-6.3C29.2,6.5,19,4,8.6,2a145.073,145.073,0,0,1,45.6-.4C80,5.6,112.4,18.4,129.9,54.1Z"/>
    <line id="Line_37" data-name="Line 37" class="cls-12" x1="34.4" y2="34" transform="translate(122.7 141)"/>
    <path id="Path_290" data-name="Path 290" class="cls-13" d="M125.9,175.4l37.2,3.1-6.4-34.3"/>
    <g id="Group_103" data-name="Group 103">
      <path id="Path_291" data-name="Path 291" class="cls-14" d="M251,165.4l7-7.8a3.811,3.811,0,0,1,5.4-.3l33.7,30.3a3.811,3.811,0,0,1,.3,5.4l-7,7.8a3.811,3.811,0,0,1-5.4.3l-33.7-30.3A3.8,3.8,0,0,1,251,165.4Z"/>
      <path id="Path_292" data-name="Path 292" class="cls-14" d="M153.1,274.4l7-7.8a3.811,3.811,0,0,1,5.4-.3l33.7,30.3a3.811,3.811,0,0,1,.3,5.4l-7,7.8a3.811,3.811,0,0,1-5.4.3l-33.7-30.3A3.721,3.721,0,0,1,153.1,274.4Z"/>
    </g>
    <path id="Path_293" data-name="Path 293" class="cls-15" d="M271.4,276.2h0c.1,0,.2-.1.5-.5l.5-.5h-.1c3-3.9,11.7-17.6-1.5-29.5L197,194.3s-21.8-19.6-31.2-14.9l-.3-.2c-.1.2-.3.4-.4.6-.2.1-.4.3-.6.4l.3.2c-3.7,9.8,18.1,29.4,18.1,29.4l58.9,68C255.1,289.7,267.8,279.6,271.4,276.2Z"/>
    <path id="Path_294" data-name="Path 294" class="cls-16" d="M305.6,156.9s-17.5-13.9-24.1-6.6l-65.7,57.2,36.5,25.4h0l55-61.2C307.4,171.6,312.9,163.4,305.6,156.9Z"/>
    <path id="Path_295" data-name="Path 295" class="cls-16" d="M148.2,298.6c-6.5,7.3,9.1,23.2,9.1,23.2,7.3,6.5,14.8.2,14.8.2l55-61.2L198,227.2Z"/>
    <g id="Group_104" data-name="Group 104">
      <path id="Path_296" data-name="Path 296" class="cls-17" d="M241.3,272.5s17,11.8,27.3.4L240.9,248C240.9,247.9,231.7,263.9,241.3,272.5Z"/>
      <path id="Path_297" data-name="Path 297" class="cls-17" d="M241,247.8l27.7,24.9c10.3-11.5-3.3-27.1-3.3-27.1C255.9,237,241,247.8,241,247.8Z"/>
    </g>
    <path id="Path_298" data-name="Path 298" class="cls-16" d="M157.4,173.5s-2.4,2.7,4.8,9.3l19.4,11.8-13.8-18C167.9,176.5,160.2,170.4,157.4,173.5Z"/>
    <circle id="Ellipse_31" data-name="Ellipse 31" class="cls-7" cx="9.1" cy="9.1" r="9.1" transform="translate(245.6 245.1)"/>
    <g id="Group_105" data-name="Group 105">
      <path id="Path_299" data-name="Path 299" class="cls-7" d="M286.3,186a.774.774,0,0,1-.3-.1c-.1,0-.1-.1-.2-.2l-.2-.2c-.2-.2-.2-.3-.3-.3a1.439,1.439,0,0,1,.2-.3l.1-.1a5.984,5.984,0,0,1,.6-.7l1-1.3-1.5-1.4a3.806,3.806,0,0,0-.6-.5c-.1,0-.1-.1-.2-.2l-.2-.2-.1-.1c-.1-.1-.3-.2-.5-.4l-.4-.4q-.3-.15-.3-.3l-.9-.7c-.1,0-.5.5-.8.7l-.4.4-.1.1c-.1.1-.2.2-.3.2-.1.1-.2-.1-.4-.2-.1,0-.2-.1-.3-.2s-.1-.1-.1-.2l-.2-.2,1.4-1.7-2.8-2.5-1.1,1.1a8.37,8.37,0,0,1-1,1c-.1.1-.3-.1-.7-.5l-.3-.3.4-.4c0-.1.1-.2.4-.4l.6-.6,1.6-1.7a2.053,2.053,0,0,1,.7.5l.4.4.4.3a7.637,7.637,0,0,1,.9.9l.3.3.7.7a4.516,4.516,0,0,1,.7.7,3.19,3.19,0,0,0,.7.6l.1.1a.1.1,0,0,0,.1.1l.3.3c.1.1.2.2.3.2l.1.1.1.1a8.178,8.178,0,0,0,.9.8,20.1,20.1,0,0,0,2.1,1.8,7.006,7.006,0,0,1,1.4,1.5,2.053,2.053,0,0,1-.5.7l-.1.1a5.008,5.008,0,0,0-.7.8c-.4.4-.8.9-.9,1s-.2.1-.3.3c.3.4.2.4.2.5Z"/>
      <path id="Path_300" data-name="Path 300" class="cls-7" d="M284.4,187.8h0c-.1-.1-.1-.1-.2-.1s-.1-.1-.2-.1c0-.1-.1-.1-.1-.2l-.2-.2c-.1,0-.1-.1-.3-.2l-.4-.3c-.1-.2-.2-.2-.3-.3s-.3-.2-.5-.4c-.3-.3-.6-.5-.8-.7l-.4-.4-.2-.2c-.1-.1-.2-.1-.2-.2l-.3-.3-.2-.1c-.1-.1-.6-.6-1.5-1.4a3.743,3.743,0,0,0,.6,1l1,1.6a4.429,4.429,0,0,1,.6,1c.3.5.9,1.3,1.6,2.4a1.38,1.38,0,0,1,.3.4,1.439,1.439,0,0,1,.2.3v.2l-.3.3c-.2.2-.3.3-.3.4l-.1.1-.2.1h0v-.2c0-.1-.1-.2-.2-.4l-2.2-3.6-2-3.3h0l-.1-.1-.8-.3a20.479,20.479,0,0,1-2.9-.9l-.3-.1a.756.756,0,0,0-.4-.1l-.6-.2a4.535,4.535,0,0,1-.8-.3h0a.619.619,0,0,1,.2-.4c.1-.1.1-.2.2-.2l.2-.2c.2-.1.3-.2.4-.2s.1,0,.2.1c.1,0,.2.1.6.2l.7.2a3.225,3.225,0,0,1,.6.2l.5.2.3.1c.1,0,.2.1.3.1l.2.1a.349.349,0,0,1,.2.1l.2.1a.367.367,0,0,1,.3.1c.2,0,.3.1.4.1l.3.1-.6-.6-.1-.1a1.537,1.537,0,0,0-.6-.4l-.5-.5c-.5-.4-.8-.7-1.3-1.1l-.3-.3a.619.619,0,0,1,.2-.4,2.182,2.182,0,0,1,.4-.5c.1-.1.2-.2.2-.1h0a.1.1,0,0,1,.1.1l.1.1.1.1.3.2,1.2,1.1.5.4.2.2a1.38,1.38,0,0,1,.3.4l.3.3.6.6,1,.9.8.7,1.4,1.3a5.008,5.008,0,0,1,.8.7,6.469,6.469,0,0,1,.9.8q.75.6,1.8,1.5s0,.1-.2.3a1.38,1.38,0,0,0-.3.4c-.1,0-.1,0-.2.1l-.1.1h0C284.5,187.8,284.4,187.8,284.4,187.8Z"/>
      <path id="Path_301" data-name="Path 301" class="cls-7" d="M270.6,192.2l-.2-.2a.349.349,0,0,0-.2-.1.1.1,0,0,1-.1-.1l-.4-.4h0l.1-.1a.1.1,0,0,0,.1-.1,1.238,1.238,0,0,0,.2-.3l.2-.3.2-.2.2-.2.4-.5a.769.769,0,0,0,.2-.3c.1-.1.2-.2.2-.3l.2-.2.8-.9.2.2.2.2.1.1.4.3a8.37,8.37,0,0,0-1,1l-.1.1c0,.1-.1.2-.3.4l-.1.1-.2.2-.2.2a3.808,3.808,0,0,0-.5.6l-.4.4Z"/>
      <path id="Path_302" data-name="Path 302" class="cls-7" d="M261.3,192.4l.3-.3c.4-.4.6-.6.9-.6s.5.1.9.5l.2.1.2.2.2.2.8.7.5.5a23.134,23.134,0,0,1,1.8,3.5l1.4,3.2a4.073,4.073,0,0,0,.6,1.1l.3.3c.3.3.6.5.9.4a.55.55,0,0,0,.5-.3.722.722,0,0,0,.1-.9,2.187,2.187,0,0,0-.3-.5l-.1-.1a2.01,2.01,0,0,0-.8-.4h0c-.1-.1,0-.2.2-.4a3.039,3.039,0,0,1,.7-.5,4.7,4.7,0,0,1,.9.6,2.855,2.855,0,0,1,.7,1,1.268,1.268,0,0,1,.1.6,3.287,3.287,0,0,1-.7,1.6,1.563,1.563,0,0,1-1.2.6H270a1.135,1.135,0,0,1-.8-.3c-.1,0-.1-.1-.2-.1l-.2-.2-.1-.1-.1-.1c-.8-.9-1.2-2.2-2.2-4.3a32.328,32.328,0,0,0-2.2-4.1,6.035,6.035,0,0,0-.8-.8,1.38,1.38,0,0,1-.4-.3c-.2-.1-.4,0-.7.4l-.5.6-.3.3-.3.3-.1.1a.349.349,0,0,0-.1.2c-.1.1-.1.1-.1.2l-.1.1-.1.1-.1.1h-.1l-.1-.1-.3-.3c-.1-.1-.2-.2-.3-.2l-.1-.1a.367.367,0,0,1,.1-.3l.4-.4.2-.2.8-.8a.586.586,0,0,1,.1-.8Z"/>
      <path id="Path_303" data-name="Path 303" class="cls-7" d="M263.8,199.8l.5.5.4.4.4.4q.3.15.3.3l.5.5a4.3,4.3,0,0,1,.7.7c0,.1.1.1.2.2l.1.1a2.362,2.362,0,0,1,.6.9,6.4,6.4,0,0,1,.6,1.1c.1.3.1.6.2,1a1.268,1.268,0,0,1-.1.6.52.52,0,0,1-.2.4c0,.1-.1.1-.2.2l-.1.1a1.891,1.891,0,0,1-1.8.3,5.047,5.047,0,0,1-1.7-1,3.806,3.806,0,0,0-.6-.5,1.381,1.381,0,0,0-.4-.3c-.2-.1-.3-.3-.4-.4l-.5-.4a2.652,2.652,0,0,0-.6-.5l-.9-.8-.2-.2c-.1-.1-.2-.1-.2-.2l-.2-.2H260l-.5-.5-.2-.2a3.19,3.19,0,0,0-.7-.6c-.4-.4-.6-.6-.6-.7a1.38,1.38,0,0,1-.3-.4l-.2-.2c-.1-.1-.1-.2-.2-.3s-.2-.2-.2-.3-.1-.1-.1-.3c-.1-.1-.1-.2-.2-.3a.764.764,0,0,1-.2-.5,1.387,1.387,0,0,1,0-.9c0-.1,0-.1.1-.2,0-.1,0-.2.1-.2.1-.2.1-.3.2-.5l.1-.1.3-.3.1-.1a1.381,1.381,0,0,1,.4-.3.764.764,0,0,1,.5-.2.446.446,0,0,1,.5,0,1.421,1.421,0,0,1,.6.2c.3.1.5.3.6.3.2.1.4.3.7.5a7.362,7.362,0,0,0,.6.5l.7.6.3.3.3.3.6.5Zm2.5,6.6a.756.756,0,0,0,.4-.1,1.689,1.689,0,0,0,.2-.5v-.3a.367.367,0,0,0-.1-.3.774.774,0,0,0-.1-.3l-.1-.3c-.1-.2-.2-.3-.3-.5a2.182,2.182,0,0,0-.4-.5l-.5-.5-.5-.5-.6-.5-.5-.4-.2-.2c-.1-.1-.1-.1-.2-.1l-.2-.2-.3-.2c-.2-.2-.6-.6-1.2-1.1a10.021,10.021,0,0,0-1.2-1.1l-.1-.1a3.191,3.191,0,0,1-.7-.6c-.3-.2-.5-.4-.7-.5a.367.367,0,0,0-.3-.1h-.2a.31.31,0,0,0-.2.1.349.349,0,0,0-.2.1.52.52,0,0,0-.4.2c-.1.2-.3.3-.3.5a.9.9,0,0,0-.1.5,4.331,4.331,0,0,1,.1.5c0,.1.2.3.3.5a27.421,27.421,0,0,0,2.6,2.6l.4.4.2.2.7.6a3.806,3.806,0,0,0,.6.5l.6.5.5.5a2.181,2.181,0,0,0,.5.4c.1.1.2.2.3.2l.1.1a.1.1,0,0,0,.1.1c.1.1.2.1.2.2a.31.31,0,0,0,.2.1c.1.1.3.1.5.3A1.8,1.8,0,0,1,266.3,206.4Z"/>
      <path id="Path_304" data-name="Path 304" class="cls-7" d="M262.9,210.6c-.5-.4-1.1-1.1-1.5-1.4-.1-.1-.2-.1-.3-.3l-.3-.3-.6-.7-.7-.7-.9-.8-.4-.4-.4-.4-.5-.5-.2-.2-.7-.6c-1.6-1.5-2.4-2.2-2.7-2.5l-.1-.1-.1-.1h0v-.2l.1-.1a.1.1,0,0,1,.1-.1c.2-.2.7-.6.7-.6l5.1,4.6c.7.6,1.1,1,1.8,1.6l.5.5c.1.1.2.1.3.3l.2.2c.7.6.7.6.9.8v-.4a.756.756,0,0,1,.1-.4v-.4a.367.367,0,0,1,.1-.3.349.349,0,0,1,.1-.2h.1l.7.6c.2.2.2.2.1.4a3.729,3.729,0,0,0-.2,1.2c0,.2.1.3.1.4l.4.4v.1a.1.1,0,0,0-.1.1l-.1.1c0,.1,0,0-.1.1l-.2.2h0c-.2.2-.3.2-.3.2C263.4,211,263.2,210.8,262.9,210.6Z"/>
      <path id="Path_305" data-name="Path 305" class="cls-7" d="M250.7,207.6a4.129,4.129,0,0,1-.7-1.1,1.672,1.672,0,0,1-.1-1.2,2.515,2.515,0,0,1,.7-1.2l.2-.2c.1-.1.1-.1.1-.2h0a1.793,1.793,0,0,1,1.3-.5,4.472,4.472,0,0,1,2.2,1.3l.2.2.2.2c.1.1.2.1.2.2l.1.1c.1.1.3.2.3.3l.5.4.5.5c.2.2.4.3.5.4l.3.3.2.2c0,.1.1.1.2.2l2.5,2.2c.1.1.2.1.3.3l.2.2.4.4c.1.1.2.3.4.4.1.2.2.3.2.4a.31.31,0,0,0,.1.2.367.367,0,0,1,.1.3,2.045,2.045,0,0,1,0,1.1,3.128,3.128,0,0,1-.5,1l-.1.1a5.5,5.5,0,0,1-.9.7.749.749,0,0,1-.5.1h-.2a1.268,1.268,0,0,1-.6-.1,1.689,1.689,0,0,0-.5-.2c-.3-.2-.3-.1-.1-.4l.4-.6c.1-.2.1-.2.4,0a.6.6,0,0,0,.4.1c.1,0,.1,0,.2-.1a.1.1,0,0,0,.1-.1c.1-.1.2-.1.3-.2l.1-.1c.1-.1.1-.1.1-.2.1-.2.1-.3.2-.4.1-.2,0-.6-.4-1.1a9.4,9.4,0,0,1-.8-.9l-.4-.4c-.2-.1-.3-.3-.4-.4a7.509,7.509,0,0,0-.8-.7v.3a2.239,2.239,0,0,1-.8,1.5,1.235,1.235,0,0,1-.8.4,3.22,3.22,0,0,1-2.2-.6,2.652,2.652,0,0,1-.6-.5.349.349,0,0,0-.2-.1l-.2-.2-.2-.2-.2-.2c-.1-.1-.1-.2-.3-.3l-.3-.2-.5-.5C251.3,208.3,251,207.9,250.7,207.6Zm1.1-.8.3.3a2.252,2.252,0,0,0,.5.5l.3.3.4.4a9.018,9.018,0,0,1,1,.9c.3.2.4.4.5.4.7.6,1.2.7,1.7.2l.1-.1a1.6,1.6,0,0,0,.3-.8,1.078,1.078,0,0,0-.2-.7,4.561,4.561,0,0,0-1.2-1.3c-.7-.6-1.3-1.1-1.8-1.6l-.1-.1a3.473,3.473,0,0,0-.9-.6c-.3-.2-.5-.2-1,0-.1.1-.2.1-.3.2l-.1.1-.1.1c-.2.4,0,.6.2,1.1v.2a.31.31,0,0,0,.1.2Z"/>
    </g>
    <g id="Group_106" data-name="Group 106">
      <path id="Path_306" data-name="Path 306" class="cls-18" d="M105.8,29.9a6.882,6.882,0,0,1,.2,1.3,4.485,4.485,0,0,1-.1,1.1,9.744,9.744,0,0,1-.5,1.1c-.4.8-1.9,2.1-4.6,3.9-.3.2-.5.3-.8.5a3.473,3.473,0,0,1-.9.6c-.3.2-.7.4-1,.6-.4.3-.8.6-1.1.8-.2.2-.5.3-.7.5a16.287,16.287,0,0,1-1.7,1.1c-.6.5-1.6,1.1-2.8,1.9a5.547,5.547,0,0,0-.8.6c-.5.3-1,.7-1.5,1-.2.1-.5.3-1,.6l-.9.6a18.916,18.916,0,0,1-2.1,1.2,3.919,3.919,0,0,1-.9.4c-.3.2-.6.3-.7.4a6.292,6.292,0,0,1-1.2.3,8.663,8.663,0,0,1-1,.2h-.3c-.2,0-.3-.1-.4-.1a.756.756,0,0,1-.4-.1.756.756,0,0,0-.4-.1,9.392,9.392,0,0,1-1.8-1.2c-.1-.1-.2-.2-.3-.2a4.821,4.821,0,0,1-.8-1,9.25,9.25,0,0,1-.5-1,.367.367,0,0,1,.1-.3c0-.1.1-.2.1-.3,0-.3.2-.5.3-.8.1-.1.3-.4.7-.9l2.1-2.1a7.364,7.364,0,0,0,.6-.5,3.807,3.807,0,0,0,.6-.5,3.807,3.807,0,0,1,.6-.5c.3-.2.4-.4.6-.5.1,0,.3-.2.5-.3.1-.1.3-.2.4-.3.2-.1.3-.2.5-.3.1,0,.1-.1.2-.1.1-.2.4-.3.8-.6a2.761,2.761,0,0,0,.8-.6l1.8-1.2A16.287,16.287,0,0,1,89.2,34q1.2-.75,1.8-1.2a.52.52,0,0,1,.4-.2c.3-.2.5-.3.8-.5a2.769,2.769,0,0,0,.8-.5c1.7-1,3.1-1.9,4.2-2.6.2-.1.7-.4,1.5-.8a2.507,2.507,0,0,0,.7-.4,1.628,1.628,0,0,0,.6-.3,4.331,4.331,0,0,1,.5-.1,1,1,0,0,1,.4-.1,3.445,3.445,0,0,1,.9-.1,4.083,4.083,0,0,1,1.6.4,9.292,9.292,0,0,1,1,.5,7.974,7.974,0,0,1,.8.6A6.575,6.575,0,0,1,105.8,29.9Zm-6.1.3a.349.349,0,0,0-.2.1c-.3.2-.5.4-.7.5-.1,0-.2.1-.3.2-.1,0-.1.1-.2.1a2.186,2.186,0,0,0-.5.3c-.1,0-.2.1-.3.2l-.2.2h-.1a.1.1,0,0,0-.1.1c-.1.1-.4.2-.7.4a3.807,3.807,0,0,1-.6.5c-.2.2-.5.3-.7.5-.5.4-1,.7-1.6,1.1-.5.4-1.1.7-1.6,1.1-.5.3-1,.7-1.5,1-.2.2-.5.3-.7.5-.3.2-.5.4-.7.5a1.521,1.521,0,0,0-.6.4,6.817,6.817,0,0,0-.7.5c-1,.7-2.3,1.6-3.9,2.8q-.6.45-1.5,1.2a4.7,4.7,0,0,0-1,1.1c-.1.1-.3.4-.7.9-.1.3-.2.5-.1.7a.908.908,0,0,0,.3.7,3.329,3.329,0,0,0,.6.3,2.4,2.4,0,0,0,1.2,0,20.832,20.832,0,0,0,2.5-1.3,7.232,7.232,0,0,0,1.4-.9c.4-.2,1.1-.7,1.9-1.2a5.547,5.547,0,0,0,.8-.6c.2-.1.4-.3.6-.4.1-.1.2-.1.3-.2.2-.1.5-.3,1-.6a2.092,2.092,0,0,0,.6-.4,1,1,0,0,0,.5-.4c.5-.4.9-.6,1.1-.8a16.444,16.444,0,0,1,2.2-1.4,11.164,11.164,0,0,0,1.7-1.2,3.508,3.508,0,0,1,.8-.5,2.74,2.74,0,0,1,.7-.4A5.67,5.67,0,0,1,100,35a13.045,13.045,0,0,0,3-2.5,1.645,1.645,0,0,0,.1-1,2.22,2.22,0,0,0-.5-1.1q-1.05-1.2-3,0C99.8,30.2,99.8,30.2,99.7,30.2Z"/>
      <path id="Path_307" data-name="Path 307" class="cls-16" d="M109.2,46.1c.6-.4,1-.7,1.3-.9a15.028,15.028,0,0,0,1.7-1.1c.7-.5,1.3-.9,1.6-1.1.6-.4,1.2-.8,1.7-1.1.2-.1.3.1.5.3v.1c0,.1.2.2.4.5.2.2.3.4.4.5l.2.6v.3c-.2.1-.5.3-.7.4-.4.2-.7.4-.9.5l-.3.3c-.3.2-.7.4-1.1.7a9.015,9.015,0,0,1-1.1.7,5,5,0,0,0-.7.5,4.053,4.053,0,0,1-.9.5,6.782,6.782,0,0,0-.9.6,6.726,6.726,0,0,0-1.1.7c-1,.7-2.4,1.5-4.2,2.7l-2.4,1.5c-.2.1-.4.3-.6.4-.3.1-.5.3-.6.3-.4.2-.7.5-1.1.7a6.071,6.071,0,0,0-1,.7,6.362,6.362,0,0,0-1,.6,31.141,31.141,0,0,0-2.7,1.8c-1.1.8-2,1.3-2.6,1.7l-.1.1c-.2.1-.4.1-.6.2a.31.31,0,0,1-.2-.1c-.1-.1-.1-.2-.2-.3a1.381,1.381,0,0,1-.3-.4l-.1-.1-.5-.5c-.7-.7-1-1.3-.8-1.6a17.109,17.109,0,0,1,2.6-3.1q2.25-2.4,3-3.3a13.977,13.977,0,0,1,2.1-2q0-.3.6-.6a.31.31,0,0,0,.2-.1.1.1,0,0,0,.1-.1c0-.2.2-.4.5-.7l.6-.6a12.97,12.97,0,0,0,1.3-1.3,5.546,5.546,0,0,1,.8-.6c.3-.3.5-.4.5-.5,1-.9,2-1.8,3-2.8.4-.3.7-.5,1.1-.8-.5.3-1,.6-1.4.8-.7.4-1.6,1-2.7,1.7-.6.4-1.1.7-1.7,1.1-.4.3-.8.5-1,.7a14.676,14.676,0,0,0-1.5.9c-1,.7-2.1,1.4-3.1,2-1.4.9-2.4,1.6-3,2a6.377,6.377,0,0,0-1.4,1c-.4.3-.8.5-1.2.8a.914.914,0,0,0-.5.3c-.2.2-.4.3-.5.4-.6.4-1.1.7-1.7,1.1a.646.646,0,0,1-.5-.2c-.3-.2-.5-.3-.6-.5a.769.769,0,0,1-.2-.3l-.3-.3c-.2-.3-.3-.5-.2-.6h0c.1-.1.1-.2.2-.2l.1-.1c.1,0,.1,0,.2-.1s.2-.1.2-.2l.2-.2c.1-.1.2-.1.3-.2.7-.4,1.3-.8,1.9-1.2a3.744,3.744,0,0,1,1-.6,1.38,1.38,0,0,1,.4-.3c.1-.1.2-.1.3-.2l.3-.3c.8-.4,1.8-1.1,3.1-1.9a.1.1,0,0,0,.1-.1,22.631,22.631,0,0,0,2-1.3l2.7-1.8c.3-.2,1-.6,1.9-1.1.3-.2.7-.5,1.3-.9s1.1-.7,1.4-.9c1-.7,2.1-1.3,3.1-2,1.4-.9,2.5-1.6,3.4-2.1.2-.2.5-.3.7-.5.1,0,.2-.1.3-.1a.914.914,0,0,0,.5-.3c.1,0,.1.1.2.1.1.1.2.2.2.3s.1.1.1.2a3.736,3.736,0,0,1,.6.7c.6.7.7,1.2.5,1.4a9.462,9.462,0,0,1-1.3,1.7c-4.4,4.1-7.5,7.1-9.4,8.9L100.6,49a1.38,1.38,0,0,1-.4.3l-.4.4-.3.3-1,1c-1,1-1.9,2.1-2.9,3.1,0,.1-.2.2-.4.4l-.6.6c-.2.2-.3.3-.2.3s.2-.1.4-.2a5.547,5.547,0,0,0,.8-.6,14.954,14.954,0,0,0,2.5-1.4c1.3-.9,2.4-1.5,3.2-2.1.3-.2.5-.3.8-.5s.5-.4.7-.5c.4-.2.7-.5,1.1-.7.2-.1.4-.3.6-.3.1-.1.2-.1.4-.3.1-.1.3-.2.4-.3.3-.2.5-.3.8-.5a3.278,3.278,0,0,0,.8-.6,5,5,0,0,1,.7-.5c.2-.1.3-.2.5-.3C108.2,46.8,108.7,46.5,109.2,46.1Z"/>
      <path id="Path_308" data-name="Path 308" class="cls-19" d="M95.1,61.7c0-.1.2-.2.3-.3s.3-.2.3-.3q2.25-1.35,3.9-2.4c.1-.1.3-.2.4-.3a.758.758,0,0,1,.4-.2c.1-.1.3-.2.4-.3a5.736,5.736,0,0,0,.7-.4,5.922,5.922,0,0,0,.6-.4,4.875,4.875,0,0,1,.7-.3c.2-.1.5-.3.7-.4a.758.758,0,0,1,.4-.2c.2-.1.3-.2.4-.2.8-.5,1.7-1,2.5-1.6.6-.3,1.1-.6,1.7-.9.5-.3,1.1-.7,1.6-1a28.482,28.482,0,0,0,2.9-1.6c1-.6,1.9-1.2,2.9-1.7.4-.2.8-.5,1.3-.7a1.38,1.38,0,0,1,.4-.3c.4-.3.9-.5,1.3-.8l.1-.1h.1a10.2,10.2,0,0,1,1.2,1.6c.4.7.7,1.2.9,1.6.1.1.9,1.4,1.1,1.7a1.628,1.628,0,0,0,.3.6,1.191,1.191,0,0,1,.2.6h0v.1c0,.1-.1.1-.1.2h-.1c-.1,0-.1.1-.2.1l-.2.2c-.1,0-.1.1-.2.1-.4.3-.7.4-.7.3h-.1c-.1,0-.1-.1-.2-.1,0-.1-.1-.1-.1-.2-.1-.1-.1-.2-.2-.2a4.348,4.348,0,0,1-.4-.7c-.1-.1-.9-1.4-1.1-1.6a6.663,6.663,0,0,1-.6-1.1c-.8.5-1.5.9-2.3,1.4-.4.2-.8.5-1.2.7-.7.4-1.6.9-2.7,1.6s-1.9,1.2-2.3,1.4a2.092,2.092,0,0,0-.6.4c-.2.1-.4.3-.6.4l-.1.1c.1.1.2.3.4.4a.747.747,0,0,0,.3.3c.1.1.2.3.3.4l.9,1.2c.1.1.2.2.2.3.4.6.6.9.5,1a5.2,5.2,0,0,0-.5.3c-.2.1-.5.3-.7.4-.1,0-.1.1-.2.1-.3.2-.5.2-.6.1a17.16,17.16,0,0,1-1.7-2.2.1.1,0,0,0-.1-.1c-.2-.3-.4-.6-.7-1-.1-.1-.2-.1-.5,0-.1.1-.2.1-.3.2s-.2.2-.3.2-.1.1-.2.1a10.174,10.174,0,0,0-2.2,1.2l-2.1,1.2a2.186,2.186,0,0,1-.5.3c-1,.6-1.9,1.1-2.9,1.7.2.1.3.3.5.5s.3.4.4.5a1.381,1.381,0,0,1,.3.4c.3.4.7.9,1,1.3a10.591,10.591,0,0,0,1,1.2c0,.1-.3.4-1,.8-.6.4-1,.6-1.1.5a2.651,2.651,0,0,1-.6-.5c-.1-.1-.1-.2-.2-.3a1.38,1.38,0,0,0-.3-.4l-.2-.2c-.1-.2-1.2-1.5-1.6-2.1-.3-.4-.6-.7-.9-1.1l-.4-.4a2.01,2.01,0,0,1-.4-.8h.1a.1.1,0,0,1,.1-.1A.764.764,0,0,0,95.1,61.7Z"/>
      <path id="Path_309" data-name="Path 309" class="cls-20" d="M110.5,84.7h0c0-.1-.1-.1-.2-.2l-.3-.3a.756.756,0,0,1-.1-.4l-.2-.2c0-.1-.1-.1-.1-.2v-.1c-.1-.1-.1-.1-.1-.2a.31.31,0,0,0-.1-.2.1.1,0,0,0-.1-.1c-.1-.2-.3-.4-.3-.6-.2-.3-.7-.9-1.3-1.9a2.092,2.092,0,0,1-.4-.6c-.2-.3-.5-.8-.9-1.3-.1-.1-.2-.3-.3-.4s-.1-.2-.2-.3c-.2-.3-.3-.5-.2-.6l.2-.2a.349.349,0,0,1,.2-.1c.1-.1.2-.1.3-.2h.1a.349.349,0,0,1,.2-.1c.1,0,.1-.1.2-.1h0c.1,0,.1-.1.2-.1a1.381,1.381,0,0,1,.4-.3,2.186,2.186,0,0,0,.5-.3,1.381,1.381,0,0,1,.4-.3c.1,0,.1-.1.2-.1.2-.1.3-.2.4-.2a10.539,10.539,0,0,0,1.1-.7c.4-.2,2.1-1.3,3.8-2.4,1.6-1,3-1.9,3.9-2.5.2-.2.5-.3.7-.5a5.922,5.922,0,0,0,.6-.4c.2-.1.5-.2.7-.3a.349.349,0,0,0,.2-.1,1,1,0,0,0,.5-.4c.1,0,.1-.1.2-.1.2-.1.3-.2.4-.2a3.807,3.807,0,0,0,.6-.5c.5-.3.7-.3.9-.5.3-.2.5-.3,1.2-.7a7.578,7.578,0,0,0,1.6-.9c.3-.2.7-.4,1-.6.1-.1.2-.1.3-.2a2.308,2.308,0,0,0,.7-.5c.3-.2.4-.3.6-.3a1.38,1.38,0,0,1,.3.4l.6,1.2a.988.988,0,0,1,.2.6c0,.2-.2.2-.5.4s-.9.5-1.4.8c-.2.1-.5.3-.7.4-.9.6-2,1.2-3.1,1.9a3.052,3.052,0,0,0-.9.5.1.1,0,0,0-.1.1,6.308,6.308,0,0,0-1,.7c-.7.5-1.5.9-2.2,1.4-1.6,1-3.3,2.1-4.9,3.1l-1.5.9a19.918,19.918,0,0,1-1.9,1.2c-.1.1-.3.2-.4.3-.2.1-.3.2-.5.3-.1.1-.2.1-.3.2s-.2.1-.3.2l.9,1.5c.3.4.7,1.1,1.3,2.1s1,1.5,1,1.6a.1.1,0,0,0,.1.1c0,.1,0,.2-.2.3-.2.2-.4.3-.6.5s-.5.2-.5.3A1.511,1.511,0,0,0,110.5,84.7Z"/>
      <path id="Path_310" data-name="Path 310" class="cls-21" d="M123.2,90.4a5.924,5.924,0,0,1-.6.4,2.186,2.186,0,0,0-.5.3c-.4.2-.8.5-1.2.7a10.382,10.382,0,0,0-1.2.7,11.814,11.814,0,0,1-1.3.6c-.3.1-.7.2-1.1.3a4.485,4.485,0,0,1-1.1.1,3.552,3.552,0,0,1-.9-.4c-.4-.3-.6-.6-.9-.8-.3-.3-.4-.6-.6-.8,0-.1-.1-.1-.1-.2-.1-.3-.3-.5-.4-.8-.1-.1-.1-.2-.2-.4-.1-.3-.2-.7-.3-1.1a1.087,1.087,0,0,0-.1-.5,4.331,4.331,0,0,0-.1-.5,3.722,3.722,0,0,1,.2-1.8,5.582,5.582,0,0,1,.5-.8,1.381,1.381,0,0,0,.3-.4,2.186,2.186,0,0,1,.3-.5c.1-.1.3-.2.5-.4s.4-.3.5-.4c.1,0,.2-.2.4-.4.3-.2.5-.4.7-.5,0,0,.5-.3,1.3-.9a10.546,10.546,0,0,1,1.3-.8c.1-.1.3-.2.4-.3.3-.2.7-.4,1-.6.1-.1.2-.1.4-.2.2-.2.3-.2.4-.3s.2-.1.4-.2a.758.758,0,0,1,.4-.2c.6-.4,1.2-.7,1.8-1.1a5.423,5.423,0,0,1,1.1-.6c.3-.2.7-.4,1-.6.2-.1.5-.3.9-.5a3.216,3.216,0,0,0,.7-.4c.6-.3,1-.6,1.2-.7a6.772,6.772,0,0,1,3.2-.9,3.155,3.155,0,0,1,2.9,1.8c.1.1.1.2.2.4a1.421,1.421,0,0,1,.2.6,3.42,3.42,0,0,1,.1,1.1,4.483,4.483,0,0,1-.1,1.2,7.711,7.711,0,0,1-.7,2,8.3,8.3,0,0,1-1.3,2,9.161,9.161,0,0,1-1.4,1.4l-.2.2c-.1.1-.3.2-.3.3a8.668,8.668,0,0,1-1.4,1,3.49,3.49,0,0,1-.9.6,5.924,5.924,0,0,1-.6.4,9.223,9.223,0,0,1-.8.5c-.3.2-.5.3-.8.5a8.794,8.794,0,0,1-1,.6c-.4.2-.7.4-1.1.6A4.129,4.129,0,0,1,123.2,90.4Zm6.7-12.6a.438.438,0,0,1-.3.1c-.2,0-.3.1-.5.2a.349.349,0,0,1-.2.1l-.1.1c-.1.1-.3.1-.5.2a8.794,8.794,0,0,0-1,.6,6.4,6.4,0,0,1-1.1.6,10.539,10.539,0,0,0-1.1.7c-.5.3-.9.5-1.2.7-.5.3-.9.5-1.4.8-.1.1-.3.2-.4.3-.3.2-.6.3-.9.5a39.8,39.8,0,0,0-5.3,3.5,7.973,7.973,0,0,0-.6.8,5.562,5.562,0,0,1-.4.8,1.7,1.7,0,0,0,0,1,6.314,6.314,0,0,0,.4.9c.1.3.3.4.6.6a1.439,1.439,0,0,1,.3.2,1.238,1.238,0,0,1,.3.2.367.367,0,0,1,.3.1,1.087,1.087,0,0,0,.5-.1,4.486,4.486,0,0,0,1.3-.6c.5-.3,1-.5,1.3-.7.1,0,.1-.1.2-.1.5-.3,1.3-.8,2.3-1.4,1-.7,1.8-1.1,2.2-1.4.2-.1.3-.2.5-.3a.914.914,0,0,1,.5-.3c.1,0,.2-.1.3-.2s.2-.1.4-.2a8.794,8.794,0,0,1,1-.6,56.052,56.052,0,0,0,2-1.3c.5-.3.8-.6,1-.7.2-.2.5-.4.8-.7a5.5,5.5,0,0,0,.7-.9l.3-.6a1.628,1.628,0,0,1,.3-.6c.1-.1.1-.3.2-.5a.749.749,0,0,0,.1-.5,2.7,2.7,0,0,0-.1-1.2c-.3-.4-.5-.6-.7-.5a2.153,2.153,0,0,0-1.1-.2A2.362,2.362,0,0,1,129.9,77.8Z"/>
      <path id="Path_311" data-name="Path 311" class="cls-22" d="M139.3,96l-.9.3c-.5.2-1,.3-1.4.5a6.849,6.849,0,0,1-2,.6c-1,.3-1.7.5-1.9.6a17.078,17.078,0,0,0-1.8.7q-4.2,1.35-8.7,2.7a16.163,16.163,0,0,1-1.9.6c-.2,0-.4.1-.6.1a.446.446,0,0,1-.5,0h0c-.1-.1-.2-.3-.4-.5a1.689,1.689,0,0,0-.2-.5c-.1-.2-.1-.4-.2-.5-.1-.2-.1-.3-.2-.5l-.3-.6c-.1-.1-.1-.3-.2-.4a1.993,1.993,0,0,1-.2-.8c.1,0,.4-.2.9-.7a8.467,8.467,0,0,0,1.4-1c.3-.2.5-.4.8-.6a3.49,3.49,0,0,1,.9-.6,6.342,6.342,0,0,1,1.2-1,14.708,14.708,0,0,1,1.7-1.3c.7-.5,1.1-.9,1.3-1l2.7-2.1q.45-.3,1.2-.9a7.574,7.574,0,0,1,1.3-1c.1,0,.5-.4,1.3-.9,1.2-.9,2.5-1.8,3.7-2.7h0c.1,0,.2.2.5.6a6.894,6.894,0,0,1,.4,1c.2.5.2.8.1.9a25.073,25.073,0,0,1-2.7,2.1,2.186,2.186,0,0,1-.5.3.914.914,0,0,1-.5.3.1.1,0,0,0-.1.1c-.1.1-.3.2-.5.4s-.4.3-.5.4c-.1,0-.3.2-.6.4-.2.2-.5.4-.7.6-1.7,1.3-3.4,2.6-5,3.8-.9.7-1.6,1.2-2.2,1.7s-1.1.7-1.5,1.1a5.06,5.06,0,0,1-.9.8h0a10.541,10.541,0,0,0,3.1-.7c1.2-.3,3.8-1.2,7.8-2.6s6.1-2.1,6.5-2.2q.15-.15.3.6c0,.1.1.3.1.4,0,.2.1.4.1.6a4.4,4.4,0,0,1,.1.9C139.7,95.8,139.5,95.8,139.3,96Z"/>
      <path id="Path_312" data-name="Path 312" class="cls-23" d="M122.5,108.4a.774.774,0,0,0,.3-.1c.1,0,.2-.1.3-.2.5-.3,1.3-.9,2.9-1.8.4-.3.7-.4.9-.6a1.546,1.546,0,0,0,.6-.3,1.38,1.38,0,0,0,.4-.3c.1,0,.2-.1.5-.2,1.5-.9,2.7-1.6,4.1-2.5.4-.3.8-.5,1.2-.8a12.756,12.756,0,0,0,2.1-1.2c.6-.4,1.2-.7,1.8-1.1a2.058,2.058,0,0,1,.9-.5c.1-.1.2-.2.3-.2a8.8,8.8,0,0,1,1-.6l.1-.1v-.1l.6,2.1c.2.8.5,2.6.6,3,.1.1.1.4.2.8,0,.4.1.6.1.8a1.36,1.36,0,0,1,0,.7v.1h0c0,.1-.1.1-.1.2h0a.349.349,0,0,1-.2.1l-.1.1c-.1,0-.1.1-.2.1-.3.2-.7.4-.7.3h0c0-.1-.1-.1-.1-.2v-.2c0-.1-.1-.2-.1-.3-.1-.3-.1-.5-.2-.8a2.544,2.544,0,0,0-.2-.7c-.2-.9-.4-2.2-.4-2.2h-.2c-.1,0-.1.1-.2.1h0c0,.1-.1.1-.2.1-.1.1-.2.1-.4.2-.1,0-.2.1-.4.2-1.4.9-2.8,1.7-4.3,2.6a9.225,9.225,0,0,1-.8.5c-.2.1-.5.3-.7.4s-.3.2-.5.3c.1.2.1.4.2.6a14.24,14.24,0,0,0,.5,1.6c0,.2.1.3.1.5a2.485,2.485,0,0,1,.1.8c0,.1-.1.2-.3.4a.1.1,0,0,0-.1.1l-.6.4a.1.1,0,0,0-.1.1c-.2.1-.4.1-.4,0a4.649,4.649,0,0,1-.3-.9c-.2-.7-.4-1.3-.6-2,0-.2-.1-.3-.1-.4a.1.1,0,0,0-.1-.1h0c-.1,0-.1.1-.2.1h-.1l-.8.4-1.5.9c-.1.1-.2.1-.4.2-.7.4-1.4.9-2.1,1.3a1.268,1.268,0,0,1,.2.6,11.321,11.321,0,0,0,.7,1.8c.1.2.1.4.2.5a1,1,0,0,1,.1.4c.2.5.3,1.1.5,1.6,0,.2-.2.4-.7.8-.5.3-.8.5-.9.4a4.876,4.876,0,0,1-.3-.7c0-.1-.1-.3-.1-.4a4.331,4.331,0,0,0-.1-.5c0-.1-.1-.2-.1-.3-.1-.3-.6-1.8-.8-2.5a8.8,8.8,0,0,1-.5-1.5c-.1-.1-.1-.3-.2-.6a4.3,4.3,0,0,1-.2-1.2h0a.1.1,0,0,1,.1-.1C122.3,108.6,122.4,108.5,122.5,108.4Z"/>
    </g>
  </g>
  <g id="Group_228" data-name="Group 228" transform="translate(1821.022 8096.402)">
    <path id="Path_234" data-name="Path 234" class="cls-24" d="M1779.607,6867.747l25.2,25.2-25.2,25.2" transform="translate(-1765.762 -6867.747)"/>
    <path id="Path_235" data-name="Path 235" class="cls-24" d="M1779.607,6867.747l25.2,25.2-25.2,25.2" transform="translate(-1779.607 -6867.747)"/>
  </g>
  <g id="Group_229" data-name="Group 229" transform="translate(854.599 8146.802) rotate(180)">
    <path id="Path_234-2" data-name="Path 234" class="cls-24" d="M0,0,25.2,25.2,0,50.4" transform="translate(13.846 0)"/>
    <path id="Path_235-2" data-name="Path 235" class="cls-24" d="M0,0,25.2,25.2,0,50.4" transform="translate(0 0)"/>
  </g>
  <g id="Group_232" data-name="Group 232" transform="matrix(0.875, -0.485, 0.485, 0.875, 1336.037, 8361.641)">
    <path id="Path_746" data-name="Path 746" class="cls-25" d="M179.8,104.8l1.6-14.6,37.7,7.2-8.6,9.5,15.8,14.4,32.3-36.9L183.4,72.1l.1-.5c.2-1.6-3.3-1.9-4.9-2.1l-22.4,1.4V71c1.7-.1,3.3-.1,4.9-.2a20.036,20.036,0,0,1,1,2.6h.2c2.5-.3,5,4.2,5.6,10a17.921,17.921,0,0,1-.9,8.8l6.5.7L172.3,104a2.858,2.858,0,0,0,2.6,3.2l1.7.2A2.858,2.858,0,0,0,179.8,104.8Z"/>
    <g id="Group_230" data-name="Group 230">
      <path id="Path_747" data-name="Path 747" class="cls-25" d="M23.7,125.6l17.7-22.8L29.1,91.6,48.6,48a3.167,3.167,0,0,0,1.6.4,2.885,2.885,0,0,0,2.3-.7l11.4-10c4.7-4.7,1.7-6.6.6-7.8,0,0-5.6,6.6-6,6.4L72.2,14a2.7,2.7,0,0,0-.9-3.6h0a2.7,2.7,0,0,0-3.6.9l-7.1,12-1.2-.7L67.4,9a2.7,2.7,0,0,0-.9-3.6h0a2.7,2.7,0,0,0-3.6.9L54.8,20l-1.2-.7L62.3,4.7a2.7,2.7,0,0,0-.9-3.6h0a2.7,2.7,0,0,0-3.6.9L49.1,16.6l-1.2-.7L55,4A2.7,2.7,0,0,0,54.1.4h0a2.7,2.7,0,0,0-3.6.9L31,34.1a2.913,2.913,0,0,0,1,4L0,107.3Z"/>
    </g>
    <path id="Path_748" data-name="Path 748" class="cls-25" d="M162.3,73.3h-.2a27.731,27.731,0,0,0-1-2.6c-9.2.5-20.4.7-32.1.3-12.8-.5-21.2-2.8-26.6-5.3a47.829,47.829,0,0,0-3.5,7.6h0c-2.5-.3-5,4.2-5.6,10-.6,5.5.7,10.3,2.9,10.9,1.6,21.5,16.4,38.4,34.3,38.4s32.7-16.8,34.3-38.3c2.4-.4,3.8-5.3,3.1-11C167.3,77.5,164.8,73,162.3,73.3Z"/>
    <path id="Path_749" data-name="Path 749" class="cls-26" d="M183.4,61.9c-7.9-3.4-12.6-3.9-14.6-3.9-1.2-16.6-17.7-30-37.9-29.8C90.9,28.5,94,59.8,94,59.8c2.1,2.6,10.5,10.3,34.9,11.2a393.821,393.821,0,0,0,55.5-2.1S194.2,66.5,183.4,61.9Z"/>
    <g id="Group_231" data-name="Group 231">
      <path id="Path_750" data-name="Path 750" class="cls-27" d="M129.9,95.6l-.3-1a16.787,16.787,0,0,1,5-.7,17.609,17.609,0,0,0,3.3-.3c-2.5-4.9-3.4-12.9-3.1-19h1c-.2,6.2.7,14.5,3.3,19.1l.3.6-.7.2a30.063,30.063,0,0,1-4.2.5A13.842,13.842,0,0,0,129.9,95.6Z"/>
    </g>
    <path id="Path_751" data-name="Path 751" class="cls-27" d="M122.5,77.6c0,1.1-1.1-.1-2.4-.1s-2.4,1.1-2.4.1a2.175,2.175,0,0,1,2.4-1.9A2.248,2.248,0,0,1,122.5,77.6Z"/>
    <path id="Path_752" data-name="Path 752" class="cls-27" d="M150,77.6c0,1.1-1.1-.1-2.4-.1s-2.4,1.1-2.4.1a2.175,2.175,0,0,1,2.4-1.9A2.248,2.248,0,0,1,150,77.6Z"/>
    <ellipse id="Ellipse_44" data-name="Ellipse 44" class="cls-28" cx="7.1" cy="7.9" rx="7.1" ry="7.9" transform="translate(130.4 38.7)"/>
    <path id="Path_753" data-name="Path 753" class="cls-29" d="M161.1,70.8a20.036,20.036,0,0,1,1,2.6h.2c2.5-.3,5,4.2,5.6,10a20.406,20.406,0,0,1-.2,6.6l5.5-4.8a45.809,45.809,0,0,0-3-14.9C167.5,70.4,164.4,70.6,161.1,70.8Z"/>
    <path id="Path_754" data-name="Path 754" class="cls-29" d="M94.1,59.9c-1.5,2.7-5.8,11.9-4.5,26.1l3.7,3.1a22.17,22.17,0,0,1-.1-5.8c.6-5.8,3.2-10.3,5.6-10h0a47.829,47.829,0,0,1,3.5-7.6A23.918,23.918,0,0,1,94.1,59.9Z"/>
    <path id="Path_755" data-name="Path 755" class="cls-29" d="M164.9,93.9s-.6,6.3-3.9,11c-1.7.5-4.2,1.2-7.2,1.9a4.628,4.628,0,0,0-3.3-2.3c-12.7-8.7-25.2-7-32.2-4.3-7.4,2.9-9.4,6.9-9.6,6.8a10.742,10.742,0,0,0-1.5.7,42.631,42.631,0,0,1-6.4-1.6c-4.1-4.4-4.6-11.8-4.6-11.8-.6,3.4.8,9.6.8,9.6l4,12.8c.1.2,4.8,9.3,4.9,9.5,3.2,6.8,15.8,14.4,24,14.3,8.3-.1,20.7-7.8,25-14.5C154.9,126,166,110.9,164.9,93.9Zm-33.5,20.9c-8.8,0-15.9-1.8-15.9-4.1,0-2.2,7.1-4.1,15.9-4.1s15.9,1.8,15.9,4.1S140.2,114.8,131.4,114.8Z"/>
    <path id="Path_756" data-name="Path 756" class="cls-30" d="M138.8,110.7s-3.7,3.1-15.7,0C123.1,110.7,135.6,111,138.8,110.7Z"/>
    <path id="Path_757" data-name="Path 757" class="cls-31" d="M208.1,459.7c-.8,0-.8,3-1.7,3-.8,0-.8-3-1.7-3-.8,0-.8,3-1.7,3s-.8-3-1.7-3c-.8,0-.8,3-1.7,3-.8,0-.8-3-1.7-3-.8,0-.8,3-1.7,3-.8,0-.8-3-1.7-3-.8,0-.8,3-1.7,3-.8,0-.8-3-1.7-3-.8,0-.8,3-1.7,3-.8,0-.8-3-1.7-3-.8,0-.8,3-1.7,3-.8,0-.8-3-1.7-3-.8,0-.8,3-1.7,3-.8,0-.8-3-1.7-3-.8,0-.8,3-1.7,3-.8,0-.8-3-1.7-3-.8,0-.8,3-1.7,3-.8,0-.8-3-1.7-3-.8,0-.8,3-1.7,3-.8,0-.8-3-1.7-3-.8,0-.8,3-1.7,3-.8,0-.8-3-1.7-3-.8,0-.8,3-1.7,3-.8,0-.8-3-1.7-3-.8,0-.8,3-1.7,3-.8,0-.8-3-1.7-3-.8,0-.8,3-1.7,3-.8,0-.8-3-1.7-3-.8,0-.8,3-1.7,3-.8,0-.8-3-1.7-3-.8,0-.8,3-1.7,3-.8,0-.8-3-1.7-3-.8,0-.8,3-1.7,3-.8,0-.8-3-1.7-3-.8,0-.8,3-1.7,3-.8,0-.8-3-1.7-3-.8,0-.8,3-1.7,3-.8,0-.8-3-1.7-3v-1.1H207Z"/>
    <path id="Path_758" data-name="Path 758" class="cls-26" d="M180.4,126.1l-15.7-3v47.1c-30.4,13.4-55.8,6.4-68.7.7V123l-15.7,3,3.3,166.6,6.6,139h33.1v-139h13.2v139h33.1l6.6-139Z"/>
    <path id="Path_759" data-name="Path 759" class="cls-32" d="M179,180.5l50.7-56.1-23.5-21.5-25.8,24.7Z"/>
    <path id="Path_760" data-name="Path 760" class="cls-32" d="M80.3,128.6,45.2,97.9l-22.5,29,58.6,54.4Z"/>
    <path id="Path_761" data-name="Path 761" class="cls-33" d="M195.4,449.3s-28.1-1.7-31.5-9.8v-7.1H140.7V458h67C207.8,458,207.8,451,195.4,449.3Z"/>
    <path id="Path_762" data-name="Path 762" class="cls-33" d="M63.6,449.3s28.1-1.7,31.5-9.8v-7.1h23.2V458h-67C51.2,458,51.2,451,63.6,449.3Z"/>
    <path id="Path_763" data-name="Path 763" class="cls-31" d="M50.9,459.7c.8,0,.8,3,1.7,3,.8,0,.8-3,1.7-3,.8,0,.8,3,1.7,3,.8,0,.8-3,1.7-3,.8,0,.8,3,1.7,3,.8,0,.8-3,1.7-3,.8,0,.8,3,1.7,3,.8,0,.8-3,1.7-3,.8,0,.8,3,1.7,3,.8,0,.8-3,1.7-3,.8,0,.8,3,1.7,3,.8,0,.8-3,1.7-3,.8,0,.8,3,1.7,3,.8,0,.8-3,1.7-3,.8,0,.8,3,1.7,3,.8,0,.8-3,1.7-3,.8,0,.8,3,1.7,3,.8,0,.8-3,1.7-3,.8,0,.8,3,1.7,3,.8,0,.8-3,1.7-3,.8,0,.8,3,1.7,3,.8,0,.8-3,1.7-3,.8,0,.8,3,1.7,3,.8,0,.8-3,1.7-3,.8,0,.8,3,1.7,3,.8,0,.8-3,1.7-3,.8,0,.8,3,1.7,3,.8,0,.8-3,1.7-3,.8,0,.8,3,1.7,3,.8,0,.8-3,1.7-3,.8,0,.8,3,1.7,3,.8,0,.8-3,1.7-3,.8,0,.8,3,1.7,3,.8,0,.8-3,1.7-3,.8,0,.8,3,1.7,3,.8,0,.8-3,1.7-3,.8,0,.8,3,1.7,3,.8,0,.8-3,1.7-3,.8,0,.8,3,1.7,3s.8-3,1.7-3v-1.1H51.3Z"/>
    <rect id="Rectangle_313" data-name="Rectangle 313" class="cls-34" width="63.7" height="48.2" transform="translate(98.7 184)"/>
    <rect id="Rectangle_314" data-name="Rectangle 314" class="cls-32" width="54.8" height="1" transform="translate(103.2 187.8)"/>
    <rect id="Rectangle_315" data-name="Rectangle 315" class="cls-35" width="27.7" height="6.2" transform="translate(116.7 191.9)"/>
    <path id="Path_764" data-name="Path 764" class="cls-32" d="M129.2,136.9c-11.5,1.5-23.3-10.7-23.3-10.7L96,128v43c12.9,5.6,38.3,12.6,68.7-.7V126.9l-9.7-.8C154.9,126,140.7,135.4,129.2,136.9Z"/>
  </g>
  <g id="Group_240" data-name="Group 240" transform="translate(1065.921 8283.342) rotate(31)">
    <path id="Path_765" data-name="Path 765" class="cls-25" d="M161.1,50.1a56.959,56.959,0,0,0-2.9-7.2A290.4,290.4,0,0,1,125,46.4c-11.8.5-19.5-1.6-24.4-4a59.161,59.161,0,0,0-3.2,7.7h-.1c-2.5-.3-5,4.5-5.6,10.8s.8,11.6,3.3,11.9h.1c2,22.3,16.6,39.6,34.2,39.6,17.7,0,32.2-17.3,34.2-39.7,2.2-.8,3.5-5.9,2.9-11.8C165.8,54.9,163.5,50.3,161.1,50.1Z"/>
    <path id="Path_766" data-name="Path 766" class="cls-31" d="M207.2,429.7c-.8,0-.8,3-1.7,3-.8,0-.8-3-1.7-3-.8,0-.8,3-1.7,3-.8,0-.8-3-1.7-3-.8,0-.8,3-1.7,3-.8,0-.8-3-1.7-3-.8,0-.8,3-1.7,3-.8,0-.8-3-1.7-3-.8,0-.8,3-1.7,3-.8,0-.8-3-1.7-3-.8,0-.8,3-1.7,3-.8,0-.8-3-1.7-3-.8,0-.8,3-1.7,3-.8,0-.8-3-1.7-3-.8,0-.8,3-1.7,3-.8,0-.8-3-1.7-3-.8,0-.8,3-1.7,3-.8,0-.8-3-1.7-3-.8,0-.8,3-1.7,3-.8,0-.8-3-1.7-3-.8,0-.8,3-1.7,3-.8,0-.8-3-1.7-3-.8,0-.8,3-1.7,3-.8,0-.8-3-1.7-3-.8,0-.8,3-1.7,3-.8,0-.8-3-1.7-3-.8,0-.8,3-1.7,3-.8,0-.8-3-1.7-3-.8,0-.8,3-1.7,3-.8,0-.8-3-1.7-3-.8,0-.8,3-1.7,3-.8,0-.8-3-1.7-3-.8,0-.8,3-1.7,3-.8,0-.8-3-1.7-3-.8,0-.8,3-1.7,3-.8,0-.8-3-1.7-3-.8,0-.8,3-1.7,3-.8,0-.8-3-1.7-3-.8,0-.8,3-1.7,3-.8,0-.8-3-1.7-3v-1.1h66.9Z"/>
    <path id="Path_767" data-name="Path 767" class="cls-26" d="M179.5,96.1l-15.7-3v47.1c-30.4,13.4-55.8,6.4-68.7.7V93.1l-15.7,3,3.3,166.6,6.6,139h33.1v-139h13.2v139h33.1l6.6-139Z"/>
    <path id="Path_768" data-name="Path 768" class="cls-36" d="M178.4,138.8l52.9-33.9-24-21.5L179.5,96.8Z"/>
    <path id="Path_769" data-name="Path 769" class="cls-36" d="M79.3,96.9,51.1,83.4l-24,21.5,53.1,33.4Z"/>
    <path id="Path_770" data-name="Path 770" class="cls-37" d="M194.5,419.3s-28.1-1.7-31.5-9.8v-7.1H139.8V428h67C206.9,428,206.9,421.1,194.5,419.3Z"/>
    <path id="Path_771" data-name="Path 771" class="cls-37" d="M62.7,419.3s28.1-1.7,31.5-9.8v-7.1h23.2V428h-67C50.3,428,50.3,421.1,62.7,419.3Z"/>
    <path id="Path_772" data-name="Path 772" class="cls-31" d="M50,429.7c.8,0,.8,3,1.7,3,.8,0,.8-3,1.7-3,.8,0,.8,3,1.7,3,.8,0,.8-3,1.7-3,.8,0,.8,3,1.7,3,.8,0,.8-3,1.7-3,.8,0,.8,3,1.7,3,.8,0,.8-3,1.7-3,.8,0,.8,3,1.7,3,.8,0,.8-3,1.7-3,.8,0,.8,3,1.7,3,.8,0,.8-3,1.7-3,.8,0,.8,3,1.7,3,.8,0,.8-3,1.7-3,.8,0,.8,3,1.7,3,.8,0,.8-3,1.7-3,.8,0,.8,3,1.7,3,.8,0,.8-3,1.7-3,.8,0,.8,3,1.7,3,.8,0,.8-3,1.7-3,.8,0,.8,3,1.7,3,.8,0,.8-3,1.7-3,.8,0,.8,3,1.7,3,.8,0,.8-3,1.7-3,.8,0,.8,3,1.7,3,.8,0,.8-3,1.7-3,.8,0,.8,3,1.7,3,.8,0,.8-3,1.7-3,.8,0,.8,3,1.7,3,.8,0,.8-3,1.7-3,.8,0,.8,3,1.7,3,.8,0,.8-3,1.7-3,.8,0,.8,3,1.7,3,.8,0,.8-3,1.7-3,.8,0,.8,3,1.7,3,.8,0,.8-3,1.7-3,.8,0,.8,3,1.7,3,.8,0,.8-3,1.7-3,.8,0,.8,3,1.7,3s.8-3,1.7-3v-1.1H50.4Z"/>
    <g id="Group_233" data-name="Group 233">
      <path id="Path_773" data-name="Path 773" class="cls-27" d="M128.8,71.4h-1.4a.5.5,0,1,1,0-1h.7c2.8,0,5.1,0,7.5-1.7a7.674,7.674,0,0,0-1-4c-.2-.5-.5-1.1-.7-1.6a36.138,36.138,0,0,1-1.8-12.7.5.5,0,0,1,1,0,36.856,36.856,0,0,0,1.7,12.4,10.092,10.092,0,0,0,.7,1.5,8.014,8.014,0,0,1,1.1,4.7v.2l-.2.1C133.9,71.3,131.5,71.4,128.8,71.4Z"/>
    </g>
    <path id="Path_774" data-name="Path 774" class="cls-27" d="M117.8,51.7c0,1.2-1.1.1-2.4.1s-2.4,1.1-2.4-.1a2.254,2.254,0,0,1,2.4-2.1A2.195,2.195,0,0,1,117.8,51.7Z"/>
    <path id="Path_775" data-name="Path 775" class="cls-27" d="M145.4,51.7c0,1.2-1.1.1-2.4.1s-2.4,1.1-2.4-.1a2.421,2.421,0,0,1,4.8,0Z"/>
    <path id="Path_776" data-name="Path 776" class="cls-26" d="M172.7,32.4c-7.1-3-11.3-3.2-13.1-3.1-1.8-17.8-17-31-34.8-29.1C88.6,3.9,93.7,37,93.7,37c2,2.6,9.8,10.3,31.4,9.4A296.058,296.058,0,0,0,174,39.9S182.4,36.5,172.7,32.4Z"/>
    <ellipse id="Ellipse_45" data-name="Ellipse 45" class="cls-28" cx="8" cy="8.7" rx="8" ry="8.7" transform="translate(122.6 11.7)"/>
    <rect id="Rectangle_316" data-name="Rectangle 316" class="cls-34" width="63.7" height="48.2" transform="translate(97.8 154)"/>
    <rect id="Rectangle_317" data-name="Rectangle 317" class="cls-32" width="54.8" height="1" transform="translate(102.3 157.8)"/>
    <rect id="Rectangle_318" data-name="Rectangle 318" class="cls-35" width="27.7" height="6.2" transform="translate(115.8 162)"/>
    <path id="Path_777" data-name="Path 777" class="cls-30" d="M117.8,88.6s8.7,4.3,22.7,0C140.6,88.6,123,90.4,117.8,88.6Z"/>
    <path id="Path_778" data-name="Path 778" class="cls-27" d="M162.7,42.1c-1.4.2-2.9.5-4.5.8a56.954,56.954,0,0,1,2.9,7.2c2.3.2,4.7,4.8,5.3,10.8.6,5.9-.7,11-2.9,11.8a53.973,53.973,0,0,1-1.4,8.2,3.217,3.217,0,0,0-.7-.4c-1.6-.1-3.5.1-4.8-.8-1.6,1.5-2-.7-3.9-.8,0,.5-.4,1-.5,1.5-2.3-1-10.7-3.1-12.6-1.2-1.8-1.3-10.8-2.1-11.4-.9-1.2-.8-2.8-1.2-3.5.6-2.4-2.1-4.2,1.6-5.7-1.5-.8.7-1.7,1.5-2.5,2.3-2.3-1.5-4.7,0-7.1.6-2.9.6-7.5-1.7-7.9,1.2-1,.2-2.2.2-3,.3a3.117,3.117,0,0,0-2-.6A70.081,70.081,0,0,1,95.1,73H95c-2.5-.3-3.9-5.6-3.3-11.9S94.9,50,97.3,50.3h.1a47.922,47.922,0,0,1,3.2-7.7,21.657,21.657,0,0,1-5.4-3.7h0l-.6-.6h0c-.2-.2-.3-.4-.5-.5h0c-.1-.2-.3-.3-.4-.5v-.1h0v-.4c-.6,1.4-6.2,15.2-4.7,38l6.1,7.6c0,.1,0,.1.1.2h0l.1.2v.1c-.1-.1-.1-.2-.2-.2-2.2,1.6.1,2.2.9,3.8.6,1.3,1,.3.9,1.9-.1,1.8-1.8,3-1.4,5,.9,4,5.7,6.8,5.8,10.8a7.887,7.887,0,0,1,5.5,1.7c-.2,3.3,2.2,2.4,4.7,3.6,1,.4.6,1.3,1.8,1.8,1,.4,1.9.1,2.9.4,4.3,1.2,7.4,3.4,12.7,2.3,5.4-1.1,10.2-1.1,15.6-2.3,2.2-.5,10.8-2.6,11.2-4.5a4.951,4.951,0,0,0,1.3-.4c-.1-3.5,2.4-4.3,2.2-8.1-.1-2.4-1.6-5.6,2.5-5.9a14.743,14.743,0,0,1,.8-3.5c.4-1,1.6-1.3,1.8-2,.7-2-1.2-5.7-1.3-5.7l6.1-7.8C169,73.2,169,55.8,162.7,42.1ZM129.3,96.7c-11.6,0-21-3.6-21-8.1s9.4-8.1,21-8.1,21,3.6,21,8.1S140.9,96.7,129.3,96.7Z"/>
    <g id="Group_234" data-name="Group 234">
      <path id="Path_779" data-name="Path 779" class="cls-25" d="M86.1,74.6l2.8-.6a104.961,104.961,0,0,1,1.5-26.2L76,51.1a2.88,2.88,0,0,0-2.2,3.5l.1.5L4.1,75.9c-9,4.5-.5,11-.5,11L30,102.3,49.4,84.9l-4.8-2.5,33.3-9.5,3.3,14.3a2.88,2.88,0,0,0,3.5,2.2l1.7-.4a2.88,2.88,0,0,0,2.2-3.5Z"/>
    </g>
    <g id="Group_235" data-name="Group 235">
      <path id="Path_780" data-name="Path 780" class="cls-36" d="M159.2,98.1c.2,3.8-2.3,4.6-2.2,8.1a6.468,6.468,0,0,1-1.3.4c-.4,1.9-9,4-11.2,4.5-5.3,1.2-10.2,1.2-15.6,2.3-5.3,1.1-8.4-1.1-12.7-2.3-.9-.3-1.9,0-2.9-.4-1.2-.5-.8-1.3-1.8-1.8-2.5-1.2-4.9-.3-4.7-3.6a8.4,8.4,0,0,0-5.5-1.7c-.1-3.3-3.4-5.7-5-8.8H95.1v46c12.9,5.6,38.3,12.6,68.7-.7V94.9h-5A31.07,31.07,0,0,0,159.2,98.1Z"/>
    </g>
    <g id="Group_238" data-name="Group 238">
      <g id="Group_237" data-name="Group 237">
        <g id="Group_236" data-name="Group 236">
          <path id="Path_781" data-name="Path 781" class="cls-38" d="M84.8,118.1a105.832,105.832,0,0,1,43.1-27,1.093,1.093,0,0,0-.6-2.1,107.85,107.85,0,0,0-44.1,27.6,1.1,1.1,0,0,0,1.6,1.5Z"/>
        </g>
      </g>
    </g>
    <g id="Group_239" data-name="Group 239">
      <path id="Path_782" data-name="Path 782" class="cls-25" d="M254.3,75.9,184.6,55.2l.1-.5a2.836,2.836,0,0,0-2.2-3.5l-17.8-4.1a90.152,90.152,0,0,1,4.4,26.1l-.4.6,3.7.9-2.5,10.9a2.836,2.836,0,0,0,2.2,3.5l1.7.4a2.836,2.836,0,0,0,3.5-2.2L180.6,73,211,83.8l-2.1,1,19.4,17.4,26.5-15.3S263.3,80.4,254.3,75.9Z"/>
    </g>
  </g>
</svg>
