<svg id="Ebene_1" data-name="Ebene 1" xmlns="http://www.w3.org/2000/svg" xmlns:xlink="http://www.w3.org/1999/xlink" width="1920" height="1080" viewBox="0 0 1920 1080">
  <defs>
    <style>
      .cls-1, .cls-18 {
        fill: none;
      }

      .cls-2 {
        fill: #aaf9cc;
      }

      .cls-3 {
        fill: #666;
      }

      .cls-27, .cls-34, .cls-39, .cls-4 {
        fill: #fff;
      }

      .cls-5 {
        fill: #233a09;
        opacity: 0.48;
      }

      .cls-6 {
        fill: #488490;
      }

      .cls-7 {
        fill: #767d6c;
      }

      .cls-8 {
        fill: #d3b474;
      }

      .cls-9 {
        fill: #a6966d;
      }

      .cls-10 {
        fill: #333;
      }

      .cls-11 {
        fill: #0f478e;
      }

      .cls-12 {
        fill: #fac400;
      }

      .cls-13 {
        fill: #48838f;
      }

      .cls-14 {
        fill: #81cbdc;
      }

      .cls-15 {
        fill: #cccaca;
      }

      .cls-16 {
        fill: #979797;
      }

      .cls-17, .cls-18, .cls-38 {
        stroke: #fff;
      }

      .cls-17, .cls-18 {
        stroke-width: 0.57px;
      }

      .cls-19 {
        clip-path: url(#clip-path);
      }

      .cls-20 {
        fill: #75c6d6;
      }

      .cls-21 {
        fill: #6a678c;
      }

      .cls-22 {
        fill: #d2a8ce;
      }

      .cls-23 {
        fill: #bb69a6;
      }

      .cls-24 {
        fill: #5c3087;
      }

      .cls-25 {
        fill: #f1e52f;
      }

      .cls-26, .cls-38 {
        fill: #1d1e1c;
      }

      .cls-27, .cls-39 {
        stroke: #686867;
      }

      .cls-27, .cls-38, .cls-39 {
        stroke-miterlimit: 10;
      }

      .cls-27 {
        stroke-width: 0.67px;
      }

      .cls-28, .cls-40 {
        fill: #e7aa16;
      }

      .cls-29 {
        fill: #e0c13e;
      }

      .cls-30 {
        fill: #dadac1;
      }

      .cls-31 {
        fill: url(#Unbenannter_Verlauf_3);
      }

      .cls-32, .cls-33 {
        fill: #643612;
      }

      .cls-33 {
        opacity: 0.74;
      }

      .cls-34 {
        opacity: 0.22;
      }

      .cls-35 {
        fill: url(#Unbenannter_Verlauf_2);
      }

      .cls-36 {
        fill: #f3971b;
      }

      .cls-37 {
        fill: #e53b20;
      }

      .cls-38 {
        stroke-width: 8.54px;
      }

      .cls-39 {
        stroke-width: 0.43px;
      }

      .cls-40 {
        opacity: 0.32;
      }

      .cls-41 {
        fill: #c3996f;
      }

      .cls-42 {
        fill: #b18e64;
      }
    </style>
    <clipPath id="clip-path">
      <path class="cls-1" d="M1563.14,815.06c.16,2.54-2.53,4.79-6,5L1419,829.2c-3.49.23-6.45-1.65-6.62-4.19l-3-45.33c-.17-2.54,2.52-4.79,6-5l138.11-9.12c3.49-.23,6.46,1.65,6.62,4.19Z"/>
    </clipPath>
    <linearGradient id="Unbenannter_Verlauf_3" data-name="Unbenannter Verlauf 3" x1="1337.72" y1="370.7" x2="1337.72" y2="322.57" gradientUnits="userSpaceOnUse">
      <stop offset="0" stop-color="#48838f"/>
      <stop offset="1" stop-color="#81cbdc"/>
    </linearGradient>
    <linearGradient id="Unbenannter_Verlauf_2" data-name="Unbenannter Verlauf 2" x1="1348.82" y1="261.9" x2="1348.82" y2="232.64" gradientUnits="userSpaceOnUse">
      <stop offset="0" stop-color="#e7aa16"/>
      <stop offset="1" stop-color="#e0c13e"/>
    </linearGradient>
  </defs>
  <title>2017-03-Aufriss-easyKisi-Streets_Final</title>
  <rect class="cls-2" x="-3" y="-5" width="1936" height="1099"/>
  <g>
    <rect class="cls-3" x="-4.62" y="872" width="1933.62" height="222"/>
    <rect class="cls-3" x="-4.62" y="872" width="1933.62" height="222"/>
  </g>
  <g>
    <g>
      <rect class="cls-4" x="148.1" y="987.98" width="255.84" height="8.53" transform="translate(-741.86 835.24) rotate(-65.69)"/>
      <rect class="cls-4" x="322.5" y="855.37" width="10.23" height="43.49" transform="translate(-549.51 1204.73) rotate(-90)"/>
    </g>
    <g>
      <rect class="cls-4" x="337.56" y="987.98" width="255.84" height="8.53" transform="translate(-630.41 1007.89) rotate(-65.69)"/>
      <rect class="cls-4" x="511.67" y="855.37" width="10.23" height="43.49" transform="translate(-360.34 1393.9) rotate(-90)"/>
    </g>
    <g>
      <rect class="cls-4" x="527.01" y="987.98" width="255.84" height="8.53" transform="translate(-518.97 1180.54) rotate(-65.69)"/>
      <rect class="cls-4" x="700.84" y="855.37" width="10.23" height="43.49" transform="translate(-171.17 1583.07) rotate(-90)"/>
    </g>
    <g>
      <rect class="cls-4" x="716.89" y="987.98" width="255.84" height="8.53" transform="translate(-407.27 1353.58) rotate(-65.69)"/>
      <rect class="cls-4" x="889.58" y="855.37" width="10.23" height="43.49" transform="translate(17.58 1771.82) rotate(-90)"/>
    </g>
    <g>
      <rect class="cls-4" x="905.35" y="987.98" width="255.84" height="8.53" transform="translate(-296.4 1525.32) rotate(-65.69)"/>
      <rect class="cls-4" x="1079.75" y="855.37" width="10.23" height="43.49" transform="translate(207.74 1961.98) rotate(-90)"/>
    </g>
    <g>
      <rect class="cls-4" x="1094.8" y="987.98" width="255.84" height="8.53" transform="translate(-184.95 1697.97) rotate(-65.69)"/>
      <rect class="cls-4" x="1268.92" y="855.37" width="10.23" height="43.49" transform="translate(396.91 2151.15) rotate(-90)"/>
    </g>
    <g>
      <rect class="cls-4" x="1284.26" y="987.98" width="255.84" height="8.53" transform="translate(-73.5 1870.62) rotate(-65.69)"/>
      <rect class="cls-4" x="1458.09" y="855.37" width="10.23" height="43.49" transform="translate(586.08 2340.32) rotate(-90)"/>
    </g>
    <g>
      <rect class="cls-4" x="1474.14" y="987.98" width="255.84" height="8.53" transform="translate(38.2 2043.66) rotate(-65.69)"/>
      <rect class="cls-4" x="1646.83" y="855.37" width="10.23" height="43.49" transform="translate(774.83 2529.06) rotate(-90)"/>
    </g>
  </g>
  <ellipse class="cls-5" cx="1350" cy="508" rx="360" ry="9"/>
  <path class="cls-6" d="M78.5,812v8a6,6,0,0,0,12,0v-2a6,6,0,0,0-12,0v2a6,6,0,0,0,12,0v-8a6,6,0,0,0-12,0Z"/>
  <path class="cls-6" d="M214.75,792.19v12c0,7.72,12,7.73,12,0v-12c0-7.72-12-7.74-12,0Z"/>
  <path class="cls-6" d="M266.5,796v5a6,6,0,0,0,12,0v-2a6,6,0,0,0-12,0v2a6,6,0,0,0,12,0v-5a6,6,0,0,0-12,0Z"/>
  <path class="cls-6" d="M620.5,743c7.72,0,7.73-12,0-12s-7.73,12,0,12Z"/>
  <path class="cls-6" d="M770.5,760v3a6.18,6.18,0,0,0,1.76,4.24,6,6,0,0,0,8.48,0A6.2,6.2,0,0,0,782.5,763v-3a6.18,6.18,0,0,0-1.76-4.24,6,6,0,0,0-8.48,0A6.2,6.2,0,0,0,770.5,760Z"/>
  <path class="cls-6" d="M1718.88,437.18c7.72,0,7.74-12,0-12s-7.73,12,0,12Z"/>
  <path class="cls-6" d="M686.5,764v9a6,6,0,0,0,12,0v-9a6,6,0,0,0-12,0Z"/>
  <path class="cls-6" d="M1337.5,485v5a6,6,0,0,0,12,0v-2a6,6,0,0,0-12,0v2a6,6,0,0,0,12,0v-5a6,6,0,0,0-12,0Z"/>
  <g>
    <rect class="cls-7" x="1151.3" y="642.27" width="24.51" height="181.94"/>
    <rect class="cls-7" x="1396.39" y="642.27" width="24.51" height="182.04"/>
    <rect class="cls-8" x="1382.6" y="642.27" width="12.25" height="27.6"/>
    <rect class="cls-8" x="1178.53" y="642.27" width="12.25" height="27.6"/>
    <rect class="cls-9" x="1122.2" y="624.6" width="327.8" height="15.46"/>
    <rect class="cls-7" x="1181.94" y="729.53" width="24.51" height="94.97"/>
    <rect class="cls-7" x="1367.28" y="729.53" width="24.51" height="94.97"/>
    <rect class="cls-8" x="1353.5" y="729.53" width="12.25" height="38.29"/>
    <rect class="cls-8" x="1209.17" y="729.53" width="12.25" height="38.29"/>
    <rect class="cls-9" x="1122.2" y="705.02" width="327.8" height="21.44"/>
  </g>
  <g>
    <rect class="cls-10" x="899.67" y="607.07" width="13.5" height="229.54" transform="translate(1812.84 1443.68) rotate(-180)"/>
    <rect class="cls-11" x="851.27" y="496" width="110.3" height="110.3" rx="10.03" ry="10.03"/>
    <rect class="cls-4" x="869.65" y="516.05" width="73.53" height="73.53"/>
    <g>
      <rect x="880.52" y="572.74" width="51.81" height="4.32"/>
      <rect x="911.82" y="554.75" width="4.32" height="20.87"/>
      <rect x="886.99" y="564.1" width="4.32" height="11.51"/>
      <rect x="880.52" y="562.66" width="17.27" height="4.32"/>
      <polygon points="922.61 548.27 926.93 548.27 918.29 539.64 921.89 539.64 913.97 525.25 906.06 539.64 909.66 539.64 901.02 548.27 905.34 548.27 895.99 557.63 912.53 557.63 915.41 557.63 931.96 557.63 922.61 548.27"/>
    </g>
  </g>
  <g>
    <path class="cls-12" d="M1849.7,789.4a10.16,10.16,0,1,0,14.59-12,17.78,17.78,0,1,0-16.87,12.18A19.12,19.12,0,0,0,1849.7,789.4Z"/>
    <path class="cls-12" d="M1743.56,732.33a13.84,13.84,0,0,0-3.93.58,19.8,19.8,0,1,0,.75,26.46,13.71,13.71,0,1,0,3.18-27Z"/>
    <path class="cls-12" d="M1650.4,752.08a13.73,13.73,0,0,0-2.89-2.72,19.81,19.81,0,1,0-20.32,17,13.71,13.71,0,1,0,23.21-14.24Z"/>
    <path class="cls-12" d="M1821.79,746.16a13.78,13.78,0,0,0-3.93.58,19.81,19.81,0,1,0,.74,26.46,14,14,0,0,0,3.19.39,13.72,13.72,0,0,0,0-27.43Z"/>
    <path class="cls-12" d="M1579.64,748.3a11.68,11.68,0,1,0-15.81,4.15,14.22,14.22,0,1,0,15.81-4.15Z"/>
    <path class="cls-12" d="M1578.75,843.38a25.22,25.22,0,1,0-47.8,0Z"/>
    <path class="cls-12" d="M1890.68,843.38a19.78,19.78,0,0,0,.32-3.55,20.32,20.32,0,1,0-40.63,0,19.78,19.78,0,0,0,.32,3.55Z"/>
    <path class="cls-13" d="M1558.64,844.76H1873a27,27,0,0,0-9.76-29.34,18,18,0,0,0,.18-11.75,17.47,17.47,0,0,0-8.13-31.29,22.76,22.76,0,0,0-45-4.13l-1.59-.44a16.43,16.43,0,1,0-31.71-3.94l-29.23,1.32c0-.13,0-.26,0-.39a21.72,21.72,0,0,0-43.43,0c0,.48,0,1,.06,1.43l-11.18-.1a20.65,20.65,0,0,0-41.27-.81l-14.35-.64a21.18,21.18,0,0,0-41-8.3,18,18,0,1,0-23,25.35,21.17,21.17,0,0,0-7.18,28.66,20.65,20.65,0,0,0-7.71,34.37Z"/>
    <path class="cls-14" d="M1564.39,793.65a20.76,20.76,0,0,0-.89,5.61h304a17.32,17.32,0,0,0,2.4-5.61Z"/>
    <path class="cls-14" d="M1867.44,819.38a26.58,26.58,0,0,0-4.25-4,17.42,17.42,0,0,0,1-4.46H1564.88a20.75,20.75,0,0,0-9.62,8.42Z"/>
    <path class="cls-14" d="M1874.07,837.08a26.75,26.75,0,0,0-1.49-8.81H1552.43a20.8,20.8,0,0,0,1.82,10.29H1874C1874,838.07,1874.07,837.58,1874.07,837.08Z"/>
    <g>
      <path class="cls-15" d="M1420.35,835.61c-5.41.35-9.89-2.9-10.18-7.41L1407,780.86c-.3-4.52,3.71-8.33,9.12-8.69l140.33-9.26c5.42-.36,9.89,2.9,10.19,7.41l3.12,47.34c.3,4.51-3.71,8.33-9.12,8.68Z"/>
      <g>
        <g>
          <polygon class="cls-4" points="1439 834.47 1441.26 834.32 1442.47 844.1 1440.21 844.23 1439 834.47"/>
          <polygon class="cls-16" points="1442.52 832.8 1437.39 833.14 1438.95 845.74 1444.08 845.44 1442.52 832.8 1442.52 832.8"/>
        </g>
        <g>
          <polygon class="cls-4" points="1535.52 844.17 1534.18 828.18 1536.45 828.03 1537.76 844.35 1535.52 844.17"/>
          <polygon class="cls-16" points="1537.76 826.51 1532.63 826.85 1534.2 845.5 1539.32 845.92 1537.76 826.51 1537.76 826.51"/>
        </g>
      </g>
      <path class="cls-4" d="M1417.31,832.94c-5.41.36-9.89-2.9-10.18-7.41L1404,778.19c-.3-4.51,3.71-8.32,9.12-8.68l140.33-9.26c5.42-.36,9.89,2.89,10.19,7.41l3.12,47.33c.3,4.52-3.71,8.33-9.12,8.69Z"/>
      <path class="cls-17" d="M1563.53,815.21c.17,2.66-2.56,5-6.1,5.24l-140.33,9.26c-3.55.23-6.57-1.73-6.74-4.39L1407.23,778c-.17-2.66,2.56-5,6.11-5.24l140.33-9.26c3.54-.23,6.56,1.73,6.73,4.39Z"/>
      <path d="M1563.53,815.21c.17,2.66-2.56,5-6.1,5.24l-140.33,9.26c-3.55.23-6.57-1.73-6.74-4.39L1407.23,778c-.17-2.66,2.56-5,6.11-5.24l140.33-9.26c3.54-.23,6.56,1.73,6.73,4.39Z"/>
      <path class="cls-13" d="M1563.54,815.38c.17,2.56-2.53,4.83-6,5.06l-138.46,9.14c-3.5.23-6.47-1.66-6.64-4.22l-3-45.65c-.17-2.56,2.53-4.83,6-5.06l138.46-9.13c3.49-.24,6.47,1.66,6.64,4.22Z"/>
      <path class="cls-18" d="M1563.53,815.21c.17,2.66-2.56,5-6.1,5.24l-140.33,9.26c-3.55.23-6.57-1.73-6.74-4.39L1407.23,778c-.17-2.66,2.56-5,6.11-5.24l140.33-9.26c3.54-.23,6.56,1.73,6.73,4.39Z"/>
      <g class="cls-19">
        <g>
          <path class="cls-20" d="M1422.92,815.9a9,9,0,1,1-9.53-8.31A8.94,8.94,0,0,1,1422.92,815.9Z"/>
          <path class="cls-20" d="M1431.21,825a3.72,3.72,0,1,1-4-3.45A3.72,3.72,0,0,1,1431.21,825Z"/>
          <path class="cls-20" d="M1418.47,801.57a1.74,1.74,0,1,1-1.86-1.62A1.74,1.74,0,0,1,1418.47,801.57Z"/>
          <path class="cls-20" d="M1427.12,780.68a8.38,8.38,0,1,1-8.91-7.77A8.37,8.37,0,0,1,1427.12,780.68Z"/>
          <path class="cls-20" d="M1451,820.67a4.66,4.66,0,1,1-5-4.32A4.64,4.64,0,0,1,1451,820.67Z"/>
          <path class="cls-20" d="M1466.56,823.47a4.77,4.77,0,1,1-5.07-4.42A4.77,4.77,0,0,1,1466.56,823.47Z"/>
          <path class="cls-20" d="M1479.6,819.59a2.21,2.21,0,1,1-2.35-2.05A2.22,2.22,0,0,1,1479.6,819.59Z"/>
          <path class="cls-20" d="M1553.56,809.49a4.89,4.89,0,1,1-5.2-4.54A4.86,4.86,0,0,1,1553.56,809.49Z"/>
          <path class="cls-20" d="M1547.82,800.23a2.91,2.91,0,1,1-3.09-2.7A2.9,2.9,0,0,1,1547.82,800.23Z"/>
          <path class="cls-20" d="M1564.45,776.61a6.86,6.86,0,1,1-7.3-6.37A6.85,6.85,0,0,1,1564.45,776.61Z"/>
          <path class="cls-20" d="M1549.14,774.37a2.91,2.91,0,1,1-3.09-2.7A2.89,2.89,0,0,1,1549.14,774.37Z"/>
          <path class="cls-20" d="M1567.19,818.11a4.89,4.89,0,1,1-5.2-4.54A4.86,4.86,0,0,1,1567.19,818.11Z"/>
          <path class="cls-20" d="M1543.07,816.68a2.09,2.09,0,1,1-2.22-1.94A2.09,2.09,0,0,1,1543.07,816.68Z"/>
          <path class="cls-20" d="M1498.73,819.72a4.07,4.07,0,1,1-4.33-3.77A4.06,4.06,0,0,1,1498.73,819.72Z"/>
        </g>
      </g>
      <path class="cls-21" d="M1519.17,840.93a10.75,10.75,0,0,1-10.14-5.58c-2.33-4.06-3-11,.71-19.57a14.74,14.74,0,0,1-5.86,1.67,13.83,13.83,0,0,1-11-4.28,15.56,15.56,0,0,1-1.68-2,16.42,16.42,0,0,1-4,4.27,14.65,14.65,0,0,1-7.44,3,8.69,8.69,0,0,1-7.46-3.28c-.16-.2-.31-.41-.46-.63a17.14,17.14,0,0,1-9.79,4.34,11.4,11.4,0,0,1-8.49-2.87,12.3,12.3,0,0,1-1.37-1.42c-3.54,4.54-7.94,7.08-12.89,7.4-.4,0-.81,0-1.22,0-5.52-.06-9.75-2-12.55-5.82-4.62-6.28-3.57-15.75-1.72-23-.38-.63-.73-1.24-1-1.79-3.36-6.09-2.72-18.38.23-23.45l1.49-2.57,21.82,0-.26.33a12.53,12.53,0,0,1,2.09-.3,12.3,12.3,0,0,1,8.6,2.69,11.43,11.43,0,0,1,3.11,3.71c3.58-3.28,7.42-5.28,10.72-5.5.28,0,.54,0,.81,0a12.75,12.75,0,0,1,4.93,1l10.66-.32v-.29l22.36-2.21-1.16,6.68a30.39,30.39,0,0,0-.36,4.05,73,73,0,0,1,5.76-12.51l1.31-2.15,20.13-2.32-1.93,5.51,18.22-1.09-4.08,8c-.92,1.8-1.75,5.85-2.53,10.49a41.51,41.51,0,0,1,13.94-3.58l.38,0c10.07-.55,14.39,4.67,16.07,7.83,4.47,8.39.75,20.68-1.82,24.09l-2.38,3.15-2,.12a135.9,135.9,0,0,1-12.63-6.55l-5.3-2.6,3.26-4.9a19.89,19.89,0,0,0,3.1-7c-.23,0-.52,0-.87,0a23.8,23.8,0,0,0-5.23,1.11c-2.32.71-5.61,3-9.31,6.47-2,12-4.74,25.17-10.27,33.07-3.59,5.13-8,8.12-12.53,8.42Z"/>
      <path class="cls-22" d="M1517,841.07a10.74,10.74,0,0,1-10.14-5.57c-2.33-4.06-3-11,.71-19.57a15.07,15.07,0,0,1-5.86,1.67,13.8,13.8,0,0,1-11-4.29,14.22,14.22,0,0,1-1.67-2,16.5,16.5,0,0,1-4,4.28,14.74,14.74,0,0,1-7.44,3,8.7,8.7,0,0,1-7.46-3.29c-.16-.2-.31-.4-.46-.62a17.1,17.1,0,0,1-9.79,4.33,11.4,11.4,0,0,1-8.49-2.87,13.06,13.06,0,0,1-1.37-1.41c-3.54,4.53-7.94,7.07-12.89,7.4-.4,0-.81,0-1.21,0-5.53-.06-9.76-2-12.56-5.82-4.62-6.27-3.57-15.74-1.72-22.94-.38-.63-.73-1.24-1-1.79-3.36-6.1-2.72-18.38.23-23.45l1.49-2.57,21.82,0-.26.33a15,15,0,0,1,2.09-.3,12.31,12.31,0,0,1,8.6,2.7,11.29,11.29,0,0,1,3.11,3.7c3.58-3.28,7.42-5.28,10.72-5.49a7.42,7.42,0,0,1,.81,0,12.74,12.74,0,0,1,4.93,1l10.66-.31V767l22.36-2.2-1.16,6.67a30.57,30.57,0,0,0-.36,4.06,72.16,72.16,0,0,1,5.76-12.51l1.31-2.16,20.13-2.32L1531,764l18.22-1.1-4.08,8c-.92,1.8-1.75,5.84-2.53,10.48a41.48,41.48,0,0,1,13.94-3.57l.38,0c10.07-.55,14.39,4.66,16.07,7.82,4.47,8.39.75,20.69-1.82,24.09l-2.38,3.16-3.67-1.49c-5-2-10.37-4.65-11-4.94l-5.3-2.6,3.27-4.9a20,20,0,0,0,3.09-7,6.71,6.71,0,0,0-.87,0,24.28,24.28,0,0,0-5.23,1.1c-2.32.72-5.61,3-9.31,6.47-2,12-4.74,25.18-10.27,33.08-3.59,5.13-8,8.11-12.53,8.41Z"/>
      <path d="M1570.89,786.76c-1.73-3.25-5.54-7-13.86-6.58l-.36,0a41.59,41.59,0,0,0-17.12,5.33c1-6.92,2.12-13,3.46-15.64l2.22-4.37-17.64,1.06,1.85-5.31L1514.17,763l-.72,1.17a67.45,67.45,0,0,0-7.86,20.7c-.39-.68-.75-1.32-1-1.87-1.77-3.36-1.18-9.79-.8-12l.63-3.64-17.17,1.69v.45l-13.35.39V770a10.44,10.44,0,0,0-4.66-1.13c-.19,0-.4,0-.6,0-3.42.23-8,3-11.91,7.59a9.33,9.33,0,0,0-3.52-6.28,10,10,0,0,0-7-2.21c-4.6.3-8.85,3.54-12.09,6.94a14.31,14.31,0,0,1,1.54-2.4l3.68-4.57-15.58,0-.82,1.4c-2.54,4.38-3.12,15.85-.2,21.15.46.83,1,1.69,1.51,2.53-2,7.1-3.15,16.21,1.08,21.94,2.34,3.18,5.94,4.82,10.69,4.87.35,0,.69,0,1,0,5.76-.38,10.14-4.3,13.12-9.33a11.88,11.88,0,0,0,2.84,3.93,9.12,9.12,0,0,0,6.78,2.28h0c3.73-.24,7.53-2.46,10.67-6a9.35,9.35,0,0,0,1.57,3.12,6.3,6.3,0,0,0,5.48,2.41h0a12.57,12.57,0,0,0,6.24-2.6c2-1.44,3.91-4.15,5.57-7.41a11.63,11.63,0,0,0,3.1,5.4,11.52,11.52,0,0,0,9.13,3.6h0a13.35,13.35,0,0,0,11.29-8.37,12.61,12.61,0,0,0,2.4.62c-.54.75-1.07,1.51-1.59,2.27-7.51,11.13-7.38,20-4.75,24.55a8.3,8.3,0,0,0,7.94,4.4c3.77-.25,7.6-2.88,10.77-7.41,5.31-7.6,8.05-20.79,10-32.89,4.24-4.08,8-6.69,10.81-7.56a26.5,26.5,0,0,1,5.75-1.2c1.68-.11,2.86.14,3.17.68.84,1.45-.66,6-3.29,9.93l-1.78,2.67,2.88,1.41c.24.12,5.76,2.82,10.84,4.89l2,.81,1.3-1.72C1571.51,805.38,1574.84,794.17,1570.89,786.76Z"/>
      <g>
        <path d="M1437,819.34c-.33,0-.67,0-1,0-4.59,0-8.06-1.62-10.31-4.68-4.33-5.88-2.62-15.72-1-21.75-.59-.87-1.12-1.79-1.61-2.67-3.06-5.56-2-16.82.2-20.68l.68-1.17,14.33,0-3.07,3.81a16.65,16.65,0,0,0-2.69,5.15c3.28-3.92,8.27-8.58,13.64-8.93a9.62,9.62,0,0,1,6.7,2.11c3.17,2.46,4.21,6.66,2.87,11.52a25.53,25.53,0,0,1-6.1,10.34l.87-.06c.94-.07,1.46-.07,1.52-.07h2.46l-.12,2.46c-.45,9.47-6.3,23.84-17.41,24.57Zm-3.54-20.94c-.59,5,.14,8.89,2.07,11a1.37,1.37,0,0,0,.64.47c.15,0,.57-.21,1.18-.91,2-2.34,3.84-7.54,4.29-11.11a13.05,13.05,0,0,1-2.35.53c-.59.07-1.18.13-1.73.16a21.11,21.11,0,0,1-4.1-.09Zm2.36-8.68a8.19,8.19,0,0,0,.86,0c3.36-.22,5.93-2.91,7.23-5.35a6.37,6.37,0,0,0,1-4h-.27c-2.82.19-7.23,4.8-9,9.29Z"/>
        <path d="M1425.33,770.77h8.1c-5.18,6.42-6.9,20.73,2.24,21.28,9.41.56,14.76-13.32,9.58-14-4.31-.53-10.37,6-12.24,11.76-2.78,8.48-3.08,17,.8,21.1,5.23,5.6,10.64-9.75,10.24-15.36a48.42,48.42,0,0,1,8-.93c-.45,9.41-6.29,22.47-16,22.37-18.71-.2-7.88-29.08-5.18-33.33,3.86-6.09,13.17-17.07,20.63-11.27s-2.87,22.4-12.46,23.57c-8.87,1.08-11.31-2.28-13.83-6.86S1423.38,774.13,1425.33,770.77Z"/>
        <path d="M1501.49,814.79a11.08,11.08,0,0,1-8.77-3.46,10.71,10.71,0,0,1-3.2-6.57c-1.78,3.77-3.83,6.94-6.07,8.52a12,12,0,0,1-6,2.52h0a5.84,5.84,0,0,1-5.08-2.23,9.6,9.6,0,0,1-1.73-3.85c-3.18,3.78-7.14,6.26-10.91,6.51h0a8.65,8.65,0,0,1-6.44-2.17c-2.76-2.45-4.33-6.69-4.66-12.61-1-18,12.38-31.58,20-32.08a5.42,5.42,0,0,1,.57,0,9.73,9.73,0,0,1,5.12,1.44v-.41l13.36-.39v-.48l16.12-1.59-.53,3c-.38,2.24-1,8.81.85,12.29.55,1,1.32,2.35,2.14,3.74,3.24,5.51,7.27,12.37,6.7,17.33-.61,5.4-5.77,10.09-11.48,10.47Zm-.93-13.31a6.68,6.68,0,0,0,.56,1.48A8.92,8.92,0,0,0,1500,799ZM1495,789.26a111.4,111.4,0,0,1-4.48,13.21l9.39-3.66c-.78-1.72-1.8-3.62-2.62-5.15s-1.58-2.94-2.29-4.4Zm-32.19.07a43.71,43.71,0,0,0-2,6.14c-1.12,4.65-.68,7.25.1,8.14.17.19.23.19.26.18,1.74-.11,5.68-5,8.89-12.66Zm24.32-12.22c-2.22,6.9-4.29,14.08-5.59,19.56a119.91,119.91,0,0,0,5.59-19.56Z"/>
        <path d="M1472.94,789.42l-7.49-1.86s7.38-8.8,3.74-10.28c-4-1.62-15.26,21.93-10,27.88s17.36-16.56,17.5-32.5l9.59-.28s-10.77,32.07-7.9,34.54c2.23,1.91,11.82-24.95,11.7-35.28l10.93-1.08s-1.53,8.81,1.08,13.78,9.2,14.34,8.58,19.72c-.71,6.27-9.9,12-16.26,5.62a8.2,8.2,0,0,1-2.53-5.2l6.43-2.5s1,4.69,3.62,3.42c6.19-3-8-18-7-25.22,0,0-5.56,26.09-12.77,31.19-10.8,7.63-10.24-7.69-8.7-11.29-4.87,14.37-21.3,21.57-22.43,1.24-1-17.19,12.26-29.73,18.2-29.62S1479.15,777.84,1472.94,789.42Z"/>
        <path d="M1516.78,838.26a7.86,7.86,0,0,1-7.51-4.16c-2.55-4.45-2.65-13.1,4.74-24.06.66-1,1.34-1.94,2.06-2.9a10.67,10.67,0,0,1-9.52-7.35c-4.74-15.26,6.81-34.53,7.3-35.34l.6-1,14.16-1.64-2.08,3.94c-4.75,9-11.35,25.13-8.81,30.15a2,2,0,0,0,1.72,1.16,4.64,4.64,0,0,0,1,0c5.71-.38,7.28-14.23,8.12-21.67.49-4.38.74-6.36,1.45-7.55l.63-1.06,13.83-.82-1.85,3.65c-1.43,2.82-2.54,9.38-3.65,16.73a41.53,41.53,0,0,1,17.76-5.74l.36,0c8.07-.45,11.75,3.2,13.42,6.34,3.85,7.22.6,18.18-1.58,21.06l-1.08,1.44-1.67-.68c-5.07-2.06-10.58-4.75-10.81-4.87l-2.4-1.17,1.48-2.23c2.76-4.13,4.24-8.81,3.31-10.43-.56-1-2.5-1-3.61-.91a27.38,27.38,0,0,0-5.86,1.22c-2.93.9-6.76,3.59-11.11,7.78-2,12.09-4.67,25.3-10,32.85-3.09,4.41-6.79,7-10.42,7.21Zm3.81-19.24a39.16,39.16,0,0,0-2.64,5,37.5,37.5,0,0,0,2.64-5Z"/>
        <path d="M1515.86,765.66l8.6-1s-17.43,32.93-5.37,34.73,11.06-27.2,12.9-30.28l8.51-.51c-4.64,9.14-5.11,46.65-15.22,61.09s-23,1.92-9.32-18.35c9.27-13.75,25.42-27.5,41.23-28.37,18.1-1,12.33,20.36,9.84,23.66-5-2-10.66-4.8-10.66-4.8,3.55-5.31,9.93-19.4-8.8-13.66-12.79,3.93-34,34.09-32.32,38,4.35,10.14,16-30.41,16-30.41-8.67,12.49-20.23,10.5-22.47,3.28C1504.31,784.66,1515.86,765.66,1515.86,765.66Z"/>
      </g>
      <g>
        <path class="cls-4" d="M1570.89,786.76c-1.73-3.25-5.54-7-13.86-6.58l-.36,0a41.59,41.59,0,0,0-17.12,5.33c1-6.92,2.12-13,3.46-15.64l2.22-4.37-17.64,1.06,1.85-5.31L1514.17,763l-.72,1.17a67.45,67.45,0,0,0-7.86,20.7c-.39-.68-.75-1.32-1-1.87-1.77-3.36-1.18-9.79-.8-12l.63-3.64-17.17,1.69v.45l-13.35.39V770a10.44,10.44,0,0,0-4.66-1.13c-.19,0-.4,0-.6,0-3.42.23-8,3-11.91,7.59a9.33,9.33,0,0,0-3.52-6.28,10,10,0,0,0-7-2.21c-4.6.3-8.85,3.54-12.09,6.94a14.31,14.31,0,0,1,1.54-2.4l3.68-4.57-15.58,0-.82,1.4c-2.54,4.38-3.12,15.85-.2,21.15.46.83,1,1.69,1.51,2.53-2,7.1-3.15,16.21,1.08,21.94,2.34,3.18,5.94,4.82,10.69,4.87.35,0,.69,0,1,0,5.76-.38,10.14-4.3,13.12-9.33a11.88,11.88,0,0,0,2.84,3.93,9.12,9.12,0,0,0,6.78,2.28h0c3.73-.24,7.53-2.46,10.67-6a9.35,9.35,0,0,0,1.57,3.12,6.3,6.3,0,0,0,5.48,2.41h0a12.57,12.57,0,0,0,6.24-2.6c2-1.44,3.91-4.15,5.57-7.41a11.63,11.63,0,0,0,3.1,5.4,11.52,11.52,0,0,0,9.13,3.6h0a13.35,13.35,0,0,0,11.29-8.37,12.61,12.61,0,0,0,2.4.62c-.54.75-1.07,1.51-1.59,2.27-7.51,11.13-7.38,20-4.75,24.55a8.3,8.3,0,0,0,7.94,4.4c3.77-.25,7.6-2.88,10.77-7.41,5.31-7.6,8.05-20.79,10-32.89,4.24-4.08,8-6.69,10.81-7.56a26.5,26.5,0,0,1,5.75-1.2c1.68-.11,2.86.14,3.17.68.84,1.45-.66,6-3.29,9.93l-1.78,2.67,2.88,1.41c.24.12,5.76,2.82,10.84,4.89l2,.81,1.3-1.72C1571.51,805.38,1574.84,794.17,1570.89,786.76Z"/>
        <path class="cls-23" d="M1557.18,783c-7.26.4-14.6,3.53-21.31,8.12,1.49-9.94,2.7-18.68,4.63-22.49l-8.51.51c-1.84,3.08-.84,32.08-12.9,30.28s5.37-34.73,5.37-34.73l-8.6,1s-9.39,15.45-7.95,29.07c-2-3.88-4.48-7.78-5.85-10.39-2.61-5-1.08-13.78-1.08-13.78l-10.93,1.08c.12,10.33-9.47,37.19-11.7,35.28-2.87-2.47,7.9-34.54,7.9-34.54l-9.59.28a40.76,40.76,0,0,1-.58,6.19c-.12-4.66-3.08-7.08-6.91-7.15-5.15-.09-15.74,9.3-17.87,23a55.08,55.08,0,0,0-7.25.91c.4,5.61-5,21-10.24,15.36-3-3.2-3.49-9-2.28-15.39a16.56,16.56,0,0,0,7.47.44c9.59-1.17,19.91-17.78,12.46-23.57s-16.77,5.18-20.63,11.27a22.42,22.42,0,0,0-1.34,2.68c-1.07-4.87.79-11.69,3.94-15.6h-8.1c-1.95,3.36-2.69,13.79-.16,18.37a23.41,23.41,0,0,0,2.13,3.35c-3,10-4.5,24.4,8.71,24.54,7.58.08,12.8-7.78,15-15.71h0c1.12,20.07,17.13,13.32,22.23-.68-1.36,4.39-1.42,18,8.9,10.73,7.21-5.1,12.77-31.19,12.77-31.19-.92,7.26,13.22,22.21,7,25.22-2.6,1.27-3.62-3.42-3.62-3.42l-6.43,2.5a8.2,8.2,0,0,0,2.53,5.2c6.36,6.4,15.55.65,16.26-5.62a7.48,7.48,0,0,0,0-1.88c2.41,2.55,6.53,3.5,11,1.83a76.32,76.32,0,0,0-5.63,7.34c-13.67,20.27-.79,32.8,9.32,18.35,5.07-7.24,7.71-20.28,9.68-32.64,4.4-4.33,8.87-7.73,12.61-8.88,18.73-5.74,12.35,8.35,8.8,13.66,0,0,5.61,2.75,10.66,4.8C1569.52,803.34,1575.29,782,1557.18,783Zm-111.93-4.89c5.18.65-.17,14.53-9.58,14a6.72,6.72,0,0,1-3.07-.9c.13-.44.26-.88.41-1.31C1434.88,784.13,1440.94,777.56,1445.25,778.09Zm13.91,27.07c-5.23-5.95,6-29.5,10-27.88,3.65,1.48-3.74,10.28-3.74,10.28l7.49,1.86c.37-.69.71-1.36,1-2C1470,799.31,1462.87,809.38,1459.16,805.16Zm56.09,21.06c-1-2.24,5.48-13,13.57-22.51C1525.16,815,1518.35,833.45,1515.25,826.22Z"/>
      </g>
      <path class="cls-4" d="M1566.54,786.17c1.19.89,1.79,2.09,1.34,2.69s-1.77.38-3-.51-1.79-2.09-1.34-2.69S1565.36,785.29,1566.54,786.17Z"/>
      <path class="cls-4" d="M1472.29,773.15c1.19.88,1.79,2.09,1.34,2.69s-1.78.37-3-.51-1.78-2.09-1.33-2.7S1471.1,772.26,1472.29,773.15Z"/>
      <path class="cls-4" d="M1449.89,772.6c1.19.88,1.79,2.09,1.34,2.69s-1.77.37-3-.51-1.79-2.09-1.34-2.7S1448.7,771.71,1449.89,772.6Z"/>
    </g>
    <g>
      <path class="cls-24" d="M1717.91,841.81c-2,0-8.41.43-10.21-.15-1.52-.48,1.57-1.89.22-2.76a12.88,12.88,0,0,1-7.59,2.51c-3.9,0-11.49.93-13.77-2.21-2.57-3.57-.24-12.2,6.19-20.11l2-2.44-.12-55.82-1.85-1.28a10.53,10.53,0,0,1-4.36-7.1c-.6-3.5-3.78-10.27-1.94-12.81,2.27-3.14,9.81-2.23,13.72-2.23a12.83,12.83,0,0,1,7.6,2.54c1.28-.93-2.39-2.15-.93-2.57,1.13-.33,7.36,0,8.54,0a11.85,11.85,0,0,1,9.71,4.94c2.87,4,3.87,12.17-1.81,16.66l-1.71,1.36-.61,0v53.56a9.78,9.78,0,0,1,3.26-.54,11,11,0,0,1,7.91,3.39,12.71,12.71,0,0,1,3.29,9.75c-.4,8.58-8.09,15.3-17.52,15.3Z"/>
      <path class="cls-21" d="M1710.46,738.58c4-.54,11.13,1,13.14,6.85h-7.94Z"/>
      <rect class="cls-21" x="1708.62" y="762.57" width="9.99" height="47.67"/>
      <path class="cls-24" d="M1710.13,841.81a18.4,18.4,0,0,1-10-2.91,12.88,12.88,0,0,1-7.59,2.51,11.85,11.85,0,0,1-9.71-4.94c-2.58-3.56-4.3-9.47,2.13-17.38l2-2.44-.13-55.82-1.84-1.28a10.5,10.5,0,0,1-4.37-7.1,14.23,14.23,0,0,1,2.06-10.1,11.86,11.86,0,0,1,9.72-4.94,12.66,12.66,0,0,0,15.21,0,11.85,11.85,0,0,1,9.72,4.94c2.86,4,3.86,12.17-1.82,16.66l-1.71,1.36-.6-.73v54.27a9.68,9.68,0,0,1,3.25-.54,11,11,0,0,1,7.92,3.39,12.75,12.75,0,0,1,3.28,9.75c-.4,8.58-8.09,15.3-17.52,15.3Z"/>
      <path class="cls-4" d="M1710.13,839.57a16,16,0,0,1-10.08-3.5,10.79,10.79,0,0,1-7.5,3.1,9.65,9.65,0,0,1-7.9-4c-2.26-3.13-3.48-7.86,2-14.66,0,0,1.52,5.19,2.51,4.93l-.16-72c-.22.32-2.79,4.32-2.79,4.32-5-3.42-4-10.92-1.77-14.06a9.66,9.66,0,0,1,7.91-4,10.59,10.59,0,0,0,15.21,0,9.66,9.66,0,0,1,7.91,4c2.26,3.14,3.25,9.92-1.39,13.6,0,0-3-3.57-3.17-3.86v64.79l0,0a6.56,6.56,0,0,1,5.46-2.55,8.79,8.79,0,0,1,6.3,2.7,10.6,10.6,0,0,1,2.67,8.11c-.34,7.38-7.06,13.16-15.29,13.16Zm.85-14.63a4.39,4.39,0,0,0,.25,1.13c-.06-.33-.14-.71-.25-1.13Z"/>
      <path class="cls-22" d="M1713,822.24c4.08,11.45-4.67,9-4.67,2.25V752c.81-2.94,5.7-2,5.8,3,4.14-12.57-8.89-17-14.07-7.73-5.19-9.23-18.22-4.84-14.08,7.73.1-5,5-5.93,5.8-3l0,66.09a16,16,0,0,0,.13,1.88v6.86c-.81,2.94-5.7,2-5.8-3-4,12.29,8.32,16.75,13.72,8.31l.43.44c7.72,8.33,22,3.63,22.5-6.3C1723.21,815.94,1711,816.8,1713,822.24Z"/>
      <path class="cls-4" d="M1713,746.52c-.4.8-2.16.72-3.92-.18s-2.85-2.27-2.44-3.07,2.16-.72,3.92.18S1713.42,745.72,1713,746.52Z"/>
      <path class="cls-25" d="M1704,758.89a3.73,3.73,0,1,1-3.73-3.73A3.73,3.73,0,0,1,1704,758.89Z"/>
      <path class="cls-25" d="M1704,779a3.73,3.73,0,1,1-3.73-3.73A3.72,3.72,0,0,1,1704,779Z"/>
      <path class="cls-25" d="M1704,799.14a3.73,3.73,0,1,1-3.73-3.73A3.73,3.73,0,0,1,1704,799.14Z"/>
      <path class="cls-25" d="M1704,819.26a3.73,3.73,0,1,1-3.73-3.73A3.73,3.73,0,0,1,1704,819.26Z"/>
      <path class="cls-24" d="M1765.18,841.4c-8.19,0-7.43-3.16-13.4-9.13-9.51-9.5-9.91-23-6.09-32.19,3.12-7.48,8-11.94,14.29-13.07a62.83,62.83,0,0,1-5.3-6.55c-6.66-9.35-7.69-20.62-2.74-30.16,2.52-4.85,5.36-12.49,10.28-13.6,3.82-.87,7.7-.39,11.67-.39a25.09,25.09,0,0,1,14.34,4.74l-9-6.21H1787l2.88,0c1.37,0,4.7.14,6.17.77a14.29,14.29,0,0,1,9,14.88,11.15,11.15,0,0,1-5.74,9.4,13.46,13.46,0,0,1-1.54,8.71,13.8,13.8,0,0,1-12,7,14,14,0,0,1-1.58-.09c4.92,4.54,10.89,10.11,15.47,16.33a31.27,31.27,0,0,1,5.33,24.36,30.08,30.08,0,0,1-13.34,19.89,35.11,35.11,0,0,1-18.16,5.21Zm-.74-27.44c.29,2.79,1.55,8.75,7.56,8.75a8.72,8.72,0,0,0,7.67-4.69c1.29-2.53,1.3-5.68.07-9.15-2.06,4-5.8,6.64-9.8,6.64a51.08,51.08,0,0,1-5.33-.34c-.25-.15.26-.94,0-1.12Zm15.28-51.49.18,0c-.52-1.15-1.31-2.09-2.49-2.09a3.25,3.25,0,0,0-2.1.9Z"/>
      <path class="cls-21" d="M1776.25,779.27l8.3.25c5.79,4.39,16.53,15.47,17.8,24.8l-8.72-.14Z"/>
      <path class="cls-21" d="M1787.62,736.53c4-.54,11.13,1,13.14,6.82h-7.94Z"/>
      <path class="cls-24" d="M1765.65,841.39a30.08,30.08,0,0,1-21.64-9.12c-9.52-9.5-9.92-23-6.09-32.19,3.11-7.48,8-11.94,14.28-13.07a64.15,64.15,0,0,1-5.3-6.55c-6.66-9.35-7.68-20.62-2.74-30.16,4.48-8.63,12.89-14,21.95-14a25.09,25.09,0,0,1,14.34,4.74l.28.17-1.55-6.38,2.89,0c1.36,0,4.69.14,6.17.77a14.27,14.27,0,0,1,9,14.88,11.13,11.13,0,0,1-5.74,9.4,13.51,13.51,0,0,1-1.53,8.71,13.84,13.84,0,0,1-13.63,7c4.91,4.54,10.88,10.11,15.46,16.33a31.27,31.27,0,0,1,5.33,24.36,30.08,30.08,0,0,1-13.34,19.89,35.11,35.11,0,0,1-18.16,5.21Zm-9.06-27.65c.29,2.79,1.62,9,7.63,9a8.69,8.69,0,0,0,7.67-4.69c1.3-2.53,1.31-5.68.07-9.15-2.06,4-5.8,6.64-9.8,6.64a9.63,9.63,0,0,1-5.57-1.77ZM1772,762.47l.18,0c-.53-1.15-1.31-2.09-2.49-2.09a3.21,3.21,0,0,0-2.1.9Z"/>
      <path class="cls-4" d="M1790,793.25c-4.62-6.28-10.77-11.94-15.71-16.5-4-3.73-7.55-7-8.88-9.22-.15-.27-.48-.81-.48-.81a9.77,9.77,0,0,1-.35-1,6.59,6.59,0,0,1-.28-1.27,4.25,4.25,0,0,1,.1-2A5.07,5.07,0,0,1,1765,761a5.58,5.58,0,0,1,4.66-2.79c2.44,0,4.53,1.83,5.19,5.3,1,5-8.27-.1-8.27-.1-.13,1.24,1.27,4.31,2.09,5.54a10.93,10.93,0,0,0,9.29,4.54,11.58,11.58,0,0,0,10.09-5.9,11.38,11.38,0,0,0,.91-9c3.5-1.09,5.8-4.08,6.09-8.22.41-5.68-2.15-10.33-7.67-12.68-1.23-.53-5.33-.59-5.33-.59l1,4.18a2.05,2.05,0,0,1,0,2,1.19,1.19,0,0,1-1.15.69,5.43,5.43,0,0,1-2.69-1.05l-.06,0a22.87,22.87,0,0,0-13.05-4.33c-8.22,0-15.87,4.9-20,12.78-4.56,8.79-3.59,19.2,2.57,27.85a55.7,55.7,0,0,0,8.77,9.87c-.55-.06-1.09-.07-1.63-.08-7.62-.16-12.75,4.47-15.88,12-3.54,8.49-3.18,21,5.61,29.77a27.89,27.89,0,0,0,20.06,8.46,32.74,32.74,0,0,0,17-4.87A27.87,27.87,0,0,0,1795,815.87,29.06,29.06,0,0,0,1790,793.25ZM1773.88,819a11,11,0,0,1-9.66,5.91h0c-5.5,0-9.19-4.15-9.87-11.1a7.19,7.19,0,0,1,.9-4.58c2.4,3.32,5.07,4,6.91,4,4.37,0,8.37-4.17,9.1-9.49a9.81,9.81,0,0,0,.1-1.09C1775.27,808.84,1776.17,814.58,1773.88,819Z"/>
      <path class="cls-22" d="M1763.12,768.88c-6.73-11.48,10.58-20.14,14.31-6.07,1,3.61-2.21,5.57-6.73,4.4,7.52,8.85,20.9-.19,14.3-10.87,10.91.91,8.62-15.34.28-16.53,2.2,3.29-.85,9.73-7.54,5.33h0c-19.45-13.76-41.87,11.37-26.83,32.49,9,12.63,14.34,12,21.41,21.73,19.23,26.54-18.16,40.18-20.64,14.73-.55-5.71,3.14-10.12,5.67-6.5,7.6,10.82,19.53-10.61,2.31-16.21-16.6-5.39-26.44,23.17-12.17,37.43,11.46,11.45,26.15,8,33.7,3.22,12.43-7.79,15.27-25.5,6.66-37.2C1779.59,783.6,1766.44,774.55,1763.12,768.88Z"/>
      <path class="cls-4" d="M1778.72,746.45c-.41.8-2.17.72-3.92-.17s-2.86-2.27-2.45-3.06,2.16-.72,3.92.18S1779.12,745.66,1778.72,746.45Z"/>
      <path class="cls-25" d="M1756.94,759.25a3.69,3.69,0,0,1,0,5.25,3.74,3.74,0,0,1-5.27,0,3.69,3.69,0,0,1,0-5.25A3.74,3.74,0,0,1,1756.94,759.25Z"/>
      <path class="cls-25" d="M1769.18,745.83a3.72,3.72,0,1,1-5.28,0A3.71,3.71,0,0,1,1769.18,745.83Z"/>
      <path class="cls-25" d="M1765.65,777.35a3.69,3.69,0,0,1,0,5.25,3.74,3.74,0,0,1-5.27,0,3.69,3.69,0,0,1,0-5.25A3.74,3.74,0,0,1,1765.65,777.35Z"/>
      <path class="cls-25" d="M1780.67,791.52a3.72,3.72,0,1,1-5.27,0A3.71,3.71,0,0,1,1780.67,791.52Z"/>
      <path class="cls-25" d="M1749,813.59a3.69,3.69,0,0,1,0,5.25,3.74,3.74,0,0,1-5.27,0,3.69,3.69,0,0,1,0-5.25A3.74,3.74,0,0,1,1749,813.59Z"/>
      <path class="cls-25" d="M1761.14,795.78a3.72,3.72,0,1,1-5.28,0A3.71,3.71,0,0,1,1761.14,795.78Z"/>
      <path class="cls-25" d="M1787.8,810.41a3.72,3.72,0,1,1-5.27,0A3.71,3.71,0,0,1,1787.8,810.41Z"/>
      <path class="cls-25" d="M1779,826.13a3.72,3.72,0,1,1-5.28,0A3.71,3.71,0,0,1,1779,826.13Z"/>
      <path class="cls-24" d="M1675.66,815.47a10.59,10.59,0,0,0-8.17-3.82c-1.21,0-5.63-.31-6.71.09-.82.3,1.66,1.22,1,1.73a83.57,83.57,0,0,0-17.16-27,41.47,41.47,0,0,0-4-3.85l1.65-2.41c4.93-7.21,10.51-15.38,16.17-21.26l.18-.2.16-.21a13.46,13.46,0,0,1,2.32-2.43c.67,2.18-6.54,13.84-6.64,15.66h7.78l4.36-5.52c.32-.42,3.22-4.1,4.09-5.66,4.87-8.69,2.76-15.2.14-19.12-2.75-4.11-7.52-6.38-13.44-6.38-6.56,0-13.41,2.93-17.45,7.45-2.91,3.27-9.09,13.18-13.51,21.54V737.78h-7.77s-1,4.45-3.48,4.45a10.83,10.83,0,0,1-2.66-.33,41.58,41.58,0,0,1-8.2-3.06c-2.58-1.2-5-2.34-8.13-2.34-1.94,0-9.18-.4-11.33.54-5.42,2.38-3,8.16-1.87,13.41.63,3-3.54,6.44-1.11,7.94,1.55,1,9.35.6,11.23.6a11,11,0,0,0,6.94-2.58v30.66a12,12,0,0,0-1.86,9.57,10.88,10.88,0,0,0,1.86,3.91v2.06c0,4.84,0,8.75,0,11.8v4.72a9.2,9.2,0,0,0-5.28-1.71c-5.31,0-13.27-1.3-13.27,4.51,0,2.81,1.44,13.93,3.45,15.84,1.62,1.54,7.79,1.05,13.08,1.05a32.64,32.64,0,0,0,7-.84l1.46-.18c2.4-.29,5.14-.51,8.38-.68h.34c3.56,0,5.69,5.1,7.5,6.11h7.78l-1.18-5c0-.16-3.84-16.4-2.88-29.13.13-1.72.1-3.48.07-5.35,0-.84,0-1.7,0-2.58v-1.45l.39-.3c6.87,8.69,12,21.86,13.22,25l-6.7-5.53-8,0c-.06.35,1.84,14.72,6,19.89,2,2.48,9,1.47,12.59,1.63h.1a13.39,13.39,0,0,0,9.11-3.68c1.39,1.1-2,2.62-.32,3.2s8.35.23,10.14.23c7.71,0,13.66-5.24,15.17-13.33C1679.1,821.11,1677.33,817.49,1675.66,815.47Z"/>
      <path class="cls-21" d="M1655.28,736.43c4-.55,11.13,1,13.14,6.85h-7.94Z"/>
      <path class="cls-21" d="M1662.58,813.24c4-.55,11.13,1,13.14,6.85h-7.94Z"/>
      <polygon class="cls-21" points="1617.17 739.51 1623.96 739.51 1623.96 756.53 1616.36 775.67 1613.74 774.85 1617.17 739.51"/>
      <path class="cls-21" d="M1629.58,784.28H1639c2.61,1.25,15.32,15.78,18.72,26.22-6,0-9.76-.11-9.76-.11Z"/>
      <path class="cls-24" d="M1636,840.52a11,11,0,0,1-8.47-4c-4.17-5.17-2.8-13.43-2.74-13.78l.65-3.8,6.71,5.53c-1.2-3.18-6.35-16.35-13.22-25-6.32,5.13-11.87,6.26-15.54,6.26-6.48,0-11.74-3.65-13.1-9.08-1.19-4.73.7-11.48,9.57-16.21a35.24,35.24,0,0,1,12.74-4.17l.8-1.7c1.2-2.53,2.4-5.08,3.8-7.86,4.41-8.8,11.63-20.53,14.85-24.14,4-4.52,10.88-7.45,17.45-7.45,5.91,0,10.68,2.27,13.43,6.38,2.63,3.92,4.73,10.43-.14,19.12a69.46,69.46,0,0,1-4.09,5.66l-4.36,5.52.37-7a36.38,36.38,0,0,0-1.51-8.63,13.16,13.16,0,0,0-2.31,2.43l-.16.21-.19.2c-5.66,5.88-11.24,14-16.17,21.26l-1.65,2.41a40.37,40.37,0,0,1,4,3.85,83.81,83.81,0,0,1,17.17,27,9.64,9.64,0,0,1,5.73-1.82,10.59,10.59,0,0,1,8.17,3.82c1.67,2,3.44,5.64,2.36,11.47-1.5,8.09-7.46,13.33-15.17,13.33a15.83,15.83,0,0,1-9.82-3.43,13.37,13.37,0,0,1-9.11,3.68h-.1Z"/>
      <path class="cls-21" d="M1589.82,737.67c2.25,0,7.6-.06,7.6-.06,2.8,1.22,9.19,4.93,13.08,5-3.1,3.41-10.52,1.89-10.52,1.89l-10.53-4.14Z"/>
      <path class="cls-24" d="M1592.19,756.41a11,11,0,0,1-6.94,2.58,10.56,10.56,0,0,1-10.12-8.54c-1.1-5.25,1.7-10.18,7.11-12.55a15,15,0,0,1,6.1-1.4c3.11,0,5.55,1.14,8.12,2.34a41.47,41.47,0,0,0,8.21,3.06,10.75,10.75,0,0,0,2.65.33,10.57,10.57,0,0,0,4.14-.8l7.12-3.65v43.89l-4.5.39a25.25,25.25,0,0,0-9.55,3.1,12.58,12.58,0,0,0-3.67,2.78l-8.67,10.14Z"/>
      <path d="M1594.43,751.4c-.81.67-1.81,1.6-2.62,2.37l-.25.23a9.1,9.1,0,0,1-6.31,2.75h0a8.31,8.31,0,0,1-7.93-6.76c-.87-4.17,1.41-8.11,5.82-10a12.89,12.89,0,0,1,5.2-1.22c2.61,0,4.73,1,7.18,2.14a43.58,43.58,0,0,0,8.6,3.2,13.23,13.23,0,0,0,3.2.4,12.45,12.45,0,0,0,5.11-1l3.91-2v38.18l-2.45.21a27.32,27.32,0,0,0-10.41,3.36,14.93,14.93,0,0,0-4.33,3.3l-4.72,5.53Z"/>
      <path d="M1594.88,750.49a38.54,38.54,0,0,0-3.37,3l-.25.24a8.73,8.73,0,0,1-6,2.63h0a7.87,7.87,0,0,1-7.49-6.41c-.66-3.15.45-7.31,5.56-9.54a12.34,12.34,0,0,1,5-1.18c2.52,0,4.59,1,7,2.09a43.74,43.74,0,0,0,8.68,3.23,13.64,13.64,0,0,0,8.64-.67l3.23-1.6v37l-2,.18a27.62,27.62,0,0,0-10.58,3.41,15.19,15.19,0,0,0-4.46,3.39l-3.93,4.62Z"/>
      <path d="M1589.73,752.05c3.78-3.56,6.49-6.22,7.38-2v34.69a17.46,17.46,0,0,1,5.11-3.91,29.73,29.73,0,0,1,11.44-3.67V745.83a15.71,15.71,0,0,1-10.19.84c-10.77-2.7-12.38-7.28-19.25-4.27C1574.76,746.55,1582.45,758.88,1589.73,752.05Z"/>
      <path class="cls-24" d="M1618.15,840.74c-1.81-1-7.28-3.63-10.84-3.63H1607c-3.24.17-6,.39-8.39.68l-1.45.18a32.73,32.73,0,0,1-7,.84c-5.29,0-8.33-1.83-10-3.38a9.93,9.93,0,0,1-3.1-7.3c0-5.81,4.48-10.72,9.79-10.72a9.17,9.17,0,0,1,5.28,1.71c0-1.1,0-4.72,0-4.72V791.75l8.17,7.17a6.59,6.59,0,0,0,3.14.57,12.14,12.14,0,0,0,7.06-2.1l8-6.5v10.32q0,1.32,0,2.58c0,1.87.06,3.63-.07,5.35-1,12.73,2.84,29,2.88,29.13l1.17,5Z"/>
      <path d="M1606.86,834.88c-2.79.15-5.71.36-8.54.7l-1.56.19a30.75,30.75,0,0,1-6.6.82h0c-8,0-10.82-4.55-10.82-8.45,0-4.52,3.53-8.49,7.56-8.49a7.32,7.32,0,0,1,4.69,1.83,6.11,6.11,0,0,0,2.84,1.5v-.27c0-.82,0-3.3,0-7.82,0-3.11,0-7.18,0-12.28v-5.92l4.45,3.91c.59.52,2.16,1.12,4.62,1.12a14.24,14.24,0,0,0,8.47-2.6l4.37-3.54v5.63c0,2.82.15,5.4,0,7.76-1,13.25,2.93,29.82,2.93,29.82S1611.81,834.63,1606.86,834.88Z"/>
      <path d="M1614.8,836.15c-1.87-1.15-4.47-1.71-7.94-1.71a71.37,71.37,0,0,0-8.59.7l-1.58.19a30.1,30.1,0,0,1-6.53.81h0c-7.65,0-10.37-4.31-10.37-8,0-4.28,3.32-8,7.11-8a6.83,6.83,0,0,1,4.4,1.73,6,6,0,0,0,3.56,1.64c0-.24,0-.5,0-.77,0-.81,0-3.3,0-7.81,0-3.11,0-7.18,0-12.28v-4.93l3.71,3.25c.68.6,2.33,1.24,4.91,1.24a14.49,14.49,0,0,0,8.75-2.7l3.64-3v4.69c0,2.81,0,5.39,0,7.76-.08,11.85-.12,18.38,2.2,24.49l2.35,6.16Z"/>
      <path d="M1616,834.25c-3-7.77-2.31-15.86-2.31-33-4.61,3.73-13.38,4.19-16.55,1.4,0,12.4,0,18.7,0,20a8.29,8.29,0,0,1-.35,2.78c-2,.62-4.31.29-6.9-1.89-7.5-6.32-15.53,14.59,6.45,9.58C1602.68,832.38,1610.77,831,1616,834.25Z"/>
      <path class="cls-4" d="M1636.14,838.29c-11.63-.51-9.11-15.14-9.11-15.14l4.21,3.47a4.26,4.26,0,0,0,3.06,1.65c.12,0,.52,0,.64-.18s.39-1.5-.45-3.81c-.72-2-6.91-18.54-15.26-28-6.52,6-12.19,7.21-15.8,7.21h0c-5.43,0-9.83-3-10.93-7.39-1-3.92.72-9.57,8.45-13.7a32.3,32.3,0,0,1,13.15-4c.45-.93.92-1.91,1.39-2.92,1.17-2.46,2.37-5,3.75-7.75,4.26-8.5,11.45-20.22,14.52-23.65,3.63-4.07,9.82-6.7,15.78-6.7,5.14,0,9.25,1.91,11.57,5.38,1.89,2.83,4.4,8.53-.23,16.79-.81,1.45-3.9,5.36-3.9,5.36.15-2.72-1.51-10.17-2.31-11.06a1,1,0,0,0-.78-.41c-.87,0-2.57,1-4.73,3.79l-.09.11-.1.1c-5.78,6-11.42,14.27-16.4,21.55l-2.85,4.16a36.51,36.51,0,0,1,5.45,4.89c10.84,11.77,14.64,21,18.13,29.79a5.89,5.89,0,0,1,.69-1.22,7,7,0,0,1,5.72-2.7,8.34,8.34,0,0,1,6.45,3c1.37,1.65,2.81,4.66,1.88,9.63-1.29,7-6.39,11.5-13,11.5h0a13.63,13.63,0,0,1-10-4.38c-.16.22-.32.43-.49.64a11.2,11.2,0,0,1-8.46,4Z"/>
      <g>
        <path class="cls-4" d="M1594.43,751.4c-.81.67-1.81,1.6-2.62,2.37l-.25.23a9.1,9.1,0,0,1-6.31,2.75h0a8.31,8.31,0,0,1-7.93-6.76c-.87-4.17,1.41-8.11,5.82-10a12.89,12.89,0,0,1,5.2-1.22c2.61,0,4.73,1,7.18,2.14a43.58,43.58,0,0,0,8.6,3.2,13.23,13.23,0,0,0,3.2.4,12.45,12.45,0,0,0,5.11-1l3.91-2v38.18l-2.45.21a27.32,27.32,0,0,0-10.41,3.36,14.93,14.93,0,0,0-4.33,3.3l-4.72,5.53Z"/>
        <path class="cls-4" d="M1589.73,752.05c3.78-3.56,6.49-6.22,7.38-2v34.69a17.46,17.46,0,0,1,5.11-3.91,29.73,29.73,0,0,1,11.44-3.67V745.83a15.71,15.71,0,0,1-10.19.84c-10.77-2.7-12.38-7.28-19.25-4.27C1574.76,746.55,1582.45,758.88,1589.73,752.05Z"/>
        <path class="cls-4" d="M1606.86,834.88c-2.79.15-5.71.36-8.54.7l-1.56.19a30.75,30.75,0,0,1-6.6.82h0c-8,0-10.82-4.55-10.82-8.45,0-4.52,3.53-8.49,7.56-8.49a7.32,7.32,0,0,1,4.69,1.83,6.11,6.11,0,0,0,2.84,1.5v-.27c0-.82,0-3.3,0-7.82,0-3.11,0-7.18,0-12.28v-5.92l4.45,3.91c.59.52,2.16,1.12,4.62,1.12a14.24,14.24,0,0,0,8.47-2.6l4.37-3.54v5.63c0,2.82.15,5.4,0,7.76-1,13.25,2.93,29.82,2.93,29.82S1611.81,834.63,1606.86,834.88Z"/>
        <path class="cls-4" d="M1616,834.25c-3-7.77-2.31-15.86-2.31-33-4.61,3.73-13.38,4.19-16.55,1.4,0,12.4,0,18.7,0,20a8.29,8.29,0,0,1-.35,2.78c-2,.62-4.31.29-6.9-1.89-7.5-6.32-15.53,14.59,6.45,9.58C1602.68,832.38,1610.77,831,1616,834.25Z"/>
      </g>
      <g>
        <path class="cls-22" d="M1655.78,821.4c2.3,7.18.15,9.82-2.5,3.53-4.67-11.11-7.16-21.06-20.09-35.1a30.6,30.6,0,0,0-7.27-6c6.24-8.83,13.41-20.29,21.11-28.3,7.43-9.61,12-2.89,11.37,2.93,9-21.63-14.33-22-22.64-12.65-2.78,3.11-9.75,14.35-14.12,23.06-2.26,4.5-4.11,8.59-5.84,12.12a28,28,0,0,0-13.58,3.75c-16.66,8.89-1.88,25.15,15.22,9.51.59-.54,1.2-1.16,1.82-1.84,9,8.67,15.87,25.77,17.75,30.92,3.33,9.14-4.74,9-7.9,4.89,1.52,12.43,17.22,7.41,15-2.53,2.3,12.34,18.87,13.21,21.27.32C1667.66,813.89,1653.63,814.68,1655.78,821.4Zm-51-27.47c-9.48,2.16-1.14-8.32,6.67-6.29.2.05.39.13.59.19C1610,791.12,1607.73,793.27,1604.83,793.93Z"/>
        <path class="cls-22" d="M1589.73,752.05c3.78-3.56,6.49-6.22,7.38-2v35.48a17.64,17.64,0,0,1,5.11-3.92,29.87,29.87,0,0,1,11.44-3.66V745.83a15.71,15.71,0,0,1-10.19.84c-10.77-2.7-12.38-7.28-19.25-4.27C1574.76,746.55,1582.45,758.88,1589.73,752.05Z"/>
        <path class="cls-22" d="M1613.66,801.21c-4.61,3.73-13.37,4.19-16.55,1.4,0,12.4,0,18.7,0,20a8.29,8.29,0,0,1-.35,2.78c-2,.62-4.31.29-6.9-1.89-7.5-6.32-15.53,14.59,6.45,9.58,6.37-.74,14.46-2.09,19.66,1.13C1613,826.48,1613.66,818.39,1613.66,801.21Z"/>
      </g>
      <path class="cls-4" d="M1657.56,744.59c-.41.8-2.17.72-3.93-.18s-2.85-2.27-2.44-3.07,2.16-.72,3.92.18S1658,743.79,1657.56,744.59Z"/>
      <path class="cls-25" d="M1609.09,756.17a3.73,3.73,0,1,1-3.72-3.73A3.72,3.72,0,0,1,1609.09,756.17Z"/>
      <path class="cls-25" d="M1609.09,775.5a3.73,3.73,0,1,1-3.72-3.73A3.72,3.72,0,0,1,1609.09,775.5Z"/>
      <path class="cls-25" d="M1609.09,818.11a3.73,3.73,0,1,1-3.72-3.72A3.72,3.72,0,0,1,1609.09,818.11Z"/>
      <path class="cls-25" d="M1629.11,769.92a3.73,3.73,0,1,1-5.27,0A3.72,3.72,0,0,1,1629.11,769.92Z"/>
      <path class="cls-25" d="M1641.68,751.81a3.73,3.73,0,1,1-5.27,0A3.72,3.72,0,0,1,1641.68,751.81Z"/>
      <path class="cls-25" d="M1635.14,796.07a3.73,3.73,0,1,1-5.27,0A3.74,3.74,0,0,1,1635.14,796.07Z"/>
      <path class="cls-25" d="M1646.43,815.65a3.73,3.73,0,1,1-5.27,0A3.72,3.72,0,0,1,1646.43,815.65Z"/>
      <path class="cls-24" d="M1860.2,814.58a10.89,10.89,0,0,0-4.65-1.05,10.23,10.23,0,0,0-3.11.49V765.24a9.94,9.94,0,0,0,3.25.54,11,11,0,0,0,7.92-3.4,12.74,12.74,0,0,0,3.28-9.75c-.39-8.58-8.09-15.29-17.52-15.29-2.15,0-8.61-.38-10.57.31-1.33.47,1.78,1.82.59,2.59a12.94,12.94,0,0,0-7.6-2.51c-3.9,0-11.28-1-13.55,2.19-3.37,4.66-.19,15,6.33,20.65l1.63,1.41c0,14.44-.09,41.33-.12,55.63l-2,2.11c-6.09,6.33-8.89,15.73-5.92,19.83,2.27,3.14,9.61,2.18,13.51,2.18a12.94,12.94,0,0,0,8-2.88c.9.59-2.78,2-1.79,2.46,2.2.93,9.22.5,11.68.5a18.29,18.29,0,0,0,5.71-.92c6.66-2.17,11.16-7.74,11.45-14.21C1867.12,818.49,1861.83,815.34,1860.2,814.58Z"/>
      <rect class="cls-21" x="1839.82" y="768.13" width="9.99" height="42.56"/>
      <path class="cls-21" d="M1848.59,739.29c4-.55,11.14,1,13.14,6.84h-7.94Z"/>
      <path class="cls-21" d="M1852.16,815.33a9.39,9.39,0,0,1,11.35,6.44h-7.15Z"/>
      <path d="M1823.86,839.49a9.65,9.65,0,0,1-7.9-4c-2.27-3.14-3.48-8.6,1.92-14.21,0,0,2.42,4.16,2.64,4.47,0-9.26.14-61.75.15-71.83-.23.3-2.41,5-2.41,5-6.08-5.26-4.41-11.77-2.14-14.9a9.62,9.62,0,0,1,7.89-4,10.77,10.77,0,0,1,7.5,3.1,16,16,0,0,1,10.08-3.5c8.23,0,15,5.78,15.29,13.16a10.56,10.56,0,0,1-2.67,8.11,8.77,8.77,0,0,1-6.29,2.7h0a6.6,6.6,0,0,1-5.47-2.55l0,0v65.9a10.85,10.85,0,0,1-2.07,7.75,6.11,6.11,0,0,1-4.85,2.64,6.32,6.32,0,0,1-3.71-1.3,10.92,10.92,0,0,1-7.93,3.55Zm18.83-86.42a4.39,4.39,0,0,0-.25,1.13,9.1,9.1,0,0,0,.25-1.13Z"/>
      <path d="M1823.86,839a9.18,9.18,0,0,1-7.54-3.83c-2.18-3-2.55-7.19-1-11.76l4.36.65c0,1.79.9,2.43,1.33,2.48,0-6.43.15-66,.16-73.55a2.3,2.3,0,0,0-1.33,2.32l-4.36.65c-1.5-4.57-1.13-8.75,1-11.76a9.2,9.2,0,0,1,7.53-3.83,10.41,10.41,0,0,1,7.47,3.26,15.55,15.55,0,0,1,10.11-3.65c7,0,14.48,4.76,14.84,12.73a10.13,10.13,0,0,1-2.54,7.78,8.3,8.3,0,0,1-6,2.56h0a6.15,6.15,0,0,1-5.1-2.35,4.6,4.6,0,0,1-.84-2.38v68.53a10.35,10.35,0,0,1-2,7.44,5.65,5.65,0,0,1-4.49,2.46,6,6,0,0,1-3.76-1.45,10.56,10.56,0,0,1-7.88,3.7Zm19.38-87.62a4.34,4.34,0,0,0-1.26,3.23v3.05a5.45,5.45,0,0,1,.33-1.55,11.41,11.41,0,0,0,.93-4.73Z"/>
      <path d="M1854.2,752.85c-.46-9.93-14.77-14.63-22.5-6.3l-.43.44c-5.39-8.44-17.76-4-13.71,8.31.1-5,5.8-5.79,5.8-3s-.16,74.83-.16,74.83c-.81,2.94-5.7,2.05-5.8-3-4.14,12.57,8.88,17,14.07,7.73,5.52,7.07,9.08-1.8,8.27-4.74V754.65c0-6.77,8.76-9.2,4.67,2.25C1842.47,762.34,1854.68,763.2,1854.2,752.85Z"/>
      <path class="cls-24" d="M1852.43,814.58a10.9,10.9,0,0,0-4.66-1.05,10.23,10.23,0,0,0-3.11.49V765.24a10,10,0,0,0,3.26.54,11,11,0,0,0,7.91-3.4c1.63-1.7,3.51-4.77,3.28-9.75-.39-8.58-8.09-15.29-17.52-15.29a18.27,18.27,0,0,0-10,2.9,12.91,12.91,0,0,0-7.6-2.51,11.83,11.83,0,0,0-9.7,4.94c-3.38,4.66-4,12.26,2.48,17.9l1.63,1.41c0,14.44-.09,41.33-.12,55.63l-2,2.11c-6.09,6.33-5.09,13-2.12,17.07a11.85,11.85,0,0,0,9.71,4.94,12.92,12.92,0,0,0,8.05-2.88,18,18,0,0,0,9.89,3,18.29,18.29,0,0,0,5.71-.92c6.66-2.17,11.16-7.74,11.46-14.21C1859.34,818.49,1854.06,815.34,1852.43,814.58Z"/>
      <path d="M1841.8,839.57a15.86,15.86,0,0,1-12.42-6l4.18-3.36a10.42,10.42,0,0,0,11.6,3.46c2.88-.93,6-3.35,6.21-7.33.12-2.52-.71-4.28-2.34-4.94a2.7,2.7,0,0,0-2.28,0l0,.15c1.79,5,1.67,8.51-.35,10.4a4.34,4.34,0,0,1-4.82.71c-2.68-1.16-4.56-4.45-4.56-8h5.11c-.12-.41-.26-.85-.43-1.33a5.29,5.29,0,0,1,1.35-5.88c2-1.85,5.49-2.19,8.38-.83,1.69.79,5.57,3.35,5.26,10-.25,5.52-4.14,10.31-9.91,12.19a16.2,16.2,0,0,1-5,.8Z"/>
      <path d="M1841.8,839.12a15.45,15.45,0,0,1-12.08-5.84l3.5-2.8a10.87,10.87,0,0,0,12.08,3.61c3-1,6.33-3.54,6.52-7.74.12-2.62-.75-4.5-2.44-5.3a3.07,3.07,0,0,0-3,0c-.08.07-.17.16,0,.59,1.72,4.82,1.64,8.17-.24,9.92a3.87,3.87,0,0,1-4.33.63c-2.53-1.1-4.29-4.21-4.29-7.57H1842a4.43,4.43,0,0,0,1.14,3.14,12.35,12.35,0,0,0-1-4.62,4.84,4.84,0,0,1,1.23-5.4,7.35,7.35,0,0,1,7.89-.76c1.6.76,5.3,3.2,5,9.56-.25,5.34-4,10-9.61,11.78a15.6,15.6,0,0,1-4.88.78Z"/>
      <path d="M1831.47,831.88c7.48,9.34,22.13,4.5,22.58-5.43.48-10.34-11.73-9.48-9.78-4,4.08,11.44-4.52,9-4.52,2.23"/>
      <g>
        <path class="cls-4" d="M1823.86,839.49a9.65,9.65,0,0,1-7.9-4c-2.27-3.14-3.48-8.6,1.92-14.21,0,0,2.42,4.16,2.64,4.47,0-9.26.14-61.75.15-71.83-.23.3-2.41,5-2.41,5-6.08-5.26-4.41-11.77-2.14-14.9a9.62,9.62,0,0,1,7.89-4,10.77,10.77,0,0,1,7.5,3.1,16,16,0,0,1,10.08-3.5c8.23,0,15,5.78,15.29,13.16a10.56,10.56,0,0,1-2.67,8.11,8.77,8.77,0,0,1-6.29,2.7h0a6.6,6.6,0,0,1-5.47-2.55l0,0v65.9a10.85,10.85,0,0,1-2.07,7.75,6.11,6.11,0,0,1-4.85,2.64,6.32,6.32,0,0,1-3.71-1.3,10.92,10.92,0,0,1-7.93,3.55Zm18.83-86.42a4.39,4.39,0,0,0-.25,1.13,9.1,9.1,0,0,0,.25-1.13Z"/>
        <path class="cls-4" d="M1854.2,752.85c-.46-9.93-14.77-14.63-22.5-6.3l-.43.44c-5.39-8.44-17.76-4-13.71,8.31.1-5,5.8-5.79,5.8-3s-.16,74.83-.16,74.83c-.81,2.94-5.7,2.05-5.8-3-4.14,12.57,8.88,17,14.07,7.73,5.52,7.07,9.08-1.8,8.27-4.74V754.65c0-6.77,8.76-9.2,4.67,2.25C1842.47,762.34,1854.68,763.2,1854.2,752.85Z"/>
        <path class="cls-4" d="M1841.8,839.57a15.86,15.86,0,0,1-12.42-6l4.18-3.36a10.42,10.42,0,0,0,11.6,3.46c2.88-.93,6-3.35,6.21-7.33.12-2.52-.71-4.28-2.34-4.94a2.7,2.7,0,0,0-2.28,0l0,.15c1.79,5,1.67,8.51-.35,10.4a4.34,4.34,0,0,1-4.82.71c-2.68-1.16-4.56-4.45-4.56-8h5.11c-.12-.41-.26-.85-.43-1.33a5.29,5.29,0,0,1,1.35-5.88c2-1.85,5.49-2.19,8.38-.83,1.69.79,5.57,3.35,5.26,10-.25,5.52-4.14,10.31-9.91,12.19a16.2,16.2,0,0,1-5,.8Z"/>
        <path class="cls-4" d="M1831.47,831.88c7.48,9.34,22.13,4.5,22.58-5.43.48-10.34-11.73-9.48-9.78-4,4.08,11.44-4.52,9-4.52,2.23"/>
      </g>
      <path class="cls-22" d="M1844.27,822.41c4.08,11.44-4.52,9-4.52,2.23h0v-70c0-6.77,8.76-9.2,4.67,2.25-1.94,5.44,10.27,6.3,9.79-4-.46-9.93-14.77-14.63-22.5-6.3l-.43.44c-5.39-8.44-17.76-4-13.71,8.31.1-5,5.8-5.79,5.8-3s-.16,74.83-.16,74.83c-.81,2.94-5.7,2.05-5.8-3-4.14,12.57,8.88,17,14.07,7.73a11,11,0,0,0,1.27,1.38c7.75,7.42,20.88,2.59,21.31-6.81C1854.53,816.11,1842.32,817,1844.27,822.41Z"/>
      <g>
        <path class="cls-25" d="M1835.13,759.34a3.73,3.73,0,1,1-3.73-3.73A3.73,3.73,0,0,1,1835.13,759.34Z"/>
        <path class="cls-25" d="M1835.13,779.46a3.73,3.73,0,1,1-3.73-3.72A3.73,3.73,0,0,1,1835.13,779.46Z"/>
        <path class="cls-25" d="M1835.13,799.59a3.73,3.73,0,1,1-3.73-3.73A3.73,3.73,0,0,1,1835.13,799.59Z"/>
        <path class="cls-25" d="M1835.13,819.71a3.73,3.73,0,1,1-3.73-3.73A3.73,3.73,0,0,1,1835.13,819.71Z"/>
      </g>
      <path class="cls-4" d="M1851.46,747.82c-.41.8-2.17.72-3.92-.18s-2.86-2.27-2.45-3.07,2.16-.72,3.92.18S1851.86,747,1851.46,747.82Z"/>
    </g>
  </g>
  <g>
    <circle class="cls-26" cx="1347.67" cy="472.6" r="40.79"/>
    <circle class="cls-27" cx="1348.23" cy="472.6" r="27.02"/>
    <path class="cls-16" d="M1655.3,204H1060.72s-29.18-9.06-46.28,32.19c0,0-43.26,86.52-47.28,151.92,0,0-2,41.25,20.12,70.42h309.86s5-29.84,44.27-28.84,47.29,31.86,47.29,31.86h275.66s53.32-30.18,43.26-119.72c0,0-7-80.49-26.16-121.73C1681.46,220.13,1674.15,203.3,1655.3,204Z"/>
    <path class="cls-14" d="M1677.5,228.11s-4.69-15.42-24.48-15.76l-598-1s-18.78,1.67-27.5,15.42c0,0-23.81,35.55-39.57,99.61,0,0-32.87,74.79,2,126.1h298.82s1.67-34.88,51.64-33.54c0,0,63.69-4.92,64.73,34.21h257.9S1697,426.32,1699,388.42s.67-70.43-6-104.3S1677.5,228.11,1677.5,228.11Z"/>
    <path class="cls-28" d="M967.84,380.11c-.29,2.7-.52,5.39-.68,8,0,0-2,41.25,20.12,70.42h309.86s5-29.84,44.27-28.84,47.29,31.86,47.29,31.86h275.66s37.74-21.37,43.72-81.47Z"/>
    <path class="cls-29" d="M1655.3,204H1060.72s-29.18-9.06-46.28,32.19c0,0-6.31,12.64-14.34,31.88h696.22c-3.82-17.39-8.71-34.71-14.86-48C1681.46,220.13,1674.15,203.3,1655.3,204Z"/>
    <rect class="cls-16" x="967.76" y="371.22" width="732.06" height="9.6" transform="translate(2667.59 752.03) rotate(-180)"/>
    <rect class="cls-16" x="1005.45" y="261.9" width="686.43" height="9.03"/>
    <polygon class="cls-4" points="1005.45 265.75 1005.45 268.1 1552.09 268.1 1695.8 268.1 1695.8 265.75 1005.45 265.75"/>
    <rect class="cls-4" x="973.95" y="374.84" width="727.47" height="2.36"/>
    <rect class="cls-30" x="972.36" y="432.55" width="716.5" height="5.34"/>
    <rect class="cls-30" x="970.35" y="426.5" width="721.87" height="2.67"/>
    <g>
      <path class="cls-4" d="M1665.33,206a43.25,43.25,0,0,0-8-.78c-.59,0-.92,0-.92,0H1056.25c-4.06,0-7.44.12-10.24.32a57,57,0,0,1,11.67-1.14c2,0,3.36.11,3.38.11h.1c2.55,0,256.79.39,429.86.39,101.67,0,155.86-.13,161.07-.39.89-.05,1.78-.07,2.62-.07A32.82,32.82,0,0,1,1665.33,206Z"/>
      <path class="cls-16" d="M1057.68,203c-5.66,0-16.83.75-23.28,6.2,1.81-1.06,7-2.7,21.85-2.7h600.18s.31,0,.86,0c2.49,0,9.9.3,16.28,3.6,0,0-3.53-7-18.85-7-.86,0-1.76,0-2.69.07-5.87.29-73.49.39-161,.39-175.07,0-429.86-.39-429.86-.39s-1.34-.11-3.48-.11Zm-23.28,6.2c-.87.5-1,.88-1,.88.31-.31.62-.6,1-.88Z"/>
    </g>
    <path class="cls-31" d="M988,325a194.06,194.06,0,0,0-12.35,45.66h724a439.62,439.62,0,0,0-1.15-48.13H988.59C988.39,323.39,988.18,324.21,988,325Z"/>
    <g>
      <rect class="cls-32" x="1097.98" y="282.35" width="113.69" height="70.43" rx="11.41" ry="11.41" transform="translate(2309.65 635.13) rotate(-180)"/>
      <path class="cls-33" d="M1212.75,275.4H1097.38s-4,0-5.36,3.58-7.6,50,0,71.1c0,0,2.68,13.41,17,13h92.56s13.87-.44,17-20.56c0,0,2.45-52.77-1.57-64C1217,278.53,1216.78,275.4,1212.75,275.4Z"/>
      <polygon class="cls-34" points="1203.43 278.08 1159.89 363.05 1181.66 286.13 1147.62 342.48 1162.86 282.35 1147.62 303.51 1154.28 276.41 1203.43 278.08"/>
      <rect x="1088.32" y="274.73" width="131.91" height="6.91" rx="2.41" ry="2.41"/>
    </g>
    <g>
      <rect class="cls-32" x="1546.58" y="282.35" width="113.69" height="70.43" rx="11.41" ry="11.41" transform="translate(3206.84 635.13) rotate(-180)"/>
      <path class="cls-33" d="M1661.35,275.4H1546s-4,0-5.36,3.58-7.61,50,0,71.1c0,0,2.68,13.41,17,13h92.56s13.86-.44,17-20.56c0,0,2.46-52.77-1.56-64C1665.6,278.53,1665.37,275.4,1661.35,275.4Z"/>
      <polygon class="cls-34" points="1652.03 278.08 1608.49 363.05 1630.26 286.13 1596.22 342.48 1611.46 282.35 1596.22 303.51 1602.88 276.41 1652.03 278.08"/>
      <rect x="1536.92" y="274.73" width="131.91" height="6.91" rx="2.41" ry="2.41"/>
    </g>
    <path class="cls-35" d="M1694.91,261.9a283.33,283.33,0,0,0-8.4-29.26H1016c-.53,1.15-1.06,2.34-1.57,3.58,0,0-5,10-11.72,25.68Z"/>
    <path class="cls-4" d="M993.92,473.15c2.68,0,306,5.71,306,5.71s3.13-32.22,22.36-36.9h48.74s19,6.94,21.58,33.77c0,0,.78,2.68,5.69,3.13,0,0,264.5-4,298.15-19.68,0,0,27.83-59.47,10-157.4,0,0-9.68-48.9-16.69-59.33,0,0,23.4,83.48,16.69,130.43,0,0-8.94,69.76-34.43,80.27,0,0-14.29-2.25-17,2.12l-254.17,6.31S1397,431,1366.6,429.67l-44.74-.89s-21.71-2.14-24.72,29.78l-308-.27S964.54,419.83,974,374.22s43-141.58,43-141.58-55.54,93.08-56.88,157.58c0,0-2.24,26.93,13.84,67.18C974,457.4,982.18,473.15,993.92,473.15Z"/>
    <rect class="cls-26" x="1266.7" y="220.55" width="251.86" height="142.33" rx="11.17" ry="11.17" transform="translate(2785.26 583.42) rotate(-180)"/>
    <rect class="cls-36" x="1032.1" y="463.66" width="19.9" height="4.92" rx="2.46" ry="2.46"/>
    <path class="cls-37" d="M1703.74,397.92c-.45,3.8,1.78,3.36,1.78,3.36h4.25q.74-6.43,1.24-13.5C1704.65,389,1704.11,394.71,1703.74,397.92Z"/>
    <rect class="cls-36" x="1410.84" y="464.26" width="18.33" height="4.76" rx="2.38" ry="2.38"/>
    <path d="M1334.32,488s4.7-4.7,8.56-5.37,6.7,9.39,6.7,9.39S1340.7,494.23,1334.32,488Z"/>
    <path d="M1368.75,469.16s-6.58.84-10-1,.45-11.53.45-11.53S1367.51,460.35,1368.75,469.16Z"/>
    <path d="M1357.11,489.81s-2-6.34-.75-10.07,11.44-1.54,11.44-1.54S1365.57,487.07,1357.11,489.81Z"/>
    <path d="M1330.4,464.84s5.45,3.8,6.78,7.49-8.08,8.24-8.08,8.24S1325.41,472.2,1330.4,464.84Z"/>
    <path d="M1350.14,452.27s-1.21,6.53-4,9.27-10.85-3.94-10.85-3.94S1341.37,450.77,1350.14,452.27Z"/>
    <path class="cls-33" d="M1701.05,276.41s12.75,51,11.41,84.51c0,0,.33,6.37,2.68,6.71,0,0,3.69-1.34,3.35-6.37s-.33-65.07-14.75-85.52C1703.74,275.74,1703.29,275,1701.05,276.41Z"/>
    <ellipse cx="1701.5" cy="274.28" rx="3.69" ry="3.13" transform="translate(4.46 574.93) rotate(-19.2)"/>
    <g>
      <path class="cls-38" d="M1664.48,341l50.89,229.5c1.37,6.15,7.5,11.15,13.64,11.11l119.82-.72c6.14,0,10-5.1,8.59-11.24l-52.69-229.51c-1.41-6.14-7.52-11.14-13.57-11.11l-118.16.73C1667,329.8,1663.11,334.86,1664.48,341Z"/>
      <path class="cls-4" d="M1674.72,349l47.45,213.5c1.24,5.55,6.78,10.07,12.32,10l104.76-.63c5.54,0,9-4.6,7.76-10.15L1798.09,348.2c-1.27-5.55-6.78-10.06-12.25-10l-103.41.63C1677,338.84,1673.49,343.41,1674.72,349Z"/>
      <g>
        <path class="cls-15" d="M1724.18,528.58l-3.7-16.62a1.26,1.26,0,0,1,1.25-1.63l10.07-.06a2.13,2.13,0,0,1,2,1.61l3.72,16.62a1.28,1.28,0,0,1-1.26,1.64l-10.08.06A2.14,2.14,0,0,1,1724.18,528.58Z"/>
        <path class="cls-39" d="M1725.07,527.43l-3.71-16.62a1.28,1.28,0,0,1,1.26-1.64l10.07-.06a2.15,2.15,0,0,1,2,1.62l3.71,16.62a1.26,1.26,0,0,1-1.25,1.63l-10.08.06A2.13,2.13,0,0,1,1725.07,527.43Z"/>
        <path class="cls-15" d="M1730.46,523.24a5.25,5.25,0,0,1-4.88-4,3.13,3.13,0,0,1,3.09-4,5.24,5.24,0,0,1,4.89,4A3.13,3.13,0,0,1,1730.46,523.24Z"/>
        <polygon class="cls-10" points="1729.5 521.81 1728.27 516.29 1729.77 516.28 1731 521.8 1729.5 521.81"/>
      </g>
      <g>
        <path class="cls-15" d="M1693.14,389.23l-3.7-16.62a1.26,1.26,0,0,1,1.24-1.63l10-.06a2.13,2.13,0,0,1,2,1.61l3.71,16.62a1.27,1.27,0,0,1-1.24,1.64l-10,.06A2.12,2.12,0,0,1,1693.14,389.23Z"/>
        <path class="cls-39" d="M1694,388.08l-3.7-16.62a1.27,1.27,0,0,1,1.24-1.64l10-.06a2.14,2.14,0,0,1,2,1.62l3.72,16.62a1.26,1.26,0,0,1-1.24,1.63l-10,.06A2.13,2.13,0,0,1,1694,388.08Z"/>
        <path class="cls-15" d="M1699.36,383.89a5.24,5.24,0,0,1-4.85-4,3.12,3.12,0,0,1,3.06-4,5.23,5.23,0,0,1,4.86,4A3.12,3.12,0,0,1,1699.36,383.89Z"/>
        <polygon class="cls-10" points="1698.41 382.46 1697.18 376.94 1698.66 376.93 1699.89 382.45 1698.41 382.46"/>
      </g>
      <path class="cls-40" d="M1792.53,355.61l45.56,199.21s3,10.06-5.22,9.44l-95,.57c-1.36-.72,15.74-6.49,18.71-7.55a87.27,87.27,0,0,1,17.63-4.24c7.18-1,18,3,23.73-.65,4.34-2.76,3-7.71,4.85-11.55,5.72,5,6.25-6.85,6.92-10.16,1.47-7.39,4.4-15.95,4.82-23.64.63-11.52-14.25-22-12.66-32.18.5-3.25,4.11-5.3,4.6-9.14.91-6.93-2-16-4.77-23.05-2.12-5.5-6.44-11.66-6-17.27.47-5.45,3-7.54,2.2-13.72-.63-5.09-2.77-10.28-3.27-15.36s.56-9.79-.19-15C1793.39,373.77,1789.1,361.7,1792.53,355.61Z"/>
    </g>
    <g>
      <g>
        <polygon class="cls-41" points="1511.22 580.58 1500.25 580.58 1424.38 180.02 1435.54 180.02 1511.22 580.58"/>
        <polygon class="cls-41" points="1575.51 580.58 1564.53 580.58 1489.73 180.02 1500.88 180.02 1575.51 580.58"/>
      </g>
      <path class="cls-42" d="M1561,536.08c-.57-3-1.76-5.51-2.67-5.51a.49.49,0,0,0-.2,0h-60a.54.54,0,0,0-.21,0c-.91,0-1.17,2.47-.6,5.51s1.78,5.51,2.68,5.51l.07,0v0h60.34C1561.31,541.48,1561.57,539.06,1561,536.08Z"/>
      <path class="cls-42" d="M1552.73,491.72c-.56-3-1.76-5.51-2.67-5.51a.41.41,0,0,0-.19.05h-60.08a.63.63,0,0,0-.22-.05c-.91,0-1.18,2.47-.6,5.51s1.78,5.5,2.68,5.5h.07v0h60.45C1553,497.12,1553.29,494.7,1552.73,491.72Z"/>
      <path class="cls-42" d="M1544.46,447.36c-.57-3.05-1.77-5.51-2.68-5.51a.41.41,0,0,0-.19,0H1481.4a.63.63,0,0,0-.22,0c-.91,0-1.18,2.46-.6,5.51s1.78,5.5,2.69,5.5h.06v0h60.57v0C1544.76,452.75,1545,450.33,1544.46,447.36Z"/>
      <path class="cls-42" d="M1536.18,403c-.57-3.05-1.76-5.51-2.68-5.51a.58.58,0,0,0-.19,0H1473a.93.93,0,0,0-.22,0c-.91,0-1.18,2.46-.61,5.51s1.79,5.5,2.7,5.5h.06v0h60.68v0C1536.48,408.39,1536.74,406,1536.18,403Z"/>
      <path class="cls-42" d="M1527.91,358.63c-.57-3-1.77-5.5-2.68-5.5a.65.65,0,0,0-.2,0h-60.41a.85.85,0,0,0-.22,0c-.91,0-1.18,2.46-.61,5.5s1.78,5.51,2.7,5.51h.06v0h60.78v0C1528.2,364,1528.46,361.61,1527.91,358.63Z"/>
      <path class="cls-42" d="M1519.63,314.27c-.57-3-1.77-5.5-2.68-5.5a.65.65,0,0,0-.2,0h-60.52a.85.85,0,0,0-.22,0c-.91,0-1.19,2.46-.61,5.5s1.78,5.51,2.7,5.51h.06v0h60.89v0C1519.93,319.67,1520.19,317.25,1519.63,314.27Z"/>
      <path class="cls-42" d="M1511.35,269.91c-.56-3-1.77-5.5-2.68-5.5a.45.45,0,0,0-.2,0h-60.63a.52.52,0,0,0-.21,0c-.92,0-1.2,2.46-.62,5.5s1.78,5.51,2.7,5.51h.06v0h61v0C1511.65,275.31,1511.91,272.89,1511.35,269.91Z"/>
      <path class="cls-42" d="M1503.08,225.55c-.57-3-1.77-5.51-2.69-5.51a.46.46,0,0,0-.2.05h-60.74a.54.54,0,0,0-.21-.05c-.92,0-1.2,2.47-.62,5.51s1.78,5.51,2.7,5.51h.06v0h61.11v0C1503.37,231,1503.63,228.53,1503.08,225.55Z"/>
      <path class="cls-41" d="M1429.56,178.11c-3.09,0-5.45.78-5.27,1.74s2.84,1.73,5.93,1.73,5.45-.77,5.27-1.73S1432.66,178.11,1429.56,178.11Z"/>
      <path class="cls-41" d="M1494.92,178.11c-3.09,0-5.46.78-5.28,1.74s2.83,1.73,5.93,1.73,5.45-.77,5.27-1.73S1498,178.11,1494.92,178.11Z"/>
      <path class="cls-41" d="M1505.38,578.85c-3,0-5.36.78-5.18,1.73s2.79,1.74,5.83,1.74,5.36-.78,5.18-1.74S1508.42,578.85,1505.38,578.85Z"/>
      <path class="cls-41" d="M1569.67,578.85c-3,0-5.37.78-5.19,1.73s2.79,1.74,5.84,1.74,5.36-.78,5.18-1.74S1572.71,578.85,1569.67,578.85Z"/>
    </g>
  </g>
</svg>
