<svg id="Ebene_1" data-name="Ebene 1" xmlns="http://www.w3.org/2000/svg" width="1920" height="1080" viewBox="0 0 1920 1080">
  <defs>
    <style>
      .cls-1 {
        fill: #aaf9cc;
      }

      .cls-2 {
        fill: #b7b6b6;
      }

      .cls-3, .cls-9 {
        fill: #fff;
      }

      .cls-4 {
        fill: #e9ac18;
      }

      .cls-10, .cls-5, .cls-6, .cls-7, .cls-8 {
        fill: none;
      }

      .cls-5, .cls-6, .cls-7 {
        stroke: #fff;
      }

      .cls-5, .cls-6, .cls-7, .cls-8, .cls-9 {
        stroke-linecap: round;
      }

      .cls-10, .cls-5, .cls-6, .cls-7, .cls-8, .cls-9 {
        stroke-miterlimit: 10;
      }

      .cls-5 {
        stroke-width: 2.66px;
      }

      .cls-6 {
        stroke-width: 0.89px;
      }

      .cls-7 {
        stroke-width: 1.77px;
      }

      .cls-8 {
        stroke: #999;
        stroke-width: 2.4px;
      }

      .cls-10, .cls-9 {
        stroke: #333;
      }

      .cls-9 {
        stroke-width: 5.32px;
      }

      .cls-10 {
        stroke-width: 0.76px;
      }

      .cls-11 {
        fill: #666;
      }

      .cls-12 {
        fill: #478491;
      }

      .cls-13 {
        fill: #f90;
      }

      .cls-14 {
        fill: #cff;
      }

      .cls-15 {
        fill: #82cdde;
      }

      .cls-16 {
        fill: #5f2a91;
      }

      .cls-17 {
        fill: #dbaade;
      }

      .cls-18 {
        fill: #86c16d;
      }

      .cls-19 {
        fill: #e2c342;
      }

      .cls-20, .cls-21 {
        fill: #488490;
      }

      .cls-21 {
        fill-rule: evenodd;
      }
    </style>
  </defs>
  <title>2017-03-Aufriss-easyKisi-Streets_Final</title>
  <rect class="cls-1" x="-3" y="-5" width="1936" height="1099"/>
  <path class="cls-2" d="M1700.28,702.77h-461a279.12,279.12,0,0,0-234-275.68s-42.92-9-93.61.47A279.5,279.5,0,1,0,1238.14,728.3h462.14Zm-597.51,59.15a154.88,154.88,0,1,1,11.74-59.15A155.07,155.07,0,0,1,1102.77,761.92Z"/>
  <circle class="cls-3" cx="1405.98" cy="716.25" r="51.06"/>
  <circle class="cls-3" cx="1559.16" cy="716.25" r="51.06"/>
  <g>
    <circle class="cls-4" cx="959.2" cy="703.48" r="127.65"/>
    <path class="cls-3" d="M979.59,628.27c.2.62.61,1.44,1,2.47s.83,1.85,1,2.47c0,.62.2,1.85.4,3.3s.42,2.67.62,3.5l.42,8.44v8.45a.75.75,0,0,0,.2.61v.83a3.9,3.9,0,0,1-.62,2.06c-.62.82-2.06,1.44-3.91,2.06a6.16,6.16,0,0,1-1.85.41,4.53,4.53,0,0,1-1.86-.21,5.78,5.78,0,0,1-2.26-.82,4.33,4.33,0,0,1-2.06-1.24v-.82a1.22,1.22,0,0,1-.21-.82,3,3,0,0,1,.21-1.45v-1.85a9.91,9.91,0,0,1-.21-2.26v-4.54a44.82,44.82,0,0,0-.61-7.82,12.45,12.45,0,0,0-3.3-6.8c-1.65-1.85-3.5-2.88-5.36-2.88a8,8,0,0,0-4.73,1.44c-2.27,1.44-3.5,2.88-3.91,4.53a31.72,31.72,0,0,0-2.68,8.24,78.7,78.7,0,0,0-.62,11.33v8c-.2,3.91-.2,6-.2,8.23v5.77a43.12,43.12,0,0,0,.2,4.53v13.39c.41,15,.62,23.06.62,24.3,0,3.91,0,6.59.2,8.44v3.71a14.45,14.45,0,0,0,.21,3.5,27.22,27.22,0,0,1,.21,4.53V743a62.63,62.63,0,0,0,1.23,9.26,18.46,18.46,0,0,0,2.27,5.57,10.76,10.76,0,0,0,4.53,4.53,1.78,1.78,0,0,0,1.23.41,4.29,4.29,0,0,0,2.27,0h1.44c1.24,0,2.68-.83,4.53-2.27a9,9,0,0,0,1.44-1.85,15.53,15.53,0,0,0,.83-3.09,19.54,19.54,0,0,0,1-4.94,34.77,34.77,0,0,0,.41-6,11.53,11.53,0,0,0,.21-3.08v-2.68c0-4.33.2-7.42.82-9.27.2-.62,1.24-1.23,3.09-1.44a3.56,3.56,0,0,0,1.23-.21H980a4.51,4.51,0,0,0,1.44.21c1.85,0,2.67,0,2.88.41a54.93,54.93,0,0,0,.21,6.18,8.73,8.73,0,0,1,.2,2.47v4.33a60.85,60.85,0,0,1-2.26,17.71c-.21.61-.42,1.44-.62,2.06a8.59,8.59,0,0,1-.82,2.06,14,14,0,0,0-.83,2,29.68,29.68,0,0,1-2.26,5,10.63,10.63,0,0,1-3.09,3.5,6.79,6.79,0,0,1-4.12,1.65c-1,.61-2.68.82-4.94.82a49.5,49.5,0,0,0-6.18-.21,44,44,0,0,1-5.77-1.44,22.29,22.29,0,0,1-11.94-12.15A50.23,50.23,0,0,1,938,743c0-2.68-.21-6-.42-9.48,0-1.44,0-4.11-.2-8v-2.06a52.82,52.82,0,0,0,0-5.76c-.21-1.86.2-3.91.2-6.39-.2-1.85-.2-4.32-.2-7.82,0-3.3,0-8-.21-14-.21-6.17-.21-11.12-.21-14.62V663.48a27.29,27.29,0,0,0,.21-3.7c0-6.8.83-17.71,2.06-22.24q.31-1.54,1.85-6.18a32.47,32.47,0,0,1,2.68-5.15,15.34,15.34,0,0,1,3.5-3.91,14.45,14.45,0,0,1,5.56-2.89,7.75,7.75,0,0,1,3.09-1,7.92,7.92,0,0,0,2.68-.62h2.06a12.05,12.05,0,0,1,4.32.62,19.22,19.22,0,0,1,6.59,2.06,22.6,22.6,0,0,1,5.36,3.92A14.41,14.41,0,0,1,979.59,628.27Z"/>
  </g>
  <g>
    <polygon class="cls-2" points="1432.56 702.51 1432.56 692.28 1432.56 690.75 1431.03 690.76 1420.8 690.79 1420.84 702.55 1432.56 702.51"/>
    <path class="cls-2" d="M1405.9,729.67a12.2,12.2,0,1,0-12.21-12.21A12.23,12.23,0,0,0,1405.9,729.67Z"/>
    <path class="cls-2" d="M1406.22,652.66A63.83,63.83,0,1,0,1470,716.48,63.82,63.82,0,0,0,1406.22,652.66Zm34.37,57.67v28.41a13.42,13.42,0,0,1-13.41,13.41h-42.57a13.42,13.42,0,0,1-13.41-13.41V696.17a13.43,13.43,0,0,1,13.41-13.41h42.57a13.42,13.42,0,0,1,13.41,13.41Z"/>
    <path class="cls-2" d="M1424.87,717.46a19,19,0,1,1-36.55-7.13H1378v28.41a6.66,6.66,0,0,0,6.65,6.65h42.57a6.65,6.65,0,0,0,6.65-6.65V710.33h-10.36A18.84,18.84,0,0,1,1424.87,717.46Z"/>
  </g>
  <path class="cls-2" d="M1559.85,651a64.55,64.55,0,1,0,64.55,64.55A64.56,64.56,0,0,0,1559.85,651Zm17.09,64.28h-11.18v39.86h-16.57V715.27h-7.88V701.19h7.88v-9.12c0-6.52,3.1-16.71,16.72-16.71l12.27,0v13.67h-8.91c-1.45,0-3.51.73-3.51,3.83v8.29h12.63Z"/>
  <g>
    <circle class="cls-2" cx="1715.17" cy="716.25" r="63.83"/>
    <path class="cls-5" d="M1729.83,661.88a57.5,57.5,0,0,1,39.94,40.55"/>
    <path class="cls-6" d="M1733.7,681.9a23.34,23.34,0,0,1,16.23,16.47"/>
    <path class="cls-7" d="M1730.34,671.34a43.23,43.23,0,0,1,30,30.49"/>
    <circle class="cls-3" cx="1715.17" cy="716.25" r="28.31"/>
    <g>
      <path class="cls-8" d="M1730.29,714s6.89,1.2,6.59,6.9-6,6.89-7.49,6.89h-27.26s-8.09-.3-8.09-7.79c0-6.29,3.15-8.69,6.89-9.29,3.37-.54,7.49,2.1,7.49,2.1"/>
      <path class="cls-8" d="M1728.79,718.17s3.75-8.69-3.59-14.38a14,14,0,0,0-17.38-.6s-4.49,2.55-4.79,7.19"/>
    </g>
  </g>
  <g>
    <path class="cls-3" d="M17.31,399.51C31.21,429.32,33,443,34.92,453c1.41,10.23,2.88,16.93,5,35.95q-14.34,15-28,28.91c-.3.18,1.53-21.31-4-45.53-4.87-24.28-17.09-51.3-30.53-63.43a147.09,147.09,0,0,0-28.64-19.45c-16.72-8.94-39-15.6-52.74-13.2-27.45,4.47,19.13-7.23,19.13-7.22q-5.86-4.12-12-8,11.63-3.18,23.23-6.31-14.73-4.25-30.39-7.34c0,.34,19.48-4.38,45.6-.37C-32.64,351.1-.27,363.84,17.31,399.51Z"/>
    <line class="cls-9" x1="44.45" y1="486.49" x2="10.11" y2="520.49"/>
    <polyline class="cls-10" points="13.23 520.82 50.51 524 44.13 489.61"/>
    <g>
      <g>
        <rect class="cls-11" x="152.52" y="498.24" width="18.14" height="53.02" rx="3.85" ry="3.85" transform="translate(659.84 755.43) rotate(131.96)"/>
        <rect class="cls-11" x="54.57" y="607.17" width="18.14" height="53.02" rx="3.85" ry="3.85" transform="translate(577.41 1010.03) rotate(131.96)"/>
      </g>
      <g>
        <path class="cls-12" d="M139.73,578.27l55-61.22s5.49-8.19-1.77-14.72c0,0-17.54-13.89-24.06-6.63l-68.94,60Z"/>
        <path class="cls-12" d="M114.55,606.28l-55,61.21s-7.57,6.33-14.83-.2c0,0-15.67-16-9.14-23.22l52.34-74.9Z"/>
      </g>
      <path class="cls-13" d="M158.78,621.66l.05.05s.17-.19.45-.54.49-.5.49-.5l-.06,0c3-3.9,11.68-17.64-1.51-29.5l-73.86-51.4s-21.83-19.63-31.17-14.89l-.26-.24a5.51,5.51,0,0,0-.37.61,4.73,4.73,0,0,0-.57.43l.27.23c-3.72,9.79,18.1,29.42,18.1,29.42l58.94,68C142.47,635.14,155.21,625,158.78,621.66Z"/>
      <g>
        <path class="cls-14" d="M128.67,617.94s17,11.83,27.32.37l-27.71-24.92S119.12,609.35,128.67,617.94Z"/>
        <path class="cls-14" d="M128.38,593.29l27.7,24.91c10.31-11.46-3.26-27.12-3.26-27.12C143.27,582.49,128.38,593.29,128.38,593.29Z"/>
      </g>
      <path class="cls-15" d="M44.83,519s-2.45,2.72,4.81,9.25L69,540l-13.8-18S47.63,515.86,44.83,519Z"/>
      <circle class="cls-3" cx="142.05" cy="599.68" r="9.07"/>
      <g>
        <path class="cls-3" d="M173.65,531.44s-.11,0-.25-.1a.9.9,0,0,1-.23-.18c-.1-.09-.13-.11-.16-.17a2.17,2.17,0,0,1-.26-.31s.06-.15.22-.32l.11-.13a8.72,8.72,0,0,0,.59-.69l1.05-1.25-1.51-1.36c-.12-.11-.32-.26-.57-.46a.63.63,0,0,1-.2-.18.9.9,0,0,0-.16-.17l-.13-.12a5.69,5.69,0,0,1-.47-.4l-.4-.36a2.75,2.75,0,0,1-.34-.28l-.88-.71a8.58,8.58,0,0,0-.77.73l-.37.42-.09.1a1,1,0,0,1-.28.24c-.07.06-.2-.08-.37-.21a1.37,1.37,0,0,1-.26-.18.62.62,0,0,1-.14-.18c-.15-.13-.24-.16-.18-.23l1.39-1.7-2.75-2.55-1.08,1.15c-.51.57-.85.91-1,1s-.33-.1-.73-.46c-.22-.19-.31-.29-.27-.34s.19-.24.36-.42a3.07,3.07,0,0,1,.36-.43l.57-.63L166,518.9s.28.13.69.5l.45.4.35.32c.39.35.49.46.89.85l.35.31.73.65c.3.3.56.53.73.69s.51.46.68.59l.13.11a.42.42,0,0,0,.1.12c.07.06.17.15.32.26a2.41,2.41,0,0,1,.29.24.33.33,0,0,1,.11.12l.1.09c.22.17.54.46.92.8,1.22,1.07,1.92,1.67,2.1,1.84a6.82,6.82,0,0,1,1.45,1.53,2.47,2.47,0,0,1-.49.68l-.1.11c-.19.22-.57.61-.75.81-.39.44-.82.91-.91,1s-.15.14-.28.26a1.06,1.06,0,0,1-.24.2Z"/>
        <path class="cls-3" d="M171.79,533.25s0,0,0-.06-.05,0-.12-.07l-.16-.08a.7.7,0,0,0-.14-.19l-.18-.15a1.45,1.45,0,0,1-.28-.23l-.39-.35-.26-.26a5.1,5.1,0,0,1-.51-.4c-.33-.3-.57-.52-.75-.66l-.42-.37-.21-.17a2.5,2.5,0,0,0-.23-.18l-.3-.27-.16-.14c-.1-.11-.6-.56-1.5-1.37.14.25.33.6.59,1l.95,1.56c.39.57.58.9.61,1,.33.53.86,1.34,1.64,2.43a2.1,2.1,0,0,1,.31.41,3.22,3.22,0,0,1,.21.34c0,.11,0,.16,0,.17a3.51,3.51,0,0,1-.31.32,3.05,3.05,0,0,1-.35.36.44.44,0,0,1-.09.13l-.15.11,0,0s0,0,0-.08a.26.26,0,0,0,0-.09,1.28,1.28,0,0,0-.24-.43L167,532l-2-3.31v0l-.06-.1-.81-.31a30.5,30.5,0,0,1-2.95-.92l-.35-.13a1.41,1.41,0,0,0-.4-.13l-.58-.24a4.48,4.48,0,0,0-.81-.29h0s0-.16.17-.36a1.52,1.52,0,0,1,.18-.23l.22-.24c.15-.15.29-.21.37-.19a.65.65,0,0,1,.23.06l.59.19.69.21a4.8,4.8,0,0,1,.62.22l.5.16.33.12.3.11.2.06a.91.91,0,0,0,.25.07l.22.07.33.06.39.12.29.13c-.23-.21-.41-.4-.57-.57l-.14-.13a5.57,5.57,0,0,0-.57-.43l-.53-.48c-.51-.43-.83-.71-1.3-1.14l-.34-.31s0-.15.17-.36a5.05,5.05,0,0,1,.4-.54c.11-.11.17-.16.19-.15l0,0,0,0s.07,0,.13.09.08.07.08.1l.15.13.27.24,1.22,1.12.48.44.24.22a3.67,3.67,0,0,0,.35.36l.34.31.63.57,1,.9.77.69,1.4,1.26c.26.23.53.45.81.68s.57.49.9.78c.52.44,1.11,1,1.77,1.54,0,0,0,.13-.2.31a4,4,0,0,1-.35.36l-.16.09-.07.09,0,0,0,0S171.81,533.28,171.79,533.25Z"/>
        <path class="cls-3" d="M158,537.63l-.24-.22a.74.74,0,0,0-.16-.11.71.71,0,0,1-.14-.1l-.43-.42h0l.05-.06a.23.23,0,0,0,.1-.07s.11-.13.2-.26l.24-.27c.12-.13.18-.2.22-.21l.18-.23.41-.49a2.23,2.23,0,0,0,.21-.25,1.28,1.28,0,0,0,.2-.26l.16-.17.82-.89.21.2.22.16.14.13.39.35a14,14,0,0,0-1,1l-.06.08a1.69,1.69,0,0,1-.25.36l-.13.15-.21.22-.15.18a5.73,5.73,0,0,0-.51.6l-.38.41Z"/>
        <path class="cls-3" d="M148.64,537.88l.27-.32c.37-.42.63-.6.91-.61s.46.11.85.46l.16.14a2.71,2.71,0,0,0,.23.18l.17.15.81.74a6.49,6.49,0,0,1,.46.46,22,22,0,0,1,1.81,3.46l1.38,3.21a3,3,0,0,0,.63,1,2.73,2.73,0,0,0,.33.35,1.37,1.37,0,0,0,.95.44.73.73,0,0,0,.51-.26.78.78,0,0,0,.13-.89,1.47,1.47,0,0,0-.28-.54l-.1-.09a2.4,2.4,0,0,0-.83-.43v0c-.06-.05,0-.19.17-.36a3.3,3.3,0,0,1,.65-.52,4.52,4.52,0,0,1,.87.55,2.51,2.51,0,0,1,.67,1,1.5,1.5,0,0,1,.11.56,2.94,2.94,0,0,1-.74,1.64,1.63,1.63,0,0,1-1.23.58,1.45,1.45,0,0,1-.43,0,1.94,1.94,0,0,1-.82-.27.83.83,0,0,1-.16-.12l-.18-.16-.07-.07-.13-.11c-.8-.93-1.2-2.24-2.25-4.32a23.14,23.14,0,0,0-2.2-4.08c-.2-.21-.55-.57-.84-.83a1.49,1.49,0,0,0-.35-.26c-.18-.06-.38,0-.7.35l-.52.57-.31.31-.28.29-.07.07-.12.17c-.05.09-.11.14-.14.19l-.07.07-.13.14c-.05.06-.09.08-.12.08a.05.05,0,0,1,0,0s-.06-.08-.12-.13l-.3-.29c-.11-.11-.2-.16-.25-.21s-.06-.05-.06-.08,0-.15.11-.26l.36-.4.18-.2c.25-.29.53-.53.77-.81a4.12,4.12,0,0,0,.32-.41Z"/>
        <path class="cls-3" d="M151.16,545.29l.51.47.43.38a3.78,3.78,0,0,0,.4.39,2.57,2.57,0,0,1,.33.32,5.18,5.18,0,0,1,.48.48,5.91,5.91,0,0,1,.7.71,2,2,0,0,0,.16.2.52.52,0,0,0,.12.13,6.1,6.1,0,0,1,.65.89,3.8,3.8,0,0,1,.7,2.18,1.63,1.63,0,0,1-.08.58,1.06,1.06,0,0,1-.2.44,1,1,0,0,1-.17.23c-.07.07-.11.12-.15.13a1.85,1.85,0,0,1-1.83.26,5.61,5.61,0,0,1-1.7-1,6.39,6.39,0,0,1-.6-.52l-.37-.3a5.3,5.3,0,0,1-.43-.36l-.49-.44c-.24-.19-.43-.36-.55-.47l-.89-.8L148,549a1.07,1.07,0,0,1-.21-.17,1.17,1.17,0,0,1-.21-.2l-.18-.17-.5-.45-.22-.19c-.3-.27-.53-.48-.66-.62l-.64-.66-.32-.37c-.12-.13-.19-.22-.22-.24l-.25-.28-.23-.26s-.06-.13-.12-.26l-.15-.27a3.45,3.45,0,0,1-.22-.47,2.1,2.1,0,0,1,0-.93,1.49,1.49,0,0,0,.08-.23c0-.1.05-.17.07-.23a3.5,3.5,0,0,1,.25-.47l.13-.15.28-.31.07-.07a1.54,1.54,0,0,1,.38-.31,4.36,4.36,0,0,1,.54-.23,1.2,1.2,0,0,1,.53,0,1.9,1.9,0,0,1,.64.24c.25.15.46.26.62.34a7.86,7.86,0,0,1,.71.54l.62.54.66.59.29.26a1.81,1.81,0,0,0,.29.28l.6.54Zm2.56,6.53a.71.71,0,0,0,.45-.12,1,1,0,0,0,.17-.52.3.3,0,0,0,0-.25.75.75,0,0,0-.05-.26s0-.13-.09-.31l-.08-.31a4.53,4.53,0,0,0-.31-.54,5.4,5.4,0,0,0-.37-.48l-.51-.54-.47-.45-.57-.51-.5-.45-.19-.17-.18-.14a2.37,2.37,0,0,1-.23-.23l-.26-.23c-.24-.22-.63-.57-1.16-1.07l-1.2-1.11-.12-.1c-.17-.13-.41-.32-.68-.56a2.85,2.85,0,0,0-.67-.5,1.45,1.45,0,0,0-.26-.11.54.54,0,0,1-.19,0l-.2,0-.2.05a.57.57,0,0,0-.36.19,2.4,2.4,0,0,0-.33.46.82.82,0,0,0-.07.48,2.11,2.11,0,0,0,.15.47,3.57,3.57,0,0,0,.28.51,27.32,27.32,0,0,0,2.63,2.57l.44.4.22.19.68.62c.13.12.33.3.6.51l.57.52a5.09,5.09,0,0,1,.55.46c.14.1.31.26.51.44a1.82,1.82,0,0,1,.27.19l.07.06a.45.45,0,0,0,.07.09c.09,0,.16.12.24.17a1.13,1.13,0,0,1,.17.12c.13.09.34.15.55.29A1.32,1.32,0,0,0,153.72,551.82Z"/>
        <path class="cls-3" d="M150.33,556c-.51-.45-1.15-1.06-1.51-1.38a3,3,0,0,0-.31-.26l-.32-.28-.64-.66-.75-.67-.94-.85-.44-.39-.43-.36c-.23-.24-.4-.42-.5-.51a1.67,1.67,0,0,0-.23-.18l-.67-.6c-1.65-1.48-2.42-2.2-2.7-2.47,0,0-.07-.07-.1-.12l-.08-.08-.05,0s0-.05,0-.07l0-.07.07-.07a.28.28,0,0,1,.06-.1,8.09,8.09,0,0,1,.69-.6l5.08,4.62c.67.6,1.13,1,1.79,1.63l.5.51a2.09,2.09,0,0,1,.26.26l.17.15c.72.64.66.59.92.85,0,0,0-.09,0-.19s0-.16,0-.19a1.75,1.75,0,0,0,.08-.4,1.17,1.17,0,0,1,0-.23l.05-.17q0-.21.06-.33a.57.57,0,0,1,.09-.18s.07,0,.12,0l.69.62c.21.19.16.25.12.44a5.57,5.57,0,0,0-.24,1.19.64.64,0,0,0,.15.38c.06.11.36.38.36.44a.15.15,0,0,1,0,.09s-.05,0-.08.06l-.09.1c0,.06,0,0-.06.1l-.22.24,0,.05c-.19.16-.3.22-.33.19S150.58,556.26,150.33,556Z"/>
        <path class="cls-3" d="M138.06,553a4.6,4.6,0,0,1-.71-1.1,1.88,1.88,0,0,1-.13-1.21,2.65,2.65,0,0,1,.68-1.22l.16-.17a1,1,0,0,1,.11-.16l0,0a1.59,1.59,0,0,1,1.32-.49,4.53,4.53,0,0,1,2.21,1.28l.17.16.21.19a1.19,1.19,0,0,0,.22.17l.12.11a2.61,2.61,0,0,0,.35.28l.48.44a6.22,6.22,0,0,1,.52.52c.24.19.43.33.54.43a2.78,2.78,0,0,0,.3.3,1.22,1.22,0,0,0,.23.18,1.76,1.76,0,0,0,.24.24l2.48,2.23a2.09,2.09,0,0,1,.26.26,1.76,1.76,0,0,1,.24.24,2.68,2.68,0,0,1,.36.38,2.11,2.11,0,0,1,.35.44l.23.36a.69.69,0,0,0,.12.21.84.84,0,0,1,.11.28,2,2,0,0,1,0,1.09,2.23,2.23,0,0,1-.53,1,.34.34,0,0,1-.09.13,3.28,3.28,0,0,1-.87.71,1.44,1.44,0,0,1-.47.15l-.12,0H147a1.33,1.33,0,0,1-.63-.08,1.79,1.79,0,0,1-.5-.25c-.33-.21-.29-.1-.09-.44l.39-.63c.13-.24.08-.21.36,0a.44.44,0,0,0,.4.08l.18,0a.36.36,0,0,1,.13-.06,2.72,2.72,0,0,0,.34-.24l.13-.14a1.44,1.44,0,0,0,.11-.19,3.72,3.72,0,0,0,.16-.37c.11-.24,0-.59-.39-1.07-.6-.65-.73-.82-.78-.86l-.44-.4a2.56,2.56,0,0,1-.37-.36c-.18-.18-.35-.33-.76-.71l0,.29a2.43,2.43,0,0,1-.75,1.5,1.22,1.22,0,0,1-.77.42,3,3,0,0,1-2.15-.62,3.71,3.71,0,0,1-.6-.46,1,1,0,0,0-.17-.13l-.19-.16-.17-.16a.89.89,0,0,0-.16-.17,1.68,1.68,0,0,0-.27-.27l-.27-.24c-.24-.22-.43-.39-.55-.52A11.7,11.7,0,0,1,138.06,553Zm1.08-.76.27.3.48.5.34.34.4.36c.36.35.69.64,1,.91a3.57,3.57,0,0,0,.5.42c.66.6,1.22.66,1.67.22l.05-.06a1.22,1.22,0,0,0,.32-.75,1.41,1.41,0,0,0-.19-.69,5.77,5.77,0,0,0-1.18-1.32c-.66-.6-1.26-1.14-1.82-1.61l-.1-.09a4.4,4.4,0,0,0-1-.64.86.86,0,0,0-1,0,.94.94,0,0,0-.26.2.32.32,0,0,0-.07.1l-.06.07c-.21.38,0,.63.17,1.11a.06.06,0,0,1,0,.05s0,0,0,.07,0,.1.07.18A2.85,2.85,0,0,1,139.14,552.28Z"/>
      </g>
    </g>
    <g>
      <path class="cls-12" d="M-3.37,391.53c.58-.42,1-.7,1.32-.89s1-.62,1.73-1.14,1.26-.9,1.63-1.14c.62-.44,1.19-.8,1.73-1.14.16-.06.34.07.51.31l.05.07a4.93,4.93,0,0,0,.35.45,3.53,3.53,0,0,0,.41.53,2,2,0,0,1,.18.61l0,.18c0,.09,0,.13,0,.15l-.7.44c-.36.18-.66.36-.9.51a1.61,1.61,0,0,1-.34.27c-.3.19-.66.42-1.11.74s-.84.58-1.11.75-.37.23-.71.5l-.86.54c-.17.11-.51.32-.91.62l-1.07.68c-1,.66-2.38,1.54-4.18,2.67l-2.43,1.53-.63.4a5.79,5.79,0,0,0-.63.35l-1.1.69-1,.65c-.46.24-.79.45-1,.58-.7.44-1.6,1-2.74,1.77s-2,1.31-2.61,1.69l-.13.08-.64.22s-.12,0-.23-.14a2.09,2.09,0,0,1-.23-.32l-.33-.36-.11-.12a3.22,3.22,0,0,1-.52-.46c-.68-.74-1-1.27-.83-1.59a17,17,0,0,1,2.64-3.15c1.52-1.63,2.52-2.74,3-3.27a23.14,23.14,0,0,1,2.06-2c0-.16.24-.4.62-.64a.44.44,0,0,1,.16-.06l.11-.06c0-.16.21-.38.5-.71l.65-.61c.07-.05.5-.47,1.34-1.3.21-.18.46-.39.78-.64s.47-.45.55-.55l3-2.76,1.12-.82-1.43.83c-.71.41-1.63,1-2.7,1.65l-1.69,1.09a12.11,12.11,0,0,0-1,.7c-.37.19-.85.51-1.51.93l-3.13,2c-1.38,1-2.38,1.59-3,2a13.61,13.61,0,0,0-1.36,1l-1.24.8a2.54,2.54,0,0,0-.54.31,1.79,1.79,0,0,0-.49.36l-1.66,1.07c-.07,0-.25,0-.48-.2a3.77,3.77,0,0,1-.65-.48,1.13,1.13,0,0,1-.22-.27l-.29-.29c-.18-.35-.26-.53-.22-.55l0,0c.08-.09.12-.17.19-.21l.13-.09a.39.39,0,0,0,.21-.09c.1-.07.17-.11.18-.16a.79.79,0,0,0,.21-.19l.28-.18c.66-.43,1.28-.84,1.87-1.18a9.25,9.25,0,0,1,1-.58,1.57,1.57,0,0,1,.42-.32l.31-.21a1.27,1.27,0,0,0,.32-.25c.76-.45,1.8-1.08,3.08-1.92l.11-.07,2-1.26,2.71-1.77c.35-.23,1-.6,1.9-1.14a14.91,14.91,0,0,1,1.29-.89c.63-.41,1.11-.73,1.45-.9l3.09-2c1.38-.85,2.49-1.58,3.36-2.14l.7-.46.33-.11a2.45,2.45,0,0,0,.5-.29l.17.14.23.3.12.16a8.23,8.23,0,0,1,.65.71c.55.73.71,1.22.52,1.44a10.13,10.13,0,0,1-1.27,1.7c-4.42,4.12-7.51,7.06-9.38,8.88l-1.12,1.09c-.08.1-.25.21-.39.35s-.32.3-.43.41l-.26.31-1,1.05-2.87,3.11a4.2,4.2,0,0,1-.4.44l-.57.6c-.19.21-.26.3-.23.34a1.38,1.38,0,0,0,.39-.21,6.81,6.81,0,0,0,.82-.56,17.51,17.51,0,0,0,2.47-1.43c1.34-.85,2.42-1.53,3.2-2.07l.77-.5c.31-.24.55-.39.68-.48l1.08-.68a3.14,3.14,0,0,1,.6-.33,2.25,2.25,0,0,0,.38-.29,1.58,1.58,0,0,1,.38-.28c.26-.18.53-.35.8-.52s.47-.3.82-.56a8.49,8.49,0,0,1,.75-.53l.47-.29C-4.39,392.22-3.95,392-3.37,391.53Z"/>
      <path class="cls-16" d="M-17.55,407.18a1.32,1.32,0,0,1,.33-.26,2.81,2.81,0,0,1,.34-.26c1.51-.94,2.8-1.74,3.88-2.37l.43-.27.39-.25.43-.26a4.63,4.63,0,0,0,.75-.42,3.41,3.41,0,0,0,.57-.41,4,4,0,0,0,.67-.32l.7-.43.39-.25a1.42,1.42,0,0,1,.39-.2l2.5-1.56A13.74,13.74,0,0,0-4.1,399l1.65-1c1.35-.7,2.3-1.25,2.92-1.64l2.89-1.75c.36-.22.81-.45,1.26-.69a1.8,1.8,0,0,1,.4-.3l1.31-.76a.36.36,0,0,0,.14-.14l.06,0a8.52,8.52,0,0,1,1.21,1.63c.41.66.73,1.19.93,1.59.12.12.88,1.4,1.07,1.72a5,5,0,0,0,.27.6,1.94,1.94,0,0,1,.2.65l0,0c0,.06,0,.06,0,.07l-.11.17-.07,0-.22.14a.82.82,0,0,1-.17.15l-.23.14c-.41.25-.65.36-.7.28H8.58c-.05,0-.09-.09-.17-.14l-.12-.21a.81.81,0,0,1-.18-.23c-.14-.22-.27-.44-.4-.66s-.89-1.39-1.1-1.64c-.29-.55-.6-1-.59-1.09L3.75,397.3,2.52,398c-.65.4-1.55.91-2.68,1.56S-2,400.74-2.47,401l-.58.36-.62.38-.13.08.36.45a3.47,3.47,0,0,0,.29.34l.3.44.85,1.23.23.34c.39.57.56.89.47,1a4.7,4.7,0,0,0-.54.28l-.7.44-.16.09c-.34.17-.55.2-.62.1s-1.28-1.64-1.68-2.2l-.07-.1-.66-1c-.09-.13-.24-.14-.47,0l-.29.19a2,2,0,0,1-.3.23l-.16.1a14.82,14.82,0,0,0-2.16,1.2l-2.08,1.24a3.69,3.69,0,0,1-.55.29l-2.89,1.7a4,4,0,0,1,.47.51,3.47,3.47,0,0,0,.43.49,1.83,1.83,0,0,1,.27.4l1,1.3,1,1.24c0,.12-.26.4-1,.83s-1,.56-1.05.46a1.72,1.72,0,0,1-.6-.52l-.22-.29a3.84,3.84,0,0,0-.27-.4l-.15-.19c-.12-.21-1.18-1.52-1.62-2l-.93-1.11a2.24,2.24,0,0,1-.39-.41,1.54,1.54,0,0,1-.37-.85l.06,0a.33.33,0,0,1,.11-.12Z"/>
      <path class="cls-17" d="M-2.11,430.14l0,0a1.63,1.63,0,0,0-.18-.17l-.3-.3a1.37,1.37,0,0,0-.15-.38,1,1,0,0,0-.15-.19l-.12-.21-.05-.07a.52.52,0,0,1-.13-.15.37.37,0,0,1,0-.16l-.07-.1a3.22,3.22,0,0,1-.3-.57c-.22-.29-.66-.93-1.26-1.88a4.85,4.85,0,0,1-.36-.63c-.23-.29-.53-.76-.91-1.34a2.22,2.22,0,0,0-.32-.42l-.22-.34c-.2-.3-.28-.48-.24-.55l.2-.22a.41.41,0,0,0,.15-.14l.28-.16.06,0a.54.54,0,0,0,.16-.14l.18-.11,0,0a.25.25,0,0,1,.17-.06,4.08,4.08,0,0,1,.38-.32,1.92,1.92,0,0,0,.47-.33,1.41,1.41,0,0,1,.37-.27l.21-.13a2.09,2.09,0,0,1,.45-.22l1.13-.73c.39-.23,2.13-1.33,3.79-2.42s3-1.88,3.93-2.46l.68-.46a3,3,0,0,0,.62-.42,4.44,4.44,0,0,0,.71-.33l.24-.15.53-.36L8,413a2,2,0,0,1,.44-.22,2.3,2.3,0,0,0,.6-.46c.51-.25.74-.35,1-.47s.47-.33,1.17-.75c.47-.24,1.37-.73,1.58-.86l1-.61.34-.2a7.44,7.44,0,0,0,.71-.47c.3-.19.44-.31.58-.26a1.37,1.37,0,0,1,.28.41l.57,1.18c.15.33.22.48.17.61s-.21.22-.52.36-.87.52-1.43.81l-.69.42c-.93.55-2,1.22-3.1,1.9-.47.24-.77.42-1,.53l-.12.07c-.18.11-.49.34-1,.67L6.4,417.12l-4.94,3.11L0,421.16c-.43.3-1.52,1-1.87,1.22l-.45.27-.51.3-.33.2-.27.16.94,1.51c.25.42.72,1.12,1.34,2.11l1,1.58.06.1c0,.07,0,.16-.18.3s-.39.27-.63.47-.48.24-.55.32Z"/>
      <path class="cls-15" d="M10.6,435.86a4.65,4.65,0,0,0-.56.38l-.54.32-1.24.75c-.19.11-.57.34-1.18.66a7.48,7.48,0,0,1-1.32.6l-1.11.29a2.66,2.66,0,0,1-1.13.07,2.24,2.24,0,0,1-.89-.41,10.55,10.55,0,0,1-.87-.8,4,4,0,0,1-.59-.83l-.09-.18-.42-.78-.19-.36a6.44,6.44,0,0,1-.33-1.08c0-.12,0-.26-.07-.47s-.07-.39-.1-.51a4.31,4.31,0,0,1,.25-1.8,5.41,5.41,0,0,1,.5-.81c.07-.09.17-.24.33-.43s.22-.37.28-.45a5.4,5.4,0,0,0,.48-.38,3.32,3.32,0,0,1,.51-.4l.45-.36.66-.54,1.32-.93a14.62,14.62,0,0,1,1.33-.84l.43-.26,1-.6.37-.22a2.77,2.77,0,0,1,.41-.3,2.82,2.82,0,0,1,.42-.2l.41-.24,1.78-1.07c.26-.15.63-.38,1.11-.61l1-.59c.21-.12.49-.29.85-.46a6.11,6.11,0,0,0,.74-.39,11,11,0,0,1,1.19-.66A7.85,7.85,0,0,1,19,420a3.08,3.08,0,0,1,2.87,1.78,1.09,1.09,0,0,1,.17.36,3.36,3.36,0,0,1,.19.6,2.73,2.73,0,0,1,.11,1.05,4.32,4.32,0,0,1-.12,1.25,10.38,10.38,0,0,1-.67,2,8.48,8.48,0,0,1-1.32,2,9.53,9.53,0,0,1-1.35,1.37,1.09,1.09,0,0,0-.23.18c-.12.12-.26.21-.33.29a7,7,0,0,1-1.36,1,7.33,7.33,0,0,1-.92.65,4.7,4.7,0,0,1-.64.42,7.88,7.88,0,0,0-.77.51l-.81.49-1,.58-1.09.65Zm6.7-12.65s-.14.08-.32.15-.3.13-.46.18a.46.46,0,0,0-.16.13l-.14.09c-.08.05-.27.11-.51.21a9.41,9.41,0,0,1-1,.56,8.84,8.84,0,0,1-1.06.58l-1.13.68c-.53.27-.93.5-1.18.66l-1.36.81-.43.25-.88.53a38.73,38.73,0,0,0-5.25,3.52,6.93,6.93,0,0,0-.64.84,4.47,4.47,0,0,0-.37.84,2.19,2.19,0,0,0,0,1,4.72,4.72,0,0,0,.39.94,1.55,1.55,0,0,0,.56.61,2.27,2.27,0,0,1,.34.22c.15.1.26.17.33.23a.9.9,0,0,1,.33.08,1.28,1.28,0,0,0,.47-.05,3.65,3.65,0,0,0,1.25-.56,13.22,13.22,0,0,1,1.3-.68l.22-.13c.53-.31,1.29-.77,2.32-1.43s1.77-1.11,2.24-1.39l.49-.29a4.27,4.27,0,0,1,.45-.32,1,1,0,0,0,.35-.16l.36-.22,1-.57,1.1-.66a10.55,10.55,0,0,0,.92-.6c.45-.31.76-.55,1-.74a6.3,6.3,0,0,0,.76-.73,6.06,6.06,0,0,0,.71-.9l.25-.57c.15-.33.25-.52.26-.58a2,2,0,0,0,.19-.48.92.92,0,0,0,.11-.54,3,3,0,0,0-.08-1.17c-.27-.36-.49-.56-.66-.55a1.55,1.55,0,0,0-1.08-.15C17.84,423,17.54,423.11,17.3,423.21Z"/>
      <path class="cls-18" d="M26.65,441.46l-.91.28-1.45.52a17.76,17.76,0,0,1-2,.65c-1,.29-1.67.47-1.91.57-.66.26-1.26.44-1.83.65l-8.66,2.71a14.63,14.63,0,0,1-1.93.6l-.57.11a.63.63,0,0,1-.46.05h0a1.19,1.19,0,0,1-.36-.53,4.16,4.16,0,0,1-.19-.5,2.43,2.43,0,0,0-.17-.46l-.21-.49L5.67,445c-.07-.15-.14-.29-.2-.44-.2-.5-.25-.75-.19-.84a7.24,7.24,0,0,0,1-.66c.55-.33,1-.71,1.43-1l.79-.62a9.23,9.23,0,0,1,.94-.61,14.18,14.18,0,0,1,1.16-1c.44-.36,1-.78,1.66-1.28s1.1-.85,1.33-1l2.71-2,1.25-.94c.55-.47,1-.78,1.29-1l1.27-.9,3.68-2.73h0c.05,0,.21.15.48.6a8.2,8.2,0,0,1,.41,1c.15.51.18.82.11.87a20.74,20.74,0,0,1-2.67,2.07,2,2,0,0,1-.46.32,3.42,3.42,0,0,1-.49.34l-.1.07a3.35,3.35,0,0,0-.51.35,5.81,5.81,0,0,1-.52.36c-.08,0-.27.21-.59.4l-.69.56-5,3.84c-.89.68-1.63,1.17-2.19,1.65s-1.1.71-1.5,1.09l-.87.81,0,0a10.88,10.88,0,0,0,3.06-.73c1.19-.29,3.81-1.18,7.81-2.59s6.14-2.07,6.52-2.17c.1-.06.22.15.34.62,0,.15.07.3.11.44a3.5,3.5,0,0,1,.11.58,2.31,2.31,0,0,1,.07.87C27.1,441.23,26.92,441.3,26.65,441.46Z"/>
      <path class="cls-19" d="M9.9,453.87a.76.76,0,0,0,.26-.11,1.46,1.46,0,0,0,.28-.22c.45-.33,1.34-.87,2.88-1.82a7.59,7.59,0,0,0,.91-.62,2.1,2.1,0,0,0,.56-.29,1.82,1.82,0,0,0,.42-.31,1.66,1.66,0,0,0,.48-.25c1.52-.93,2.66-1.59,4.15-2.51l1.22-.76c.48-.25,1.2-.64,2.13-1.22l1.78-1.1a7.64,7.64,0,0,1,.92-.52,1.19,1.19,0,0,1,.31-.24l.95-.58.12-.08,0-.07a14.08,14.08,0,0,1,.58,2.07c.18.84.54,2.57.6,3a7.76,7.76,0,0,1,.18.79c0,.38.07.64.09.76a4,4,0,0,1,0,.75l0,.05-.05,0-.1.16,0,0a.39.39,0,0,0-.16.14.73.73,0,0,1-.13.13l-.16.1c-.3.19-.66.37-.67.29l0,0a2,2,0,0,0-.1-.21l0-.24a1.69,1.69,0,0,1-.09-.31c-.05-.27-.11-.54-.16-.8s-.12-.43-.21-.74c-.17-.94-.42-2.16-.4-2.21l-.05,0c-.05,0-.08,0-.11,0l-.08,0-.19.12-.05,0a.53.53,0,0,1-.15.15c-.1.06-.23.09-.4.2a1.81,1.81,0,0,1-.37.18l-4.25,2.6a8.47,8.47,0,0,1-.8.55l-.7.43-.46.29c.06.18.11.37.16.55s.39,1.38.47,1.56.09.34.14.51a2.86,2.86,0,0,1,.11.82.78.78,0,0,1-.3.41l-.12.08c-.26.16-.31.24-.59.42l-.12.07c-.25.11-.38.11-.42,0a4.06,4.06,0,0,1-.32-.86c-.19-.67-.39-1.34-.59-2-.05-.15-.06-.29-.08-.36s-.06-.11-.12-.11l-.05,0-.21.14-.08,0a8.42,8.42,0,0,0-.84.43l-1.51.94a1.9,1.9,0,0,1-.39.21l-2.12,1.31a3.12,3.12,0,0,1,.23.56c.15.43.59,1.75.65,1.85l.18.54a2.55,2.55,0,0,0,.12.45l.51,1.6c0,.21-.19.45-.7.77s-.82.47-.86.36a2.41,2.41,0,0,1-.35-.72c0-.13-.08-.26-.13-.39a2.83,2.83,0,0,0-.14-.52l-.09-.27c-.07-.29-.59-1.8-.85-2.49L9.88,456a3,3,0,0,1-.24-.56,3.29,3.29,0,0,1-.23-1.17l0,0c0-.07.06-.09.09-.1Z"/>
    </g>
  </g>
  <path class="cls-20" d="M1679.5,907v8a6,6,0,0,0,12,0v-2a6,6,0,0,0-12,0v2a6,6,0,0,0,12,0v-8a6,6,0,0,0-12,0Z"/>
  <path class="cls-20" d="M41.74,943.19v8a6,6,0,0,0,12,0v-2a6,6,0,0,0-12,0v2a6,6,0,0,0,12,0v-8a6,6,0,0,0-12,0Z"/>
  <path class="cls-20" d="M137.75,901.19v12c0,7.72,12,7.73,12,0v-12c0-7.72-12-7.74-12,0Z"/>
  <path class="cls-20" d="M173.75,880.19v5a6,6,0,0,0,12,0v-2a6,6,0,0,0-12,0v2a6,6,0,0,0,12,0v-5a6,6,0,0,0-12,0Z"/>
  <path class="cls-20" d="M687.7,963.92v6.59a6,6,0,0,0,12,0v-6.59a6,6,0,1,0-12,0Z"/>
  <path class="cls-20" d="M720.65,1036.41V1043a6,6,0,0,0,12,0v-6.59a6,6,0,0,0-12,0Z"/>
  <path class="cls-20" d="M759.61,1035.82c7.72,0,7.73-12,0-12s-7.74,12,0,12Z"/>
  <path class="cls-20" d="M638.61,172.82c7.72,0,7.73-12,0-12s-7.74,12,0,12Z"/>
  <path class="cls-20" d="M1513.89,396.19c7.72,0,7.73-12,0-12s-7.73,12,0,12Z"/>
  <path class="cls-20" d="M1766.89,503.19c7.73,0,7.74-12,0-12s-7.73,12,0,12Z"/>
  <path class="cls-20" d="M744.5,222c7.72,0,7.73-12,0-12s-7.73,12,0,12Z"/>
  <path class="cls-20" d="M1532.91,491.18c7.72,0,7.73-12,0-12s-7.73,12,0,12Z"/>
  <path class="cls-20" d="M716.91,483.18c7.72,0,7.73-12,0-12s-7.73,12,0,12Z"/>
  <path class="cls-20" d="M1612.91,974.18c7.72,0,7.73-12,0-12s-7.73,12,0,12Z"/>
  <g>
    <polygon class="cls-20" points="144.03 320.73 133.67 320.73 133.67 368.39 157.61 368.39 157.61 359.75 144.03 359.75 144.03 320.73"/>
    <polygon class="cls-20" points="162.61 368.39 189.48 368.39 189.48 359.75 172.97 359.75 172.97 348.31 189.48 348.31 189.48 339.6 172.97 339.6 172.97 329.45 189.48 329.45 189.48 320.73 162.61 320.73 162.61 368.39"/>
    <path class="cls-20" d="M231.28,320.73l-7.79,24c-.71,2.29-1.43,4.58-2,6.93-.5-2.43-1.07-4.78-1.79-7.14l-7.43-23.8H201.63l-6.86,47.66h10c1.36-10.79,2.86-21.5,3.79-32.36a55.63,55.63,0,0,0,1.93,7.57l8.14,24.79h5.65l8.29-24.22c.92-2.64,1.57-5.43,2.35-8.14q.12,3,.43,6l3.08,26.36h10l-6.5-47.66Z"/>
    <path class="cls-20" d="M274.87,319.59c-14.29,0-25.44,10.43-25.44,24.87s11.29,25.15,25.72,25.15,25.3-10.79,25.3-25.15C300.45,329.81,289.3,319.59,274.87,319.59Zm0,40.94c-8.65,0-14.94-7.57-14.94-15.93s6.36-16,15.15-16c8.58,0,14.87,7.51,14.87,15.8S283.51,360.53,274.87,360.53Z"/>
    <path class="cls-20" d="M337.25,347c0,2.14.14,4.21.22,6.36a39.55,39.55,0,0,0-2.79-4l-20.79-28.66H303.74v47.66H314.1v-24.5c0-2.51-.14-5-.29-7.51.86,1.43,1.79,2.79,2.79,4.15l20.87,27.86h10.07V320.73H337.25Z"/>
    <path class="cls-20" d="M367.19,320.73l-16.65,47.66h10.51L364.33,358h16.44l3.14,10.36h10.43l-16.57-47.66Zm0,29.3c1.93-6.14,4.29-12.22,5.29-18.65a45.67,45.67,0,0,0,1.64,6.79L377.91,350Z"/>
    <rect class="cls-20" x="397.99" y="320.73" width="10.36" height="47.66"/>
    <path class="cls-20" d="M446.44,323.66c-4.5-2.57-9.29-2.93-14.37-2.93H417.36v47.66h14.36c5.36,0,10.86-.85,15.43-3.78,6.65-4.29,9.86-12.44,9.86-20.08C457,336.6,453.51,327.81,446.44,323.66Zm-14.22,36.09h-4.5v-30.3h4.64c8.93,0,14.15,6.72,14.15,15.22C446.51,353.39,441.22,359.75,432.22,359.75Z"/>
    <polygon class="cls-20" points="490.5 305.99 472.19 305.99 472.19 287.67 462.44 287.67 462.44 305.99 444.13 305.99 444.13 315.73 462.44 315.73 462.44 334.05 472.19 334.05 472.19 315.73 490.5 315.73 490.5 305.99"/>
  </g>
  <g>
    <g>
      <path class="cls-20" d="M292.76,228.1s-8.81,8.32-16.11,3.06S270.54,221,270.54,221s-1.51-13.84,13.57-25.62c3.82-3,9.85-1.7,9.85-1.7s5.09.7,6.11,4.42-4.59,3.64-4.59,3.64l-2.54-2c-2-1.48-5,.45-7.4,2.31s-10.32,10.26-8.22,21.61c.43,2.31,3.91,4.35,7.47,2.9a23.56,23.56,0,0,0,3.4-1.87s2.19-.34,3.38.68S293.94,226.74,292.76,228.1Z"/>
      <path class="cls-20" d="M305.89,224,293,224s-3.91-.95-1.7-5.44,10.11-19.84,17.4-24.42c0,0,.24-.61,4.51-.75a17.16,17.16,0,0,1,3.23.44s2.67.81,2.34,3.28-2.54,19.75-5.68,33.92l-5.26.1s-.75-.1-.16-1.62,4.39-19.09,4.48-24.43-2.11-4.49-2.11-4.49-5.36,2.35-10.86,17c0,0-.58.67.34.76s7.8.18,7.8.18.73-.34.73.62l-1.14,4.26A1.18,1.18,0,0,1,305.89,224Z"/>
      <path class="cls-20" d="M316.05,231.08s-1.16,0-.8-1.3,8.57-34.9,15.19-36.28a31.55,31.55,0,0,1,13.32.51s2.46,1,2.54,3,1.3,7.88-1.24,11.27a30.83,30.83,0,0,1-10.41,9.17l6.13,12.36s.57.71-.59.93l-3.34.08s-5.23-2.46-8.79-16.93c0,0-.57-1.4,1.52-1.47s8.78-1.3,9.88-7-3.26-5.67-3.26-5.67-2.35-.48-3.88,2.88-4.66,6.12-11.39,27.38c0,0-.22,1-.95,1.15A36.09,36.09,0,0,1,316.05,231.08Z"/>
      <path class="cls-20" d="M345.79,226.5l-4.87.14s-1.38-.28-.73-1.44,7.65-19.73,15.35-27.93a16,16,0,0,1,3.36-2.82,10.21,10.21,0,0,1,10.31.57,6.71,6.71,0,0,1,.72,4.65c-.44,3-3.33,22.33-5.23,30.11a.84.84,0,0,1-.73.93c-.79.08-4.72.08-4.72.08s-1.16-.08-.65-1.1,4.73-21.29,4.07-26.89S358,204,358,204a60.17,60.17,0,0,0-7.42,13.82s-.93,1,.15,1.1,7.69,0,7.69,0,1-.07.67,1-1.38,3.85-1.38,3.85a1.41,1.41,0,0,1-1,.29l-8.86-.07s-.37-.22-.74.58l-.86,1.33A.74.74,0,0,1,345.79,226.5Z"/>
      <path class="cls-20" d="M373.69,231.57s-5.34.67-5.09-2.8,4.42-23.08,3.74-29,3.38-6.44,3.38-6.44,3.47-.59,3.9,2-4.23,27-4.23,27-1.4,3.68-.09,2.9c5.35-3.31,14.09-23.42,14.09-23.42s4.23-7.46,7-8.65,3.48.42,3.48.42.33.58-.69,2.54-9.2,22.51-20,32.26C379.24,228.46,376.38,231.06,373.69,231.57Z"/>
      <path class="cls-20" d="M390.53,231.05s-.19.3-1.52.33c-1.08,0-4.11-.32-4.11-.32a2.32,2.32,0,0,1,0-2.21c.66-1.16,14.53-28.25,17.77-31.74a16.28,16.28,0,0,1,3.35-2.82,10.21,10.21,0,0,1,10.31.57,6.67,6.67,0,0,1,.73,4.65c-.44,3-3.34,22.33-5.23,30.11,0,0-.07,1.49-.86,1.57s-4.72.08-4.72.08a1.41,1.41,0,0,1-.53-1.73c.51-1,4.74-21.3,4.07-26.9s-4.66,1.23-4.66,1.23a60.42,60.42,0,0,0-7.41,13.82s-.93,1,.15,1.1,7.7,0,7.7,0,1-.07.66,1-1.38,3.85-1.38,3.85a1.42,1.42,0,0,1-1,.29l-8.86-.07s-.36-.22-.73.58l-.86,1.33S391,230.92,390.53,231.05Z"/>
      <path class="cls-20" d="M415.18,231.05s-1.73.43-1.22-1.42S421.2,202,426.29,196s8.54-2.86,8.54-2.86,2.05,1.52,1.64,3.56-1.12,15.36-.21,20.56,2.43-1.92,2.43-1.92,4.28-12,5.51-17.51,5.18-5.09,5.18-5.09,3.47,0,2.75,3.36-7.31,23.61-11.91,31.65c-1.72,3-2.87,2.92-2.87,2.92s-5.72.07-6.48-.89c-.64-.51-.64-2.73-.64-2.73l.13-22.27a176.66,176.66,0,0,0-10,25.51s.19.83-.89.89S415.18,231.05,415.18,231.05Z"/>
    </g>
    <path class="cls-21" d="M134.86,110.87h56.26l2.14,10.81H169.11s-1.66-.08-1.11,1.73l2.92,10.5s0,1.58,2,1.26h23.36l2.05,11.68H175.9s-1.74-.39-.72,1.5l5.53,20.36H155Z"/>
    <path class="cls-20" d="M201.62,112.19s-.44-1.56.67-1.56H257s.7-.06.67,1c0,1.3.57,11.39.57,11.39a.49.49,0,0,1-.63.57h-25l1.95,11.1H258.4s1.12-.16,1.28,1.27l.33,12.47s-.08.7-1.1.6H235.75l1.18,7.54h24.43s.92-.16.8.86l.63,10.05s.07.77-.89.83c0,0-31.52,0-43.9.07-3,0-5-.07-5-.07s-.76.38-1.08-1.08c0,0-8.06-43-9.94-53Z"/>
    <path class="cls-20" d="M267.37,111.65s-.22-1.05.51-1c.94,0,31,0,31,0s.7-.19,1.2.7,21.19,30.35,21.19,30.35l.51-30s-.16-1.08.57-1.08h17.5a.7.7,0,0,1,.76.83s-3.16,40.73-4.07,52.55c-.16,2-.26,3.18-.26,3.18s0,1.3-1.14,1.21h-27s-1,.06-1.33-.7l-21.7-30.16,1.72,29.84a.83.83,0,0,1-.89,1H272.53a1,1,0,0,1-1.21-.77c-.19-1-3.28-46.25-3.85-54.65C267.41,112.12,267.37,111.65,267.37,111.65Z"/>
    <path class="cls-20" d="M428.63,168.33s-2,.13-1.62-1.37,12.52-43.46,12.52-43.46H425.39s-1.33.11-1.13-1.42c.16-1.22,1.3-7.27,1.77-9.64.11-.59.17-1,.17-1s.05-.92,1.23-.92h60.91s1.23-.12.92.9c-.25.83-2.37,8-3.13,10.59-.17.58-.29.93-.29.93a1.26,1.26,0,0,1-1.31,1H469.26l-14.14,42.76s-.1,1.53-1.23,1.53l-23.33,0Z"/>
    <path class="cls-20" d="M346.09,168.33s-1.64.35-1.53-1.06c.1-1.24,4.12-43.39,5.09-53.59.13-1.4.21-2.19.21-2.19a.86.86,0,0,1,.92-.86c1.19.08,52.11,0,54.35,0,.09,0,16.2,0,13.76,15.2l-5.21,27.3s-1.84,15.2-19.24,15.2Zm29.38-43.49-4.37,32.57h12a4,4,0,0,0,3.87-2.94c.92-3.06,3.77-27.3,3.77-27.3s.08-2.24-2.66-2.33S375.47,124.84,375.47,124.84Z"/>
    <g>
      <rect class="cls-20" x="155.74" y="180.03" width="297.42" height="1.42"/>
      <rect class="cls-20" x="154.9" y="179.19" width="299.1" height="3.09"/>
    </g>
  </g>
</svg>
