<svg xmlns="http://www.w3.org/2000/svg" viewBox="0 4320 1920 1080"><defs><style>.a{fill:#c8f8fc;}.b{fill:#88d2f2;}.c,.d,.e,.f{fill:#e8ab17;}.c{opacity:0.4;}.d{opacity:0.2;}.e{opacity:0.7;}.g{fill:#ccc;}.h{fill:#7cd179;}.i,.j,.w{fill:none;stroke-miterlimit:10;}.i{stroke:#11a1d3;}.i,.j{stroke-linecap:round;stroke-width:7px;}.j{stroke:#c8f8fc;}.k{fill:#fc3;}.l{fill:#cff;}.m{fill:#333;}.n{fill:#e1b878;}.o{fill:#09f;}.p{fill:#ffc;}.q{fill:#334034;}.r{fill:#ceb8a1;}.s{fill:#b2a193;}.t{fill:#4e2315;}.u{fill:#fff;}.v{fill:#a8a786;}.w{stroke:#d3a9cf;stroke-width:2px;}.x{fill:#d3a9cf;}</style></defs><rect class="a" width="1920" height="736" transform="translate(0 4320)"/><rect class="b" width="1920" height="272" transform="translate(0 5128)"/><g transform="translate(1464 4420.8)"><circle class="c" cx="82.9" cy="82.9" r="82.9" transform="translate(14.7 14.7)"/><circle class="d" cx="97.6" cy="97.6" r="97.6" transform="translate(0 0)"/><circle class="e" cx="68.6" cy="68.6" r="68.6" transform="translate(29 29)"/><circle class="f" cx="51.2" cy="51.2" r="51.2" transform="translate(46.4 46.4)"/></g><rect class="g" width="1920" height="55.7" transform="translate(0 5072.3)"/><rect class="h" width="1920" height="15.7" transform="translate(0 5056)"/><g transform="translate(56.5 5223.5)"><line class="i" x1="399" transform="translate(351 27)"/><line class="j" x2="531" transform="translate(1068.5 51.5)"/><line class="j" x1="373" transform="translate(1050.5 3.5)"/><line class="j" x1="249" transform="translate(1554.5 118.5)"/><line class="j" x1="163" y2="1" transform="translate(625.5 -29.5)"/><line class="i" x1="118" transform="translate(1320.5 108.5)"/><line class="j" x2="421" transform="translate(3.5 148.5)"/><line class="i" x2="273" transform="translate(349.5 117.5)"/></g><g transform="translate(837.2 5104)"><rect class="k" width="64.8" height="27.7" transform="translate(102.2 13.4)"/><rect class="k" width="40.8" height="36" transform="translate(56.3 5.1)"/><path class="l" d="M156,28.5H143.1a5.763,5.763,0,0,1-5.7-5.7h0a5.763,5.763,0,0,1,5.7-5.7H156a5.763,5.763,0,0,1,5.7,5.7h0A5.635,5.635,0,0,1,156,28.5Z"/><path class="m" d="M156,29.8H143.1a7,7,0,0,1,0-14H156a7,7,0,0,1,0,14ZM143.1,18.4a4.375,4.375,0,0,0-4.4,4.4,4.439,4.439,0,0,0,4.4,4.4H156a4.375,4.375,0,0,0,4.4-4.4,4.439,4.439,0,0,0-4.4-4.4Z"/><rect class="n" width="226.8" height="4.9" transform="translate(0 41.1)"/><path class="o" d="M0,46V73.2H185.9A45.966,45.966,0,0,0,226.4,46H0Z"/><path class="l" d="M84.7,34.9H69.3a5.591,5.591,0,0,1-5.6-5.6V14a5.591,5.591,0,0,1,5.6-5.6H84.7A5.591,5.591,0,0,1,90.3,14V29.4A5.7,5.7,0,0,1,84.7,34.9Z"/><path class="m" d="M84.7,36.2H69.3a6.807,6.807,0,0,1-6.8-6.8V14a6.807,6.807,0,0,1,6.8-6.8H84.7A6.807,6.807,0,0,1,91.5,14V29.4A6.872,6.872,0,0,1,84.7,36.2ZM69.3,9.7A4.268,4.268,0,0,0,65,14V29.4a4.268,4.268,0,0,0,4.3,4.3H84.7A4.268,4.268,0,0,0,89,29.4V14a4.268,4.268,0,0,0-4.3-4.3Z"/><path class="l" d="M125.7,28.5H112.8a5.763,5.763,0,0,1-5.7-5.7h0a5.763,5.763,0,0,1,5.7-5.7h12.9a5.763,5.763,0,0,1,5.7,5.7h0A5.7,5.7,0,0,1,125.7,28.5Z"/><path class="m" d="M125.7,29.8H112.8a7,7,0,0,1,0-14h12.9a7,7,0,0,1,0,14ZM112.8,18.4a4.375,4.375,0,0,0-4.4,4.4,4.439,4.439,0,0,0,4.4,4.4h12.9a4.375,4.375,0,0,0,4.4-4.4,4.439,4.439,0,0,0-4.4-4.4Z"/><path class="p" d="M10.6,56.3a9.439,9.439,0,0,1,.3.9l.1.3.1-.3c0-.1.1-.2.1-.3.4-1.3.7-2.3,1.1-3.7a20.156,20.156,0,0,1,.7-2.3c0-.1.1-.2.1-.3a3.334,3.334,0,0,1,1,0h.1c.1,0,.1,0,.1.1h0a16.95,16.95,0,0,1,.1,2.3v2.8c.1.2,0,4.6,0,5v3.7c0,.7-.1,1.4-.1,2.1,0,.1-.1.1-.4.1-.2,0-.4.1-.6,0a.367.367,0,0,1-.3-.1V64.7a22.879,22.879,0,0,0,.1-3.7V59.3a12.187,12.187,0,0,0,0-2.7V55l-.2.6v.2c-.2.5-.3,1-.5,1.5-.4,1.2-.6,2.7-1.1,3.8a.3.3,0,0,1-.4,0c-.1-.1-.1-.2-.2-.3a.31.31,0,0,0-.1-.2c-.1-.1-.1-.3-.2-.4,0-.1,0-.1-.1-.2v-.2a.774.774,0,0,0-.1-.3,27.464,27.464,0,0,1-1.3-4.7v1.4c-.1,1.8.6,10.5-.4,10.5H8c-.2-.1-.3-.1-.4-.2v-.1c-.4-.9,0-5.1,0-5.5v-.8c.2-2.8,0-5.5.3-8.3a.367.367,0,0,1,.1-.3c.3-.3-.5-.7.5-.7a3.73,3.73,0,0,1,1.2.2C9.6,51.2,10.6,56.2,10.6,56.3Z"/><path class="p" d="M19.7,51.1a.758.758,0,0,1,.2.4c.1.3.2.4.2.5a1.268,1.268,0,0,1,.1.6,12.1,12.1,0,0,1,.1,1.9v.2a1.162,1.162,0,0,1-1,0c-.2,0-.4-.1-.4-.3-.1-.5.2-2.1-.4-2.5-.1-.1-.2-.1-.4-.1H18a2.092,2.092,0,0,0-.6.4l-.3.4a.749.749,0,0,0-.1.5c.3,2,2.6,6.8,2.7,7a1.238,1.238,0,0,1,.2.3c0,.1.1.4.2.8,0,1.6.6,3.2-.2,4.7a.536.536,0,0,1-.3.4c0,.1-.1.2-.4.3a.749.749,0,0,1-.5.1h-.6c-2.2-.3-2.3-1.6-2.2-3.4a4.8,4.8,0,0,1,0-1.2c0-.1,1.3-.2,1.3,0v.4c-.5,1.7,1.1,4.2,1.7,2.4,0-.2.1-.3.1-.6V62.8a48.857,48.857,0,0,0-2.5-7.2C14.5,53,17.1,47.9,19.7,51.1Z"/><path class="p" d="M26.2,66.2v-2a13.053,13.053,0,0,0,0-2V51.7c.1-.2,0-.5.1-.6,0-.1.1-.1.2-.2a2.769,2.769,0,0,0,.9-.1,4.869,4.869,0,0,1,2.1.2c.1.1.3.2.4.3.8.6.9,2.1.9,2.9s.1,1.7.1,2.5v4.1a5.652,5.652,0,0,0,0,1.3V64a9890104306729.441,9890104306729.441,0,0,1-.2.6,10.375,10.375,0,0,1-.4,1c-.1.2-.1.3-.2.3a1.082,1.082,0,0,1-.5.4,3.582,3.582,0,0,1-1.1.4H26.2C26.2,66.6,26.2,66.5,26.2,66.2Zm1.1-13.9a17.067,17.067,0,0,1,0,3.2v9.6h0c0,.1,0,.1.1.2h0a.6.6,0,0,0,.4.1h.4c.4-.1.6-.4.9-.7.1-.1.1-.1.1-.2a.367.367,0,0,0,.1-.3,1.854,1.854,0,0,0,.2-.7v-.3a31.846,31.846,0,0,0,0-4.4V53.5a7.754,7.754,0,0,0-.1-.9,1.525,1.525,0,0,0-1.8-.5h-.2C27.4,52.2,27.4,52.3,27.3,52.3Z"/><path class="p" d="M35.4,51c1.7.8,2.1,3.1,1.8,4.8v8.8c0,.1-.3,1.3-.3,1.4s-.7.7-.8.8a3.378,3.378,0,0,1-2.6-.2,1.27,1.27,0,0,1-.4-.7,7.335,7.335,0,0,1-.5-2c0-.5-.2-1.9-.2-2.1,0-.1.1-7,.1-7.9a3.217,3.217,0,0,1,.1-.8,2.92,2.92,0,0,0,.2-.9.349.349,0,0,1,.1-.2,1.562,1.562,0,0,1,.8-.8,3.81,3.81,0,0,1,1-.3A5.638,5.638,0,0,1,35.4,51Zm-1.6,2.4c0,.2-.1.4,0,.6-.1.1,0,6.3,0,6.6,0,.7-.1,3.2.4,4.1a3.932,3.932,0,0,0,.2.6c.1.1.2.3.3.3.4.4.9,0,1.1-.3a13.786,13.786,0,0,0,.2-2.2,16.152,16.152,0,0,0,0-2.2V55.6C36,53.2,35.7,51.4,33.8,53.4Z"/><path class="p" d="M43.1,51.6a12.475,12.475,0,0,1,.4,3c0,.3-1.3.2-1.3.2v-.2s-.1-4.7-1.9-2.1a13.742,13.742,0,0,0-.3,4.8c0,1.6.1,6,.1,6.2,0,.5.1.8.1,1a1.445,1.445,0,0,0,.7,1h.3a1.421,1.421,0,0,0,.6-.2.349.349,0,0,0,.1-.2c0-.1.1-.2.1-.3a1.087,1.087,0,0,0,.1-.5v-.6c.2-.5-.4-1.6.4-1.7h.4a.6.6,0,0,1,.4.1v.6a5.028,5.028,0,0,1-.4,3c-.2.4-.3.9-.6,1.1-.1.1-.3.1-.4.2H41c-2.9-.6-2.3-4.5-2.3-6.7a59.726,59.726,0,0,1,.2-7.6,3.932,3.932,0,0,1,.2-.6,1.456,1.456,0,0,1,.6-.9,2.789,2.789,0,0,1,1.8-.4A1.716,1.716,0,0,1,43.1,51.6Z"/><path class="p" d="M46.3,51.1c0,.1.1,6.2.1,6.4.1-.2,1.4-3.7,1.6-4.1,0-.1.6-2.6,1.3-2.6H50c.6.2-1.1,4.2-1.2,4.3a30.188,30.188,0,0,0-.9,3,.764.764,0,0,1-.2.5c0,.1,1.2,4.3,1.3,4.5.1.4.8,3,1.1,3.7,0,.1-1.5.2-1.6,0-.2-.9-.5-1.7-.6-2.5-.1-.4-1.4-4.4-1.5-4.4.1,1.2.1,6.1.1,6.6,0,.1-.8.3-1.1.3-.2,0-.4-.1-.4-.2.1-.1,0-15.4,0-15.5V51h1.2A.1.1,0,0,1,46.3,51.1Z"/><path class="p" d="M57,51.4s-.8,6.6-1.2,9.8c-.1.4-.7,5.5-1.1,5.5-.2,0-.4.1-.6,0a3.536,3.536,0,0,1-.6-.1c-.1,0-.3-.1-.3-.2-1-2.7-2.5-14.8-2.6-14.9.1-.2,1.3-.6,1.4-.2.1.1,1.6,12.4,1.9,12.7.2.2.4-.5.6-2.7.1-.3.3-2.9.7-6.5.1-.4.3-3.1.3-3.6,0-.1.1-.1.3-.1C56.1,51.2,57,51.4,57,51.4Z"/><path class="p" d="M59.4,53.4c0,1.6-.1,12.3-.1,12.7v.5a4.8,4.8,0,0,1-1.2,0c-.4-.5,0-12.5,0-15.2,0-.6.9-.4,1.3-.4Z"/><path class="p" d="M62.5,65.3a28.034,28.034,0,0,1,2.9,0c.3,0-.1,1.3-.2,1.4h-4c-.2,0-.2-.8-.1-.9,0-.2-.1-7.5,0-8.6v-.1c0-.4.1-6.2.1-6.2a2.845,2.845,0,0,1,1.3,0C62.3,50.9,62.5,64.5,62.5,65.3Z"/><path class="p" d="M67.9,50.9c0,.1.1,13.6.1,14.3a28.034,28.034,0,0,1,2.9,0c.3,0,0,1.3-.2,1.4h-4c-.2,0-.2-8.4-.1-9.6,0-.4.1-6.2.1-6.2a4.868,4.868,0,0,1,1.2.1Z"/><path class="p" d="M72.2,51.1h0a24.79,24.79,0,0,1,3.9,0h0v1.2H73.7s-.1,6.2-.1,6.7a9.723,9.723,0,0,1,1.8.1,6.552,6.552,0,0,1,0,1.4c-.4.2-1.7-.2-1.9.1,0,.1-.1,4.6-.1,4.6h2.8a2.573,2.573,0,0,1,.1,1.5,19.822,19.822,0,0,1-4.2-.1h0C72.1,66.5,72.2,51.5,72.2,51.1Z"/><circle class="q" cx="6.4" cy="6.4" r="6.4" transform="translate(180.2 49.1)"/><rect class="q" width="69" height="4.4" transform="translate(100 9)"/><rect class="q" width="45.1" height="5.1" transform="translate(54.2)"/></g><g transform="translate(880 4608.949)"><path class="r" d="M969.343,298.413v-4.187H1000.6V94.1H921.8V453.6h78.8V298.413Z" transform="translate(-64.169 -6.551)"/><rect class="q" width="14.235" height="282.187" transform="translate(839.489 164.865)"/><rect class="r" width="47.264" height="338.94" transform="translate(0 108.111)"/><rect class="r" width="55.172" height="337.359" transform="translate(100.854 109.693)"/><rect class="r" width="55.172" height="337.359" transform="translate(162.353 109.693)"/><rect class="s" width="42.612" height="383.134" transform="translate(53.032 63.918)"/><path class="t" d="M793.7,260.045,739.833,326.2V265.628H707.455V237.251H684.661V191.476H620v45.775H597.111v28.377H568.269V251.393H435.782v15.258h-9.769V239.111H398.474V190.452H369.259V156.4H307.668v34.052H278.547v48.659H251.007v27.539H236.4V457.939H852.038V331.5Z" transform="translate(-16.456 -10.887)"/><path class="t" d="M793.7,260.045,739.833,326.2V265.628H707.455V237.251H684.661V191.476H620v45.775H597.111v28.377H568.269V251.393H435.782v15.258h-9.769V239.111H398.474V190.452H369.259V156.4H307.668v34.052H278.547v48.659H251.007v27.539H236.4V457.939H852.038V331.5Z" transform="translate(-16.456 -10.887)"/><g transform="translate(820.602 171.936)"><path class="q" d="M896.142,332.546V184.8H882V315.147Z" transform="translate(-882 -184.8)"/><path class="q" d="M882,480.5Z" transform="translate(-882 -205.384)"/></g><path class="q" d="M410.6,222.476h30.7l-1.675,6.513H410.6v2.977h28.284l-.279,1.21h-28v.186h27.539v22.888h9.769v-4.094H440v-5.4l1.768-6.978,7.071,5.861H452l-9.676-8.094.093-.279H463.26v8.373h2.047v-7.35l8.839,7.35h3.163l-10.048-8.373h21.213v8.373h2.047v-7.35l8.839,7.35h3.163l-10.048-8.373h18.05v8.373h2.047v-7.35l8.839,7.35h3.163l-10.048-8.373h21.213v8.373h2.047v-7.35l6.606,5.489v1.861h34.331v-8.373h4.466v14.793H580.3v4.094h28.935v-4.094h-4.28l-17.677-14.793h21.957v-4.094H578.721v-1.21h30.517V231.5h22.888v-2.419H578.814v-6.513h53.311v-2.977H578.814V196.983l44.1-121.6L618.449,73.8l-23.911,65.964H526.806V143.3h66.43l-14.421,39.821V146.928h-3.535V170.56H548.111V146.928h-3.535v72.756H446.885l15.91-62.708-4.559-1.21-16.189,63.825H410.6v2.884Zm174.634,15.817,16.468,13.77H585.234Zm-37.216-64.848h27.167V188.8H548.018Zm-3.535,67.639-4.559-3.815h4.559Zm-98.342-18.608h98.342v6.513H444.466Zm-2.419,9.49H544.483v1.21H443.443Z" transform="translate(-28.583 -5.137)"/><rect class="q" width="83.177" height="6.327" transform="translate(32.284 30.052)"/><path class="r" d="M419.312,355.6H387.4v47.915h11.816V382.86h20.1Z" transform="translate(-26.968 -24.754)"/><path class="r" d="M265.4,355.6h31.912v47.915H285.5V382.86H265.4Z" transform="translate(-18.475 -24.754)"/><rect class="q" width="208.035" height="4.094" transform="translate(223.944 262.276)"/><rect class="q" width="95.179" height="4.094" transform="translate(272.324 281.814)"/><rect class="q" width="135.93" height="2.326" transform="translate(568.56 287.676)"/><g transform="translate(265.626 199.382)"><rect class="u" width="4.838" height="5.954" transform="translate(68.29)"/><rect class="u" width="4.838" height="5.954" transform="translate(68.29 21.585)"/><rect class="u" width="4.838" height="5.954" transform="translate(68.29 48.566)"/><rect class="u" width="4.838" height="5.954" transform="translate(68.29 70.151)"/><rect class="u" width="4.838" height="5.954" transform="translate(68.29 95.272)"/><rect class="u" width="4.838" height="5.954" transform="translate(68.29 118.624)"/><rect class="u" width="4.838" height="5.954" transform="translate(68.29 142.07)"/><rect class="u" width="4.838" height="5.954" transform="translate(68.29 170.819)"/><rect class="u" width="4.838" height="5.954" transform="translate(68.29 195.94)"/><rect class="u" width="4.838" height="5.954" transform="translate(68.29 221.153)"/><rect class="u" width="4.838" height="5.954" transform="translate(77.315 21.585)"/><rect class="u" width="4.838" height="5.954" transform="translate(77.315 48.566)"/><rect class="u" width="4.838" height="5.954" transform="translate(77.315 70.151)"/><rect class="u" width="4.838" height="5.954" transform="translate(97.132 70.151)"/><rect class="u" width="4.838" height="5.954" transform="translate(106.064 70.151)"/><rect class="u" width="4.838" height="5.954" transform="translate(77.315 95.272)"/><rect class="u" width="4.838" height="5.954" transform="translate(77.315 118.624)"/><rect class="u" width="4.838" height="5.954" transform="translate(77.315 142.07)"/><rect class="u" width="4.838" height="5.954" transform="translate(77.315 170.819)"/><rect class="u" width="4.838" height="5.954" transform="translate(77.315 195.94)"/><rect class="u" width="4.838" height="5.954" transform="translate(77.315 221.153)"/><rect class="u" width="4.838" height="5.954" transform="translate(37.774)"/><rect class="u" width="4.838" height="5.954" transform="translate(37.774 21.585)"/><rect class="u" width="4.838" height="5.954" transform="translate(37.774 48.566)"/><rect class="u" width="4.838" height="5.954" transform="translate(37.774 70.151)"/><rect class="u" width="4.838" height="5.954" transform="translate(37.774 95.272)"/><rect class="u" width="4.838" height="5.954" transform="translate(37.774 118.624)"/><rect class="u" width="4.838" height="5.954" transform="translate(37.774 142.07)"/><rect class="u" width="4.838" height="5.954" transform="translate(37.774 170.819)"/><rect class="u" width="4.838" height="5.954" transform="translate(37.774 195.94)"/><rect class="u" width="4.838" height="5.954" transform="translate(37.774 221.153)"/><rect class="u" width="4.838" height="5.954" transform="translate(26.981 21.585)"/><rect class="u" width="4.838" height="5.954" transform="translate(26.981 48.566)"/><rect class="u" width="4.838" height="5.954" transform="translate(26.981 70.151)"/><rect class="u" width="4.838" height="5.954" transform="translate(10.793 70.151)"/><rect class="u" width="4.838" height="5.954" transform="translate(0 70.151)"/><rect class="u" width="4.838" height="5.954" transform="translate(26.981 95.272)"/><rect class="u" width="4.838" height="5.954" transform="translate(26.981 118.624)"/><rect class="u" width="4.838" height="5.954" transform="translate(26.981 142.07)"/><rect class="u" width="4.838" height="5.954" transform="translate(26.981 170.819)"/><rect class="u" width="4.838" height="5.954" transform="translate(26.981 195.94)"/><rect class="u" width="4.838" height="5.954" transform="translate(26.981 221.153)"/></g><g transform="translate(449.935 252.135)"><rect class="u" width="2.977" height="6.606" transform="translate(28.749)"/><rect class="u" width="2.977" height="6.606" transform="translate(34.145)"/><rect class="u" width="2.977" height="6.606" transform="translate(28.749 41.309)"/><rect class="u" width="2.977" height="6.606" transform="translate(34.145 41.309)"/><rect class="u" width="2.977" height="6.606" transform="translate(28.749 55.73)"/><rect class="u" width="2.977" height="6.606" transform="translate(34.145 55.73)"/><rect class="u" width="2.977" height="6.606" transform="translate(28.749 71.919)"/><rect class="u" width="2.977" height="6.606" transform="translate(34.145 71.919)"/><rect class="u" width="2.977" height="6.606" transform="translate(28.749 86.247)"/><rect class="u" width="2.977" height="6.606" transform="translate(34.145 86.247)"/><rect class="u" width="2.977" height="6.606" transform="translate(28.749 102.436)"/><rect class="u" width="2.977" height="6.606" transform="translate(34.145 102.436)"/><rect class="u" width="2.977" height="6.606" transform="translate(28.749 116.857)"/><rect class="u" width="2.977" height="6.606" transform="translate(34.145 116.857)"/><rect class="u" width="2.977" height="6.606" transform="translate(28.749 131.185)"/><rect class="u" width="2.977" height="6.606" transform="translate(34.145 131.185)"/><rect class="u" width="2.977" height="6.606" transform="translate(28.749 145.606)"/><rect class="u" width="2.977" height="6.606" transform="translate(34.145 145.606)"/><rect class="u" width="2.977" height="6.606" transform="translate(28.749 160.027)"/><rect class="u" width="2.977" height="6.606" transform="translate(34.145 160.027)"/><rect class="u" width="2.977" height="6.606" transform="translate(28.749 172.587)"/><rect class="u" width="2.977" height="6.606" transform="translate(34.145 172.587)"/><rect class="u" width="2.977" height="6.606" transform="translate(57.498 41.309)"/><rect class="u" width="2.977" height="6.606" transform="translate(62.894 41.309)"/><rect class="u" width="2.977" height="6.606" transform="translate(57.498 55.73)"/><rect class="u" width="2.977" height="6.606" transform="translate(62.894 55.73)"/><rect class="u" width="2.977" height="6.606" transform="translate(57.498 71.919)"/><rect class="u" width="2.977" height="6.606" transform="translate(62.894 71.919)"/><rect class="u" width="2.977" height="6.606" transform="translate(57.498 86.247)"/><rect class="u" width="2.977" height="6.606" transform="translate(62.894 86.247)"/><rect class="u" width="2.977" height="6.606" transform="translate(57.498 102.436)"/><rect class="u" width="2.977" height="6.606" transform="translate(62.894 102.436)"/><rect class="u" width="2.977" height="6.606" transform="translate(57.498 116.857)"/><rect class="u" width="2.977" height="6.606" transform="translate(62.894 116.857)"/><rect class="u" width="2.977" height="6.606" transform="translate(57.498 131.185)"/><rect class="u" width="2.977" height="6.606" transform="translate(62.894 131.185)"/><rect class="u" width="2.977" height="6.606" transform="translate(57.498 145.606)"/><rect class="u" width="2.977" height="6.606" transform="translate(62.894 145.606)"/><rect class="u" width="2.977" height="6.606" transform="translate(57.498 160.027)"/><rect class="u" width="2.977" height="6.606" transform="translate(62.894 160.027)"/><rect class="u" width="2.977" height="6.606" transform="translate(57.498 172.587)"/><rect class="u" width="2.977" height="6.606" transform="translate(62.894 172.587)"/><rect class="u" width="2.977" height="6.606" transform="translate(0 41.309)"/><rect class="u" width="2.977" height="6.606" transform="translate(5.396 41.309)"/><rect class="u" width="2.977" height="6.606" transform="translate(0 55.73)"/><rect class="u" width="2.977" height="6.606" transform="translate(5.396 55.73)"/><rect class="u" width="2.977" height="6.606" transform="translate(0 71.919)"/><rect class="u" width="2.977" height="6.606" transform="translate(5.396 71.919)"/><rect class="u" width="2.977" height="6.606" transform="translate(0 86.247)"/><rect class="u" width="2.977" height="6.606" transform="translate(5.396 86.247)"/><rect class="u" width="2.977" height="6.606" transform="translate(0 102.436)"/><rect class="u" width="2.977" height="6.606" transform="translate(5.396 102.436)"/><rect class="u" width="2.977" height="6.606" transform="translate(0 116.857)"/><rect class="u" width="2.977" height="6.606" transform="translate(5.396 116.857)"/><rect class="u" width="2.977" height="6.606" transform="translate(0 131.185)"/><rect class="u" width="2.977" height="6.606" transform="translate(5.396 131.185)"/><rect class="u" width="2.977" height="6.606" transform="translate(0 145.606)"/><rect class="u" width="2.977" height="6.606" transform="translate(5.396 145.606)"/><rect class="u" width="2.977" height="6.606" transform="translate(0 160.027)"/><rect class="u" width="2.977" height="6.606" transform="translate(5.396 160.027)"/><rect class="u" width="2.977" height="6.606" transform="translate(0 172.587)"/><rect class="u" width="2.977" height="6.606" transform="translate(5.396 172.587)"/></g><g transform="translate(747.753 293.444)"><rect class="u" width="2.977" height="6.606" transform="translate(26.981)"/><rect class="u" width="2.977" height="6.606" transform="translate(32.377)"/><rect class="u" width="2.977" height="6.606" transform="translate(26.981 14.421)"/><rect class="u" width="2.977" height="6.606" transform="translate(32.377 14.421)"/><rect class="u" width="2.977" height="6.606" transform="translate(26.981 30.61)"/><rect class="u" width="2.977" height="6.606" transform="translate(32.377 30.61)"/><rect class="u" width="2.977" height="6.606" transform="translate(26.981 44.938)"/><rect class="u" width="2.977" height="6.606" transform="translate(32.377 44.938)"/><rect class="u" width="2.977" height="6.606" transform="translate(26.981 61.126)"/><rect class="u" width="2.977" height="6.606" transform="translate(32.377 61.126)"/><rect class="u" width="2.977" height="6.606" transform="translate(26.981 75.547)"/><rect class="u" width="2.977" height="6.606" transform="translate(32.377 75.547)"/><rect class="u" width="2.977" height="6.606" transform="translate(26.981 89.875)"/><rect class="u" width="2.977" height="6.606" transform="translate(32.377 89.875)"/><rect class="u" width="2.977" height="6.606" transform="translate(26.981 104.296)"/><rect class="u" width="2.977" height="6.606" transform="translate(32.377 104.296)"/><rect class="u" width="2.977" height="6.606" transform="translate(26.981 118.717)"/><rect class="u" width="2.977" height="6.606" transform="translate(32.377 118.717)"/><rect class="u" width="2.977" height="6.606" transform="translate(26.981 131.278)"/><rect class="u" width="2.977" height="6.606" transform="translate(32.377 131.278)"/><rect class="u" width="2.977" height="6.606" transform="translate(55.73 30.61)"/><rect class="u" width="2.977" height="6.606" transform="translate(61.126 30.61)"/><rect class="u" width="2.977" height="6.606" transform="translate(55.73 44.938)"/><rect class="u" width="2.977" height="6.606" transform="translate(61.126 44.938)"/><rect class="u" width="2.977" height="6.606" transform="translate(55.73 61.126)"/><rect class="u" width="2.977" height="6.606" transform="translate(61.126 61.126)"/><rect class="u" width="2.977" height="6.606" transform="translate(55.73 75.547)"/><rect class="u" width="2.977" height="6.606" transform="translate(61.126 75.547)"/><rect class="u" width="2.977" height="6.606" transform="translate(55.73 89.875)"/><rect class="u" width="2.977" height="6.606" transform="translate(61.126 89.875)"/><rect class="u" width="2.977" height="6.606" transform="translate(55.73 104.296)"/><rect class="u" width="2.977" height="6.606" transform="translate(61.126 104.296)"/><rect class="u" width="2.977" height="6.606" transform="translate(55.73 118.717)"/><rect class="u" width="2.977" height="6.606" transform="translate(61.126 118.717)"/><rect class="u" width="2.977" height="6.606" transform="translate(55.73 131.278)"/><rect class="u" width="2.977" height="6.606" transform="translate(61.126 131.278)"/><rect class="u" width="2.977" height="6.606" transform="translate(0 30.61)"/><rect class="u" width="2.977" height="6.606" transform="translate(5.396 30.61)"/><rect class="u" width="2.977" height="6.606" transform="translate(0 44.938)"/><rect class="u" width="2.977" height="6.606" transform="translate(5.396 44.938)"/><rect class="u" width="2.977" height="6.606" transform="translate(0 61.126)"/><rect class="u" width="2.977" height="6.606" transform="translate(5.396 61.126)"/><rect class="u" width="2.977" height="6.606" transform="translate(0 75.547)"/><rect class="u" width="2.977" height="6.606" transform="translate(5.396 75.547)"/><rect class="u" width="2.977" height="6.606" transform="translate(0 89.875)"/><rect class="u" width="2.977" height="6.606" transform="translate(5.396 89.875)"/><rect class="u" width="2.977" height="6.606" transform="translate(0 104.296)"/><rect class="u" width="2.977" height="6.606" transform="translate(5.396 104.296)"/><rect class="u" width="2.977" height="6.606" transform="translate(0 118.717)"/><rect class="u" width="2.977" height="6.606" transform="translate(5.396 118.717)"/><rect class="u" width="2.977" height="6.606" transform="translate(0 131.278)"/><rect class="u" width="2.977" height="6.606" transform="translate(5.396 131.278)"/></g><g transform="translate(596.099 198.452)"><rect class="u" width="5.396" height="5.954" transform="translate(52.102)"/><rect class="u" width="5.396" height="5.954" transform="translate(52.102 25.12)"/><rect class="u" width="5.396" height="5.954" transform="translate(52.102 52.102)"/><rect class="u" width="5.396" height="5.954" transform="translate(52.102 77.315)"/><rect class="u" width="5.396" height="5.954" transform="translate(52.102 100.668)"/><rect class="u" width="5.396" height="5.954" transform="translate(52.102 122.253)"/><rect class="u" width="5.396" height="5.954" transform="translate(52.102 149.234)"/><rect class="u" width="5.396" height="5.954" transform="translate(52.102 203.104)"/><rect class="u" width="5.396" height="5.954" transform="translate(52.102 228.317)"/><rect class="u" width="5.396" height="5.954" transform="translate(25.12)"/><rect class="u" width="5.396" height="5.954" transform="translate(25.12 25.12)"/><rect class="u" width="5.396" height="5.954" transform="translate(25.12 52.102)"/><rect class="u" width="5.396" height="5.954" transform="translate(25.12 77.315)"/><rect class="u" width="5.396" height="5.954" transform="translate(25.12 100.668)"/><rect class="u" width="5.396" height="5.954" transform="translate(25.12 122.253)"/><rect class="u" width="5.396" height="5.954" transform="translate(25.12 149.234)"/><rect class="u" width="5.396" height="5.954" transform="translate(25.12 203.104)"/><rect class="u" width="5.396" height="5.954" transform="translate(25.12 228.317)"/><rect class="u" width="5.396" height="5.954" transform="translate(79.083 52.102)"/><rect class="u" width="5.396" height="5.954" transform="translate(79.083 77.315)"/><rect class="u" width="5.396" height="5.954" transform="translate(79.083 100.668)"/><rect class="u" width="5.396" height="5.954" transform="translate(79.083 122.253)"/><rect class="u" width="5.396" height="5.954" transform="translate(79.083 149.234)"/><rect class="u" width="5.396" height="5.954" transform="translate(79.083 203.104)"/><rect class="u" width="5.396" height="5.954" transform="translate(79.083 228.317)"/><rect class="u" width="5.396" height="5.954" transform="translate(0 52.102)"/><rect class="u" width="5.396" height="5.954" transform="translate(0 77.315)"/><rect class="u" width="5.396" height="5.954" transform="translate(0 100.668)"/><rect class="u" width="5.396" height="5.954" transform="translate(0 122.253)"/><rect class="u" width="5.396" height="5.954" transform="translate(0 149.234)"/><rect class="u" width="5.396" height="5.954" transform="translate(0 203.104)"/><rect class="u" width="5.396" height="5.954" transform="translate(0 228.317)"/></g><rect class="v" width="14.979" height="330.288" transform="translate(106.436 111.926)"/><rect class="v" width="34.052" height="330.288" transform="translate(871.122 111.926)"/><rect class="q" width="57.126" height="4.094" transform="translate(905.174 287.676)"/><rect class="v" width="14.979" height="330.288" transform="translate(167.098 111.926)"/><g transform="translate(42.054 15.817)"><rect class="s" width="64.662" height="14.235"/><rect class="s" width="64.662" height="13.398" transform="translate(0 20.562)"/></g><rect class="q" width="94.713" height="15.817" transform="translate(26.702)"/><g transform="translate(1.582 67.081)"><rect class="q" width="51.543" height="20.469" transform="translate(0 14.235)"/><path class="q" d="M215.284,72.1V86.335H102.8V106.8H215.284v.093h23.632V72.1Z" transform="translate(-8.738 -72.1)"/></g></g><path class="u" d="M628.9,78.3a33.082,33.082,0,0,0-5.5.5,37.656,37.656,0,0,0-27.2-11.4A38.162,38.162,0,0,0,571,76.9a43.5,43.5,0,0,0-18.4-4.1,27.284,27.284,0,0,0-41.7-2.3,27.58,27.58,0,0,0-12.8-3.2,27.192,27.192,0,0,0-14.5,50.2,28.312,28.312,0,0,0-1.8,9.7A27.228,27.228,0,0,0,509,154.4a27.6,27.6,0,0,0,15.5-4.8,43.579,43.579,0,0,0,62.9-7,35.972,35.972,0,0,0,8.8,1,38.058,38.058,0,0,0,27.2-11.4,25.029,25.029,0,0,0,5.5.5,27.2,27.2,0,0,0,0-54.4Z" transform="translate(497.1 4432.1)"/><path class="u" d="M1331.3,28.3a66.884,66.884,0,0,0-21.5,3.6,47.261,47.261,0,0,0-90.2,2.6,37.308,37.308,0,0,0-20.7-6.1,37.716,37.716,0,0,0-34,21.3,38.62,38.62,0,0,0-13.2-2.4,37.8,37.8,0,1,0,19.1,70.4,56.694,56.694,0,0,0,108.7,17.9,66.136,66.136,0,1,0,51.8-107.3Z" transform="translate(448 4520)"/><path class="u" d="M21.3,453.3a19.626,19.626,0,0,0,6.9-1.2,15.251,15.251,0,0,0,29.1-.8,11.759,11.759,0,0,0,6.7,2,12.258,12.258,0,0,0,11-6.9,12.193,12.193,0,1,0,4.3-23.6,12.3,12.3,0,0,0-6.2,1.7,18.256,18.256,0,0,0-35-5.8,21.353,21.353,0,1,0-16.8,34.6Z" transform="translate(76.5 3992.4)"/><g transform="translate(180 4997.075)"><line class="w" y1="23.689" transform="translate(13.942 40.963)"/><line class="w" y1="23.689" transform="translate(21.838 40.963)"/><line class="w" y1="23.689" transform="translate(46.515 40.963)"/><line class="w" y1="23.689" transform="translate(54.164 40.963)"/><path class="u" d="M76.25,261.1a14.195,14.195,0,0,0-20.457-12.733,26.394,26.394,0,0,0-43.406,7.329,17.028,17.028,0,0,0,4.639,33.412,16.835,16.835,0,0,0,4.886-.716A26.394,26.394,0,0,0,56.213,284a9.724,9.724,0,0,0,1.9.173A10.247,10.247,0,0,0,68.353,273.93v-.123A14.154,14.154,0,0,0,76.25,261.1Z" transform="translate(0 -240)"/><path class="x" d="M256.909,343.7h-3.948A2.97,2.97,0,0,1,250,340.741v-16.78A2.97,2.97,0,0,1,252.961,321h3.948a2.97,2.97,0,0,1,2.961,2.961v16.78A2.97,2.97,0,0,1,256.909,343.7Z" transform="translate(-188.309 -301.012)"/><circle cx="0.987" cy="0.987" r="0.987" transform="translate(67.366 24.43)"/><circle cx="0.987" cy="0.987" r="0.987" transform="translate(63.912 24.43)"/></g><g transform="translate(469.018 5017.501)"><line class="w" y1="15.136" transform="translate(12.535 23.177)"/><line class="w" y1="15.136" transform="translate(17.58 23.177)"/><line class="w" y1="15.136" transform="translate(33.347 23.177)"/><line class="w" y1="15.136" transform="translate(38.235 23.177)"/><path class="u" d="M574.811,3.626a13.137,13.137,0,0,0-2.239.2,15.743,15.743,0,0,0-22.058,1.451,7.373,7.373,0,0,0-1.876-.237,7.644,7.644,0,0,0-7.647,7.647,8.45,8.45,0,0,0,.158,1.561,9.776,9.776,0,1,0,11.888,14.3,15.79,15.79,0,0,0,18.763-.221,12.537,12.537,0,1,0,3.011-24.707Z" transform="translate(-535)"/><path class="x" d="M805.415,97.505h-2.523A1.9,1.9,0,0,1,801,95.613V84.892A1.9,1.9,0,0,1,802.892,83h2.523a1.9,1.9,0,0,1,1.892,1.892V95.613A1.9,1.9,0,0,1,805.415,97.505Z" transform="translate(-759.06 -69.914)"/><circle cx="0.631" cy="0.631" r="0.631" transform="translate(45.566 15.925)"/><circle cx="0.631" cy="0.631" r="0.631" transform="translate(43.359 15.925)"/></g><g transform="translate(573.28 5002.283)"><line class="w" y1="23.689" transform="translate(10.981 36.027)"/><line class="w" y1="23.689" transform="translate(18.877 36.027)"/><line class="w" y1="23.689" transform="translate(43.554 36.027)"/><line class="w" y1="23.689" transform="translate(51.203 36.027)"/><path class="u" d="M828.392,345.793a14.8,14.8,0,0,0-25.861-9.846A23.8,23.8,0,1,0,799,374.269a15.3,15.3,0,0,0,24.208-12.437,15.431,15.431,0,0,0-.617-4.294A14.775,14.775,0,0,0,828.392,345.793Z" transform="translate(-763 -330)"/><path class="x" d="M988.081,406.355l-3.874.79a2.994,2.994,0,0,1-3.5-2.295l-3.381-16.434a2.993,2.993,0,0,1,2.295-3.5l3.874-.79a2.993,2.993,0,0,1,3.5,2.295l3.381,16.434A2.943,2.943,0,0,1,988.081,406.355Z" transform="translate(-924.391 -370.723)"/><circle cx="0.987" cy="0.987" r="0.987" transform="translate(58.976 17.792)"/><circle cx="0.987" cy="0.987" r="0.987" transform="translate(55.596 18.483)"/></g></svg>