<svg xmlns="http://www.w3.org/2000/svg" viewBox="-24 5400 1958 1080"><defs><style>.a{fill:#c8f8fc;}.b{fill:#7cd179;}.c{fill:#ccc;}.d{fill:#666;}.aa,.at,.e,.j,.s{fill:#fff;}.e{stroke:#000;stroke-width:3px;}.f{fill:#88d2f2;}.g,.i{font-size:48px;font-family:Helvetica;}.g{letter-spacing:0.05em;}.h{font-size:24px;}.k{fill:#0f478e;}.l{fill:#333;}.m{fill:#edcea2;}.n{fill:#ffc;}.o{fill:#e0c13e;}.p{fill:#81cbdc;}.q{fill:#233a09;opacity:0.48;}.as,.r{fill:#1d1e1c;}.at,.s{stroke:#686867;}.ai,.as,.at,.s,.t{stroke-miterlimit:10;}.s{stroke-width:0.671px;}.ay,.t{fill:none;}.t{stroke:#1d1e1c;stroke-width:0.503px;}.u,.v{fill:#643612;}.v{opacity:0.74;}.w{fill:#979797;}.x{fill:#dadac1;}.av,.y{fill:#e7aa16;}.z{fill:#f3971b;}.aa{opacity:0.22;}.ab{fill:#f7ccb6;}.ac{fill:#2c3135;}.ad,.ai{fill:#efdbbf;}.ae{fill:#37a57e;}.af{fill:#999;}.ag{fill:#262424;}.ah{fill:#a06b3f;}.ai{stroke:#ceae80;stroke-width:1.034px;}.aj{fill:#6b6765;}.ak{fill:#1a4c96;}.al{fill:red;}.am{fill:#767d6c;}.an{fill:#d3b474;}.ao{fill:#a6966d;}.ap{fill:#1d679d;}.aq{fill:#ed8254;}.ar{fill:#c49a70;}.as{stroke:#fff;stroke-width:8.541px;}.at{stroke-width:0.43px;}.au{fill:#cccaca;}.av{opacity:0.32;}.aw{fill:#f30;}.ax{stroke:none;}</style></defs><rect class="a" width="1920" height="424" transform="translate(0 5400)"/><rect class="b" width="1958" height="368" transform="translate(-24 5824)"/><rect class="c" width="1920" height="210" transform="translate(0 6270)"/><rect class="d" width="1920" height="78" transform="translate(0 6192)"/><g class="e" transform="translate(1088 5496)"><rect class="ax" width="664" height="417"/><rect class="ay" x="1.5" y="1.5" width="661" height="414"/></g><rect class="f" width="1920" height="26" transform="translate(0 5415)"/><text class="g" transform="translate(1110.897 5520)"><tspan x="0" y="37">die macher</tspan><tspan x="0" y="73"></tspan><tspan class="h"><tspan x="0" y="109">Die beiden Allroundtalente Nils &amp; Nico betiteln sich </tspan><tspan x="0" y="145">gerne als </tspan><tspan x="0" y="181">«Ein Herz und eine Säge». Sie zeigen sich </tspan><tspan x="0" y="217">verantwortlich für den Umbau des neuen Easy Kisi. </tspan><tspan x="0" y="253">Die Planung des Caravans baute grundsätzlich auf </tspan><tspan x="0" y="289">dem alten auf, ergänzte sich aber in diversen Details </tspan><tspan x="0" y="325">und Feinheiten. </tspan><tspan x="0" y="361"></tspan></tspan></text><g class="e" transform="translate(1255.908 6298)"><rect class="ax" width="328.184" height="88"/><rect class="ay" x="1.5" y="1.5" width="325.184" height="85"/></g><text class="i" transform="translate(1267.805 6317)"><tspan x="9.938" y="37">www.ghostba</tspan></text><path class="j" d="M539.9,69.062a14.448,14.448,0,0,0-2.4.218A16.445,16.445,0,0,0,525.623,64.3a16.667,16.667,0,0,0-11.006,4.149,19,19,0,0,0-8.036-1.791,11.916,11.916,0,0,0-18.212-1,12.046,12.046,0,0,0-5.59-1.4,11.876,11.876,0,0,0-6.333,21.924,12.365,12.365,0,0,0-.786,4.236A11.892,11.892,0,0,0,487.54,102.3a12.056,12.056,0,0,0,6.769-2.1,19.032,19.032,0,0,0,27.471-3.057,15.711,15.711,0,0,0,3.843.437A16.621,16.621,0,0,0,537.5,92.6a10.931,10.931,0,0,0,2.4.218,11.879,11.879,0,0,0,0-23.758Z" transform="translate(479.416 5437.1)"/><path class="j" d="M1234.039,15.639a36.961,36.961,0,0,0-11.881,1.989,26.117,26.117,0,0,0-49.846,1.437,20.616,20.616,0,0,0-11.439-3.371,20.843,20.843,0,0,0-18.789,11.771,21.341,21.341,0,0,0-7.294-1.326,20.889,20.889,0,1,0,10.555,38.9,31.33,31.33,0,0,0,60.069,9.892,36.548,36.548,0,1,0,28.625-59.3Z" transform="translate(-814 5484)"/><path class="j" d="M1173.969,7.82a18.481,18.481,0,0,0-5.941.995,13.058,13.058,0,0,0-24.923.718,10.308,10.308,0,0,0-5.719-1.685,10.421,10.421,0,0,0-9.395,5.885,10.671,10.671,0,0,0-3.647-.663,10.444,10.444,0,1,0,5.277,19.452,15.665,15.665,0,0,0,30.035,4.946A18.274,18.274,0,1,0,1173.969,7.82Z" transform="translate(683 5484)"/><path class="j" d="M21.3,453.3a19.626,19.626,0,0,0,6.9-1.2,15.251,15.251,0,0,0,29.1-.8,11.759,11.759,0,0,0,6.7,2,12.258,12.258,0,0,0,11-6.9,12.193,12.193,0,1,0,4.3-23.6,12.3,12.3,0,0,0-6.2,1.7,18.256,18.256,0,0,0-35-5.8,21.353,21.353,0,1,0-16.8,34.6Z" transform="translate(76.5 5076.4)"/><g transform="translate(905 5672)"><path class="k" d="M100.3,110.3H10a10.029,10.029,0,0,1-10-10V10A10.029,10.029,0,0,1,10,0h90.2a10.029,10.029,0,0,1,10,10v90.2A9.9,9.9,0,0,1,100.3,110.3Z"/><rect class="l" width="13.5" height="229.5" transform="translate(48.4 110.3)"/><rect class="j" width="73.5" height="73.5" transform="translate(18.4 18.4)"/><path d="M64.9,75.9V60.8H80.7l-9.4-9.4h4.4L67,42.8h3.6L62.7,28.4,54.8,42.8h3.6l-8.6,8.6h4.3l-9.4,9.4H60.5V75.9H40V70.1h6.5V65.8H29.2v4.3h6.5v5.8H29.2v4.3H81.1V75.9Z"/></g><g transform="translate(1771 5894)"><path class="m" d="M30,0,157.2,41.3l5.8,111-28.7,28.4L5,120.7,0,16.8Z"/><path class="n" d="M132,65.7l2.3,115-12.7-119L0,16.8,130,57.4l27.2-16.1Z"/></g><g transform="translate(290.002 5726.028)"><path class="o" d="M447.62,39.24c-1.981-8.972-3.67-14.914-3.67-14.914h0a105.627,105.627,0,0,0-4.835-13.05,17.957,17.957,0,0,0-4.6-5.884h0a22.643,22.643,0,0,0-9.962-2.1H74.828c-10.836.35-13.341,1.981-13.516,2.1h0c-2.913,2.33-9.321,13.166-9.321,13.166S48.962,27.181,45,39.24H197.461V18.035a6.552,6.552,0,0,1,6.525-6.525h133.7a6.552,6.552,0,0,1,6.525,6.525V39.24Z" transform="translate(-18.785 -1.373)"/><path class="p" d="M433.773,65H330.365v48.7a6.552,6.552,0,0,1-6.525,6.525h-133.7a6.552,6.552,0,0,1-6.525-6.525V65H31.153c-6.175,18.7-14.739,45.674-18.06,61.812a62.163,62.163,0,0,0-1.223,14.8,57.191,57.191,0,0,1,.641-10.778H439.074c.524-2.971.757-4.777.757-4.777C442.337,108.286,437.443,81.6,433.773,65Z" transform="translate(-4.938 -27.132)"/><ellipse class="q" cx="209.728" cy="5.243" rx="209.728" ry="5.243" transform="translate(15.146 172.385)"/><circle class="r" cx="23.769" cy="23.769" r="23.769" transform="translate(202.096 133.236)"/><circle class="s" cx="15.73" cy="15.73" r="15.73" transform="translate(210.426 141.275)"/><path class="t" d="M680.9,118.6Z" transform="translate(-284.223 -49.506)"/><path class="t" d="M680.9,118.6Z" transform="translate(-284.223 -49.506)"/><path class="u" d="M144.641,120.314H197.6a6.638,6.638,0,0,0,6.641-6.641V85.941A6.638,6.638,0,0,0,197.6,79.3H144.641A6.638,6.638,0,0,0,138,85.941v27.731A6.638,6.638,0,0,0,144.641,120.314Z" transform="translate(-57.605 -33.102)"/><path d="M203.744,75.72H129.7a1.418,1.418,0,0,1-1.4-1.4V73.1a1.418,1.418,0,0,1,1.4-1.4h74.046a1.418,1.418,0,0,1,1.4,1.4v1.223A1.418,1.418,0,0,1,203.744,75.72Z" transform="translate(-53.556 -29.929)"/><path class="v" d="M130.095,78.6c-1.165,6.35-3.612,28.9.35,39.848,0,0,1.573,7.807,9.9,7.574H194.3s8.1-.233,9.9-12c0,0,1.223-26.391-.466-35.421Z" transform="translate(-53.545 -32.809)"/><path class="u" d="M593.241,120.314H646.2a6.638,6.638,0,0,0,6.641-6.641V85.941A6.638,6.638,0,0,0,646.2,79.3H593.241a6.638,6.638,0,0,0-6.641,6.641v27.731A6.638,6.638,0,0,0,593.241,120.314Z" transform="translate(-244.86 -33.102)"/><path d="M652.344,75.72H578.3a1.418,1.418,0,0,1-1.4-1.4V73.1a1.418,1.418,0,0,1,1.4-1.4h74.046a1.418,1.418,0,0,1,1.4,1.4v1.223A1.418,1.418,0,0,1,652.344,75.72Z" transform="translate(-240.811 -29.929)"/><path class="v" d="M578.695,78.6c-1.165,6.35-3.612,28.9.349,39.848,0,0,1.573,7.807,9.9,7.574H642.9s8.1-.233,9.9-12c0,0,1.223-26.391-.466-35.421Z" transform="translate(-240.8 -32.809)"/><path class="j" d="M19.748,169.71c1.573,0,178.269,3.321,178.269,3.321s1.806-18.759,13.05-21.5h28.372s11.069,4.02,12.584,19.691c0,0,.466,1.573,3.321,1.806,0,0,154.092-2.33,173.667-11.477,0,0,16.2-34.663,5.826-91.7,0,0-5.651-28.488-9.729-34.547,0,0,13.632,48.645,9.729,75.968,0,0-5.185,40.664-20.041,46.781,0,0-8.331-1.282-9.9,1.223L256.8,162.952s-2.214-17.827-19.924-18.584l-26.041-.524s-12.642-1.223-14.39,17.361L17.01,161.03S2.679,138.6,8.155,112.035,33.206,29.6,33.206,29.6.815,83.78.057,121.356c0,0-1.282,15.671,8.04,39.149C8.1,160.505,12.932,169.71,19.748,169.71Z" transform="translate(0 -12.356)"/><path class="j" d="M13.633,171.8a11.665,11.665,0,0,0-.233,1.4H440.081c.058-.524.175-.99.233-1.4Z" transform="translate(-5.594 -71.713)"/><path class="w" d="M440.338,168.1H13.89l-.35,1.748c-.291,1.282-.466,2.563-.641,3.845H439.522c.466-2.855.7-4.6.7-4.6A5.131,5.131,0,0,0,440.338,168.1Z" transform="translate(-5.386 -70.169)"/><path class="x" d="M13.6,212.4c.117.524.175,1.049.291,1.573H434.4l.524-1.573Z" transform="translate(-5.678 -88.66)"/><path class="x" d="M14.8,218.5c.233,1.049.524,2.1.757,3.088H432.975c.408-.99.816-2.039,1.223-3.088Z" transform="translate(-6.179 -91.207)"/><g transform="translate(6.866 103.175)"><path class="y" d="M419.716,219.628c11.885-4.894,17.594-31.984,19.4-42.528H12.435c-3.67,25.051,9.438,45.558,9.438,45.558l179.434.175c1.748-18.584,14.39-17.361,14.39-17.361l26.041.524c17.71.757,19.924,18.584,19.924,18.584l148.091-3.67C411.385,218.288,419.716,219.628,419.716,219.628Z" transform="translate(-11.787 -177.1)"/><path class="y" d="M426.4,252.8a19.009,19.009,0,0,1,1.34,3.321h.35A29.354,29.354,0,0,0,426.4,252.8Z" transform="translate(-184.855 -208.699)"/></g><path class="r" d="M313.225,100.359h133.7a6.552,6.552,0,0,0,6.525-6.525V23.925a6.552,6.552,0,0,0-6.525-6.525h-133.7a6.552,6.552,0,0,0-6.525,6.525V93.834A6.514,6.514,0,0,0,313.225,100.359Z" transform="translate(-128.024 -7.263)"/><g transform="translate(25.632 34.256)"><path class="w" d="M558.6,64.043H662.357q-.612-2.8-1.223-5.243H558.6Z" transform="translate(-258.805 -58.8)"/><path class="w" d="M197.043,58.8H45.748Q44.874,61.334,44,64.043H197.043Z" transform="translate(-44 -58.8)"/></g><g transform="translate(26.157 36.528)"><path class="j" d="M197.419,62.7H45.366c-.175.466-.291.932-.466,1.4H197.361V62.7Z" transform="translate(-44.9 -62.7)"/><path class="j" d="M661.616,62.7H558.5v1.34H661.908A9.055,9.055,0,0,0,661.616,62.7Z" transform="translate(-259.288 -62.7)"/></g><path class="z" d="M460.121,263.9H452.2a1.418,1.418,0,0,1-1.4-1.4h0a1.418,1.418,0,0,1,1.4-1.4h7.923a1.418,1.418,0,0,1,1.4,1.4h0A1.38,1.38,0,0,1,460.121,263.9Z" transform="translate(-188.175 -108.989)"/><path d="M374.3,282.631s2.738-2.738,5.01-3.146,3.9,5.476,3.9,5.476S378.029,286.243,374.3,282.631Z" transform="translate(-156.242 -116.655)"/><path d="M404.017,260.882s-3.845.466-5.826-.583c-2.039-1.049.233-6.7.233-6.7S403.26,255.756,404.017,260.882Z" transform="translate(-165.86 -105.858)"/><path d="M396.606,281.587s-1.165-3.67-.466-5.884c.7-2.156,6.641-.874,6.641-.874S401.558,280.014,396.606,281.587Z" transform="translate(-165.265 -114.562)"/><path d="M369.307,261.8s3.146,2.214,3.962,4.369c.757,2.156-4.719,4.777-4.719,4.777S366.394,266.053,369.307,261.8Z" transform="translate(-153.521 -109.281)"/><path d="M383.922,249.111s-.7,3.787-2.33,5.418-6.292-2.272-6.292-2.272S378.854,248.237,383.922,249.111Z" transform="translate(-156.659 -103.932)"/><g transform="translate(109.291 45.791)"><path class="aa" d="M190.338,78.6,187.6,86l8.1-7.4Z" transform="translate(-187.6 -78.6)"/><path class="aa" d="M218.3,78.6h-22.08L187.6,101.088,207.466,79.3l-12.7,29.77Z" transform="translate(-187.6 -78.6)"/></g><g transform="translate(370.636 45.791)"><path class="aa" d="M639.229,78.6,636.2,88.97,645,78.6Z" transform="translate(-636.2 -78.6)"/><path class="aa" d="M667.368,78.6H645.055l-8.855,29.6,19.866-27.847-12.7,38.042Z" transform="translate(-636.2 -78.6)"/></g><g transform="translate(42.527)"><path class="j" d="M447.542,2.232a23.968,23.968,0,0,0-4.661-.466H92.752C90.888,1.824,89.2,1.883,87.8,2a68.2,68.2,0,0,1,7.865-.641c1.456,0,149.548.233,250.392.233,59.248,0,90.824-.058,93.853-.233.524,0,1.049-.058,1.515-.058A18.48,18.48,0,0,1,447.542,2.232Z" transform="translate(-79.178 -0.543)"/><path class="w" d="M435.189,0a14.2,14.2,0,0,0-1.573.058c-3.437.175-42.82.233-93.8.233C237.811.291,89.37.058,89.37.058S73.932.466,73,4.02c0,0,2.33-1.748,13.516-2.039H436.7a22.069,22.069,0,0,1,9.5,2.1S444.1,0,435.189,0Z" transform="translate(-73)"/></g></g><g transform="translate(121.006 5605.025)"><path class="ab" d="M123.5,91.7a56.957,56.957,0,0,0-2.9-7.2A290.4,290.4,0,0,1,87.4,88c-11.8.5-19.5-1.6-24.4-4a59.162,59.162,0,0,0-3.2,7.7h-.1c-2.5-.3-5,4.5-5.6,10.8s.8,11.6,3.3,11.9h.1c2,22.3,16.6,39.6,34.2,39.6,17.7,0,32.2-17.3,34.2-39.7,2.2-.8,3.5-5.9,2.9-11.8C128.2,96.5,125.9,91.8,123.5,91.7Z"/><path class="ac" d="M169.6,470.6c-.8,0-.8,3-1.7,3-.8,0-.8-3-1.7-3-.8,0-.8,3-1.7,3s-.8-3-1.7-3c-.8,0-.8,3-1.7,3-.8,0-.8-3-1.7-3-.8,0-.8,3-1.7,3-.8,0-.8-3-1.7-3-.8,0-.8,3-1.7,3-.8,0-.8-3-1.7-3-.8,0-.8,3-1.7,3-.8,0-.8-3-1.7-3-.8,0-.8,3-1.7,3-.8,0-.8-3-1.7-3-.8,0-.8,3-1.7,3-.8,0-.8-3-1.7-3-.8,0-.8,3-1.7,3-.8,0-.8-3-1.7-3-.8,0-.8,3-1.7,3-.8,0-.8-3-1.7-3-.8,0-.8,3-1.7,3-.8,0-.8-3-1.7-3-.8,0-.8,3-1.7,3-.8,0-.8-3-1.7-3-.8,0-.8,3-1.7,3-.8,0-.8-3-1.7-3-.8,0-.8,3-1.7,3-.8,0-.8-3-1.7-3-.8,0-.8,3-1.7,3-.8,0-.8-3-1.7-3-.8,0-.8,3-1.7,3-.8,0-.8-3-1.7-3-.8,0-.8,3-1.7,3-.8,0-.8-3-1.7-3-.8,0-.8,3-1.7,3-.8,0-.8-3-1.7-3-.8,0-.8,3-1.7,3-.8,0-.8-3-1.7-3-.8,0-.8,3-1.7,3s-.8-3-1.7-3v-1.1h66.9Z"/><path class="ad" d="M141.9,137.7l-15.7-3v47.1c-30.4,13.4-55.8,6.4-68.7.7V134.6l-15.7,3,3.3,166.6,6.6,139H84.8v-139H98v139h33.1l6.6-139Z"/><path class="ae" d="M41.8,141.1c-10,3.5-22.1,7.6-22.1,7,0-1-17,47.6-17,47.6l39.7,6.2.6-2Z"/><path class="ae" d="M153.6,133.2l-11.7,6.2-1.1,45.1c5.4-1.5,24.4-8.3,39.6-30.2l8-24Z"/><path class="ab" d="M27,293.6a2.73,2.73,0,0,0-1.5-1.8,2.767,2.767,0,0,0-1.6-.5l4.5-69.7,2.4-21.5-19.5-3L9.2,216.9,4.6,290.6a2.991,2.991,0,0,0-3.1,2.8L0,331.4a2.584,2.584,0,0,0,2.5,2.7h0a2.584,2.584,0,0,0,2.7-2.5l.6-13.9,1.4.1-.7,17A2.584,2.584,0,0,0,9,337.5H9a2.584,2.584,0,0,0,2.7-2.5l.7-17,1.4.1-.7,16a2.584,2.584,0,0,0,2.5,2.7h0a2.584,2.584,0,0,0,2.7-2.5l.7-16,1.4.1-.6,13.9a2.584,2.584,0,0,0,2.5,2.7h0a2.584,2.584,0,0,0,2.7-2.5l.7-26.1c.5.1,1.5,8.7,1.5,8.7,1.6-.4,5.2-.3,3.7-6.8Z"/><path class="af" d="M156.9,460.2s-28.1-1.7-31.5-9.8v-7.1H102.2v25.5h67C169.3,468.9,169.3,462,156.9,460.2Z"/><path class="af" d="M110.4,460.2s-28.1-1.7-31.5-9.8v-7.1H55.8v25.5h67C122.8,468.9,122.8,462,110.4,460.2Z"/><path class="ac" d="M123.1,470.6c-.8,0-.8,3-1.7,3-.8,0-.8-3-1.7-3-.8,0-.8,3-1.7,3-.8,0-.8-3-1.7-3-.8,0-.8,3-1.7,3-.8,0-.8-3-1.7-3-.8,0-.8,3-1.7,3-.8,0-.8-3-1.7-3-.8,0-.8,3-1.7,3-.8,0-.8-3-1.7-3-.8,0-.8,3-1.7,3-.8,0-.8-3-1.7-3-.8,0-.8,3-1.7,3-.8,0-.8-3-1.7-3-.8,0-.8,3-1.7,3-.8,0-.8-3-1.7-3-.8,0-.8,3-1.7,3-.8,0-.8-3-1.7-3-.8,0-.8,3-1.7,3-.8,0-.8-3-1.7-3-.8,0-.8,3-1.7,3-.8,0-.8-3-1.7-3-.8,0-.8,3-1.7,3-.8,0-.8-3-1.7-3-.8,0-.8,3-1.7,3-.8,0-.8-3-1.7-3-.8,0-.8,3-1.7,3-.8,0-.8-3-1.7-3-.8,0-.8,3-1.7,3-.8,0-.8-3-1.7-3-.8,0-.8,3-1.7,3-.8,0-.8-3-1.7-3-.8,0-.8,3-1.7,3-.8,0-.8-3-1.7-3-.8,0-.8,3-1.7,3-.8,0-.8-3-1.7-3-.8,0-.8,3-1.7,3-.8,0-.8-3-1.7-3-.8,0-.8,3-1.7,3s-.8-3-1.7-3v-1.1H122Z"/><path class="ag" d="M91.2,113H89.8a.5.5,0,0,1,0-1h.7c2.8,0,5.1,0,7.5-1.7a7.674,7.674,0,0,0-1-4c-.2-.5-.5-1.1-.7-1.6A36.138,36.138,0,0,1,94.5,92a.5.5,0,0,1,1,0,36.856,36.856,0,0,0,1.7,12.4,10.092,10.092,0,0,0,.7,1.5,8.014,8.014,0,0,1,1.1,4.7v.2l-.2.1C96.3,112.9,93.9,113,91.2,113Z"/><ellipse class="ag" cx="2.4" cy="2.1" rx="2.4" ry="2.1" transform="translate(75.4 91.2)"/><ellipse class="ag" cx="2.4" cy="2.1" rx="2.4" ry="2.1" transform="translate(103 91.2)"/><path class="ad" d="M135.1,74c-7.1-3-11.3-3.2-13.1-3.1-1.8-17.8-17-31-34.8-29.1C51,45.5,56.1,78.6,56.1,78.6c2,2.6,9.8,10.3,31.4,9.4a296.058,296.058,0,0,0,48.9-6.5S144.8,78.1,135.1,74Z"/><ellipse class="ah" cx="8" cy="8.7" rx="8" ry="8.7" transform="translate(85 53.3)"/><rect class="ai" width="63.7" height="48.2" transform="translate(60.2 195.6)"/><rect class="aj" width="54.8" height="1" transform="translate(64.7 199.4)"/><rect class="ak" width="27.7" height="6.2" transform="translate(78.2 203.5)"/><path class="ab" d="M201.3,5.1h0a2.682,2.682,0,0,0-3,2.2l-2.1,13.8-1.4-.2,2.5-15.8a2.682,2.682,0,0,0-2.2-3h0a2.682,2.682,0,0,0-3,2.2l-2.5,15.8-1.4-.2L190.9,3a2.682,2.682,0,0,0-2.2-3h0a2.682,2.682,0,0,0-3,2.2L183.1,19l-1.4-.2L183.8,5a2.682,2.682,0,0,0-2.2-3h0a2.682,2.682,0,0,0-3,2.2l-5.2,33.2-11.1-1.7a2.936,2.936,0,0,0-3.3,2.4l-.3,1.7a2.936,2.936,0,0,0,2.4,3.3l14.5,2.3-13.5,87,18.7-1.6,12.8-82.6.5.1a2.936,2.936,0,0,0,3.3-2.4l5.9-37.8A2.33,2.33,0,0,0,201.3,5.1Z"/><path class="al" d="M80.2,130.2s8.7,4.3,22.7,0C103,130.2,85.4,132,80.2,130.2Z"/><path class="ag" d="M125.1,83.7c-1.4.2-2.9.5-4.5.8a56.958,56.958,0,0,1,2.9,7.2c2.3.2,4.7,4.8,5.3,10.8.6,5.9-.7,11-2.9,11.8a53.972,53.972,0,0,1-1.4,8.2,3.217,3.217,0,0,0-.7-.4c-1.6-.1-3.5.1-4.8-.8-1.6,1.5-2-.7-3.9-.8,0,.5-.4,1-.5,1.5-2.3-1-10.7-3.1-12.6-1.2-1.8-1.3-10.8-2.1-11.4-.9-1.2-.8-2.8-1.2-3.5.6-2.4-2.1-4.2,1.6-5.7-1.5-.8.7-1.7,1.5-2.5,2.3-2.3-1.5-4.7,0-7.1.6-2.9.6-7.5-1.7-7.9,1.2-1,.2-2.2.2-3,.3a3.117,3.117,0,0,0-2-.6,70.081,70.081,0,0,1-1.4-8.2h-.1c-2.5-.3-3.9-5.6-3.3-11.9s3.2-11.1,5.6-10.8h.1A47.921,47.921,0,0,1,63,84.2a21.657,21.657,0,0,1-5.4-3.7h0l-.6-.6h0c-.2-.2-.3-.4-.5-.5h0c-.1-.2-.3-.3-.4-.5v-.1h0v-.4c-.6,1.4-6.2,15.2-4.7,38l6.1,7.6c0,.1,0,.1.1.2h0l.1.2v.1c-.1-.1-.1-.2-.2-.2-2.2,1.6.1,2.2.9,3.8.6,1.3,1,.3.9,1.9-.1,1.8-1.8,3-1.4,5,.9,4,5.7,6.8,5.8,10.8a7.887,7.887,0,0,1,5.5,1.7c-.2,3.3,2.2,2.4,4.7,3.6,1,.4.6,1.3,1.8,1.8,1,.4,1.9.1,2.9.4,4.3,1.2,7.4,3.4,12.7,2.3,5.4-1.1,10.2-1.1,15.6-2.3,2.2-.5,10.8-2.6,11.2-4.5a4.951,4.951,0,0,0,1.3-.4c-.1-3.5,2.4-4.3,2.2-8.1-.1-2.4-1.6-5.6,2.5-5.9a14.743,14.743,0,0,1,.8-3.5c.4-1,1.6-1.3,1.8-2,.7-2-.8-3.8-.8-5.7h-.5l6.1-7.8C131.4,114.8,131.4,97.3,125.1,83.7ZM91.7,138.3c-11.6,0-21-3.6-21-8.1s9.4-8.1,21-8.1,21,3.6,21,8.1S103.3,138.3,91.7,138.3Z"/><path class="ae" d="M121.6,139.7c.2,3.8-2.3,4.6-2.2,8.1a6.468,6.468,0,0,1-1.3.4c-.4,1.9-9,4-11.2,4.5-5.3,1.2-10.2,1.2-15.6,2.3-5.3,1.1-8.4-1.1-12.7-2.3-.9-.3-1.9,0-2.9-.4-1.2-.5-.8-1.3-1.8-1.8-2.5-1.2-4.9-.3-4.7-3.6a8.4,8.4,0,0,0-5.5-1.7c-.1-3.3-3.4-5.7-5-8.8H57.5v46c12.9,5.6,38.3,12.6,68.7-.7V136.4h-5A33.1,33.1,0,0,0,121.6,139.7Z"/></g><g transform="translate(564 5717.002)"><rect class="am" width="24.5" height="95" transform="translate(22.2 261.3)"/><rect class="am" width="24.5" height="95" transform="translate(281.8 261.3)"/><rect class="an" width="12.3" height="38.3" transform="translate(267 261.3)"/><rect class="an" width="12.3" height="38.3" transform="translate(49.4 261.3)"/><rect class="ao" width="327.8" height="21.4" transform="translate(0 236.8)"/><path class="ac" d="M95.1,388s.5,4.1,1.3,4.1.8-3,1.7-3c.8,0,.8,3,1.7,3,.8,0,.8-3,1.7-3,.8,0,.8,3,1.7,3,.8,0,.8-3,1.7-3,.8,0,.8,3,1.7,3,.8,0,.8-3,1.7-3,.8,0,.8,3,1.7,3,.8,0,.8-3,1.7-3,.8,0,.8,3,1.7,3,.8,0,.8-3,1.7-3,.8,0,.8,3,1.7,3,.8,0,.8-3,1.7-3,.8,0,.8,3,1.7,3,.8,0,.8-3,1.7-3,.8,0,.8,3,1.7,3,.8,0,.8-3,1.7-3,.8,0,.8,3,1.7,3,.8,0,.8-3,1.7-3,.8,0,.8,3,1.7,3,.8,0,.8-3,1.7-3,.8,0,.8,3,1.7,3,.8,0,.8-3,1.7-3,.8,0,.8,3,1.7,3,.8,0,.8-3,1.7-3,.8,0,.8,3,1.7,3,.8,0,.8-2.4,1.4-2.9.6.5.7,2.9,1.4,2.9.1,0,.2,0,.2-.1a.31.31,0,0,0,.2.1c.8,0,.8-2.4,1.4-2.9.6.5.7,2.9,1.4,2.9.1,0,.2,0,.2-.1a.31.31,0,0,0,.2.1c.7,0,.8-2.4,1.4-2.9.6.5.7,2.9,1.4,2.9.1,0,.2,0,.2-.1a.31.31,0,0,0,.2.1c.7,0,.8-2.4,1.4-2.9.6.5.7,2.9,1.4,2.9.1,0,.2,0,.2-.1a.31.31,0,0,0,.2.1c.7,0,.8-2.4,1.4-2.9.6.5.7,2.9,1.4,2.9a.5.5,0,0,1,.6,0c.7,0,.8-2.4,1.4-2.9.6.5.7,2.9,1.4,2.9a.5.5,0,0,1,.6,0c.7,0,.8-2.4,1.4-2.9.6.6.7,2.9,1.4,2.9.8,0,.8-3,1.7-3,.8,0,.8,3,1.7,3,.8,0,.8-3,1.7-3,.8,0,.8,3,1.7,3,.8,0,.8-3,1.7-3,.8,0,.8,3,1.7,3,.8,0,.8-3,1.7-3,.8,0,.8,3,1.7,3,.8,0,.8-3,1.7-3,.8,0,.8,3,1.7,3,.8,0,.8-3,1.7-3,.8,0,.8,3,1.7,3,.8,0,.8-3,1.7-3,.8,0,.8,3,1.7,3,.8,0,.8-3,1.7-3,.8,0,.8,3,1.7,3,.8,0,.8-3,1.7-3,.8,0,.8,3,1.7,3,.8,0,.8-3,1.7-3,.8,0,.8,3,1.7,3,.8,0,.8-3,1.7-3,.8,0,.8,3,1.7,3,.8,0,.8-3,1.7-3,.8,0,.8,3,1.7,3,.8,0,.8-3,1.7-3,.8,0,.8,3,1.7,3s1.7-4.1,1.7-4.1Z"/><path class="ad" d="M167.2,235.2V361.9H134.1l-6.4-133.7s14.5-20.2,56.4-26.1L181.6,91.4l15.7-2.7V132c12.9,5,38.3,11.2,68.7-.7V88.6l15.7,2.7-4,144.7H220.4c-.7,1.7-6.9,125.8-6.9,125.8H180.4V232Z"/><path class="aj" d="M197.3,132c12.9,5,38.3,11.2,68.7-.7V90l-9.7-2.5H207l-9.7,2.4Z"/><path class="aj" d="M281.7,93.5l-1.5,54.8h28.1v-24C308.3,94.5,287.7,93.2,281.7,93.5Z"/><path class="aj" d="M182.7,138.9l-1-44.4-41.1,41.9,21.6,19.8Z"/><path class="ab" d="M302.5,148.2H284.3v61.9l-14-5.2a2.957,2.957,0,0,0-3.8,1.7l-.6,1.6a2.957,2.957,0,0,0,1.7,3.8l10.5,3.9-11.7,31.4a2.666,2.666,0,0,0,1.5,3.4h0a2.666,2.666,0,0,0,3.4-1.5l4.9-13,1.3.5-6,15.9A2.666,2.666,0,0,0,273,256h0a2.666,2.666,0,0,0,3.4-1.5l6-15.9,1.3.5-5.6,15a2.666,2.666,0,0,0,1.5,3.4h0A2.666,2.666,0,0,0,283,256l5.6-15,1.3.5-4.9,13a2.666,2.666,0,0,0,1.5,3.4h0a2.666,2.666,0,0,0,3.4-1.5l5.9-15.8h0l7.5-20c.6-1.5-.8-3.8-.8-3.8V148.2Z"/><path class="ab" d="M140.7,136.5l-60.6.4,5.1-14.1a2.862,2.862,0,0,0-1.8-3.7l-1.6-.6a2.862,2.862,0,0,0-3.7,1.8l-3.8,10.5L42.7,119.4a2.633,2.633,0,0,0-3.4,1.6h0a2.633,2.633,0,0,0,1.6,3.4L54,129l-.5,1.3-16-5.8a2.633,2.633,0,0,0-3.4,1.6h0a2.633,2.633,0,0,0,1.6,3.4l16,5.8-.5,1.3-15-5.4a2.633,2.633,0,0,0-3.4,1.6h0a2.633,2.633,0,0,0,1.6,3.4l15,5.4-.5,1.3-13-4.9a2.633,2.633,0,0,0-3.4,1.6h0a2.633,2.633,0,0,0,1.6,3.4l36,12.9c1.5.5,3.8-.8,3.8-.8l86.5-.5Z"/><path class="ap" d="M185.4,361.8v7.1c-2.1,5.2-14.8,7.8-23.3,9v-16H138.9V369c-3.3,8.1-31.5,9.8-31.5,9.8C95,380.4,95,387.4,95,387.4H208.6V361.9H185.4Z"/><rect class="ai" width="63.7" height="48.2" transform="translate(199.9 143.6)"/><rect class="aj" width="54.8" height="1" transform="translate(202.6 147.4)"/><rect class="ak" width="27.7" height="6.2" transform="translate(217.3 151.5)"/><path class="ab" d="M263.4,45.1h-.2a27.727,27.727,0,0,0-1-2.6c-9.2.5-20.4.7-32.1.3-12.8-.5-21.2-2.8-26.6-5.3a47.83,47.83,0,0,0-3.5,7.6h0c-2.5-.3-5,4.2-5.6,10-.6,5.5.7,10.3,2.9,10.9,1.6,21.5,16.4,38.4,34.3,38.4s32.7-16.8,34.3-38.3c2.4-.4,3.8-5.3,3.1-11C268.4,49.3,265.9,44.8,263.4,45.1Z"/><path class="ad" d="M284.5,33.7c-7.9-3.4-12.6-3.9-14.6-3.9C268.7,13.1,252.2-.2,232,0c-40,.3-36.9,31.7-36.9,31.7,2.1,2.6,10.5,10.3,34.9,11.2a393.821,393.821,0,0,0,55.5-2.1S295.3,38.3,284.5,33.7Z"/><path class="ag" d="M231,67.4l-.3-1a16.787,16.787,0,0,1,5-.7,17.609,17.609,0,0,0,3.3-.3c-2.5-4.9-3.4-12.9-3.1-19h1c-.2,6.2.7,14.5,3.3,19.1l.3.6-.7.2a30.063,30.063,0,0,1-4.2.5A13.842,13.842,0,0,0,231,67.4Z"/><ellipse class="ag" cx="2.4" cy="1.9" rx="2.4" ry="1.9" transform="translate(218.8 47.6)"/><ellipse class="ag" cx="2.4" cy="1.9" rx="2.4" ry="1.9" transform="translate(246.3 47.6)"/><ellipse class="ah" cx="7.1" cy="7.9" rx="7.1" ry="7.9" transform="translate(231.5 10.5)"/><path class="aq" d="M262.2,42.6a20.034,20.034,0,0,1,1,2.6h.2c2.5-.3,5,4.2,5.6,10a20.406,20.406,0,0,1-.2,6.6l5.5-4.8a45.809,45.809,0,0,0-3-14.9C268.6,42.2,265.5,42.4,262.2,42.6Z"/><path class="aq" d="M195.2,31.7c-1.5,2.7-5.8,11.9-4.5,26.1l3.7,3.1a22.17,22.17,0,0,1-.1-5.8c.6-5.8,3.2-10.3,5.6-10h0a47.829,47.829,0,0,1,3.5-7.6C198.7,35.3,196.2,33,195.2,31.7Z"/><path class="aq" d="M266,65.7s-.6,6.3-3.9,11c-1.7.5-4.2,1.2-7.2,1.9a4.628,4.628,0,0,0-3.3-2.3c-12.7-8.7-25.2-7-32.2-4.3-7.4,2.9-9.4,6.9-9.6,6.8a10.741,10.741,0,0,0-1.5.7,42.63,42.63,0,0,1-6.4-1.6c-4.1-4.4-4.6-11.8-4.6-11.8-.6,3.4.8,9.6.8,9.6l4,12.8c.1.2,4.8,9.3,4.9,9.5,3.2,6.8,15.8,14.4,24,14.3,8.3-.1,20.7-7.8,25-14.5C256,97.8,267.1,82.7,266,65.7ZM232.5,86.6c-8.8,0-15.9-1.8-15.9-4.1,0-2.2,7.1-4.1,15.9-4.1s15.9,1.8,15.9,4.1S241.3,86.6,232.5,86.6Z"/><path class="al" d="M239.9,82.5s-3.7,3.1-15.7,0C224.2,82.5,236.7,82.8,239.9,82.5Z"/></g><path class="ar" d="M48.023,1.231h0V1.116C48.023.5,46.445,0,44.521,0s-3.5.5-3.5,1.116a.291.291,0,0,0,.038.154V26.782H7.042V1.231H7V1.116C7,.5,5.426,0,3.5,0S0,.5,0,1.116a.291.291,0,0,0,.038.154v255.2a.141.141,0,0,0-.038.115c0,.616,1.578,1.116,3.5,1.116s3.5-.5,3.5-1.116H7V231.726H40.981v24.7c0,.038-.038.077-.038.154,0,.616,1.578,1.116,3.5,1.116s3.5-.5,3.5-1.116h0V1.231ZM7.042,118.6H41.02v21.279H7.042Zm33.978-7H7.042V90.312H41.02v21.279ZM7.042,146.878H41.02v21.279H7.042ZM41.02,83.309H7.042V62.03H41.02V83.309ZM7.042,175.161H41.02V196.44H7.042ZM41.02,33.747V55.026H7.042V33.747ZM7.042,224.723V203.443H41.02v21.279Z" transform="translate(415 5717)"/><g transform="matrix(-0.259, 0.966, -0.966, -0.259, 1775.953, 5956.514)"><path class="as" d="M4.5,16.2,55.4,245.7c1.4,6.1,7.5,11.1,13.6,11.1l119.8-.7c6.1,0,10-5.1,8.6-11.2L144.8,15.4c-1.4-6.1-7.5-11.1-13.6-11.1L13.1,5C7,5,3.2,10.1,4.5,16.2Z"/><path class="j" d="M14.8,24.2,62.3,237.7c1.2,5.6,6.8,10.1,12.3,10l104.8-.6c5.5,0,9-4.6,7.8-10.2l-49-213.5c-1.3-5.6-6.8-10.1-12.3-10L22.5,14C17,14.1,13.6,18.6,14.8,24.2Z"/><path class="at" d="M65.1,202.7,61.4,186a1.263,1.263,0,0,1,1.3-1.6l10.1-.1a2.132,2.132,0,0,1,2,1.6l3.7,16.6a1.263,1.263,0,0,1-1.3,1.6l-10.1.1A2.041,2.041,0,0,1,65.1,202.7Z"/><path class="au" d="M70.5,198.5a5.319,5.319,0,0,1-4.9-4,3.1,3.1,0,0,1,3.1-4,5.319,5.319,0,0,1,4.9,4A3.137,3.137,0,0,1,70.5,198.5Z"/><path class="l" d="M69.6,197l-1.3-5.5h1.5l1.3,5.5Z"/><path class="at" d="M34.1,63.3,30.4,46.7a1.245,1.245,0,0,1,1.2-1.6l10-.1a2.132,2.132,0,0,1,2,1.6l3.7,16.6a1.245,1.245,0,0,1-1.2,1.6l-10,.1A2.132,2.132,0,0,1,34.1,63.3Z"/><path class="au" d="M39.4,59.1a5.319,5.319,0,0,1-4.9-4,3.1,3.1,0,0,1,3.1-4,5.319,5.319,0,0,1,4.9,4A3.1,3.1,0,0,1,39.4,59.1Z"/><path class="l" d="M38.5,57.7l-1.3-5.5h1.5L40,57.7Z"/><path class="av" d="M132.6,30.8,178.2,230s3,10.1-5.2,9.4L78,240c-1.4-.7,15.7-6.5,18.7-7.6a86.843,86.843,0,0,1,17.6-4.2c7.2-1,18,3,23.7-.7,4.3-2.8,3-7.7,4.8-11.6,5.7,5,6.3-6.8,6.9-10.2,1.5-7.4,4.4-15.9,4.8-23.6.6-11.5-14.2-22-12.7-32.2.5-3.2,4.1-5.3,4.6-9.1.9-6.9-2.1-16-4.8-23-2.1-5.5-6.4-11.7-6-17.3.5-5.5,3-7.5,2.2-13.7-.6-5.1-2.8-10.3-3.3-15.4-.5-5.2.6-9.8-.2-15C133.5,49,129.2,36.9,132.6,30.8Z"/></g><g transform="translate(1724 6146.989)"><path class="aw" d="M95.265,123.495H8.5L39.446,0h18.51Z" transform="translate(16.083)"/><path class="aw" d="M135.931,63.41H0V57.047L18.51,44.9h98.912l18.51,12.147Z" transform="translate(0 84.958)"/><path class="j" d="M9.6,50.8H89.423L83.639,32H14.227Z" transform="translate(18.165 60.549)"/><path class="j" d="M12.8,37.71H72.089l-5.5-18.51H17.427Z" transform="translate(24.22 36.329)"/><path class="j" d="M16,24.91H55.044L49.549,6.4H20.627Z" transform="translate(30.274 12.11)"/></g><g transform="translate(54 6041.609)"><path class="aw" d="M73.265,92.182H8.5L31.6,0H45.416Z" transform="translate(9.85)"/><path class="aw" d="M101.464,58.716H0V53.967L13.816,44.9H87.648l13.816,9.067Z" transform="translate(0 52.031)"/><path class="j" d="M9.6,46.032H69.183L64.866,32H13.054Z" transform="translate(11.125 37.082)"/><path class="j" d="M12.8,33.016H57.056L52.954,19.2h-36.7Z" transform="translate(14.833 22.249)"/><path class="j" d="M16,20.216H45.144L41.042,6.4H19.454Z" transform="translate(18.541 7.416)"/></g><g transform="translate(51.873 6421.496)"><rect class="j" width="153.889" height="28.348" transform="translate(1654.305 0)"/><rect class="j" width="153.889" height="28.348" transform="translate(1378.571 0)"/><rect class="j" width="153.889" height="28.348" transform="translate(1102.887 0)"/><rect class="j" width="153.889" height="28.348" transform="translate(827.152 0)"/><rect class="j" width="153.889" height="28.348" transform="translate(551.418 0)"/><rect class="j" width="153.889" height="28.348" transform="translate(275.734 0)"/><rect class="j" width="153.889" height="28.348" transform="translate(0 0)"/></g><rect class="a" width="1920" height="424" transform="translate(0 5400)"/><rect class="b" width="1958" height="368" transform="translate(-24 5824)"/><rect class="c" width="1920" height="210" transform="translate(0 6270)"/><rect class="d" width="1920" height="78" transform="translate(0 6192)"/><path class="j" d="M539.9,69.062a14.448,14.448,0,0,0-2.4.218A16.445,16.445,0,0,0,525.623,64.3a16.667,16.667,0,0,0-11.006,4.149,19,19,0,0,0-8.036-1.791,11.916,11.916,0,0,0-18.212-1,12.046,12.046,0,0,0-5.59-1.4,11.876,11.876,0,0,0-6.333,21.924,12.365,12.365,0,0,0-.786,4.236A11.892,11.892,0,0,0,487.54,102.3a12.056,12.056,0,0,0,6.769-2.1,19.032,19.032,0,0,0,27.471-3.057,15.711,15.711,0,0,0,3.843.437A16.621,16.621,0,0,0,537.5,92.6a10.931,10.931,0,0,0,2.4.218,11.879,11.879,0,0,0,0-23.758Z" transform="translate(479.416 5437.1)"/><path class="j" d="M1234.039,15.639a36.961,36.961,0,0,0-11.881,1.989,26.117,26.117,0,0,0-49.846,1.437,20.616,20.616,0,0,0-11.439-3.371,20.843,20.843,0,0,0-18.789,11.771,21.341,21.341,0,0,0-7.294-1.326,20.889,20.889,0,1,0,10.555,38.9,31.33,31.33,0,0,0,60.069,9.892,36.548,36.548,0,1,0,28.625-59.3Z" transform="translate(-814 5484)"/><path class="j" d="M1173.969,7.82a18.481,18.481,0,0,0-5.941.995,13.058,13.058,0,0,0-24.923.718,10.308,10.308,0,0,0-5.719-1.685,10.421,10.421,0,0,0-9.395,5.885,10.671,10.671,0,0,0-3.647-.663,10.444,10.444,0,1,0,5.277,19.452,15.665,15.665,0,0,0,30.035,4.946A18.274,18.274,0,1,0,1173.969,7.82Z" transform="translate(683 5484)"/><path class="j" d="M21.3,453.3a19.626,19.626,0,0,0,6.9-1.2,15.251,15.251,0,0,0,29.1-.8,11.759,11.759,0,0,0,6.7,2,12.258,12.258,0,0,0,11-6.9,12.193,12.193,0,1,0,4.3-23.6,12.3,12.3,0,0,0-6.2,1.7,18.256,18.256,0,0,0-35-5.8,21.353,21.353,0,1,0-16.8,34.6Z" transform="translate(76.5 5076.4)"/><g transform="translate(905 5672)"><path class="k" d="M100.3,110.3H10a10.029,10.029,0,0,1-10-10V10A10.029,10.029,0,0,1,10,0h90.2a10.029,10.029,0,0,1,10,10v90.2A9.9,9.9,0,0,1,100.3,110.3Z"/><rect class="l" width="13.5" height="229.5" transform="translate(48.4 110.3)"/><rect class="j" width="73.5" height="73.5" transform="translate(18.4 18.4)"/><path d="M64.9,75.9V60.8H80.7l-9.4-9.4h4.4L67,42.8h3.6L62.7,28.4,54.8,42.8h3.6l-8.6,8.6h4.3l-9.4,9.4H60.5V75.9H40V70.1h6.5V65.8H29.2v4.3h6.5v5.8H29.2v4.3H81.1V75.9Z"/></g><g transform="translate(1771 5894)"><path class="m" d="M30,0,157.2,41.3l5.8,111-28.7,28.4L5,120.7,0,16.8Z"/><path class="n" d="M132,65.7l2.3,115-12.7-119L0,16.8,130,57.4l27.2-16.1Z"/></g><g transform="translate(290.002 5726.028)"><path class="o" d="M447.62,39.24c-1.981-8.972-3.67-14.914-3.67-14.914h0a105.627,105.627,0,0,0-4.835-13.05,17.957,17.957,0,0,0-4.6-5.884h0a22.643,22.643,0,0,0-9.962-2.1H74.828c-10.836.35-13.341,1.981-13.516,2.1h0c-2.913,2.33-9.321,13.166-9.321,13.166S48.962,27.181,45,39.24H197.461V18.035a6.552,6.552,0,0,1,6.525-6.525h133.7a6.552,6.552,0,0,1,6.525,6.525V39.24Z" transform="translate(-18.785 -1.373)"/><path class="p" d="M433.773,65H330.365v48.7a6.552,6.552,0,0,1-6.525,6.525h-133.7a6.552,6.552,0,0,1-6.525-6.525V65H31.153c-6.175,18.7-14.739,45.674-18.06,61.812a62.163,62.163,0,0,0-1.223,14.8,57.191,57.191,0,0,1,.641-10.778H439.074c.524-2.971.757-4.777.757-4.777C442.337,108.286,437.443,81.6,433.773,65Z" transform="translate(-4.938 -27.132)"/><ellipse class="q" cx="209.728" cy="5.243" rx="209.728" ry="5.243" transform="translate(15.146 172.385)"/><circle class="r" cx="23.769" cy="23.769" r="23.769" transform="translate(202.096 133.236)"/><circle class="s" cx="15.73" cy="15.73" r="15.73" transform="translate(210.426 141.275)"/><path class="t" d="M680.9,118.6Z" transform="translate(-284.223 -49.506)"/><path class="t" d="M680.9,118.6Z" transform="translate(-284.223 -49.506)"/><path class="u" d="M144.641,120.314H197.6a6.638,6.638,0,0,0,6.641-6.641V85.941A6.638,6.638,0,0,0,197.6,79.3H144.641A6.638,6.638,0,0,0,138,85.941v27.731A6.638,6.638,0,0,0,144.641,120.314Z" transform="translate(-57.605 -33.102)"/><path d="M203.744,75.72H129.7a1.418,1.418,0,0,1-1.4-1.4V73.1a1.418,1.418,0,0,1,1.4-1.4h74.046a1.418,1.418,0,0,1,1.4,1.4v1.223A1.418,1.418,0,0,1,203.744,75.72Z" transform="translate(-53.556 -29.929)"/><path class="v" d="M130.095,78.6c-1.165,6.35-3.612,28.9.35,39.848,0,0,1.573,7.807,9.9,7.574H194.3s8.1-.233,9.9-12c0,0,1.223-26.391-.466-35.421Z" transform="translate(-53.545 -32.809)"/><path class="u" d="M593.241,120.314H646.2a6.638,6.638,0,0,0,6.641-6.641V85.941A6.638,6.638,0,0,0,646.2,79.3H593.241a6.638,6.638,0,0,0-6.641,6.641v27.731A6.638,6.638,0,0,0,593.241,120.314Z" transform="translate(-244.86 -33.102)"/><path d="M652.344,75.72H578.3a1.418,1.418,0,0,1-1.4-1.4V73.1a1.418,1.418,0,0,1,1.4-1.4h74.046a1.418,1.418,0,0,1,1.4,1.4v1.223A1.418,1.418,0,0,1,652.344,75.72Z" transform="translate(-240.811 -29.929)"/><path class="v" d="M578.695,78.6c-1.165,6.35-3.612,28.9.349,39.848,0,0,1.573,7.807,9.9,7.574H642.9s8.1-.233,9.9-12c0,0,1.223-26.391-.466-35.421Z" transform="translate(-240.8 -32.809)"/><path class="j" d="M19.748,169.71c1.573,0,178.269,3.321,178.269,3.321s1.806-18.759,13.05-21.5h28.372s11.069,4.02,12.584,19.691c0,0,.466,1.573,3.321,1.806,0,0,154.092-2.33,173.667-11.477,0,0,16.2-34.663,5.826-91.7,0,0-5.651-28.488-9.729-34.547,0,0,13.632,48.645,9.729,75.968,0,0-5.185,40.664-20.041,46.781,0,0-8.331-1.282-9.9,1.223L256.8,162.952s-2.214-17.827-19.924-18.584l-26.041-.524s-12.642-1.223-14.39,17.361L17.01,161.03S2.679,138.6,8.155,112.035,33.206,29.6,33.206,29.6.815,83.78.057,121.356c0,0-1.282,15.671,8.04,39.149C8.1,160.505,12.932,169.71,19.748,169.71Z" transform="translate(0 -12.356)"/><path class="j" d="M13.633,171.8a11.665,11.665,0,0,0-.233,1.4H440.081c.058-.524.175-.99.233-1.4Z" transform="translate(-5.594 -71.713)"/><path class="w" d="M440.338,168.1H13.89l-.35,1.748c-.291,1.282-.466,2.563-.641,3.845H439.522c.466-2.855.7-4.6.7-4.6A5.131,5.131,0,0,0,440.338,168.1Z" transform="translate(-5.386 -70.169)"/><path class="x" d="M13.6,212.4c.117.524.175,1.049.291,1.573H434.4l.524-1.573Z" transform="translate(-5.678 -88.66)"/><path class="x" d="M14.8,218.5c.233,1.049.524,2.1.757,3.088H432.975c.408-.99.816-2.039,1.223-3.088Z" transform="translate(-6.179 -91.207)"/><g transform="translate(6.866 103.175)"><path class="y" d="M419.716,219.628c11.885-4.894,17.594-31.984,19.4-42.528H12.435c-3.67,25.051,9.438,45.558,9.438,45.558l179.434.175c1.748-18.584,14.39-17.361,14.39-17.361l26.041.524c17.71.757,19.924,18.584,19.924,18.584l148.091-3.67C411.385,218.288,419.716,219.628,419.716,219.628Z" transform="translate(-11.787 -177.1)"/><path class="y" d="M426.4,252.8a19.009,19.009,0,0,1,1.34,3.321h.35A29.354,29.354,0,0,0,426.4,252.8Z" transform="translate(-184.855 -208.699)"/></g><path class="r" d="M313.225,100.359h133.7a6.552,6.552,0,0,0,6.525-6.525V23.925a6.552,6.552,0,0,0-6.525-6.525h-133.7a6.552,6.552,0,0,0-6.525,6.525V93.834A6.514,6.514,0,0,0,313.225,100.359Z" transform="translate(-128.024 -7.263)"/><g transform="translate(25.632 34.256)"><path class="w" d="M558.6,64.043H662.357q-.612-2.8-1.223-5.243H558.6Z" transform="translate(-258.805 -58.8)"/><path class="w" d="M197.043,58.8H45.748Q44.874,61.334,44,64.043H197.043Z" transform="translate(-44 -58.8)"/></g><g transform="translate(26.157 36.528)"><path class="j" d="M197.419,62.7H45.366c-.175.466-.291.932-.466,1.4H197.361V62.7Z" transform="translate(-44.9 -62.7)"/><path class="j" d="M661.616,62.7H558.5v1.34H661.908A9.055,9.055,0,0,0,661.616,62.7Z" transform="translate(-259.288 -62.7)"/></g><path class="z" d="M460.121,263.9H452.2a1.418,1.418,0,0,1-1.4-1.4h0a1.418,1.418,0,0,1,1.4-1.4h7.923a1.418,1.418,0,0,1,1.4,1.4h0A1.38,1.38,0,0,1,460.121,263.9Z" transform="translate(-188.175 -108.989)"/><path d="M374.3,282.631s2.738-2.738,5.01-3.146,3.9,5.476,3.9,5.476S378.029,286.243,374.3,282.631Z" transform="translate(-156.242 -116.655)"/><path d="M404.017,260.882s-3.845.466-5.826-.583c-2.039-1.049.233-6.7.233-6.7S403.26,255.756,404.017,260.882Z" transform="translate(-165.86 -105.858)"/><path d="M396.606,281.587s-1.165-3.67-.466-5.884c.7-2.156,6.641-.874,6.641-.874S401.558,280.014,396.606,281.587Z" transform="translate(-165.265 -114.562)"/><path d="M369.307,261.8s3.146,2.214,3.962,4.369c.757,2.156-4.719,4.777-4.719,4.777S366.394,266.053,369.307,261.8Z" transform="translate(-153.521 -109.281)"/><path d="M383.922,249.111s-.7,3.787-2.33,5.418-6.292-2.272-6.292-2.272S378.854,248.237,383.922,249.111Z" transform="translate(-156.659 -103.932)"/><g transform="translate(109.291 45.791)"><path class="aa" d="M190.338,78.6,187.6,86l8.1-7.4Z" transform="translate(-187.6 -78.6)"/><path class="aa" d="M218.3,78.6h-22.08L187.6,101.088,207.466,79.3l-12.7,29.77Z" transform="translate(-187.6 -78.6)"/></g><g transform="translate(370.636 45.791)"><path class="aa" d="M639.229,78.6,636.2,88.97,645,78.6Z" transform="translate(-636.2 -78.6)"/><path class="aa" d="M667.368,78.6H645.055l-8.855,29.6,19.866-27.847-12.7,38.042Z" transform="translate(-636.2 -78.6)"/></g><g transform="translate(42.527)"><path class="j" d="M447.542,2.232a23.968,23.968,0,0,0-4.661-.466H92.752C90.888,1.824,89.2,1.883,87.8,2a68.2,68.2,0,0,1,7.865-.641c1.456,0,149.548.233,250.392.233,59.248,0,90.824-.058,93.853-.233.524,0,1.049-.058,1.515-.058A18.48,18.48,0,0,1,447.542,2.232Z" transform="translate(-79.178 -0.543)"/><path class="w" d="M435.189,0a14.2,14.2,0,0,0-1.573.058c-3.437.175-42.82.233-93.8.233C237.811.291,89.37.058,89.37.058S73.932.466,73,4.02c0,0,2.33-1.748,13.516-2.039H436.7a22.069,22.069,0,0,1,9.5,2.1S444.1,0,435.189,0Z" transform="translate(-73)"/></g></g><g transform="translate(121.006 5605.025)"><path class="ab" d="M123.5,91.7a56.957,56.957,0,0,0-2.9-7.2A290.4,290.4,0,0,1,87.4,88c-11.8.5-19.5-1.6-24.4-4a59.162,59.162,0,0,0-3.2,7.7h-.1c-2.5-.3-5,4.5-5.6,10.8s.8,11.6,3.3,11.9h.1c2,22.3,16.6,39.6,34.2,39.6,17.7,0,32.2-17.3,34.2-39.7,2.2-.8,3.5-5.9,2.9-11.8C128.2,96.5,125.9,91.8,123.5,91.7Z"/><path class="ac" d="M169.6,470.6c-.8,0-.8,3-1.7,3-.8,0-.8-3-1.7-3-.8,0-.8,3-1.7,3s-.8-3-1.7-3c-.8,0-.8,3-1.7,3-.8,0-.8-3-1.7-3-.8,0-.8,3-1.7,3-.8,0-.8-3-1.7-3-.8,0-.8,3-1.7,3-.8,0-.8-3-1.7-3-.8,0-.8,3-1.7,3-.8,0-.8-3-1.7-3-.8,0-.8,3-1.7,3-.8,0-.8-3-1.7-3-.8,0-.8,3-1.7,3-.8,0-.8-3-1.7-3-.8,0-.8,3-1.7,3-.8,0-.8-3-1.7-3-.8,0-.8,3-1.7,3-.8,0-.8-3-1.7-3-.8,0-.8,3-1.7,3-.8,0-.8-3-1.7-3-.8,0-.8,3-1.7,3-.8,0-.8-3-1.7-3-.8,0-.8,3-1.7,3-.8,0-.8-3-1.7-3-.8,0-.8,3-1.7,3-.8,0-.8-3-1.7-3-.8,0-.8,3-1.7,3-.8,0-.8-3-1.7-3-.8,0-.8,3-1.7,3-.8,0-.8-3-1.7-3-.8,0-.8,3-1.7,3-.8,0-.8-3-1.7-3-.8,0-.8,3-1.7,3-.8,0-.8-3-1.7-3-.8,0-.8,3-1.7,3-.8,0-.8-3-1.7-3-.8,0-.8,3-1.7,3s-.8-3-1.7-3v-1.1h66.9Z"/><path class="ad" d="M141.9,137.7l-15.7-3v47.1c-30.4,13.4-55.8,6.4-68.7.7V134.6l-15.7,3,3.3,166.6,6.6,139H84.8v-139H98v139h33.1l6.6-139Z"/><path class="ae" d="M41.8,141.1c-10,3.5-22.1,7.6-22.1,7,0-1-17,47.6-17,47.6l39.7,6.2.6-2Z"/><path class="ae" d="M153.6,133.2l-11.7,6.2-1.1,45.1c5.4-1.5,24.4-8.3,39.6-30.2l8-24Z"/><path class="ab" d="M27,293.6a2.73,2.73,0,0,0-1.5-1.8,2.767,2.767,0,0,0-1.6-.5l4.5-69.7,2.4-21.5-19.5-3L9.2,216.9,4.6,290.6a2.991,2.991,0,0,0-3.1,2.8L0,331.4a2.584,2.584,0,0,0,2.5,2.7h0a2.584,2.584,0,0,0,2.7-2.5l.6-13.9,1.4.1-.7,17A2.584,2.584,0,0,0,9,337.5H9a2.584,2.584,0,0,0,2.7-2.5l.7-17,1.4.1-.7,16a2.584,2.584,0,0,0,2.5,2.7h0a2.584,2.584,0,0,0,2.7-2.5l.7-16,1.4.1-.6,13.9a2.584,2.584,0,0,0,2.5,2.7h0a2.584,2.584,0,0,0,2.7-2.5l.7-26.1c.5.1,1.5,8.7,1.5,8.7,1.6-.4,5.2-.3,3.7-6.8Z"/><path class="af" d="M156.9,460.2s-28.1-1.7-31.5-9.8v-7.1H102.2v25.5h67C169.3,468.9,169.3,462,156.9,460.2Z"/><path class="af" d="M110.4,460.2s-28.1-1.7-31.5-9.8v-7.1H55.8v25.5h67C122.8,468.9,122.8,462,110.4,460.2Z"/><path class="ac" d="M123.1,470.6c-.8,0-.8,3-1.7,3-.8,0-.8-3-1.7-3-.8,0-.8,3-1.7,3-.8,0-.8-3-1.7-3-.8,0-.8,3-1.7,3-.8,0-.8-3-1.7-3-.8,0-.8,3-1.7,3-.8,0-.8-3-1.7-3-.8,0-.8,3-1.7,3-.8,0-.8-3-1.7-3-.8,0-.8,3-1.7,3-.8,0-.8-3-1.7-3-.8,0-.8,3-1.7,3-.8,0-.8-3-1.7-3-.8,0-.8,3-1.7,3-.8,0-.8-3-1.7-3-.8,0-.8,3-1.7,3-.8,0-.8-3-1.7-3-.8,0-.8,3-1.7,3-.8,0-.8-3-1.7-3-.8,0-.8,3-1.7,3-.8,0-.8-3-1.7-3-.8,0-.8,3-1.7,3-.8,0-.8-3-1.7-3-.8,0-.8,3-1.7,3-.8,0-.8-3-1.7-3-.8,0-.8,3-1.7,3-.8,0-.8-3-1.7-3-.8,0-.8,3-1.7,3-.8,0-.8-3-1.7-3-.8,0-.8,3-1.7,3-.8,0-.8-3-1.7-3-.8,0-.8,3-1.7,3-.8,0-.8-3-1.7-3-.8,0-.8,3-1.7,3-.8,0-.8-3-1.7-3-.8,0-.8,3-1.7,3-.8,0-.8-3-1.7-3-.8,0-.8,3-1.7,3s-.8-3-1.7-3v-1.1H122Z"/><path class="ag" d="M91.2,113H89.8a.5.5,0,0,1,0-1h.7c2.8,0,5.1,0,7.5-1.7a7.674,7.674,0,0,0-1-4c-.2-.5-.5-1.1-.7-1.6A36.138,36.138,0,0,1,94.5,92a.5.5,0,0,1,1,0,36.856,36.856,0,0,0,1.7,12.4,10.092,10.092,0,0,0,.7,1.5,8.014,8.014,0,0,1,1.1,4.7v.2l-.2.1C96.3,112.9,93.9,113,91.2,113Z"/><ellipse class="ag" cx="2.4" cy="2.1" rx="2.4" ry="2.1" transform="translate(75.4 91.2)"/><ellipse class="ag" cx="2.4" cy="2.1" rx="2.4" ry="2.1" transform="translate(103 91.2)"/><path class="ad" d="M135.1,74c-7.1-3-11.3-3.2-13.1-3.1-1.8-17.8-17-31-34.8-29.1C51,45.5,56.1,78.6,56.1,78.6c2,2.6,9.8,10.3,31.4,9.4a296.058,296.058,0,0,0,48.9-6.5S144.8,78.1,135.1,74Z"/><ellipse class="ah" cx="8" cy="8.7" rx="8" ry="8.7" transform="translate(85 53.3)"/><rect class="ai" width="63.7" height="48.2" transform="translate(60.2 195.6)"/><rect class="aj" width="54.8" height="1" transform="translate(64.7 199.4)"/><rect class="ak" width="27.7" height="6.2" transform="translate(78.2 203.5)"/><path class="ab" d="M201.3,5.1h0a2.682,2.682,0,0,0-3,2.2l-2.1,13.8-1.4-.2,2.5-15.8a2.682,2.682,0,0,0-2.2-3h0a2.682,2.682,0,0,0-3,2.2l-2.5,15.8-1.4-.2L190.9,3a2.682,2.682,0,0,0-2.2-3h0a2.682,2.682,0,0,0-3,2.2L183.1,19l-1.4-.2L183.8,5a2.682,2.682,0,0,0-2.2-3h0a2.682,2.682,0,0,0-3,2.2l-5.2,33.2-11.1-1.7a2.936,2.936,0,0,0-3.3,2.4l-.3,1.7a2.936,2.936,0,0,0,2.4,3.3l14.5,2.3-13.5,87,18.7-1.6,12.8-82.6.5.1a2.936,2.936,0,0,0,3.3-2.4l5.9-37.8A2.33,2.33,0,0,0,201.3,5.1Z"/><path class="al" d="M80.2,130.2s8.7,4.3,22.7,0C103,130.2,85.4,132,80.2,130.2Z"/><path class="ag" d="M125.1,83.7c-1.4.2-2.9.5-4.5.8a56.958,56.958,0,0,1,2.9,7.2c2.3.2,4.7,4.8,5.3,10.8.6,5.9-.7,11-2.9,11.8a53.972,53.972,0,0,1-1.4,8.2,3.217,3.217,0,0,0-.7-.4c-1.6-.1-3.5.1-4.8-.8-1.6,1.5-2-.7-3.9-.8,0,.5-.4,1-.5,1.5-2.3-1-10.7-3.1-12.6-1.2-1.8-1.3-10.8-2.1-11.4-.9-1.2-.8-2.8-1.2-3.5.6-2.4-2.1-4.2,1.6-5.7-1.5-.8.7-1.7,1.5-2.5,2.3-2.3-1.5-4.7,0-7.1.6-2.9.6-7.5-1.7-7.9,1.2-1,.2-2.2.2-3,.3a3.117,3.117,0,0,0-2-.6,70.081,70.081,0,0,1-1.4-8.2h-.1c-2.5-.3-3.9-5.6-3.3-11.9s3.2-11.1,5.6-10.8h.1A47.921,47.921,0,0,1,63,84.2a21.657,21.657,0,0,1-5.4-3.7h0l-.6-.6h0c-.2-.2-.3-.4-.5-.5h0c-.1-.2-.3-.3-.4-.5v-.1h0v-.4c-.6,1.4-6.2,15.2-4.7,38l6.1,7.6c0,.1,0,.1.1.2h0l.1.2v.1c-.1-.1-.1-.2-.2-.2-2.2,1.6.1,2.2.9,3.8.6,1.3,1,.3.9,1.9-.1,1.8-1.8,3-1.4,5,.9,4,5.7,6.8,5.8,10.8a7.887,7.887,0,0,1,5.5,1.7c-.2,3.3,2.2,2.4,4.7,3.6,1,.4.6,1.3,1.8,1.8,1,.4,1.9.1,2.9.4,4.3,1.2,7.4,3.4,12.7,2.3,5.4-1.1,10.2-1.1,15.6-2.3,2.2-.5,10.8-2.6,11.2-4.5a4.951,4.951,0,0,0,1.3-.4c-.1-3.5,2.4-4.3,2.2-8.1-.1-2.4-1.6-5.6,2.5-5.9a14.743,14.743,0,0,1,.8-3.5c.4-1,1.6-1.3,1.8-2,.7-2-.8-3.8-.8-5.7h-.5l6.1-7.8C131.4,114.8,131.4,97.3,125.1,83.7ZM91.7,138.3c-11.6,0-21-3.6-21-8.1s9.4-8.1,21-8.1,21,3.6,21,8.1S103.3,138.3,91.7,138.3Z"/><path class="ae" d="M121.6,139.7c.2,3.8-2.3,4.6-2.2,8.1a6.468,6.468,0,0,1-1.3.4c-.4,1.9-9,4-11.2,4.5-5.3,1.2-10.2,1.2-15.6,2.3-5.3,1.1-8.4-1.1-12.7-2.3-.9-.3-1.9,0-2.9-.4-1.2-.5-.8-1.3-1.8-1.8-2.5-1.2-4.9-.3-4.7-3.6a8.4,8.4,0,0,0-5.5-1.7c-.1-3.3-3.4-5.7-5-8.8H57.5v46c12.9,5.6,38.3,12.6,68.7-.7V136.4h-5A33.1,33.1,0,0,0,121.6,139.7Z"/></g><g transform="translate(564 5717.002)"><rect class="am" width="24.5" height="95" transform="translate(22.2 261.3)"/><rect class="am" width="24.5" height="95" transform="translate(281.8 261.3)"/><rect class="an" width="12.3" height="38.3" transform="translate(267 261.3)"/><rect class="an" width="12.3" height="38.3" transform="translate(49.4 261.3)"/><rect class="ao" width="327.8" height="21.4" transform="translate(0 236.8)"/><path class="ac" d="M95.1,388s.5,4.1,1.3,4.1.8-3,1.7-3c.8,0,.8,3,1.7,3,.8,0,.8-3,1.7-3,.8,0,.8,3,1.7,3,.8,0,.8-3,1.7-3,.8,0,.8,3,1.7,3,.8,0,.8-3,1.7-3,.8,0,.8,3,1.7,3,.8,0,.8-3,1.7-3,.8,0,.8,3,1.7,3,.8,0,.8-3,1.7-3,.8,0,.8,3,1.7,3,.8,0,.8-3,1.7-3,.8,0,.8,3,1.7,3,.8,0,.8-3,1.7-3,.8,0,.8,3,1.7,3,.8,0,.8-3,1.7-3,.8,0,.8,3,1.7,3,.8,0,.8-3,1.7-3,.8,0,.8,3,1.7,3,.8,0,.8-3,1.7-3,.8,0,.8,3,1.7,3,.8,0,.8-3,1.7-3,.8,0,.8,3,1.7,3,.8,0,.8-3,1.7-3,.8,0,.8,3,1.7,3,.8,0,.8-2.4,1.4-2.9.6.5.7,2.9,1.4,2.9.1,0,.2,0,.2-.1a.31.31,0,0,0,.2.1c.8,0,.8-2.4,1.4-2.9.6.5.7,2.9,1.4,2.9.1,0,.2,0,.2-.1a.31.31,0,0,0,.2.1c.7,0,.8-2.4,1.4-2.9.6.5.7,2.9,1.4,2.9.1,0,.2,0,.2-.1a.31.31,0,0,0,.2.1c.7,0,.8-2.4,1.4-2.9.6.5.7,2.9,1.4,2.9.1,0,.2,0,.2-.1a.31.31,0,0,0,.2.1c.7,0,.8-2.4,1.4-2.9.6.5.7,2.9,1.4,2.9a.5.5,0,0,1,.6,0c.7,0,.8-2.4,1.4-2.9.6.5.7,2.9,1.4,2.9a.5.5,0,0,1,.6,0c.7,0,.8-2.4,1.4-2.9.6.6.7,2.9,1.4,2.9.8,0,.8-3,1.7-3,.8,0,.8,3,1.7,3,.8,0,.8-3,1.7-3,.8,0,.8,3,1.7,3,.8,0,.8-3,1.7-3,.8,0,.8,3,1.7,3,.8,0,.8-3,1.7-3,.8,0,.8,3,1.7,3,.8,0,.8-3,1.7-3,.8,0,.8,3,1.7,3,.8,0,.8-3,1.7-3,.8,0,.8,3,1.7,3,.8,0,.8-3,1.7-3,.8,0,.8,3,1.7,3,.8,0,.8-3,1.7-3,.8,0,.8,3,1.7,3,.8,0,.8-3,1.7-3,.8,0,.8,3,1.7,3,.8,0,.8-3,1.7-3,.8,0,.8,3,1.7,3,.8,0,.8-3,1.7-3,.8,0,.8,3,1.7,3,.8,0,.8-3,1.7-3,.8,0,.8,3,1.7,3,.8,0,.8-3,1.7-3,.8,0,.8,3,1.7,3s1.7-4.1,1.7-4.1Z"/><path class="ad" d="M167.2,235.2V361.9H134.1l-6.4-133.7s14.5-20.2,56.4-26.1L181.6,91.4l15.7-2.7V132c12.9,5,38.3,11.2,68.7-.7V88.6l15.7,2.7-4,144.7H220.4c-.7,1.7-6.9,125.8-6.9,125.8H180.4V232Z"/><path class="aj" d="M197.3,132c12.9,5,38.3,11.2,68.7-.7V90l-9.7-2.5H207l-9.7,2.4Z"/><path class="aj" d="M281.7,93.5l-1.5,54.8h28.1v-24C308.3,94.5,287.7,93.2,281.7,93.5Z"/><path class="aj" d="M182.7,138.9l-1-44.4-41.1,41.9,21.6,19.8Z"/><path class="ab" d="M302.5,148.2H284.3v61.9l-14-5.2a2.957,2.957,0,0,0-3.8,1.7l-.6,1.6a2.957,2.957,0,0,0,1.7,3.8l10.5,3.9-11.7,31.4a2.666,2.666,0,0,0,1.5,3.4h0a2.666,2.666,0,0,0,3.4-1.5l4.9-13,1.3.5-6,15.9A2.666,2.666,0,0,0,273,256h0a2.666,2.666,0,0,0,3.4-1.5l6-15.9,1.3.5-5.6,15a2.666,2.666,0,0,0,1.5,3.4h0A2.666,2.666,0,0,0,283,256l5.6-15,1.3.5-4.9,13a2.666,2.666,0,0,0,1.5,3.4h0a2.666,2.666,0,0,0,3.4-1.5l5.9-15.8h0l7.5-20c.6-1.5-.8-3.8-.8-3.8V148.2Z"/><path class="ab" d="M140.7,136.5l-60.6.4,5.1-14.1a2.862,2.862,0,0,0-1.8-3.7l-1.6-.6a2.862,2.862,0,0,0-3.7,1.8l-3.8,10.5L42.7,119.4a2.633,2.633,0,0,0-3.4,1.6h0a2.633,2.633,0,0,0,1.6,3.4L54,129l-.5,1.3-16-5.8a2.633,2.633,0,0,0-3.4,1.6h0a2.633,2.633,0,0,0,1.6,3.4l16,5.8-.5,1.3-15-5.4a2.633,2.633,0,0,0-3.4,1.6h0a2.633,2.633,0,0,0,1.6,3.4l15,5.4-.5,1.3-13-4.9a2.633,2.633,0,0,0-3.4,1.6h0a2.633,2.633,0,0,0,1.6,3.4l36,12.9c1.5.5,3.8-.8,3.8-.8l86.5-.5Z"/><path class="ap" d="M185.4,361.8v7.1c-2.1,5.2-14.8,7.8-23.3,9v-16H138.9V369c-3.3,8.1-31.5,9.8-31.5,9.8C95,380.4,95,387.4,95,387.4H208.6V361.9H185.4Z"/><rect class="ai" width="63.7" height="48.2" transform="translate(199.9 143.6)"/><rect class="aj" width="54.8" height="1" transform="translate(202.6 147.4)"/><rect class="ak" width="27.7" height="6.2" transform="translate(217.3 151.5)"/><path class="ab" d="M263.4,45.1h-.2a27.727,27.727,0,0,0-1-2.6c-9.2.5-20.4.7-32.1.3-12.8-.5-21.2-2.8-26.6-5.3a47.83,47.83,0,0,0-3.5,7.6h0c-2.5-.3-5,4.2-5.6,10-.6,5.5.7,10.3,2.9,10.9,1.6,21.5,16.4,38.4,34.3,38.4s32.7-16.8,34.3-38.3c2.4-.4,3.8-5.3,3.1-11C268.4,49.3,265.9,44.8,263.4,45.1Z"/><path class="ad" d="M284.5,33.7c-7.9-3.4-12.6-3.9-14.6-3.9C268.7,13.1,252.2-.2,232,0c-40,.3-36.9,31.7-36.9,31.7,2.1,2.6,10.5,10.3,34.9,11.2a393.821,393.821,0,0,0,55.5-2.1S295.3,38.3,284.5,33.7Z"/><path class="ag" d="M231,67.4l-.3-1a16.787,16.787,0,0,1,5-.7,17.609,17.609,0,0,0,3.3-.3c-2.5-4.9-3.4-12.9-3.1-19h1c-.2,6.2.7,14.5,3.3,19.1l.3.6-.7.2a30.063,30.063,0,0,1-4.2.5A13.842,13.842,0,0,0,231,67.4Z"/><ellipse class="ag" cx="2.4" cy="1.9" rx="2.4" ry="1.9" transform="translate(218.8 47.6)"/><ellipse class="ag" cx="2.4" cy="1.9" rx="2.4" ry="1.9" transform="translate(246.3 47.6)"/><ellipse class="ah" cx="7.1" cy="7.9" rx="7.1" ry="7.9" transform="translate(231.5 10.5)"/><path class="aq" d="M262.2,42.6a20.034,20.034,0,0,1,1,2.6h.2c2.5-.3,5,4.2,5.6,10a20.406,20.406,0,0,1-.2,6.6l5.5-4.8a45.809,45.809,0,0,0-3-14.9C268.6,42.2,265.5,42.4,262.2,42.6Z"/><path class="aq" d="M195.2,31.7c-1.5,2.7-5.8,11.9-4.5,26.1l3.7,3.1a22.17,22.17,0,0,1-.1-5.8c.6-5.8,3.2-10.3,5.6-10h0a47.829,47.829,0,0,1,3.5-7.6C198.7,35.3,196.2,33,195.2,31.7Z"/><path class="aq" d="M266,65.7s-.6,6.3-3.9,11c-1.7.5-4.2,1.2-7.2,1.9a4.628,4.628,0,0,0-3.3-2.3c-12.7-8.7-25.2-7-32.2-4.3-7.4,2.9-9.4,6.9-9.6,6.8a10.741,10.741,0,0,0-1.5.7,42.63,42.63,0,0,1-6.4-1.6c-4.1-4.4-4.6-11.8-4.6-11.8-.6,3.4.8,9.6.8,9.6l4,12.8c.1.2,4.8,9.3,4.9,9.5,3.2,6.8,15.8,14.4,24,14.3,8.3-.1,20.7-7.8,25-14.5C256,97.8,267.1,82.7,266,65.7ZM232.5,86.6c-8.8,0-15.9-1.8-15.9-4.1,0-2.2,7.1-4.1,15.9-4.1s15.9,1.8,15.9,4.1S241.3,86.6,232.5,86.6Z"/><path class="al" d="M239.9,82.5s-3.7,3.1-15.7,0C224.2,82.5,236.7,82.8,239.9,82.5Z"/></g><path class="ar" d="M48.023,1.231h0V1.116C48.023.5,46.445,0,44.521,0s-3.5.5-3.5,1.116a.291.291,0,0,0,.038.154V26.782H7.042V1.231H7V1.116C7,.5,5.426,0,3.5,0S0,.5,0,1.116a.291.291,0,0,0,.038.154v255.2a.141.141,0,0,0-.038.115c0,.616,1.578,1.116,3.5,1.116s3.5-.5,3.5-1.116H7V231.726H40.981v24.7c0,.038-.038.077-.038.154,0,.616,1.578,1.116,3.5,1.116s3.5-.5,3.5-1.116h0V1.231ZM7.042,118.6H41.02v21.279H7.042Zm33.978-7H7.042V90.312H41.02v21.279ZM7.042,146.878H41.02v21.279H7.042ZM41.02,83.309H7.042V62.03H41.02V83.309ZM7.042,175.161H41.02V196.44H7.042ZM41.02,33.747V55.026H7.042V33.747ZM7.042,224.723V203.443H41.02v21.279Z" transform="translate(415 5717)"/><g transform="matrix(-0.259, 0.966, -0.966, -0.259, 1775.953, 5956.514)"><path class="as" d="M4.5,16.2,55.4,245.7c1.4,6.1,7.5,11.1,13.6,11.1l119.8-.7c6.1,0,10-5.1,8.6-11.2L144.8,15.4c-1.4-6.1-7.5-11.1-13.6-11.1L13.1,5C7,5,3.2,10.1,4.5,16.2Z"/><path class="j" d="M14.8,24.2,62.3,237.7c1.2,5.6,6.8,10.1,12.3,10l104.8-.6c5.5,0,9-4.6,7.8-10.2l-49-213.5c-1.3-5.6-6.8-10.1-12.3-10L22.5,14C17,14.1,13.6,18.6,14.8,24.2Z"/><path class="at" d="M65.1,202.7,61.4,186a1.263,1.263,0,0,1,1.3-1.6l10.1-.1a2.132,2.132,0,0,1,2,1.6l3.7,16.6a1.263,1.263,0,0,1-1.3,1.6l-10.1.1A2.041,2.041,0,0,1,65.1,202.7Z"/><path class="au" d="M70.5,198.5a5.319,5.319,0,0,1-4.9-4,3.1,3.1,0,0,1,3.1-4,5.319,5.319,0,0,1,4.9,4A3.137,3.137,0,0,1,70.5,198.5Z"/><path class="l" d="M69.6,197l-1.3-5.5h1.5l1.3,5.5Z"/><path class="at" d="M34.1,63.3,30.4,46.7a1.245,1.245,0,0,1,1.2-1.6l10-.1a2.132,2.132,0,0,1,2,1.6l3.7,16.6a1.245,1.245,0,0,1-1.2,1.6l-10,.1A2.132,2.132,0,0,1,34.1,63.3Z"/><path class="au" d="M39.4,59.1a5.319,5.319,0,0,1-4.9-4,3.1,3.1,0,0,1,3.1-4,5.319,5.319,0,0,1,4.9,4A3.1,3.1,0,0,1,39.4,59.1Z"/><path class="l" d="M38.5,57.7l-1.3-5.5h1.5L40,57.7Z"/><path class="av" d="M132.6,30.8,178.2,230s3,10.1-5.2,9.4L78,240c-1.4-.7,15.7-6.5,18.7-7.6a86.843,86.843,0,0,1,17.6-4.2c7.2-1,18,3,23.7-.7,4.3-2.8,3-7.7,4.8-11.6,5.7,5,6.3-6.8,6.9-10.2,1.5-7.4,4.4-15.9,4.8-23.6.6-11.5-14.2-22-12.7-32.2.5-3.2,4.1-5.3,4.6-9.1.9-6.9-2.1-16-4.8-23-2.1-5.5-6.4-11.7-6-17.3.5-5.5,3-7.5,2.2-13.7-.6-5.1-2.8-10.3-3.3-15.4-.5-5.2.6-9.8-.2-15C133.5,49,129.2,36.9,132.6,30.8Z"/></g><g transform="translate(1724 6146.989)"><path class="aw" d="M95.265,123.495H8.5L39.446,0h18.51Z" transform="translate(16.083)"/><path class="aw" d="M135.931,63.41H0V57.047L18.51,44.9h98.912l18.51,12.147Z" transform="translate(0 84.958)"/><path class="j" d="M9.6,50.8H89.423L83.639,32H14.227Z" transform="translate(18.165 60.549)"/><path class="j" d="M12.8,37.71H72.089l-5.5-18.51H17.427Z" transform="translate(24.22 36.329)"/><path class="j" d="M16,24.91H55.044L49.549,6.4H20.627Z" transform="translate(30.274 12.11)"/></g><g transform="translate(54 6041.609)"><path class="aw" d="M73.265,92.182H8.5L31.6,0H45.416Z" transform="translate(9.85)"/><path class="aw" d="M101.464,58.716H0V53.967L13.816,44.9H87.648l13.816,9.067Z" transform="translate(0 52.031)"/><path class="j" d="M9.6,46.032H69.183L64.866,32H13.054Z" transform="translate(11.125 37.082)"/><path class="j" d="M12.8,33.016H57.056L52.954,19.2h-36.7Z" transform="translate(14.833 22.249)"/><path class="j" d="M16,20.216H45.144L41.042,6.4H19.454Z" transform="translate(18.541 7.416)"/></g><g transform="translate(51.873 6421.496)"><rect class="j" width="153.889" height="28.348" transform="translate(1654.305 0)"/><rect class="j" width="153.889" height="28.348" transform="translate(1378.571 0)"/><rect class="j" width="153.889" height="28.348" transform="translate(1102.887 0)"/><rect class="j" width="153.889" height="28.348" transform="translate(827.152 0)"/><rect class="j" width="153.889" height="28.348" transform="translate(551.418 0)"/><rect class="j" width="153.889" height="28.348" transform="translate(275.734 0)"/><rect class="j" width="153.889" height="28.348" transform="translate(0 0)"/></g></svg>