<svg xmlns="http://www.w3.org/2000/svg" xmlns:xlink="http://www.w3.org/1999/xlink" viewBox="-38.104 1080 1958.104 1080"><defs><style>.a{fill:#7cd179;}.b{fill:#c8f8fc;}.c{fill:#333;}.d{fill:#666;}.aa,.ab,.be,.bf,.bj,.e,.l,.m,.x,.y,.z{fill:none;}.ab,.bj,.e{stroke:#333;}.aa,.ab,.e,.l,.m,.x,.y,.z{stroke-linecap:round;}.aa,.ab,.aj,.aq,.be,.bf,.bj,.e,.l,.m,.x,.y,.z{stroke-miterlimit:10;}.f{fill:#ccc;}.g{fill:#999;}.h,.i,.j,.k{fill:#e8ab17;}.h,.x{opacity:0.4;}.i,.y{opacity:0.2;}.j,.z{opacity:0.7;}.l{stroke:#aaf9cc;}.l,.m{stroke-width:5px;}.m{stroke:#385e48;}.n{fill:#5f2263;}.o{fill:#814694;}.p{fill:#984391;}.q{fill:#d3a9cf;}.r{fill:#33245e;}.s{fill:#f3d378;}.t{fill:#518dca;}.u{fill:#3f61aa;}.v{fill:#e76f90;}.w{fill:#bc6aa7;}.aa,.x,.y,.z{stroke:#999;stroke-width:1.311px;}.ab{stroke-width:1.966px;}.ac{fill:#488490;}.ad{fill:#e64310;}.ae{fill:#2e6973;}.af{fill:#e0c13e;}.ag{fill:#81cbdc;}.ah{fill:#233a09;opacity:0.48;}.ai,.aq{fill:#1d1e1c;}.aj,.am,.as{fill:#fff;}.aj{stroke:#686867;stroke-width:0.671px;}.ak,.al{fill:#643612;}.al{opacity:0.74;}.an{fill:#979797;}.ao{fill:#dadac1;}.ap{fill:#e7aa16;}.aq,.av{stroke:#fff;}.aq{stroke-width:6px;}.ar{fill:#f3971b;}.as{opacity:0.22;}.at{fill:#cccbcb;}.au{fill:#fbc500;}.av{stroke-width:0.193px;}.aw{clip-path:url(#a);}.ax{fill:#75c7d6;}.ay{fill:#989898;}.az{fill:#5d3088;}.ba{fill:#f3e62e;}.bb{fill:#69668c;}.bc{fill:#f7ccb6;}.bd{fill:red;}.be,.bf{stroke:#ccc;}.be,.bj{stroke-width:0.566px;}.bf{stroke-width:0.432px;}.bg{fill:#630;}.bh{fill:#262424;}.bi{fill:#006;}</style><clipPath id="a"><path d="M279.482,81.846c.161,2.169-2.089,4.016-5.061,4.177L158.831,93.654c-2.892.161-5.382-1.366-5.543-3.534L150.8,52.205c-.161-2.169,2.089-4.016,5.061-4.177L271.449,40.4c2.892-.161,5.382,1.366,5.543,3.534Z" transform="translate(-150.79 -40.386)"/></clipPath></defs><rect class="a" width="1920" height="456" transform="translate(0 1704)"/><rect class="b" width="1920" height="624" transform="translate(0 1080)"/><rect class="c" width="106.1" height="197.2" transform="translate(122.9 1560)"/><g transform="translate(122.9 1560)"><rect class="d" width="95.4" height="50.2" transform="translate(5.3 5.4)"/><path class="e" d="M96.2,51.3V10.6H13.5"/><rect class="d" width="95.4" height="50.2" transform="translate(5.3 87.9)"/><path class="e" d="M96.2,133.6V92.8H13.5"/><rect class="d" width="95.4" height="50.2" transform="translate(5.3 141.5)"/><path class="e" d="M96.2,187.3V146.6H13.5"/><rect class="d" width="45.2" height="23.4" transform="translate(5.4 60.2)"/><path class="f" d="M10,80.4l5.3-8.8L10,62.8l8.8,8.8Z"/><path class="f" d="M46,62.8l-5.3,8.8L46,80.4l-8.8-8.8Z"/><circle class="g" cx="6.2" cy="6.2" r="6.2" transform="translate(21.8 65.7)"/><rect class="d" width="45.2" height="23.4" transform="translate(55.6 60.2)"/><path class="f" d="M60.2,80.4l5.3-8.8-5.3-8.8L69,71.6Z"/><path class="f" d="M96.2,62.8l-5.3,8.8,5.3,8.8-8.8-8.8Z"/><circle class="g" cx="6.2" cy="6.2" r="6.2" transform="translate(72 65.7)"/></g><rect class="c" width="106.1" height="197.2" transform="translate(852 1560)"/><g transform="translate(852 1560)"><rect class="d" width="95.4" height="50.2" transform="translate(5.3 5.4)"/><path class="e" d="M96.2,51.3V10.6H13.5"/><rect class="d" width="95.4" height="50.2" transform="translate(5.3 87.9)"/><path class="e" d="M96.2,133.6V92.8H13.5"/><rect class="d" width="95.4" height="50.2" transform="translate(5.3 141.5)"/><path class="e" d="M96.2,187.3V146.6H13.5"/><rect class="d" width="45.2" height="23.4" transform="translate(5.4 60.2)"/><path class="f" d="M10,80.4l5.3-8.8L10,62.8l8.8,8.8Z"/><path class="f" d="M46,62.8l-5.3,8.8L46,80.4l-8.8-8.8Z"/><circle class="g" cx="6.2" cy="6.2" r="6.2" transform="translate(21.8 65.7)"/><rect class="d" width="45.2" height="23.4" transform="translate(55.6 60.2)"/><path class="f" d="M60.2,80.4l5.3-8.8-5.3-8.8L69,71.6Z"/><path class="f" d="M96.2,62.8l-5.3,8.8,5.3,8.8-8.8-8.8Z"/><circle class="g" cx="6.2" cy="6.2" r="6.2" transform="translate(72 65.7)"/></g><circle class="h" cx="140.535" cy="140.535" r="140.535" transform="translate(79.889 1138.689)"/><circle class="i" cx="165.424" cy="165.424" r="165.424" transform="translate(55 1113.8)"/><circle class="j" cx="116.268" cy="116.268" r="116.268" transform="translate(104.156 1162.956)"/><circle class="k" cx="86.756" cy="86.756" r="86.756" transform="translate(133.667 1192.468)"/><line class="l" x1="828" transform="translate(151.5 1997.5)"/><line class="m" x1="373" transform="translate(1127 1944)"/><line class="m" x1="249" transform="translate(1561 2089)"/><line class="m" x1="118" transform="translate(1109 2067)"/><line class="m" x2="421" transform="translate(108 2112)"/><line class="l" x2="273" transform="translate(472 2062)"/><line class="l" x1="828" transform="translate(233.5 1955.5)"/><line class="l" x2="531" transform="translate(821 2102)"/><line class="l" x1="373" transform="translate(1479 1972)"/><line class="m" x2="421" transform="translate(868 1876)"/><line class="l" x2="273" transform="translate(1232 1826)"/><line class="m" x1="292" transform="translate(1592 1768)"/><line class="m" x1="249" transform="translate(1617 1995)"/><line class="l" x1="118" transform="translate(1273 2035)"/><line class="m" x2="421" transform="translate(36 2018)"/><line class="m" x2="273" transform="translate(410 1980)"/><g transform="translate(1086 1682)"><path class="n" d="M470.8,32.7,481.5,0l10.6,38.9Z"/><path class="o" d="M481.5,0l42.6.2,10.6,38.3-42.6.4Z"/><path class="p" d="M481.5,0V33.6l10.6,5.3Z"/><path class="q" d="M516.5,6.8l14.6,28-8-33.3-37.3.2,24.2,4L493.8,9.5Z"/></g><g transform="translate(1086 1682)"><path class="r" d="M269,50.3,285.6,17l16.7,43Z"/><path class="k" d="M285.6,17l66.6.3,16.7,42-66.6.7Z"/><path class="s" d="M291.9,21.2l58.2,2.4,12.5,31.5L339.7,29.2Z"/><path class="n" d="M285.6,17V51.7L302.3,60Z"/></g><g transform="translate(1086 1682)"><path class="t" d="M399,54.9s7.3-29.4,29.4-29.4,29.4,29.4,29.4,29.4Z"/><path class="u" d="M452.3,54.9s-5.5-25.7-22-27.6c0,0,12.9,7.3,11,27.6Z"/></g><g transform="translate(1086 1682)"><path class="n" d="M189.8,53.8,200.5,11l10.6,50.9Z"/><path class="o" d="M200.5,11l42.6.2,10.6,50.1-42.6.6Z"/><path class="p" d="M200.5,11V55l10.6,6.9Z"/><path class="q" d="M235.5,19.9l14.6,36.6-8-43.5-37.3.2L229,18.4l-16.2,5.1Z"/></g><g transform="translate(1086 1682)"><path class="q" d="M372.7,76s8.2-32.7,32.7-32.7S438.1,76,438.1,76Z"/><path class="v" d="M405.4,43.3c-8.2,2-8.2,32.7-8.2,32.7H372.7s8-32.8,32.7-32.7"/><path class="w" d="M432,76s-6.1-28.6-24.5-30.7c0,0,14.3,8.2,12.3,30.7Z"/></g><g transform="translate(1086 1682)"><path class="r" d="M99.9,46.3,83.2,13,66.6,56Z"/><path class="k" d="M83.2,13l-66.6.3L0,55.3l66.6.7Z"/><path class="s" d="M77,17.2,18.7,19.6,6.2,51.1,29.1,25.2Z"/><path class="n" d="M83.2,13V47.7L66.6,56Z"/></g><g transform="translate(1086 1682)"><path class="t" d="M568,44s7.3-29.4,29.4-29.4c22,0,29.4,29.4,29.4,29.4Z"/><path class="u" d="M621.3,44s-5.5-25.7-22-27.6c0,0,12.9,7.3,11,27.6Z"/></g><g transform="translate(1086 1682)"><path class="q" d="M604.9,54s10.4-41.5,41.5-41.5S687.9,54,687.9,54Z"/><path class="v" d="M646.4,12.5C636,15.1,636,54,636,54H604.9s10.2-41.6,41.5-41.5"/><path class="w" d="M680.1,54S672.3,17.7,649,15.1c0,0,18.2,10.4,15.6,38.9Z"/></g><g transform="translate(180.517 1648.297)"><g transform="translate(4.446)"><path class="x" d="M50.5,53.4a27.986,27.986,0,0,1,0,39.7" transform="translate(-42.878 -49.907)"/><path class="y" d="M53.8,50.1a32.969,32.969,0,0,1,0,46.686" transform="translate(-42.684 -50.1)"/><path class="z" d="M47.2,56.6a23.13,23.13,0,0,1,0,32.818" transform="translate(-43.071 -49.719)"/><path class="aa" d="M43.3,60.6a17.379,17.379,0,0,1,0,24.56" transform="translate(-43.3 -49.484)"/></g><path class="ab" d="M39.1,65.4s6.987,5.5,1.27,14.186" transform="translate(-39.1 -49.203)"/></g><g transform="translate(145 1648.297)"><path class="x" d="M18.557,53.4a27.986,27.986,0,0,0,0,39.7" transform="translate(-5.271 -49.907)"/><path class="y" d="M15.236,50.1a33.1,33.1,0,0,0,0,46.792" transform="translate(-5.55 -50.1)"/><path class="z" d="M21.678,56.6a23.13,23.13,0,0,0,0,32.818" transform="translate(-5.005 -49.719)"/><path class="aa" d="M25.481,60.6a17.379,17.379,0,0,0,0,24.56" transform="translate(-4.679 -49.484)"/><path class="ab" d="M29.695,65.4s-6.987,5.5-1.27,14.186" transform="translate(-4.341 -49.203)"/></g><g transform="translate(181.201 1580)"><g transform="translate(2.329)"><path class="x" d="M46.1,2.8a18.018,18.018,0,0,1,0,25.407" transform="translate(-41.23 -0.577)"/><path class="y" d="M48.2.7a21.213,21.213,0,0,1,0,29.959" transform="translate(-41.107 -0.7)"/><path class="z" d="M44,4.9a14.887,14.887,0,0,1,0,21.067" transform="translate(-41.353 -0.454)"/><path class="aa" d="M41.5,7.4a11.054,11.054,0,0,1,0,15.668" transform="translate(-41.5 -0.307)"/></g><path class="ab" d="M39.3,9.9s4.446,3.493.741,9.1" transform="translate(-39.3 -0.161)"/></g><g transform="translate(155 1580)"><path class="x" d="M22.79,2.8a18.018,18.018,0,0,0,0,25.407" transform="translate(-14.374 -0.577)"/><path class="y" d="M20.743.7a21.213,21.213,0,0,0,0,29.959" transform="translate(-14.55 -0.7)"/><path class="z" d="M24.842,4.9a14.887,14.887,0,0,0,0,21.067" transform="translate(-14.203 -0.454)"/><path class="aa" d="M27.28,7.4a11.054,11.054,0,0,0,0,15.668" transform="translate(-13.994 -0.307)"/><path class="ab" d="M29.323,9.9s-4.446,3.493-.741,9.1" transform="translate(-13.814 -0.161)"/></g><g transform="translate(181.657 1700.919)"><g transform="translate(4.552)"><path class="x" d="M52.9,122.7a33.736,33.736,0,0,1,0,47.638" transform="translate(-43.796 -118.465)"/><path class="y" d="M56.9,118.7a39.742,39.742,0,0,1,0,56.107" transform="translate(-43.561 -118.7)"/><path class="z" d="M49.1,126.5a27.794,27.794,0,0,1,0,39.381" transform="translate(-44.019 -118.243)"/><path class="aa" d="M44.3,131.3a20.766,20.766,0,0,1,0,29.43" transform="translate(-44.3 -117.961)"/></g><path class="ab" d="M40,136.3s8.363,6.669,1.482,17.044" transform="translate(-40 -117.668)"/></g><g transform="translate(140 1700.919)"><path class="x" d="M16.145,122.7a33.736,33.736,0,0,0,0,47.638" transform="translate(-0.319 -118.465)"/><path class="y" d="M12.242,118.7a39.742,39.742,0,0,0,0,56.107" transform="translate(-0.65 -118.7)"/><path class="z" d="M19.953,126.5a27.794,27.794,0,0,0,0,39.381" transform="translate(0.002 -118.243)"/><path class="aa" d="M24.539,131.3a20.766,20.766,0,0,0,0,29.43" transform="translate(0.392 -117.961)"/><path class="ab" d="M28.733,136.3s-8.363,6.669-1.482,17.044" transform="translate(0.75 -117.668)"/></g><g transform="translate(909.517 1648.297)"><g transform="translate(4.446)"><path class="x" d="M50.5,53.4a27.986,27.986,0,0,1,0,39.7" transform="translate(-42.878 -49.907)"/><path class="y" d="M53.8,50.1a32.969,32.969,0,0,1,0,46.686" transform="translate(-42.684 -50.1)"/><path class="z" d="M47.2,56.6a23.13,23.13,0,0,1,0,32.818" transform="translate(-43.071 -49.719)"/><path class="aa" d="M43.3,60.6a17.379,17.379,0,0,1,0,24.56" transform="translate(-43.3 -49.484)"/></g><path class="ab" d="M39.1,65.4s6.987,5.5,1.27,14.186" transform="translate(-39.1 -49.203)"/></g><g transform="translate(874 1648.297)"><path class="x" d="M18.557,53.4a27.986,27.986,0,0,0,0,39.7" transform="translate(-5.271 -49.907)"/><path class="y" d="M15.236,50.1a33.1,33.1,0,0,0,0,46.792" transform="translate(-5.55 -50.1)"/><path class="z" d="M21.678,56.6a23.13,23.13,0,0,0,0,32.818" transform="translate(-5.005 -49.719)"/><path class="aa" d="M25.481,60.6a17.379,17.379,0,0,0,0,24.56" transform="translate(-4.679 -49.484)"/><path class="ab" d="M29.695,65.4s-6.987,5.5-1.27,14.186" transform="translate(-4.341 -49.203)"/></g><g transform="translate(910.201 1580)"><g transform="translate(2.329)"><path class="x" d="M46.1,2.8a18.018,18.018,0,0,1,0,25.407" transform="translate(-41.23 -0.577)"/><path class="y" d="M48.2.7a21.213,21.213,0,0,1,0,29.959" transform="translate(-41.107 -0.7)"/><path class="z" d="M44,4.9a14.887,14.887,0,0,1,0,21.067" transform="translate(-41.353 -0.454)"/><path class="aa" d="M41.5,7.4a11.054,11.054,0,0,1,0,15.668" transform="translate(-41.5 -0.307)"/></g><path class="ab" d="M39.3,9.9s4.446,3.493.741,9.1" transform="translate(-39.3 -0.161)"/></g><g transform="translate(884 1580)"><path class="x" d="M22.79,2.8a18.018,18.018,0,0,0,0,25.407" transform="translate(-14.374 -0.577)"/><path class="y" d="M20.743.7a21.213,21.213,0,0,0,0,29.959" transform="translate(-14.55 -0.7)"/><path class="z" d="M24.842,4.9a14.887,14.887,0,0,0,0,21.067" transform="translate(-14.203 -0.454)"/><path class="aa" d="M27.28,7.4a11.054,11.054,0,0,0,0,15.668" transform="translate(-13.994 -0.307)"/><path class="ab" d="M29.323,9.9s-4.446,3.493-.741,9.1" transform="translate(-13.814 -0.161)"/></g><g transform="translate(910.657 1700.919)"><g transform="translate(4.552)"><path class="x" d="M52.9,122.7a33.736,33.736,0,0,1,0,47.638" transform="translate(-43.796 -118.465)"/><path class="y" d="M56.9,118.7a39.742,39.742,0,0,1,0,56.107" transform="translate(-43.561 -118.7)"/><path class="z" d="M49.1,126.5a27.794,27.794,0,0,1,0,39.381" transform="translate(-44.019 -118.243)"/><path class="aa" d="M44.3,131.3a20.766,20.766,0,0,1,0,29.43" transform="translate(-44.3 -117.961)"/></g><path class="ab" d="M40,136.3s8.363,6.669,1.482,17.044" transform="translate(-40 -117.668)"/></g><g transform="translate(869 1700.919)"><path class="x" d="M16.145,122.7a33.736,33.736,0,0,0,0,47.638" transform="translate(-0.319 -118.465)"/><path class="y" d="M12.242,118.7a39.742,39.742,0,0,0,0,56.107" transform="translate(-0.65 -118.7)"/><path class="z" d="M19.953,126.5a27.794,27.794,0,0,0,0,39.381" transform="translate(0.002 -118.243)"/><path class="aa" d="M24.539,131.3a20.766,20.766,0,0,0,0,29.43" transform="translate(0.392 -117.961)"/><path class="ab" d="M28.733,136.3s-8.363,6.669-1.482,17.044" transform="translate(0.75 -117.668)"/></g><path class="ac" d="M270.2,0,228.4,131.371H312Z" transform="translate(1594.496 1563)"/><path class="ac" d="M271.2,0,229.4,131.371H313Z" transform="translate(1593.741 1563)"/><rect class="ad" width="11.943" height="35.829" transform="translate(1858.725 1694.371)"/><path class="ac" d="M271.2,0,229.4,131.371H313Z" transform="translate(1593.741 1563)"/><path class="ae" d="M336.984,161.1,316.5,241.347h40.968Z" transform="translate(1527.957 1441.326)"/><g transform="translate(1767 1615.935)"><rect class="ad" width="6.779" height="40.356" transform="translate(21.757 50.635)"/><circle class="ac" cx="25.697" cy="25.697" r="25.697"/><circle class="ae" cx="18.086" cy="18.086" r="18.086" transform="translate(5.384 10.328)"/><circle class="ac" cx="12.016" cy="12.016" r="12.016" transform="translate(9.447 18.893)"/></g><path class="ac" d="M270.2,0,228.4,131.371H312Z" transform="translate(-266.504 1566)"/><path class="ac" d="M271.2,0,229.4,131.371H313Z" transform="translate(-267.259 1566)"/><rect class="ad" width="11.943" height="35.829" transform="translate(-2.275 1697.371)"/><path class="ac" d="M625.2,133.6l-23,91.333h46.034Z" transform="translate(-548.823 1465.096)"/><path class="ac" d="M271.2,0,229.4,131.371H313Z" transform="translate(-267.259 1566)"/><path class="ae" d="M336.984,161.1,316.5,241.347h40.968Z" transform="translate(-333.043 1444.326)"/><path class="ae" d="M661.382,283.1,650.1,327.837h22.564Z" transform="translate(-585.001 1352.183)"/><rect class="ad" width="6.583" height="19.725" transform="translate(73.102 1690.03)"/><path class="ac" d="M625.2,133.6l-23,91.333h46.034Z" transform="translate(401.177 1468.096)"/><path class="ae" d="M661.382,283.1,650.1,327.837h22.564Z" transform="translate(364.999 1355.183)"/><rect class="ad" width="6.583" height="19.725" transform="translate(1023.102 1693.03)"/><path class="af" d="M600.14,174.66c-2.731-12.37-5.061-20.564-5.061-20.564h0a145.639,145.639,0,0,0-6.667-17.993,24.76,24.76,0,0,0-6.346-8.113h0c-6.266-3.213-13.736-2.892-13.736-2.892H86.127c-14.941.321-18.475,2.651-18.636,2.811h0c-4.016,3.213-12.852,18.154-12.852,18.154S50.462,157.952,45,174.579H255.216V145.34a9.033,9.033,0,0,1,9-9H448.563a9.033,9.033,0,0,1,9,9v29.239H600.14Z" transform="translate(228.649 1376.106)"/><path class="ag" d="M593.614,186.8H451.034v67.153a9.033,9.033,0,0,1-9,9H257.686a9.033,9.033,0,0,1-9-9V186.8H38.474c-8.515,25.785-20.323,62.976-24.9,85.227a85.711,85.711,0,0,0-1.687,20.4,78.857,78.857,0,0,1,.884-14.861H600.924c.723-4.1,1.044-6.587,1.044-6.587C605.422,246.483,598.675,209.613,593.614,186.8Z" transform="translate(235.175 1363.966)"/><ellipse class="ah" cx="289.177" cy="7.229" rx="289.177" ry="7.229" transform="translate(258.387 1736.241)"/><circle class="ai" cx="32.773" cy="32.773" r="32.773" transform="translate(516.156 1682.261)"/><circle class="aj" cx="21.688" cy="21.688" r="21.688" transform="translate(527.643 1693.346)"/><path class="ak" d="M147.157,257.65h73.017a9.153,9.153,0,0,0,9.157-9.157V210.257a9.153,9.153,0,0,0-9.157-9.157H147.157A9.153,9.153,0,0,0,138,210.257v38.236A9.205,9.205,0,0,0,147.157,257.65Z" transform="translate(210.353 1361.153)"/><path d="M232.324,198.943h-102.1a1.955,1.955,0,0,1-1.928-1.928v-1.687a1.955,1.955,0,0,1,1.928-1.928h102.1a1.955,1.955,0,0,1,1.928,1.928v1.687A1.9,1.9,0,0,1,232.324,198.943Z" transform="translate(212.262 1362.667)"/><path class="al" d="M130.785,200.3c-1.607,8.756-4.98,39.842.482,54.944,0,0,2.169,10.764,13.656,10.443h74.383s11.165-.321,13.656-16.547c0,0,1.687-36.388-.643-48.839Z" transform="translate(212.267 1361.31)"/><path class="ak" d="M595.757,257.65h73.017a9.153,9.153,0,0,0,9.157-9.157V210.257a9.153,9.153,0,0,0-9.157-9.157H595.757a9.153,9.153,0,0,0-9.157,9.157v38.236A9.205,9.205,0,0,0,595.757,257.65Z" transform="translate(122.101 1361.153)"/><path d="M680.924,198.943h-102.1a1.955,1.955,0,0,1-1.928-1.928v-1.687a1.955,1.955,0,0,1,1.928-1.928h102.1a1.955,1.955,0,0,1,1.928,1.928v1.687A1.9,1.9,0,0,1,680.924,198.943Z" transform="translate(124.009 1362.667)"/><path class="al" d="M579.385,200.3c-1.607,8.756-4.98,39.842.482,54.944,0,0,2.169,10.764,13.656,10.443h74.383s11.165-.321,13.656-16.547c0,0,1.687-36.388-.643-48.839Z" transform="translate(124.014 1361.31)"/><path class="am" d="M27.23,344.467c2.169,0,245.8,4.579,245.8,4.579s2.49-25.865,17.993-29.641h39.119s15.262,5.543,17.351,27.151c0,0,.643,2.169,4.579,2.49,0,0,212.465-3.213,239.455-15.824,0,0,22.331-47.795,8.033-126.435,0,0-7.792-39.28-13.415-47.634,0,0,18.8,67.073,13.415,104.747,0,0-7.149,56.068-27.633,64.5,0,0-11.487-1.767-13.656,1.687l-204.191,5.061s-3.052-24.58-27.472-25.624L290.7,308.8s-17.431-1.687-19.841,23.937L23.455,332.5s-19.76-30.926-12.21-67.555S45.786,151.2,45.786,151.2,1.124,226.065.08,277.876c0,0-1.767,21.608,11.085,53.98C11.165,331.856,17.832,344.467,27.23,344.467Z" transform="translate(237.502 1370.969)"/><path class="am" d="M13.721,293.5a16.081,16.081,0,0,0-.321,1.928H601.716c.08-.723.241-1.366.321-1.928Z" transform="translate(234.866 1342.975)"/><path class="an" d="M602.26,289.9H14.266l-.482,2.41c-.4,1.767-.643,3.534-.884,5.3H601.135c.643-3.936.964-6.346.964-6.346A7.915,7.915,0,0,0,602.26,289.9Z" transform="translate(234.964 1343.683)"/><path class="ao" d="M13.6,334.2c.161.723.241,1.446.4,2.169H593.8l.723-2.169Z" transform="translate(234.826 1334.968)"/><path class="ao" d="M14.8,340.3c.321,1.446.723,2.892,1.044,4.257H591.388c.562-1.366,1.125-2.811,1.687-4.257Z" transform="translate(234.59 1333.768)"/><g transform="translate(246.97 1640.732)"><path class="ap" d="M574.248,357.439c16.387-6.747,24.259-44.1,26.749-58.639H12.681c-5.061,34.541,13.013,62.816,13.013,62.816l247.407.241c2.41-25.624,19.841-23.937,19.841-23.937l35.906.723c24.419,1.044,27.472,25.624,27.472,25.624l204.272-5.061C562.761,355.672,574.248,357.439,574.248,357.439Z" transform="translate(-11.787 -298.8)"/><path class="ap" d="M426.4,374.6a26.21,26.21,0,0,1,1.848,4.579h.482A40.468,40.468,0,0,0,426.4,374.6Z" transform="translate(-93.353 -313.712)"/></g><path class="aq" d="M315.7,253.586H500.047a9.033,9.033,0,0,0,9-9V148.2a9.033,9.033,0,0,0-9-9H315.7a9.033,9.033,0,0,0-9,9v96.392A9.033,9.033,0,0,0,315.7,253.586Z" transform="translate(177.165 1373.33)"/><g transform="translate(272.846 1545.786)"><path class="an" d="M558.6,187.829H701.663q-.843-3.856-1.687-7.229H558.6Z" transform="translate(-145.237 -180.6)"/><path class="an" d="M255.019,180.6H46.41q-1.2,3.494-2.41,7.229H255.019Z" transform="translate(-44 -180.6)"/></g><g transform="translate(273.569 1548.838)"><path class="am" d="M255.2,184.4H45.543c-.241.643-.4,1.285-.643,1.928H255.116V184.4Z" transform="translate(-44.9 -184.4)"/><path class="am" d="M700.679,184.4H558.5v1.928H701.081A16.454,16.454,0,0,0,700.679,184.4Z" transform="translate(-145.94 -184.4)"/></g><path class="ar" d="M86.057,386.316H74.008A1.989,1.989,0,0,1,72,384.308h0a1.989,1.989,0,0,1,2.008-2.008H86.057a1.989,1.989,0,0,1,2.008,2.008h0A1.989,1.989,0,0,1,86.057,386.316Z" transform="translate(223.337 1325.505)"/><path class="ar" d="M463.652,386.756H452.728a1.955,1.955,0,0,1-1.928-1.928h0a1.955,1.955,0,0,1,1.928-1.928h10.924a1.955,1.955,0,0,1,1.928,1.928h0A1.9,1.9,0,0,1,463.652,386.756Z" transform="translate(148.816 1325.387)"/><path d="M374.3,405.631s3.775-3.775,6.908-4.338,5.382,7.551,5.382,7.551S379.441,410.611,374.3,405.631Z" transform="translate(163.866 1321.774)"/><path d="M406.546,385.441s-5.3.643-8.033-.8c-2.811-1.446.321-9.238.321-9.238S405.5,378.372,406.546,385.441Z" transform="translate(159.333 1326.863)"/><path d="M396.867,406.09s-1.607-5.061-.643-8.113c.964-2.972,9.157-1.2,9.157-1.2S403.695,403.921,396.867,406.09Z" transform="translate(159.614 1322.761)"/><path d="M369.885,383.5s4.338,3.052,5.462,6.025c1.044,2.972-6.507,6.587-6.507,6.587S365.869,389.444,369.885,383.5Z" transform="translate(165.148 1325.269)"/><path d="M387.188,370.958s-.964,5.221-3.213,7.47c-2.249,2.169-8.675-3.133-8.675-3.133S380.2,369.753,387.188,370.958Z" transform="translate(163.669 1327.77)"/><g transform="translate(388.195 1561.61)"><path class="as" d="M191.375,200.3,187.6,210.582,198.765,200.3Z" transform="translate(-187.6 -200.3)"/><path class="as" d="M229.932,200.3H199.488L187.6,231.387l27.392-30.042L197.48,242.391Z" transform="translate(-187.6 -200.3)"/></g><g transform="translate(296.06 1498.553)"><path class="am" d="M583.82,124.385a33.048,33.048,0,0,0-6.426-.643H94.628c-2.57.08-4.9.161-6.828.321a92.583,92.583,0,0,1,10.844-.884c2.008,0,206.2.321,345.246.321,81.693,0,125.23-.08,129.407-.321.723,0,1.446-.08,2.089-.08A25.48,25.48,0,0,1,583.82,124.385Z" transform="translate(-75.831 -122.056)"/><path class="an" d="M572.374,121.8a19.576,19.576,0,0,0-2.169.08c-4.739.241-59.04.321-129.327.321-140.653,0-345.326-.321-345.326-.321s-21.367.562-22.652,5.543c0,0,3.213-2.41,18.636-2.811H574.382a30.429,30.429,0,0,1,13.093,2.892c.08-.08-2.812-5.7-15.1-5.7Z" transform="translate(-72.9 -121.8)"/></g><g transform="translate(354.205 1400.715)"><g transform="translate(124.082 13.736)"><path class="ac" d="M520.9,92.08c.321,1.767,1.044,4.177,3.052,5.462A7.449,7.449,0,0,0,527,94.49a6.406,6.406,0,0,0,.723-2.49,8.414,8.414,0,0,1-2.41.4,32.5,32.5,0,0,1-4.418-.321Z" transform="translate(-343.261 -31.835)"/><path class="ac" d="M379.825,94.467c-.8-1.928-1.928-4.257-3.133-6.667-.08,2.169,0,4.418.08,6.667Z" transform="translate(-314.885 -31.009)"/><path class="ac" d="M559.89,77.586a15.708,15.708,0,0,0,.884-5.141,14.885,14.885,0,0,0-.723-4.659A14.618,14.618,0,0,0,553.3,41.6a18.414,18.414,0,0,0-1.125-5.623,7.52,7.52,0,0,1-1.285-.321V76.462a8.681,8.681,0,0,1,6.426.482c1.366.643,5.784,3.293,5.462,10.121a13.32,13.32,0,0,1-9.559,11.888,15.95,15.95,0,0,1-4.82.8c-1.928,0-20.162.161-22.492-.08a9.587,9.587,0,0,1-7.149-4.1c-2.49-3.454-3.293-9,1.767-14.3l1.687-1.767c0-11.969.08-34.46.08-46.59l-1.366-1.2c-.562-.482-1.044-1.044-1.526-1.526a19,19,0,0,0-3.936,7.952l-1.366-.321a13.085,13.085,0,0,0,.884-4.739,13.8,13.8,0,0,0-3.936-9.639,9.231,9.231,0,0,1-4.82,7.792,11.384,11.384,0,0,1-11.406,13.174,6.493,6.493,0,0,1-1.285-.08c4.1,3.775,9.077,8.434,12.933,13.656a26.092,26.092,0,0,1,4.5,20.4,25.136,25.136,0,0,1-11.165,16.628,29.726,29.726,0,0,1-15.182,4.338h-6.908a23.432,23.432,0,0,1-2.651-.161,25.115,25.115,0,0,1-15.021-7.47c-7.952-7.952-8.274-19.279-5.061-26.91,2.57-6.266,6.667-9.961,11.969-10.924a52.249,52.249,0,0,1-4.418-5.462c-5.3-7.39-6.346-16.306-2.892-24.018A18.139,18.139,0,0,0,445.1,17.1h-.4c2.089,3.454,2.57,9.8-1.928,13.334l-1.928,1.125V76.381c12.611-.964,12.129,10.523,12.129,10.523-.321,7.149-6.747,12.772-14.7,12.772h0c-1.607,0-7.069.321-8.515-.161h-.08a17.845,17.845,0,0,1-2.972-.723,10.735,10.735,0,0,1-3.213.482,58.991,58.991,0,0,1-7.47-.08,9.587,9.587,0,0,1-7.149-4.1c-2.169-2.972-3.615-7.952,1.767-14.539l1.687-2.008-.08-46.67s-4.739-2.57-5.221-6.988a18.172,18.172,0,0,1,.08-4.177,17.982,17.982,0,0,0-6.667-1.446c1.044,3.213,1.044,7.39-1.848,12.451-.723,1.285-7.069,9.318-7.069,9.318H385.1s.321-6.667.241-7.229c-3.7,4.418-11.406,15.664-11.808,16.306a31.506,31.506,0,0,1,3.374,3.213,69.217,69.217,0,0,1,13.736,21.046,41.3,41.3,0,0,1,5.462,0,8.939,8.939,0,0,1,6.828,3.213c1.366,1.687,2.892,4.739,2.008,9.559-1.285,6.747-6.266,11.165-12.692,11.165-1.446,0-6.587.241-8.274-.161a16.921,16.921,0,0,1-2.892-.723c-12.21,4.659-17.029-.884-17.029-.884v.08l.964,4.177H358.51l-3.7-2.089a29.92,29.92,0,0,0-6.908-2.731c-4.016-.4-4.338.161-13.093.964-8.675.8-11.728-2.651-11.728-2.651a8.313,8.313,0,0,1-2.57-6.1c0-4.739,3.615-8.756,7.952-9a44.7,44.7,0,0,1,4.659-.08V65.055a8.254,8.254,0,0,1-1.526-3.293,10.483,10.483,0,0,1,1.526-8.033V30.354c-12.611,3.615-14.3-7.149-14.3-7.149a6.619,6.619,0,0,1-.08-1.767,15.07,15.07,0,0,0-1.285,27.954,17.725,17.725,0,0,0-6.025,24.018,17.308,17.308,0,0,0-6.426,28.757H568.084a21.088,21.088,0,0,0,.964-6.426A22.736,22.736,0,0,0,559.89,77.586Z" transform="translate(-299.756 -17.1)"/></g><path class="at" d="M159.462,98.521c-4.5.321-8.274-2.41-8.515-6.185l-2.651-39.6c-.241-3.775,3.133-6.988,7.631-7.229l117.438-7.711c4.5-.321,8.274,2.41,8.515,6.185l2.651,39.6c.241,3.775-3.133,6.988-7.631,7.229Z" transform="translate(-145.875 -7.43)"/><path class="au" d="M317.78,14.428a9.771,9.771,0,0,0-13.816.241,10.1,10.1,0,0,0-2.731,6.346,11.824,11.824,0,0,0-14.539,12.37l13.9-.884a8.8,8.8,0,0,1,5.462,1.285,15.153,15.153,0,0,1,10.041-13.495,10,10,0,0,1,1.767-5.864C317.86,14.509,317.86,14.509,317.78,14.428Z" transform="translate(-173.098 -2.299)"/><g transform="translate(0 28.089)"><g transform="translate(106.205)"><path class="am" d="M277.5,38.046l15.262-.884-3.374,6.747c-.8,1.526-1.446,4.9-2.089,8.756a33.7,33.7,0,0,1,11.647-2.972h.321a16.4,16.4,0,0,1,6.266.723l-.643-9.238c-.241-3.775-4.016-6.506-8.515-6.185l-18.154,1.2Z" transform="translate(-277.5 -34.968)"/></g><g transform="translate(40.336 2.275)"><path class="am" d="M240.162,48.243a58.788,58.788,0,0,1,4.82-10.443L195.5,41.093a12.661,12.661,0,0,1,1.928,1.2A8.689,8.689,0,0,1,200,45.431c2.972-2.731,6.185-4.418,9-4.579h.643a9.859,9.859,0,0,1,4.1.884l8.916-.241v-.241l18.716-1.848-.964,5.623C240.323,45.672,240.242,46.877,240.162,48.243Z" transform="translate(-195.5 -37.8)"/></g><g transform="translate(0 7.175)"><path class="am" d="M231.89,83.26a11.8,11.8,0,0,1-4.9,1.366,11.539,11.539,0,0,1-9.157-3.615,8.4,8.4,0,0,1-1.366-1.687,14.616,14.616,0,0,1-3.293,3.615,12.415,12.415,0,0,1-6.266,2.57,7.292,7.292,0,0,1-6.266-2.731c-.161-.161-.241-.321-.4-.482a14.149,14.149,0,0,1-8.193,3.615,9.419,9.419,0,0,1-7.069-2.41,5.405,5.405,0,0,1-1.125-1.2c-2.972,3.775-6.667,5.944-10.764,6.185h-1.044c-4.659-.08-8.193-1.687-10.523-4.9-3.856-5.221-2.972-13.174-1.446-19.2-.321-.562-.643-1.044-.884-1.526-2.651-4.82-2.329-14.3-.161-18.957l-6.1.4c-4.5.321-7.872,3.454-7.631,7.229l2.651,39.6c.241,3.775,4.016,6.506,8.515,6.185L229.8,92.5A22.1,22.1,0,0,1,231.89,83.26Z" transform="translate(-145.285 -43.9)"/></g><g transform="translate(108.293 26.534)"><path class="am" d="M307.813,84.708l-1.2-.482c-4.177-1.687-8.675-3.856-9.157-4.1l-4.418-2.169,2.731-4.1A16.354,16.354,0,0,0,298.334,68h-.723a18.723,18.723,0,0,0-4.338.964c-1.928.562-4.739,2.49-7.792,5.382-1.2,7.39-2.811,15.182-5.382,21.528l20.323-1.366c4.5-.321,7.872-3.454,7.631-7.229Z" transform="translate(-280.1 -68)"/></g></g><g transform="translate(4.503 32.441)"><path class="ac" d="M291.689,44.976c-.8,1.526-1.446,4.9-2.088,8.756a33.7,33.7,0,0,1,11.647-2.972h.321a25.366,25.366,0,0,1,3.534.08l-.482-6.908c-.161-2.169-2.651-3.7-5.543-3.534l-5.221.321Z" transform="translate(-178.179 -40.386)"/><path class="ac" d="M251.823,43.561l-.4,2.329a28.317,28.317,0,0,0-.321,3.374,62.486,62.486,0,0,1,2.41-5.864Z" transform="translate(-170.604 -40.979)"/><path class="ac" d="M232.992,84.382a11.8,11.8,0,0,1-4.9,1.366,11.539,11.539,0,0,1-9.157-3.615,8.4,8.4,0,0,1-1.366-1.687,14.616,14.616,0,0,1-3.293,3.615,12.415,12.415,0,0,1-6.266,2.57,7.292,7.292,0,0,1-6.266-2.731c-.161-.161-.241-.321-.4-.482a14.149,14.149,0,0,1-8.193,3.615,9.419,9.419,0,0,1-7.069-2.41,5.406,5.406,0,0,1-1.125-1.2c-2.972,3.775-6.667,5.944-10.764,6.185h-1.044c-4.659-.08-8.193-1.687-10.523-4.9-3.856-5.221-2.972-13.174-1.446-19.2-.321-.562-.643-1.044-.884-1.526-1.928-3.534-2.329-9.639-1.446-14.379l-2.892.161c-2.892.161-5.221,2.089-5.061,4.257l2.49,38.155c.161,2.169,2.651,3.7,5.543,3.534l72.053-4.739A28.641,28.641,0,0,1,232.992,84.382Z" transform="translate(-150.89 -42.198)"/><path class="ac" d="M201.321,47H201c0,.08.08.08.08.161A.617.617,0,0,0,201.321,47Z" transform="translate(-160.748 -41.687)"/><path class="ac" d="M297.626,80.129l-4.418-2.169,2.731-4.1A16.353,16.353,0,0,0,298.51,68h-.723a18.722,18.722,0,0,0-4.338.964c-1.928.562-4.739,2.49-7.792,5.382A124.673,124.673,0,0,1,281.4,93.062l19.118-1.285c2.892-.161,5.221-2.089,5.061-4.257l-.241-3.936C301.562,82.057,298.028,80.29,297.626,80.129Z" transform="translate(-176.565 -45.818)"/></g><path class="av" d="M158.46,93.562c-2.892.161-5.382-1.366-5.543-3.534l-2.49-38.155c-.161-2.169,2.089-4.016,5.061-4.257L271.32,39.984c2.892-.161,5.382,1.366,5.543,3.534l2.49,38.075h0l-2.651-39.6c-.161-2.249-2.651-3.856-5.623-3.7L153.64,46.009c-2.972.161-5.221,2.169-5.141,4.418l2.651,39.6c.161,2.249,2.651,3.856,5.623,3.7l111.655-7.39Z" transform="translate(-145.917 -7.532)"/><g transform="translate(4.422 32.441)"><g class="aw"><path class="ax" d="M159.59,77.664a1.448,1.448,0,1,1-1.526-1.366A1.488,1.488,0,0,1,159.59,77.664Z" transform="translate(-151.951 -47.449)"/><path class="ax" d="M192.189,97.012a3.767,3.767,0,0,1-3.615,4.1,3.884,3.884,0,0,1-4.177-3.615,3.9,3.9,0,0,1,7.792-.482Z" transform="translate(-157.399 -50.812)"/><path class="ax" d="M223.113,96.286a1.811,1.811,0,1,1-1.928-1.687A1.856,1.856,0,0,1,223.113,96.286Z" transform="translate(-164.306 -51.05)"/><path class="ax" d="M299.01,85.273a4.066,4.066,0,1,1-4.338-3.775A4.055,4.055,0,0,1,299.01,85.273Z" transform="translate(-178.351 -48.471)"/><path class="ax" d="M293.819,76.045a2.426,2.426,0,0,1-2.249,2.57A2.373,2.373,0,0,1,289,76.366a2.426,2.426,0,0,1,2.249-2.57A2.323,2.323,0,0,1,293.819,76.045Z" transform="translate(-177.979 -46.955)"/><path class="ax" d="M289.253,93.305a1.731,1.731,0,1,1-1.848-1.607A1.717,1.717,0,0,1,289.253,93.305Z" transform="translate(-177.349 -50.479)"/><path class="ax" d="M242.225,96.13a3.409,3.409,0,0,1-3.213,3.615,3.353,3.353,0,0,1-3.615-3.133A3.409,3.409,0,0,1,238.61,93,3.345,3.345,0,0,1,242.225,96.13Z" transform="translate(-167.432 -50.733)"/></g></g><path class="au" d="M630.81,96.6c-.8,0-1.607.08-2.41.161a22.581,22.581,0,0,1,5.3,14.539,22.811,22.811,0,0,1-.643,5.3H647.6a17.815,17.815,0,0,0,.241-2.972A17.038,17.038,0,0,0,630.81,96.6Z" transform="translate(-240.328 -19.004)"/><g transform="translate(28.046 89.886)"><path class="ay" d="M180.2,112.141l1.125,9.479,4.257-.241-1.125-9.479Z" transform="translate(-180.2 -111.9)"/></g><g transform="translate(107.65 84.584)"><path class="ay" d="M279.3,105.621l1.2,14.459,4.338.4-1.2-15.182Z" transform="translate(-279.3 -105.3)"/></g><path class="q" d="M242.686,102.2a9.037,9.037,0,0,1-8.515-4.659c-1.928-3.374-2.49-9.157.562-16.387a11.8,11.8,0,0,1-4.9,1.366,11.539,11.539,0,0,1-9.157-3.615,8.4,8.4,0,0,1-1.366-1.687,14.616,14.616,0,0,1-3.293,3.615,12.415,12.415,0,0,1-6.266,2.57,7.292,7.292,0,0,1-6.266-2.731c-.161-.161-.241-.321-.4-.482a14.149,14.149,0,0,1-8.193,3.615,9.419,9.419,0,0,1-7.069-2.41,5.406,5.406,0,0,1-1.125-1.2c-2.972,3.775-6.667,5.944-10.764,6.185H174.89c-4.659-.08-8.193-1.687-10.523-4.9-3.856-5.221-2.972-13.174-1.446-19.2-.321-.562-.643-1.044-.884-1.526-2.811-5.061-2.249-15.342.161-19.6l1.285-2.169h18.234l-.241.241a6.691,6.691,0,0,1,1.767-.241,10.375,10.375,0,0,1,7.229,2.249,8.689,8.689,0,0,1,2.57,3.133c2.972-2.731,6.185-4.418,9-4.579h.643a9.858,9.858,0,0,1,4.1.884l8.916-.241v-.241l18.716-1.848-.964,5.623a28.324,28.324,0,0,0-.321,3.374,58.592,58.592,0,0,1,4.82-10.443l1.125-1.767L255.94,33.2l-1.607,4.579L269.6,36.9l-3.374,6.747c-.8,1.526-1.446,4.9-2.089,8.756a33.7,33.7,0,0,1,11.647-2.972h.321c8.434-.482,12.049,3.936,13.415,6.587,3.775,6.988.643,17.27-1.526,20.162l-2.008,2.651-3.052-1.285c-4.177-1.687-8.675-3.856-9.157-4.1l-4.418-2.169,2.731-4.1a16.354,16.354,0,0,0,2.57-5.864h-.723a18.722,18.722,0,0,0-4.338.964c-1.928.562-4.739,2.49-7.792,5.382-1.607,10.041-3.936,21.046-8.595,27.713-3.052,4.1-6.747,6.587-10.523,6.828Z" transform="translate(-148.209 -6.531)"/><path class="az" d="M467.132,75.1V30.277l1.928-1.125c4.739-3.775,3.936-10.6,1.526-13.977a9.9,9.9,0,0,0-8.113-4.1c-.964,0-17.511-.241-20,.08a9.759,9.759,0,0,0-7.31,4.1c-1.526,2.089-2.008,5.462-1.687,8.434.482,4.418,5.221,6.988,5.221,6.988l.08,46.67-1.687,2.008c-5.382,6.587-3.936,11.567-1.767,14.539a10.1,10.1,0,0,0,7.149,4.1,58.989,58.989,0,0,0,7.47.08,10.735,10.735,0,0,0,3.213-.482,17.841,17.841,0,0,0,2.972.723h.08c1.526.482,6.908.161,8.515.161h0c7.872,0,14.3-5.623,14.7-12.772C479.262,85.622,479.743,74.216,467.132,75.1Z" transform="translate(-201.96 -2.162)"/><path class="am" d="M459.212,24.967V79.188h0a5.5,5.5,0,0,1,4.579-2.169,7.285,7.285,0,0,1,5.3,2.249,8.7,8.7,0,0,1,2.249,6.747c-.321,6.185-5.944,11-12.772,11h0a13.741,13.741,0,0,1-8.434-2.892,8.949,8.949,0,0,1-6.266,2.57,7.931,7.931,0,0,1-6.587-3.374c-1.928-2.651-2.892-6.587,1.687-12.29,0,0,1.285,4.338,2.089,4.1L440.9,24.887c-.161.241-2.329,3.615-2.329,3.615-4.1-2.892-3.374-9.157-1.446-11.728a7.931,7.931,0,0,1,6.587-3.374,8.963,8.963,0,0,1,6.346,2.731A9.31,9.31,0,0,1,456.4,13.4a7.931,7.931,0,0,1,6.587,3.374s4.98,7.31-1.928,12.531C461.059,29.3,460.5,24.324,459.212,24.967Z" transform="translate(-202.394 -2.636)"/><g transform="translate(235.108 13.002)"><path class="q" d="M461.37,83.11c3.454,9.559-3.936,7.551-3.936,1.848V24.31c.643-2.49,4.739-1.687,4.82,2.49,3.454-10.523-7.47-14.218-11.808-6.506-4.338-7.711-15.262-4.016-11.808,6.506.08-4.177,4.177-4.98,4.82-2.49l.161,62.655c-.643,2.49-4.739,1.687-4.82-2.49-3.374,10.282,6.988,14.057,11.487,6.988a1.41,1.41,0,0,1,.321.4c6.507,6.988,18.475,3.052,18.8-5.3C469.965,77.808,459.683,78.531,461.37,83.11Z" transform="translate(-437.973 -16.186)"/></g><path class="ba" d="M456.166,32.733a3.133,3.133,0,1,1-3.133-3.133A3.087,3.087,0,0,1,456.166,32.733Z" transform="translate(-205.212 -5.823)"/><path class="ba" d="M456.166,53.733a3.133,3.133,0,1,1-3.133-3.133A3.087,3.087,0,0,1,456.166,53.733Z" transform="translate(-205.212 -9.954)"/><path class="ba" d="M456.166,74.633a3.133,3.133,0,0,1-6.266,0,3.087,3.087,0,0,1,3.133-3.133A3.137,3.137,0,0,1,456.166,74.633Z" transform="translate(-205.212 -14.066)"/><path class="ba" d="M456.166,95.633a3.133,3.133,0,0,1-6.266,0,3.133,3.133,0,1,1,6.266,0Z" transform="translate(-205.212 -18.197)"/><path class="az" d="M544.2,56.175c-3.856-5.221-8.836-9.88-12.933-13.656a6.909,6.909,0,0,0,1.285.08,11.708,11.708,0,0,0,10.121-5.864,11.424,11.424,0,0,0,1.285-7.31,9.257,9.257,0,0,0,4.82-7.872A11.888,11.888,0,0,0,541.231,9.1c-2.972-1.285-14.057-.643-14.057-.643l.482,1.848a20,20,0,0,0-4.9-.643c-2.972,0-5.944-.321-8.836.161a21.153,21.153,0,0,0-16.065,11.567c-4.177,7.952-3.293,17.431,2.329,25.223a45.021,45.021,0,0,0,4.418,5.462c-5.221.964-9.318,4.659-11.969,10.924-3.213,7.711-2.892,18.957,5.061,26.91a25.568,25.568,0,0,0,15.021,7.47,13.009,13.009,0,0,0,2.651.161h6.908a29.725,29.725,0,0,0,15.182-4.338,25.325,25.325,0,0,0,11.165-16.628A25.806,25.806,0,0,0,544.2,56.175ZM514.964,75.614h0c1.767.161,3.293.321,4.5.321a8.413,8.413,0,0,0,2.41-.4,6.833,6.833,0,0,1-.723,2.49,6.613,6.613,0,0,1-3.052,3.052C516.008,79.791,515.285,77.381,514.964,75.614Z" transform="translate(-213.243 -1.633)"/><path class="am" d="M536.62,57.791c-3.856-5.221-9-9.961-13.174-13.816-3.374-3.133-6.346-5.864-7.39-7.711-.161-.241-.4-.723-.4-.723a5.617,5.617,0,0,1-.321-.884c-.08-.321-.161-.723-.241-1.044a3.928,3.928,0,0,1,.08-1.687,3.787,3.787,0,0,1,.482-1.2,4.807,4.807,0,0,1,3.936-2.329c2.008,0,3.775,1.526,4.338,4.418.8,4.177-6.908-.08-6.908-.08-.08,1.044,1.044,3.615,1.767,4.659a9.13,9.13,0,0,0,7.792,3.775,9.722,9.722,0,0,0,8.434-4.9,9.294,9.294,0,0,0,.723-7.47c2.892-.884,4.82-3.374,5.061-6.908.321-4.739-1.767-8.675-6.426-10.6a22.308,22.308,0,0,0-4.418-.482l.884,3.534a1.59,1.59,0,0,1,0,1.687.984.984,0,0,1-.964.562,4.757,4.757,0,0,1-2.249-.884h-.08a18.726,18.726,0,0,0-10.924-3.615c-6.908,0-13.254,4.1-16.708,10.683-3.775,7.31-2.972,16.065,2.169,23.295a46.959,46.959,0,0,0,7.31,8.274,7.794,7.794,0,0,0-1.366-.08c-6.346-.161-10.684,3.775-13.254,10.041-2.972,7.069-2.651,17.592,4.659,24.9a23.277,23.277,0,0,0,16.788,7.069,27.832,27.832,0,0,0,14.218-4.1A23.793,23.793,0,0,0,540.8,76.749,24.229,24.229,0,0,0,536.62,57.791ZM523.125,79.319a9.289,9.289,0,0,1-8.113,4.98h0c-4.579,0-7.711-3.454-8.274-9.318a6.5,6.5,0,0,1,.723-3.856c2.008,2.811,4.257,3.374,5.784,3.374,3.7,0,6.988-3.454,7.631-7.952a3.605,3.605,0,0,0,.08-.884C524.329,70.8,525.052,75.624,523.125,79.319Z" transform="translate(-213.692 -2.125)"/><g transform="translate(281.615 11.005)"><path class="q" d="M514.691,37.959c-5.623-9.639,8.836-16.869,11.969-5.061.8,3.052-1.848,4.659-5.623,3.7,6.266,7.39,17.511-.161,11.969-9.077,9.157.8,7.229-12.852.241-13.816,1.847,2.731-.723,8.113-6.346,4.418h0C510.674,6.551,491.878,27.6,504.489,45.269c7.551,10.6,11.969,10.041,17.913,18.154,16.065,22.251-15.182,33.657-17.27,12.29-.482-4.739,2.651-8.434,4.739-5.462,6.346,9.077,16.306-8.916,1.928-13.575-13.9-4.5-22.09,19.359-10.2,31.328,9.559,9.559,21.849,6.667,28.195,2.731,10.362-6.506,12.772-21.367,5.543-31.167C528.507,50.249,517.5,42.7,514.691,37.959Z" transform="translate(-495.87 -13.7)"/></g><path class="ba" d="M511.6,33.679a3.124,3.124,0,1,1-4.418,0A3.152,3.152,0,0,1,511.6,33.679Z" transform="translate(-216.302 -6.448)"/><path class="ba" d="M524.3,19.679a3.124,3.124,0,1,1-4.418,0A3.152,3.152,0,0,1,524.3,19.679Z" transform="translate(-218.801 -3.694)"/><path class="ba" d="M520.7,52.479a3.124,3.124,0,1,1-4.418,0A3.152,3.152,0,0,1,520.7,52.479Z" transform="translate(-218.092 -10.146)"/><path class="ba" d="M536.3,67.279a3.124,3.124,0,1,1-4.418,0A3.152,3.152,0,0,1,536.3,67.279Z" transform="translate(-221.161 -13.058)"/><path class="ba" d="M503.4,90.279a3.124,3.124,0,1,1-4.418,0A3.152,3.152,0,0,1,503.4,90.279Z" transform="translate(-214.689 -17.583)"/><path class="ba" d="M516,71.679a3.124,3.124,0,1,1-4.418,0A3.152,3.152,0,0,1,516,71.679Z" transform="translate(-217.168 -13.924)"/><path class="ba" d="M543.7,86.979a3.124,3.124,0,1,1-4.418,0A3.152,3.152,0,0,1,543.7,86.979Z" transform="translate(-222.617 -16.933)"/><path class="ba" d="M534.6,103.279a3.124,3.124,0,1,1-4.418,0A3.152,3.152,0,0,1,534.6,103.279Z" transform="translate(-220.827 -20.14)"/><path class="az" d="M329.016,11.229c-6.908,2.49-5.543,10.362-5.543,10.362s1.687,10.844,14.3,7.149V52.277a9.835,9.835,0,0,0-1.526,8.033,9.516,9.516,0,0,0,1.526,3.293V77.58a29.723,29.723,0,0,0-4.659.08c-4.338.161-7.952,4.177-7.952,9a8.634,8.634,0,0,0,2.571,6.1s3.052,3.374,11.728,2.651,9.077-1.366,13.093-.964a30.548,30.548,0,0,1,6.908,2.731l3.7,2.089h6.507l-.964-4.177v-.08s4.82,5.543,17.029.884a19.032,19.032,0,0,0,2.892.723c1.687.4,6.828.161,8.274.161,6.426,0,11.406-4.418,12.692-11.165.884-4.9-.562-7.872-2.008-9.559a8.939,8.939,0,0,0-6.828-3.213,41.27,41.27,0,0,0-5.462,0A69.217,69.217,0,0,0,381.55,51.795a41.466,41.466,0,0,0-3.374-3.213c.482-.643,8.193-11.969,11.808-16.306.08.562-.241,7.229-.241,7.229h6.507s6.346-8.033,7.069-9.318c4.1-7.31,2.33-12.692.08-15.985-2.33-3.454-6.266-5.3-11.246-5.3h-6.507c-5.462,0-11.246,2.41-14.62,6.266a62.351,62.351,0,0,0-4.82,6.828v-11H359.7s-6.025,3.133-6.185,3.133a39.746,39.746,0,0,1-5.784-2.249c-2.169-1.044-4.98-2.57-7.631-2.731C338.012,8.9,334.96,9.141,329.016,11.229Zm37.272,67.716a61.775,61.775,0,0,1-.08-6.667c1.2,2.41,2.329,4.739,3.133,6.667Z" transform="translate(-180.318 -1.751)"/><path d="M359.041,105.233c-2.49-6.506-1.928-13.254-1.928-27.633-3.856,3.133-11.165,3.534-13.816,1.2V95.593a6.522,6.522,0,0,1-.321,2.329c-1.687.562-3.615.241-5.784-1.607-6.266-5.3-13.013,12.21,5.382,8.033C347.956,103.706,354.7,102.582,359.041,105.233Z" transform="translate(-181.747 -15.266)"/><g transform="translate(144.852 8.836)"><path class="am" d="M400.066,77.591a6.984,6.984,0,0,0-5.382-2.49,5.8,5.8,0,0,0-4.82,2.249,4.328,4.328,0,0,0-.562,1.044c-2.892-7.39-6.1-15.1-15.182-24.9a27.054,27.054,0,0,0-4.579-4.1c.8-1.125,1.607-2.249,2.41-3.454,4.177-6.1,8.916-13.013,13.736-18.074l.08-.08.08-.08c1.848-2.329,3.213-3.133,3.936-3.133a.867.867,0,0,1,.643.321c.643.723,2.089,6.988,1.928,9.238,0,0,2.57-3.293,3.293-4.5,3.856-6.908,1.767-11.647.161-14.057-1.928-2.972-5.3-4.579-9.639-4.579-4.98,0-10.2,2.169-13.174,5.623-2.57,2.892-8.6,12.692-12.129,19.76-.884,1.767-1.687,3.374-2.41,4.98V14.454l-3.293,1.687a10.386,10.386,0,0,1-4.257.884,9.978,9.978,0,0,1-2.651-.321,37.76,37.76,0,0,1-7.229-2.651A13.723,13.723,0,0,0,335,12.285a10.069,10.069,0,0,0-4.338,1.044c-3.7,1.607-5.623,4.9-4.9,8.434a6.921,6.921,0,0,0,6.667,5.623h0a7.747,7.747,0,0,0,5.3-2.329l.241-.161c.643-.643,1.526-1.446,2.169-2.008V53.332a8.483,8.483,0,0,0-1.607,6.988,8.568,8.568,0,0,0,1.607,3.052V82.812a5.92,5.92,0,0,1-2.41-1.285A6.381,6.381,0,0,0,333.8,80c-3.374,0-6.346,3.293-6.346,7.069,0,3.293,2.41,7.069,9.077,7.069h0a24.436,24.436,0,0,0,5.543-.723c.4-.08.884-.08,1.285-.161a42.885,42.885,0,0,1,7.149-.562A20.343,20.343,0,0,1,361.91,96.87S357.894,86.427,358.456,71c.08-2.008,0-4.1,0-6.506V62.329a17.73,17.73,0,0,0,2.41-2.008c6.988,7.952,12.129,21.769,12.772,23.456.723,1.928.562,2.892.4,3.213-.08.161-.4.161-.562.161-2.731.08-6.1-4.257-6.1-4.257S365.284,95.1,375,95.584h0a9.451,9.451,0,0,0,7.069-3.374,1.441,1.441,0,0,0,.4-.562,11.557,11.557,0,0,0,8.354,3.7h0c5.543,0,9.8-3.775,10.844-9.639C402.4,81.527,401.19,78.957,400.066,77.591Z" transform="translate(-325.613 -11)"/><path class="am" d="M359.041,105.233c-2.49-6.506-1.928-13.254-1.928-27.633-3.856,3.133-11.165,3.534-13.816,1.2V95.593a6.522,6.522,0,0,1-.321,2.329c-1.687.562-3.615.241-5.784-1.607-6.266-5.3-13.013,12.21,5.382,8.033C347.956,103.706,354.7,102.582,359.041,105.233Z" transform="translate(-326.6 -24.102)"/></g><g transform="translate(147.058 11.143)"><path class="q" d="M395,81.931c1.928,6.025.161,8.193-2.089,2.972-3.936-9.318-6.025-17.592-16.788-29.4a24.845,24.845,0,0,0-6.1-4.98c5.221-7.39,11.246-16.949,17.672-23.7,6.185-8.033,10.041-2.41,9.479,2.49,7.47-18.074-11.969-18.395-18.957-10.6-2.329,2.57-8.193,12.049-11.808,19.279-1.928,3.775-3.454,7.229-4.9,10.121A23.353,23.353,0,0,0,350.1,51.246c-13.977,7.47-1.607,21.046,12.772,7.952.482-.482,1.044-.964,1.526-1.526,7.551,7.229,13.254,21.528,14.861,25.865,2.811,7.631-3.936,7.551-6.587,4.1C373.956,98,387.05,93.82,385.282,85.546c1.928,10.362,15.824,11.085,17.833.241C404.963,75.666,393.235,76.309,395,81.931ZM352.348,58.958c-7.952,1.767-.964-6.988,5.543-5.3.161.08.321.08.482.161C356.686,56.628,354.758,58.4,352.348,58.958Z" transform="translate(-331.431 -13.871)"/><path class="q" d="M336.666,24.224c3.133-2.972,5.462-5.221,6.185-1.687V52.258a15.968,15.968,0,0,1,4.257-3.293,25.354,25.354,0,0,1,9.559-3.052V19a12.98,12.98,0,0,1-8.515.723c-9-2.249-10.362-6.1-16.146-3.534C324.135,19.565,330.561,29.927,336.666,24.224Z" transform="translate(-328.359 -14.16)"/><path class="q" d="M357.114,77.6c-3.856,3.133-11.165,3.534-13.816,1.2V95.593a6.522,6.522,0,0,1-.321,2.329c-1.687.562-3.615.241-5.784-1.607-6.266-5.3-13.013,12.21,5.382,8.033,5.3-.643,12.129-1.767,16.467.964C356.551,98.726,357.114,91.979,357.114,77.6Z" transform="translate(-328.806 -26.409)"/></g><path class="ba" d="M357.366,29.933a3.133,3.133,0,1,1-3.133-3.133A3.137,3.137,0,0,1,357.366,29.933Z" transform="translate(-185.775 -5.272)"/><path class="ba" d="M357.366,50.033a3.133,3.133,0,1,1-3.133-3.133A3.19,3.19,0,0,1,357.366,50.033Z" transform="translate(-185.775 -9.227)"/><path class="ba" d="M357.366,94.433a3.133,3.133,0,1,1-6.266,0,3.087,3.087,0,0,1,3.133-3.133A3.137,3.137,0,0,1,357.366,94.433Z" transform="translate(-185.775 -17.961)"/><path class="ba" d="M378.4,44.779a3.124,3.124,0,1,1-4.418,0A3.152,3.152,0,0,1,378.4,44.779Z" transform="translate(-190.098 -8.631)"/><path class="ba" d="M391.5,25.879a3.124,3.124,0,1,1-4.418,0A3.152,3.152,0,0,1,391.5,25.879Z" transform="translate(-192.675 -4.913)"/><path class="ba" d="M384.7,71.979a3.124,3.124,0,1,1-4.418,0A3.152,3.152,0,0,1,384.7,71.979Z" transform="translate(-191.337 -13.983)"/><path class="ba" d="M396.5,92.379a3.124,3.124,0,1,1-4.418,0A3.152,3.152,0,0,1,396.5,92.379Z" transform="translate(-193.659 -17.996)"/><path class="az" d="M610.586,75.663a9.32,9.32,0,0,0-3.856-.884,9.053,9.053,0,0,0-2.57.4V34.375a7.822,7.822,0,0,0,2.731.482,9.174,9.174,0,0,0,6.587-2.811,10.549,10.549,0,0,0,2.731-8.193c-.4-7.229-6.828-12.852-14.7-12.852-1.526,0-19.921.08-22.17.4a9.587,9.587,0,0,0-7.149,4.1c-2.811,3.936-3.374,10.282,2.089,15.021l1.366,1.2c0,12.049-.08,34.621-.08,46.59l-1.687,1.767c-5.061,5.3-4.257,10.844-1.767,14.3a10.1,10.1,0,0,0,7.149,4.1c2.33.321,20.564.08,22.492.08a14.449,14.449,0,0,0,4.82-.8c5.543-1.848,9.318-6.506,9.559-11.888C616.369,78.957,611.951,76.306,610.586,75.663Z" transform="translate(-228.859 -2.164)"/><path class="am" d="M603.721,77.8c-2.41-1.125-5.3-.884-6.988.723a2.166,2.166,0,0,0-.562.643V31.213h0a5.12,5.12,0,0,0,2.169,1.687,5.87,5.87,0,0,0,2.41.482,8.851,8.851,0,0,0,1.446-.161,6.787,6.787,0,0,0,1.366-.4,6.419,6.419,0,0,0,2.169-1.446l.241-.241c.161-.161.241-.321.4-.482a2.441,2.441,0,0,0,.4-.562,9.35,9.35,0,0,0,1.366-5.7,9.4,9.4,0,0,0-.321-2.089c-1.285-5.141-6.346-9-12.451-9a14.627,14.627,0,0,0-4.177.643,13.026,13.026,0,0,0-3.374,1.607,8.408,8.408,0,0,0-.884.643,8.536,8.536,0,0,0-.884-.723,6.938,6.938,0,0,0-1.285-.8,9.118,9.118,0,0,0-4.1-1.044,7.286,7.286,0,0,0-3.454.8,9.119,9.119,0,0,0-1.847,1.2,5.542,5.542,0,0,0-1.285,1.446c-.08.08-.161.241-.241.321-.08.161-.161.241-.241.4a3.753,3.753,0,0,0-.4.8,4.645,4.645,0,0,0-.4,1.125c-.884,2.811-.643,6.587,3.052,9.8h0s1.125-2.329,1.687-3.534l.321-.643c0,4.338,0,18.154-.08,31.569V85.434c-.08-.161-1.044-1.687-1.607-2.731a.609.609,0,0,1-.161-.321c-.241-.4-.4-.643-.4-.643h0a13.975,13.975,0,0,0-1.446,1.767,9.039,9.039,0,0,0-.964,1.687,8.5,8.5,0,0,0-.723,4.739,2.344,2.344,0,0,0,.161.723A8.437,8.437,0,0,0,574,93.627a8.551,8.551,0,0,0,2.892,2.49c.321.161.562.241.884.4a8.4,8.4,0,0,0,2.892.482h0a3.012,3.012,0,0,0,.884-.08c.161,0,.321-.08.482-.08a.724.724,0,0,0,.4-.08c.241-.08.482-.161.8-.241h.08c.321-.08.562-.241.884-.321h0a8.875,8.875,0,0,0,3.052-2.169h0a13.412,13.412,0,0,0,8.434,3.052,15.07,15.07,0,0,0,4.177-.643c4.82-1.607,8.113-5.543,8.274-10.2C608.38,80.614,605.086,78.445,603.721,77.8Z" transform="translate(-229.304 -2.616)"/><path class="q" d="M587.466,91.148a8.516,8.516,0,0,1-3.534,3.454,7.07,7.07,0,0,1-1.2.4c-.161.08-.4.08-.562.161-.241,0-.4.08-.643.08h-1.2c-.4-.08-.8-.161-1.125-.241a5.329,5.329,0,0,1-2.41-1.607A6.392,6.392,0,0,1,575.1,89.22v-.08a11.524,11.524,0,0,1,.643-4.418h0a4.364,4.364,0,0,0,.723,2.49,1.752,1.752,0,0,0,.321.4,3.747,3.747,0,0,0,1.607.964,2.106,2.106,0,0,0,1.2-.161,2.081,2.081,0,0,0,.884-.8c.08-.161.161-.241.161-.4,0,0,.161-62.494.161-62.655a1.354,1.354,0,0,0-1.526-1.366,4.143,4.143,0,0,0-.884.161,2.412,2.412,0,0,0-.884.482,3.069,3.069,0,0,0-.723.723,4.088,4.088,0,0,0-.8,2.57h0a11.46,11.46,0,0,1-.482-5.784,6.016,6.016,0,0,1,.4-1.285,4.557,4.557,0,0,1,.643-1.044,4.209,4.209,0,0,1,.8-.884c.161-.161.321-.241.482-.4a5.992,5.992,0,0,1,.964-.562,5.577,5.577,0,0,1,1.044-.4c2.57-.723,5.623.321,7.631,3.454a1.41,1.41,0,0,0,.321-.4c6.506-6.988,18.475-3.052,18.8,5.3.4,8.675-9.8,7.952-8.193,3.374,1.526-4.177.964-6.185-.161-6.587a1.972,1.972,0,0,0-1.606.241c-.08.08-.161.08-.241.161a4.3,4.3,0,0,0-1.2,1.446c-.08.161-.161.241-.161.4-.08.241-.241.562-.321.884a8.9,8.9,0,0,0-.161,1.526V85.123h0a6.287,6.287,0,0,0,1.044,3.454,3.164,3.164,0,0,0,2.088,1.366c1.366,0,2.33-1.848.643-6.667a2.226,2.226,0,0,1,1.285-2.972c.08-.08.241-.08.321-.161a5.1,5.1,0,0,1,5.864,2.57,5.215,5.215,0,0,1,.562,1.687,9.17,9.17,0,0,1,.161,2.169h0s-.4,7.711-9.639,9.4C596.783,96.048,589.875,96.289,587.466,91.148Z" transform="translate(-229.837 -3.19)"/><g transform="translate(354.415 24.178)"><path class="ba" d="M592.766,33.233a3.133,3.133,0,1,1-3.133-3.133A3.087,3.087,0,0,1,592.766,33.233Z" transform="translate(-586.5 -30.1)"/><path class="ba" d="M592.766,54.133A3.133,3.133,0,1,1,589.633,51,3.137,3.137,0,0,1,592.766,54.133Z" transform="translate(-586.5 -34.212)"/><path class="ba" d="M592.766,75.133A3.133,3.133,0,1,1,589.633,72,3.087,3.087,0,0,1,592.766,75.133Z" transform="translate(-586.5 -38.343)"/><path class="ba" d="M592.766,96.133a3.133,3.133,0,0,1-6.266,0,3.133,3.133,0,0,1,6.266,0Z" transform="translate(-586.5 -42.474)"/></g><path class="bb" d="M385.2,59.9h3.856c2.169,1.044,12.852,13.174,15.664,21.929-5.061,0-4.177-.08-4.177-.08S397.57,71.949,385.2,59.9Z" transform="translate(-192.483 -11.784)"/><path class="bb" d="M338.734,11.38c-1.848,0,6.346-.08,6.346-.08,2.329,1.044,7.711,4.1,10.924,4.177,0,0-2.329,2.169-10.6-1.848A12.661,12.661,0,0,0,338.734,11.38Z" transform="translate(-183.288 -2.223)"/><path class="bb" d="M368.9,13.3h4.418V26.715l-4.418,7.31Z" transform="translate(-189.276 -2.616)"/><rect class="bb" width="4.338" height="39.923" transform="translate(258.826 29.962)"/><path class="bb" d="M540.636,54.98c4.82,3.7,13.816,12.933,14.86,20.724h-4.1a21.15,21.15,0,0,0-3.454-8.434C544.893,62.611,536.7,54.9,536.7,54.9Z" transform="translate(-222.288 -10.8)"/><rect class="bb" width="4.338" height="35.585" transform="translate(368.633 34.621)"/><path class="bb" d="M407.1,10.379s6.667-1.044,11,4.1h-4.9C413.285,14.4,412.08,11.664,407.1,10.379Z" transform="translate(-196.792 -2.025)"/><path class="bb" d="M415.5,89.981s7.551-1.125,10.2,5.3h-4.9C420.882,95.363,420.239,91.508,415.5,89.981Z" transform="translate(-198.444 -17.687)"/><path class="bb" d="M467.3,12.778s7.069-1.2,9.479,5.3h-5.061A8.792,8.792,0,0,0,467.3,12.778Z" transform="translate(-208.635 -2.497)"/><path class="bb" d="M613.9,92.786s6.506-.964,8.6,5.061h-4.98S617.675,95.357,613.9,92.786Z" transform="translate(-237.475 -18.243)"/><path class="bb" d="M609.9,13.3s6.989-.08,10.121,5.221h-4.5C615.523,18.6,614.8,16.111,609.9,13.3Z" transform="translate(-236.688 -2.616)"/><path class="bb" d="M548.2,10.867s5.543-1.446,8.916,5.141h-4.579A9.518,9.518,0,0,0,548.2,10.867Z" transform="translate(-224.55 -2.111)"/><path class="au" d="M569.779,16.81a16.468,16.468,0,0,0-8.595-2.41,3.3,3.3,0,0,0-.884.08,12.366,12.366,0,0,1,2.169,8.274v.08a13.8,13.8,0,0,1,3.936,9.639,13.086,13.086,0,0,1-.884,4.739l1.366.321a19,19,0,0,1,3.936-7.952A10.622,10.622,0,0,1,569.779,16.81Z" transform="translate(-226.93 -2.833)"/><path class="au" d="M468.007,8.916a9.9,9.9,0,0,1,8.113,4.1,4.481,4.481,0,0,1,.4.643h.4a18.139,18.139,0,0,1,14.539,7.31c.161-.4.4-.884.562-1.285a22.126,22.126,0,0,1,9.318-9.479,11.447,11.447,0,0,0-13.093-5.061A16.488,16.488,0,0,0,476.2,0a16.752,16.752,0,0,0-14.7,8.836C464.954,8.916,467.6,8.916,468.007,8.916Z" transform="translate(-207.494 0)"/><g transform="translate(14.033 28.837)"><path class="am" d="M288.342,57.267c-1.446-2.731-4.659-5.864-11.567-5.543h-.321a33.637,33.637,0,0,0-14.3,4.5c.884-5.784,1.767-10.844,2.892-13.093l1.847-3.7-14.78.884,1.526-4.418-12.772,1.526-.562.964a55.222,55.222,0,0,0-6.587,17.351c-.321-.562-.643-1.125-.884-1.526-1.446-2.811-.964-8.193-.643-10.041l.562-3.052-14.379,1.446v.4l-11.246.241v.08a9.742,9.742,0,0,0-3.856-.964h-.482c-2.892.161-6.667,2.49-9.961,6.346a8.071,8.071,0,0,0-2.972-5.3A8.288,8.288,0,0,0,184,41.523c-3.856.241-7.39,2.972-10.121,5.784a12.3,12.3,0,0,1,1.285-2.008l3.052-3.7H165.2l-.643,1.2c-2.169,3.7-2.57,13.254-.161,17.672a18.156,18.156,0,0,0,1.285,2.088c-1.607,5.944-2.651,13.575.884,18.395,1.928,2.651,4.98,4.016,8.916,4.1h.884c4.82-.321,8.515-3.615,11-7.792a10.3,10.3,0,0,0,2.41,3.293,7.735,7.735,0,0,0,5.7,1.928h0c3.133-.241,6.266-2.089,8.916-4.98a10.136,10.136,0,0,0,1.285,2.651,5.06,5.06,0,0,0,4.579,2.008h0A10.111,10.111,0,0,0,215.486,80a17.069,17.069,0,0,0,4.659-6.185,10.2,10.2,0,0,0,10.2,7.551h0a11.189,11.189,0,0,0,9.479-6.988,8.156,8.156,0,0,0,2.008.482c-.482.643-.884,1.285-1.366,1.928-6.266,9.318-6.185,16.708-4.016,20.564a7.057,7.057,0,0,0,6.667,3.7c3.133-.241,6.346-2.41,9-6.185,4.418-6.346,6.747-17.431,8.354-27.552,3.534-3.374,6.667-5.623,9.077-6.346a31.288,31.288,0,0,1,4.82-1.044c1.366-.08,2.41.08,2.651.562.723,1.2-.562,5.061-2.731,8.274L272.759,71l2.41,1.2c.161.08,4.82,2.329,9.077,4.1l1.687.643,1.125-1.446C288.824,72.85,291.636,63.452,288.342,57.267Z" transform="translate(-162.754 -35.9)"/><path class="w" d="M277.387,54.862c-6.1.321-12.21,2.972-17.833,6.828,1.2-8.354,2.249-15.664,3.856-18.8l-7.149.4c-1.526,2.57-.723,26.829-10.764,25.383C235.376,67.152,250,39.6,250,39.6l-7.229.8s-7.872,12.933-6.667,24.339c-1.607-3.213-3.775-6.506-4.9-8.675-2.169-4.177-.884-11.567-.884-11.567l-9.157.884c.08,8.675-7.952,31.087-9.8,29.56-2.41-2.089,6.587-28.918,6.587-28.918l-8.033.241a28.5,28.5,0,0,1-.482,5.141c-.08-3.936-2.57-5.944-5.784-6.025-4.338-.08-13.174,7.792-14.941,19.2-.964.08-3.133.241-6.1.723.321,4.659-4.177,17.511-8.6,12.852-2.49-2.651-2.892-7.551-1.928-12.852a13.633,13.633,0,0,0,6.266.4c8.033-.964,16.628-14.861,10.443-19.76-6.266-4.82-14.057,4.338-17.27,9.4a19.008,19.008,0,0,0-1.125,2.249c-.884-4.1.643-9.8,3.293-13.093h-6.747c-1.607,2.811-2.249,11.567-.161,15.342a18.742,18.742,0,0,0,1.767,2.811c-2.49,8.354-3.775,20.4,7.31,20.564,6.346.08,10.684-6.506,12.531-13.174h0c.964,16.788,14.3,11.165,18.636-.562-1.125,3.7-1.2,15.1,7.47,9,6.025-4.257,10.684-26.106,10.684-26.106-.8,6.1,11.085,18.556,5.864,21.126-2.169,1.044-3.052-2.892-3.052-2.892L222.6,72.695a6.69,6.69,0,0,0,2.089,4.338c5.3,5.382,13.013.562,13.575-4.739a10.707,10.707,0,0,0,0-1.607c2.008,2.169,5.462,2.892,9.157,1.526a66.632,66.632,0,0,0-4.739,6.185c-11.406,16.949-.643,27.472,7.792,15.342,4.257-6.025,6.426-16.949,8.113-27.311,3.7-3.615,7.39-6.507,10.523-7.39,15.664-4.82,10.362,6.988,7.39,11.406,0,0,4.659,2.329,8.916,4.016C287.669,71.891,292.488,54.059,277.387,54.862Zm-93.661-4.1c4.338.562-.161,12.129-8.033,11.647a6.049,6.049,0,0,1-2.57-.723c.08-.4.241-.723.321-1.125C175.05,55.826,180.111,50.284,183.725,50.765Zm11.647,22.652c-4.418-4.98,5.061-24.66,8.434-23.295,3.052,1.2-3.133,8.595-3.133,8.595l6.266,1.526a16.055,16.055,0,0,0,.8-1.687C204.45,68.518,198.425,76.952,195.373,73.418Zm46.911,17.592c-.8-1.848,4.579-10.844,11.326-18.877C250.557,81.611,244.854,97.114,242.284,91.009Z" transform="translate(-163.286 -36.628)"/></g></g><g transform="translate(543.387 1518.11)"><path class="bc" d="M447.6,200.3l45.465,3.213-4.9,34.3.241.08a1.325,1.325,0,0,1,1.044,1.526l-3.374,17.029a1.235,1.235,0,0,1-1.366.964h0a1.235,1.235,0,0,1-.964-1.366l1.2-6.185-.643-.161-1.366,7.149a1.235,1.235,0,0,1-1.366.964h0a1.235,1.235,0,0,1-.964-1.366l1.366-7.149-.643-.161-1.526,7.631a1.235,1.235,0,0,1-1.366.964h0a1.235,1.235,0,0,1-.964-1.366l1.526-7.631-.643-.161-1.2,6.185a1.235,1.235,0,0,1-1.366.964h0a1.235,1.235,0,0,1-.964-1.366l2.972-14.941-4.98-.964a1.325,1.325,0,0,1-1.044-1.526l.161-.8a1.325,1.325,0,0,1,1.526-1.044l6.587,1.285,2.811-21.769-22.331-2.651Z" transform="translate(-393.941 -156.8)"/><path class="bd" d="M389.636,198.846l-8.836,30.2,15.9,5.462,2.49-17.592.884,45.385h42.654l1.2-47.714,20.644.723L463.7,199.97l-34.782-2.57Z" transform="translate(-380.8 -156.23)"/><g transform="translate(33.496 49.524)"><circle class="c" cx="20.242" cy="20.242" r="20.242"/><circle class="ag" cx="7.069" cy="7.069" r="7.069" transform="translate(13.174 13.174)"/><circle cx="0.884" cy="0.884" r="0.884" transform="translate(19.359 19.359)"/><path class="be" d="M447.7,215.3a14.193,14.193,0,0,1,14.218,14.218" transform="translate(-427.458 -209.275)"/><path class="bf" d="M447.7,219.5a10.85,10.85,0,0,1,10.844,10.844" transform="translate(-427.458 -210.102)"/><path class="be" d="M447.7,211.2a17.552,17.552,0,0,1,17.511,17.511" transform="translate(-427.458 -208.469)"/></g><path class="bc" d="M423.529,227.875h0a1.189,1.189,0,0,1-.321,1.687l-5.221,3.615.321.482,5.944-4.177a1.189,1.189,0,0,1,1.687.321h0a1.189,1.189,0,0,1-.321,1.687l-5.944,4.177.321.482,6.346-4.418a1.189,1.189,0,0,1,1.687.321h0a1.189,1.189,0,0,1-.321,1.687l-6.346,4.418.321.482,5.221-3.615a1.189,1.189,0,0,1,1.687.321h0a1.189,1.189,0,0,1-.321,1.687l-14.138,9.88a1.383,1.383,0,0,1-1.848-.321L382,263.38l1.446-27.552,11.165,3.856-2.008,7.31,14.7-7.631a1.3,1.3,0,0,1-.241-.723,1.279,1.279,0,0,1,.241-1.044l4.177-5.543c1.928-2.329,2.892-.964,3.534-.562,0,0-2.811,2.731-2.731,2.972l9.639-6.908A1.178,1.178,0,0,1,423.529,227.875Z" transform="translate(-381.036 -162.125)"/><path class="bg" d="M444.791,191.642a44.9,44.9,0,0,1-.884-12.692,8.074,8.074,0,0,0-.321-3.936,6.4,6.4,0,0,1-.643-1.285,4.455,4.455,0,0,1-.241-1.366A24.385,24.385,0,0,0,441.1,166.5a3.734,3.734,0,0,1-1.687.4H413.7a3.752,3.752,0,0,1-1.366-.241c0,.08,0,.08-.08.161a23,23,0,0,0-1.285,6.1,13.4,13.4,0,0,1-.161,2.57,11.86,11.86,0,0,1-.8,2.169,19.766,19.766,0,0,0-.884,8.113,10.547,10.547,0,0,1-.08,2.249c-.321,1.285-1.526,2.329-1.446,3.7a13.31,13.31,0,0,1,3.052-.884c.643-.08,1.285-.161,1.848-.241,1.044-.08,2.008-.161,3.052-.161,1.526-.08,3.133-.08,4.659-.161,2.892-.08,5.784-.08,8.675-.161h1.526c3.7-.08,7.39-.08,11.085-.161a3.329,3.329,0,0,1,1.285.161,1.034,1.034,0,0,1,.643,1.044A1.89,1.89,0,0,1,444.791,191.642Z" transform="translate(-386.071 -150.151)"/><path class="bc" d="M444.04,174.833c-.321-2.731-1.366-4.82-2.41-4.9a18.262,18.262,0,0,0-1.285-3.133H413.917c-.482.964-.884,2.089-1.285,3.133h-.08c-1.125-.161-2.249,2.089-2.57,4.9s.4,5.3,1.526,5.382h.08c.964,10.121,7.551,17.993,15.583,17.993s14.62-7.872,15.583-18.074C443.719,179.893,444.361,177.564,444.04,174.833Z" transform="translate(-386.526 -150.21)"/><g transform="translate(39.521 19.562)"><path class="bh" d="M430.884,180.38h-.643a.241.241,0,0,1,0-.482h.321a5.273,5.273,0,0,0,3.454-.8,3.731,3.731,0,0,0-.482-1.848c-.08-.241-.241-.482-.321-.723a16.263,16.263,0,0,1-.8-5.784.241.241,0,0,1,.482,0,15.361,15.361,0,0,0,.8,5.623,2.855,2.855,0,0,0,.321.723,3.24,3.24,0,0,1,.482,2.169v.08l-.08.08A5.28,5.28,0,0,1,430.884,180.38Z" transform="translate(-430 -170.5)"/></g><ellipse class="bh" cx="1.125" cy="0.964" rx="1.125" ry="0.964" transform="translate(33.255 22.855)"/><ellipse class="bh" cx="1.125" cy="0.964" rx="1.125" ry="0.964" transform="translate(45.786 22.855)"/><path class="bd" d="M424.9,192.6s4.016,2.008,10.362,0C435.262,192.6,427.229,193.4,424.9,192.6Z" transform="translate(-389.476 -155.286)"/><path class="bi" d="M440.6,154.222a24.247,24.247,0,0,0-.723-2.41c-.321-1.2-1.044-2.651-2.329-2.49-2.811-1.044-5.7-2.089-8.515-2.972a2.016,2.016,0,0,0-1.526-.08c-.723.321-.964,1.526-1.767,1.687-.8.241-1.687-.643-2.41-.241-.241.161-.4.482-.723.562-.4.161-.884-.08-1.366-.161a2.883,2.883,0,0,0-2.089,1.125c-.643.562-1.526,1.044-2.169.643l-.723,1.687c.161-.562-.8-.482-1.2-.08a7.057,7.057,0,0,0-1.526,2.731,3.552,3.552,0,0,0-2.731,3.534v1.366a3.6,3.6,0,0,0,3.615,3.615h25.7a3.6,3.6,0,0,0,3.615-3.615v-1.366A3.763,3.763,0,0,0,440.6,154.222Z" transform="translate(-386.702 -146.147)"/><path class="bg" d="M440.61,166.78H414.9a2.224,2.224,0,0,1-.723-.08l-.482,1.687c2.41-.161,4.82-.321,7.229-.4a9.234,9.234,0,0,1,2.972.08,22.588,22.588,0,0,1,2.49.8c3.615.8,7.47-2.089,11.085-.884.321-.321.562-.723.884-1.044a4.9,4.9,0,0,0,3.293,1.2c-.08-.482-.241-.884-.321-1.366Z" transform="translate(-387.272 -150.19)"/><circle class="bj" cx="3.856" cy="3.856" r="3.856" transform="translate(30.364 20.526)"/><circle class="bj" cx="3.856" cy="3.856" r="3.856" transform="translate(43.778 20.526)"/><path class="bj" d="M433.985,174.654s-2.089-4.1-6.185,0" transform="translate(-390.046 -151.397)"/><line class="bj" y1="2.892" x2="4.097" transform="translate(51.008 19.723)"/><line class="bj" x1="4.498" y1="3.695" transform="translate(26.106 19.723)"/></g><rect class="d" width="57.836" height="12.852" transform="translate(611.183 1608.521)"/><rect class="d" width="57.836" height="12.852" transform="translate(500.332 1608.521)"/><rect class="g" width="37.754" height="12.852" transform="translate(565.799 1608.521)"/></svg>