<svg id="Ebene_1" data-name="Ebene 1" xmlns="http://www.w3.org/2000/svg" xmlns:xlink="http://www.w3.org/1999/xlink" width="1920" height="1080" viewBox="0 0 1920 1080">
  <defs>
    <style>
      .cls-1, .cls-24, .cls-42 {
        fill: none;
      }

      .cls-2 {
        fill: #61c2f7;
      }

      .cls-3 {
        fill: #c8f8fc;
      }

      .cls-4 {
        fill: #abdadb;
      }

      .cls-34, .cls-5 {
        fill: #fff;
      }

      .cls-6 {
        fill: #698e8e;
      }

      .cls-7 {
        fill: #455396;
      }

      .cls-8 {
        fill: #131c54;
      }

      .cls-9 {
        fill: #3a2a0d;
      }

      .cls-10 {
        fill: #385e48;
      }

      .cls-11 {
        fill: #0e1535;
      }

      .cls-12 {
        fill: #630;
      }

      .cls-13 {
        fill: #514c4c;
      }

      .cls-14 {
        fill: #666;
      }

      .cls-15 {
        fill: #333;
      }

      .cls-16 {
        fill: #fbc500;
      }

      .cls-17 {
        fill: #488490;
      }

      .cls-18 {
        fill: #82ccdd;
      }

      .cls-19 {
        fill: #989898;
      }

      .cls-20 {
        fill: #e8ab17;
      }

      .cls-21 {
        fill: #e1c240;
      }

      .cls-22 {
        fill: #cccbcb;
      }

      .cls-23, .cls-24, .cls-38 {
        stroke: #fff;
      }

      .cls-23, .cls-24 {
        stroke-width: 0.22px;
      }

      .cls-25 {
        clip-path: url(#clip-path);
      }

      .cls-26 {
        fill: #75c7d6;
      }

      .cls-27 {
        fill: #69668c;
      }

      .cls-28 {
        fill: #d3a9cf;
      }

      .cls-29 {
        fill: #bc6aa7;
      }

      .cls-30 {
        fill: #dbdbc2;
      }

      .cls-31 {
        fill: url(#Unbenannter_Verlauf_7);
      }

      .cls-32, .cls-33 {
        fill: #64350d;
      }

      .cls-33 {
        opacity: 0.74;
      }

      .cls-34 {
        opacity: 0.22;
      }

      .cls-35 {
        fill: url(#Unbenannter_Verlauf_17);
      }

      .cls-36 {
        fill: #f39719;
      }

      .cls-37 {
        fill: #478491;
      }

      .cls-38 {
        fill: #0cf;
        stroke-linejoin: round;
        stroke-width: 0.14px;
      }

      .cls-38, .cls-42 {
        stroke-linecap: round;
      }

      .cls-39 {
        fill: #86c16d;
      }

      .cls-40 {
        fill: #d466c3;
      }

      .cls-41 {
        fill: #ff0;
      }

      .cls-42 {
        stroke: #366;
        stroke-miterlimit: 10;
        stroke-width: 4.82px;
      }

      .cls-43 {
        fill: #bc7917;
      }

      .cls-44 {
        fill: #16abbf;
      }

      .cls-45 {
        clip-path: url(#clip-path-2);
      }

      .cls-46 {
        clip-path: url(#clip-path-3);
      }

      .cls-47 {
        clip-path: url(#clip-path-4);
      }

      .cls-48 {
        clip-path: url(#clip-path-5);
      }
    </style>
    <clipPath id="clip-path">
      <path class="cls-1" d="M1923,627.11c.06,1-1,1.85-2.32,1.94l-53.34,3.52c-1.34.09-2.49-.64-2.55-1.62l-1.16-17.5c-.06-1,1-1.85,2.32-1.94l53.34-3.52c1.34-.09,2.49.63,2.55,1.62Z"/>
    </clipPath>
    <linearGradient id="Unbenannter_Verlauf_7" data-name="Unbenannter Verlauf 7" x1="1953.62" y1="707" x2="1953.62" y2="687.17" gradientUnits="userSpaceOnUse">
      <stop offset="0" stop-color="#488490"/>
      <stop offset="1" stop-color="#82ccdd"/>
    </linearGradient>
    <linearGradient id="Unbenannter_Verlauf_17" data-name="Unbenannter Verlauf 17" x1="1958.19" y1="662.18" x2="1958.19" y2="650.13" gradientUnits="userSpaceOnUse">
      <stop offset="0" stop-color="#e8ab17"/>
      <stop offset="1" stop-color="#e1c240"/>
    </linearGradient>
    <clipPath id="clip-path-2">
      <path class="cls-1" d="M94.37,937.06s-9.61,347.33,2.4,373.73c5.43,11.94,23.07,25.45,33.31,29.51,20.92,8.31,50.91-.85,73.48,2.75,24.55,3.92,48.89,13.48,74.12,12.19,15.18-.77,29.29-6.41,44.73-6.94,15.62-.53,25.24-3.63,39.68-8.37,15.89-5.22,57.23-6.17,45.54-38.87V935.67Z"/>
    </clipPath>
    <clipPath id="clip-path-3">
      <path class="cls-1" d="M582.37,959.06s-9.61,347.33,2.4,373.73c5.43,11.94,23.07,25.45,33.31,29.51,20.92,8.31,50.91-.85,73.48,2.75,24.55,3.92,48.89,13.48,74.12,12.19,15.18-.77,29.29-6.41,44.73-6.94,15.62-.53,25.24-3.63,39.68-8.37,15.89-5.22,57.23-6.17,45.54-38.87V957.67Z"/>
    </clipPath>
    <clipPath id="clip-path-4">
      <path class="cls-1" d="M1057.37,979.06s-9.61,347.33,2.4,373.73c5.43,11.94,23.07,25.45,33.31,29.51,20.92,8.31,50.91-.85,73.48,2.75,24.55,3.92,48.89,13.48,74.12,12.19,15.18-.77,29.29-6.41,44.73-6.94,15.62-.53,25.24-3.63,39.68-8.37,15.89-5.22,57.23-6.17,45.54-38.87V977.67Z"/>
    </clipPath>
    <clipPath id="clip-path-5">
      <path class="cls-1" d="M1540.37,950.06s-9.61,347.33,2.4,373.73c5.43,11.94,23.07,25.45,33.31,29.51,20.92,8.31,50.91-.85,73.48,2.75,24.55,3.92,48.89,13.48,74.12,12.19,15.18-.77,29.29-6.41,44.73-6.94,15.62-.53,25.24-3.63,39.68-8.37,15.89-5.22,57.23-6.17,45.54-38.87V948.67Z"/>
    </clipPath>
  </defs>
  <title>2017-03-Aufriss-easyKisi-Streets_Final</title>
  <rect class="cls-2" x="-8" y="-225.03" width="1934" height="531.03"/>
  <rect class="cls-3" x="-6" y="33" width="1935" height="26"/>
  <rect class="cls-4" x="-6" y="67" width="1935" height="41.36"/>
  <path class="cls-5" d="M837.49,131.23a36.93,36.93,0,0,0,8.33-.95,22.15,22.15,0,0,0,41.42,2.6A44.31,44.31,0,1,0,911.72,58a36.91,36.91,0,0,0-61.12,1.85,36.91,36.91,0,1,0-13.11,71.42Z"/>
  <rect class="cls-6" x="-6" y="117.74" width="1935" height="62.41"/>
  <path class="cls-5" d="M436.6,113.27a45.58,45.58,0,0,0-10.31,1.19A27.41,27.41,0,0,0,375,111.23,54.83,54.83,0,1,0,344.75,204a45.66,45.66,0,0,0,75.63-2.29,45.68,45.68,0,1,0,16.22-88.39Z"/>
  <rect class="cls-7" x="-6" y="191.09" width="1935" height="79.05"/>
  <path class="cls-5" d="M172.71,242.14a58,58,0,0,0-13.06,1.5,34.72,34.72,0,0,0-64.92-4.08A69.43,69.43,0,1,0,56.38,357a57.83,57.83,0,0,0,95.78-2.9,57.86,57.86,0,1,0,20.55-111.95Z"/>
  <path class="cls-5" d="M1922.13,245.45a35,35,0,0,0-17.79,4.82A52.87,52.87,0,0,0,1803,233.52a61.66,61.66,0,0,0-92.8-4.33,56.42,56.42,0,0,0-50.38-7,40.29,40.29,0,0,0-76.91,2.19,32.24,32.24,0,0,0-46.62,12.91,32.24,32.24,0,1,0,5,58,48.36,48.36,0,0,0,92.7,15.32,56.38,56.38,0,0,0,80.57,8,61.64,61.64,0,0,0,60.19,11.55,44.06,44.06,0,0,0,84.1-2.4,35.23,35.23,0,0,0,51-14.12,35.25,35.25,0,1,0,12.35-68.26Z"/>
  <rect class="cls-8" x="-6" y="282.32" width="1935" height="277.68"/>
  <rect class="cls-9" x="-8" y="554" width="1934" height="202"/>
  <rect class="cls-10" x="-3" y="758" width="1936" height="323"/>
  <g>
    <polygon class="cls-11" points="118.09 418.7 78.56 542.93 118.09 542.93 157.62 542.93 118.09 418.7"/>
    <rect class="cls-11" x="112.44" y="542.93" width="11.29" height="33.88"/>
    <polygon class="cls-11" points="186.94 449.62 165.18 535.99 186.94 535.99 208.72 535.99 186.94 449.62"/>
    <rect class="cls-11" x="183.83" y="535.99" width="6.22" height="18.66"/>
  </g>
  <g>
    <rect class="cls-11" x="263.97" y="483.76" width="13.28" height="79.07"/>
    <circle class="cls-11" cx="271.67" cy="434.91" r="50.33"/>
  </g>
  <g>
    <polygon class="cls-11" points="1786.09 418.7 1746.56 542.93 1786.09 542.93 1825.62 542.93 1786.09 418.7"/>
    <rect class="cls-11" x="1780.44" y="542.93" width="11.29" height="33.88"/>
    <polygon class="cls-11" points="1854.94 449.62 1833.17 535.99 1854.94 535.99 1876.71 535.99 1854.94 449.62"/>
    <rect class="cls-11" x="1851.83" y="535.99" width="6.22" height="18.66"/>
  </g>
  <g>
    <rect class="cls-11" x="1625.97" y="480.76" width="13.28" height="79.07"/>
    <circle class="cls-11" cx="1633.67" cy="431.91" r="50.33"/>
  </g>
  <rect class="cls-12" x="-55" y="683" width="2028" height="12"/>
  <rect class="cls-12" x="-55" y="659" width="2028" height="12"/>
  <rect class="cls-12" x="-55" y="633" width="2028" height="12"/>
  <rect class="cls-13" x="-114" y="708" width="2139" height="99"/>
  <g>
    <rect class="cls-14" x="1764.29" y="731.6" width="25.91" height="4.82"/>
    <rect class="cls-15" x="1755.25" y="736.42" width="48.81" height="5.42"/>
    <g>
      <path class="cls-16" d="M1929,638.05a9.74,9.74,0,1,0-18.46,0Z"/>
      <path class="cls-17" d="M1921.25,638.58h121.37a10.44,10.44,0,0,0-3.76-11.33,7.15,7.15,0,0,0,.41-2.37,6.76,6.76,0,0,0-.35-2.17,6.74,6.74,0,0,0-3.13-12.08,8.79,8.79,0,0,0-17.36-1.6l-.62-.16a6.34,6.34,0,1,0-12.28-2.19,4.78,4.78,0,0,0,0,.66l-11.29.51v-.15a8.38,8.38,0,1,0-16.76,0,5,5,0,0,0,0,.55l-4.32,0a8,8,0,0,0-15.94-.31l-5.54-.24a8.18,8.18,0,0,0-15.84-3.21,7,7,0,1,0-8.9,9.79,8.18,8.18,0,0,0-2.77,11.07,7.88,7.88,0,0,0-3.42,2.28A8,8,0,0,0,1921.25,638.58Z"/>
      <path class="cls-18" d="M2040.5,628.78a10.33,10.33,0,0,0-1.64-1.53,7.53,7.53,0,0,0,.38-1.72H1923.66a7.91,7.91,0,0,0-2.85,2.06,8.16,8.16,0,0,0-.86,1.19Z"/>
      <path class="cls-18" d="M2043.05,635.61a10.37,10.37,0,0,0-.57-3.4H1918.86a7.88,7.88,0,0,0,.7,4H2043C2043,636,2043.05,635.81,2043.05,635.61Z"/>
      <g>
        <path class="cls-19" d="M2084.44,638.35H1839.52s-12-3.73-19.06,13.26c0,0-17.82,35.64-19.48,62.57,0,0-.83,17,8.29,29h127.64s2.07-12.29,18.23-11.88,19.48,13.13,19.48,13.13h113.55s22-12.44,17.82-49.32c0,0-2.9-33.15-10.78-50.14C2095.21,645,2092.2,638,2084.44,638.35Z"/>
        <path class="cls-18" d="M2093.58,648.27s-1.93-6.36-10.08-6.5l-246.31-.41s-7.74.69-11.33,6.35c0,0-9.81,14.65-16.3,41,0,0-13.54,30.81.83,52h123.08s.7-14.37,21.28-13.82c0,0,26.23-2,26.66,14.09h106.23s14-11.05,14.78-26.66.28-29-2.48-43A146.22,146.22,0,0,0,2093.58,648.27Z"/>
        <path class="cls-20" d="M1801.26,710.88c-.11,1.11-.21,2.21-.28,3.3,0,0-.83,17,8.29,29h127.64s2.07-12.29,18.23-11.88,19.48,13.13,19.48,13.13h113.55s15.54-8.81,18-33.56Z"/>
        <path class="cls-21" d="M2084.44,638.35H1839.52s-12-3.73-19.06,13.26c0,0-2.6,5.2-5.91,13.13h286.79c-1.58-7.17-3.59-14.3-6.13-19.76C2095.21,645,2092.2,638,2084.44,638.35Z"/>
        <g>
          <path class="cls-22" d="M1867.85,635c-2.09.14-3.82-1.12-3.93-2.86l-1.21-18.28c-.11-1.74,1.44-3.21,3.53-3.35l54.18-3.58c2.09-.14,3.82,1.12,3.94,2.86l1.2,18.28c.12,1.75-1.43,3.22-3.52,3.36Z"/>
          <g>
            <g>
              <polygon class="cls-5" points="1875.05 634.6 1875.93 634.55 1876.39 638.32 1875.52 638.37 1875.05 634.6"/>
              <polygon class="cls-19" points="1876.41 633.96 1874.43 634.09 1875.04 638.96 1877.02 638.84 1876.41 633.96 1876.41 633.96"/>
            </g>
            <g>
              <polygon class="cls-5" points="1912.33 638.35 1911.81 632.18 1912.68 632.12 1913.19 638.42 1912.33 638.35"/>
              <polygon class="cls-19" points="1913.19 631.53 1911.21 631.66 1911.81 638.86 1913.79 639.02 1913.19 631.53 1913.19 631.53"/>
            </g>
          </g>
          <path class="cls-5" d="M1866.68,634c-2.09.13-3.82-1.12-3.93-2.87l-1.21-18.28c-.12-1.74,1.43-3.21,3.52-3.35l54.19-3.58c2.09-.13,3.82,1.12,3.93,2.87l1.21,18.27c.11,1.75-1.43,3.22-3.52,3.36Z"/>
          <path class="cls-23" d="M1923.14,627.17c.07,1-1,1.93-2.36,2l-54.18,3.58c-1.37.09-2.54-.67-2.61-1.7l-1.2-18.28c-.07-1,1-1.93,2.35-2l54.19-3.58c1.37-.09,2.54.67,2.6,1.7Z"/>
          <path d="M1923.14,627.17c.07,1-1,1.93-2.36,2l-54.18,3.58c-1.37.09-2.54-.67-2.61-1.7l-1.2-18.28c-.07-1,1-1.93,2.35-2l54.19-3.58c1.37-.09,2.54.67,2.6,1.7Z"/>
          <path class="cls-17" d="M1923.14,627.23c.07,1-1,1.87-2.32,2l-53.47,3.53c-1.35.09-2.5-.64-2.56-1.63l-1.17-17.63c-.06-1,1-1.86,2.33-2l53.47-3.53c1.35-.09,2.5.64,2.56,1.63Z"/>
          <path class="cls-24" d="M1923.14,627.17c.07,1-1,1.93-2.36,2l-54.18,3.58c-1.37.09-2.54-.67-2.61-1.7l-1.2-18.28c-.07-1,1-1.93,2.35-2l54.19-3.58c1.37-.09,2.54.67,2.6,1.7Z"/>
          <g class="cls-25">
            <g>
              <path class="cls-26" d="M1868.84,627.44a3.46,3.46,0,1,1-3.68-3.21A3.45,3.45,0,0,1,1868.84,627.44Z"/>
              <path class="cls-26" d="M1872.05,631a1.44,1.44,0,1,1-1.53-1.34A1.44,1.44,0,0,1,1872.05,631Z"/>
              <path class="cls-26" d="M1867.13,621.9a.68.68,0,1,1-.72-.62A.67.67,0,0,1,1867.13,621.9Z"/>
              <path class="cls-26" d="M1870.47,613.84a3.24,3.24,0,1,1-3.44-3A3.24,3.24,0,0,1,1870.47,613.84Z"/>
              <path class="cls-26" d="M1879.68,629.28a1.8,1.8,0,1,1-1.91-1.67A1.79,1.79,0,0,1,1879.68,629.28Z"/>
              <path class="cls-26" d="M1885.7,630.36a1.84,1.84,0,1,1-2-1.71A1.85,1.85,0,0,1,1885.7,630.36Z"/>
              <path class="cls-26" d="M1890.73,628.86a.85.85,0,0,1-.8.9.85.85,0,1,1-.11-1.69A.85.85,0,0,1,1890.73,628.86Z"/>
              <path class="cls-26" d="M1919.29,625a1.89,1.89,0,1,1-2-1.75A1.89,1.89,0,0,1,1919.29,625Z"/>
              <path class="cls-26" d="M1917.07,621.38a1.12,1.12,0,0,1-2.24.15,1.12,1.12,0,0,1,2.24-.15Z"/>
              <path class="cls-26" d="M1923.5,612.26a2.65,2.65,0,1,1-2.82-2.46A2.65,2.65,0,0,1,1923.5,612.26Z"/>
              <path class="cls-26" d="M1917.59,611.4a1.13,1.13,0,1,1-1.2-1A1.13,1.13,0,0,1,1917.59,611.4Z"/>
              <path class="cls-26" d="M1915.24,627.74a.81.81,0,1,1-.86-.75A.8.8,0,0,1,1915.24,627.74Z"/>
              <path class="cls-26" d="M1898.12,628.91a1.57,1.57,0,1,1-1.67-1.46A1.58,1.58,0,0,1,1898.12,628.91Z"/>
            </g>
          </g>
          <path class="cls-27" d="M1906,637.1a4.15,4.15,0,0,1-3.91-2.15c-.9-1.57-1.17-4.24.27-7.56a5.81,5.81,0,0,1-2.26.64,5.31,5.31,0,0,1-4.23-1.65,5.59,5.59,0,0,1-.65-.78,6.36,6.36,0,0,1-1.54,1.65,5.6,5.6,0,0,1-2.87,1.17,3.31,3.31,0,0,1-2.88-1.27,2.5,2.5,0,0,1-.18-.24,6.59,6.59,0,0,1-3.78,1.68,4.4,4.4,0,0,1-3.28-1.11,5.53,5.53,0,0,1-.53-.55,6.83,6.83,0,0,1-5,2.86,3.73,3.73,0,0,1-.47,0,5.75,5.75,0,0,1-4.85-2.24c-1.79-2.43-1.38-6.08-.66-8.86-.15-.25-.29-.48-.4-.69-1.3-2.36-1-7.1.09-9.06l.57-1h8.43l-.1.12a5.69,5.69,0,0,1,.8-.11,4.79,4.79,0,0,1,3.33,1,4.47,4.47,0,0,1,1.2,1.43,7.23,7.23,0,0,1,4.14-2.12h.31a5,5,0,0,1,1.9.4l4.12-.12v-.12l8.63-.85-.44,2.58a9.87,9.87,0,0,0-.14,1.57,27.24,27.24,0,0,1,2.22-4.83l.51-.84,7.77-.89-.75,2.13,7-.43-1.58,3.1a18.49,18.49,0,0,0-1,4.05,16.08,16.08,0,0,1,5.38-1.38h.15c3.88-.21,5.55,1.8,6.2,3,1.73,3.24.29,8-.7,9.3l-.92,1.22-.77,0a51.71,51.71,0,0,1-4.88-2.53l-2-1,1.26-1.89a7.64,7.64,0,0,0,1.2-2.69h-.34a9.57,9.57,0,0,0-2,.43,10.75,10.75,0,0,0-3.59,2.5c-.76,4.63-1.83,9.72-4,12.77-1.39,2-3.1,3.13-4.84,3.25Z"/>
          <path class="cls-28" d="M1905.16,637.15a4.12,4.12,0,0,1-3.91-2.15c-.9-1.57-1.17-4.24.27-7.55a5.81,5.81,0,0,1-2.26.64,5.35,5.35,0,0,1-4.23-1.66,5,5,0,0,1-.65-.77,6.19,6.19,0,0,1-1.54,1.65,5.6,5.6,0,0,1-2.87,1.17,3.36,3.36,0,0,1-2.88-1.27l-.18-.24a6.58,6.58,0,0,1-3.78,1.67,4.4,4.4,0,0,1-3.28-1.11,4.45,4.45,0,0,1-.52-.54,6.87,6.87,0,0,1-5,2.86h-.47a5.73,5.73,0,0,1-4.85-2.25c-1.78-2.42-1.38-6.08-.66-8.86-.15-.24-.28-.48-.4-.69-1.3-2.35-1-7.1.09-9l.57-1h8.43l-.1.13a5.74,5.74,0,0,1,.8-.12,4.75,4.75,0,0,1,3.33,1.05,4.47,4.47,0,0,1,1.2,1.43,7.32,7.32,0,0,1,4.14-2.13h.31a4.79,4.79,0,0,1,1.9.4l4.12-.13v-.11l8.63-.85-.44,2.58a9.72,9.72,0,0,0-.14,1.56A27.66,27.66,0,0,1,1903,607l.51-.83,7.77-.9-.75,2.13,7-.42-1.58,3.1a18.21,18.21,0,0,0-1,4,16.08,16.08,0,0,1,5.38-1.38h.15c3.88-.22,5.55,1.8,6.2,3,1.73,3.24.29,8-.7,9.3l-.92,1.22-1.42-.58c-1.91-.77-4-1.79-4.23-1.91l-2-1,1.26-1.89a7.67,7.67,0,0,0,1.2-2.7h-.34a9.45,9.45,0,0,0-2,.42,10.9,10.9,0,0,0-3.59,2.5c-.76,4.64-1.83,9.72-4,12.78-1.39,2-3.1,3.13-4.84,3.24Z"/>
          <path d="M1926,616.18c-.66-1.25-2.14-2.72-5.35-2.54h-.14a16,16,0,0,0-6.61,2.06,26.53,26.53,0,0,1,1.34-6l.86-1.69-6.82.41.72-2-5.9.68-.28.45a26.06,26.06,0,0,0-3,8c-.16-.26-.29-.5-.41-.72-.68-1.3-.45-3.78-.31-4.63l.25-1.4-6.63.65v.17l-5.15.15v0a4,4,0,0,0-1.8-.44h-.23c-1.32.08-3.08,1.16-4.6,2.93a3.63,3.63,0,0,0-1.36-2.43,3.86,3.86,0,0,0-2.71-.85,7.61,7.61,0,0,0-4.66,2.68,5.08,5.08,0,0,1,.59-.93l1.42-1.76h-6l-.31.54c-1,1.69-1.21,6.12-.08,8.17.18.32.37.65.58,1-.75,2.74-1.21,6.26.42,8.48a4.9,4.9,0,0,0,4.13,1.88l.4,0c2.22-.14,3.91-1.66,5.06-3.6a4.73,4.73,0,0,0,1.1,1.52,3.51,3.51,0,0,0,2.62.88h0a6.32,6.32,0,0,0,4.12-2.3,3.63,3.63,0,0,0,.61,1.21,2.45,2.45,0,0,0,2.11.93h0a4.81,4.81,0,0,0,2.41-1,7.83,7.83,0,0,0,2.15-2.86,4.7,4.7,0,0,0,4.73,3.48h0a5.18,5.18,0,0,0,4.36-3.23,4.59,4.59,0,0,0,.92.23c-.21.29-.41.59-.61.88-2.9,4.3-2.85,7.72-1.84,9.48a3.2,3.2,0,0,0,3.07,1.7c1.46-.09,2.93-1.11,4.16-2.86,2-2.93,3.11-8,3.86-12.7a12,12,0,0,1,4.18-2.92,10.08,10.08,0,0,1,2.22-.47c.65,0,1.1.06,1.22.27.33.56-.25,2.31-1.27,3.83l-.68,1,1.11.55c.09,0,2.22,1.09,4.18,1.89l.78.31.5-.67C1926.22,623.37,1927.51,619,1926,616.18Z"/>
          <g>
            <path d="M1874.28,628.76a2.54,2.54,0,0,1-.39,0,4.69,4.69,0,0,1-4-1.8c-1.67-2.27-1-6.07-.36-8.4-.23-.34-.43-.69-.62-1-1.18-2.15-.79-6.5.07-8l.27-.45h5.53l-1.18,1.47a6.37,6.37,0,0,0-1,2c1.26-1.52,3.19-3.32,5.27-3.45a3.74,3.74,0,0,1,2.58.81,4,4,0,0,1,1.11,4.45,10,10,0,0,1-2.36,4l.34,0,.59,0h1l0,.94c-.17,3.66-2.43,9.21-6.72,9.49Zm-1.37-8.08c-.23,1.92,0,3.43.8,4.23a.53.53,0,0,0,.25.18,1.06,1.06,0,0,0,.45-.36,9.64,9.64,0,0,0,1.66-4.28,5.69,5.69,0,0,1-.91.2l-.67.06a8.17,8.17,0,0,1-1.58,0Zm.91-3.36h.33a3.62,3.62,0,0,0,2.79-2.07,2.42,2.42,0,0,0,.38-1.52h-.1c-1.09.07-2.8,1.85-3.5,3.59Z"/>
            <path d="M1869.78,610h3.12c-2,2.48-2.66,8,.87,8.22s5.7-5.15,3.7-5.39c-1.67-.21-4,2.33-4.73,4.53-1.07,3.28-1.19,6.56.31,8.15,2,2.16,4.11-3.76,4-5.93a18.61,18.61,0,0,1,3.09-.36c-.18,3.64-2.43,8.68-6.2,8.64-7.22-.08-3-11.23-2-12.87,1.49-2.35,5.09-6.59,8-4.35s-1.1,8.65-4.81,9.1c-3.42.42-4.36-.88-5.34-2.65S1869,611.31,1869.78,610Z"/>
            <path d="M1899.18,627a4.28,4.28,0,0,1-3.38-1.34,4.15,4.15,0,0,1-1.24-2.54,8.62,8.62,0,0,1-2.34,3.29,4.69,4.69,0,0,1-2.32,1h0a2.25,2.25,0,0,1-2-.87,3.71,3.71,0,0,1-.67-1.48,6.46,6.46,0,0,1-4.21,2.51h0a3.35,3.35,0,0,1-2.49-.84c-1.07-.94-1.67-2.58-1.8-4.86-.39-7,4.78-12.2,7.73-12.39h.22a3.83,3.83,0,0,1,2,.56v-.16l5.16-.15v-.19l6.23-.61-.2,1.17c-.15.87-.38,3.4.32,4.75.22.4.51.9.83,1.44,1.25,2.13,2.81,4.78,2.59,6.69a4.88,4.88,0,0,1-4.44,4Zm-.35-5.15a2.48,2.48,0,0,0,.21.58,3.44,3.44,0,0,0-.42-1.53Zm-2.14-4.71a43.28,43.28,0,0,1-1.73,5.1l3.62-1.41c-.3-.67-.69-1.4-1-2s-.6-1.14-.88-1.7Zm-12.43,0a16.17,16.17,0,0,0-.78,2.38c-.43,1.79-.26,2.8,0,3.14.06.07.09.07.1.07.67,0,2.19-1.92,3.43-4.89Zm9.39-4.71c-.86,2.66-1.65,5.43-2.16,7.55a45.85,45.85,0,0,0,2.16-7.55Z"/>
            <path d="M1888.16,617.21l-2.89-.72s2.85-3.4,1.44-4-5.89,8.47-3.87,10.77,6.7-6.4,6.75-12.55l3.71-.11s-4.16,12.38-3,13.34c.86.74,4.56-9.64,4.52-13.63l4.22-.41s-.6,3.4.41,5.32,3.56,5.53,3.32,7.61c-.28,2.42-3.82,4.64-6.28,2.17a3.15,3.15,0,0,1-1-2l2.48-1s.4,1.81,1.4,1.32c2.39-1.16-3.07-6.94-2.71-9.74,0,0-2.15,10.08-4.93,12-4.18,3-4-3-3.36-4.36-1.88,5.56-8.23,8.34-8.67.49-.36-6.64,4.74-11.48,7-11.44S1890.56,612.74,1888.16,617.21Z"/>
            <path d="M1905.09,636.07a3,3,0,0,1-2.9-1.61c-1-1.72-1-5.06,1.83-9.29.25-.37.52-.75.79-1.12a4.11,4.11,0,0,1-3.67-2.84c-1.83-5.89,2.63-13.33,2.82-13.64l.23-.38,5.47-.63-.81,1.52c-1.83,3.47-4.38,9.7-3.4,11.64a.8.8,0,0,0,.66.45,2.55,2.55,0,0,0,.38,0c2.21-.15,2.81-5.5,3.13-8.37a9,9,0,0,1,.56-2.92l.25-.41,5.34-.31-.71,1.4a27.88,27.88,0,0,0-1.41,6.47,16,16,0,0,1,6.85-2.22h.14c3.12-.17,4.54,1.24,5.18,2.45,1.49,2.79.24,7-.61,8.13l-.41.56-.65-.26c-2-.8-4.08-1.84-4.17-1.88l-.93-.46.57-.86c1.07-1.59,1.64-3.4,1.28-4-.21-.38-1-.38-1.39-.36a10,10,0,0,0-2.27.48,12.24,12.24,0,0,0-4.29,3c-.75,4.67-1.8,9.77-3.84,12.68-1.19,1.71-2.62,2.7-4,2.79Zm1.47-7.43a14,14,0,0,0-1,1.94,14.3,14.3,0,0,0,1-1.94Z"/>
            <path d="M1904.73,608l3.32-.39s-6.73,12.72-2.07,13.41,4.27-10.5,5-11.69l3.29-.2c-1.79,3.53-2,18-5.88,23.59s-8.88.74-3.6-7.08c3.58-5.31,9.82-10.62,15.92-11,7-.38,4.76,7.87,3.8,9.14-2-.79-4.11-1.85-4.11-1.85,1.37-2.06,3.83-7.5-3.4-5.28-4.94,1.52-13.14,13.16-12.48,14.69,1.68,3.92,6.18-11.74,6.18-11.74-3.35,4.82-7.81,4.05-8.68,1.26C1900.27,615.37,1904.73,608,1904.73,608Z"/>
          </g>
          <g>
            <path class="cls-5" d="M1926,616.18c-.66-1.25-2.14-2.72-5.35-2.54h-.14a16,16,0,0,0-6.61,2.06,26.53,26.53,0,0,1,1.34-6l.86-1.69-6.82.41.72-2-5.9.68-.28.45a26.06,26.06,0,0,0-3,8c-.16-.26-.29-.5-.41-.72-.68-1.3-.45-3.78-.31-4.63l.25-1.4-6.63.65v.17l-5.15.15v0a4,4,0,0,0-1.8-.44h-.23c-1.32.08-3.08,1.16-4.6,2.93a3.63,3.63,0,0,0-1.36-2.43,3.86,3.86,0,0,0-2.71-.85,7.61,7.61,0,0,0-4.66,2.68,5.08,5.08,0,0,1,.59-.93l1.42-1.76h-6l-.31.54c-1,1.69-1.21,6.12-.08,8.17.18.32.37.65.58,1-.75,2.74-1.21,6.26.42,8.48a4.9,4.9,0,0,0,4.13,1.88l.4,0c2.22-.14,3.91-1.66,5.06-3.6a4.73,4.73,0,0,0,1.1,1.52,3.51,3.51,0,0,0,2.62.88h0a6.32,6.32,0,0,0,4.12-2.3,3.63,3.63,0,0,0,.61,1.21,2.45,2.45,0,0,0,2.11.93h0a4.81,4.81,0,0,0,2.41-1,7.83,7.83,0,0,0,2.15-2.86,4.7,4.7,0,0,0,4.73,3.48h0a5.18,5.18,0,0,0,4.36-3.23,4.59,4.59,0,0,0,.92.23c-.21.29-.41.59-.61.88-2.9,4.3-2.85,7.72-1.84,9.48a3.2,3.2,0,0,0,3.07,1.7c1.46-.09,2.93-1.11,4.16-2.86,2-2.93,3.11-8,3.86-12.7a12,12,0,0,1,4.18-2.92,10.08,10.08,0,0,1,2.22-.47c.65,0,1.1.06,1.22.27.33.56-.25,2.31-1.27,3.83l-.68,1,1.11.55c.09,0,2.22,1.09,4.18,1.89l.78.31.5-.67C1926.22,623.37,1927.51,619,1926,616.18Z"/>
            <path class="cls-29" d="M1920.69,614.72a16.53,16.53,0,0,0-8.23,3.14c.57-3.84,1-7.22,1.79-8.69l-3.29.2c-.71,1.19-.32,12.39-5,11.69s2.07-13.41,2.07-13.41l-3.32.39s-3.62,6-3.07,11.22c-.75-1.5-1.73-3-2.26-4-1-1.92-.41-5.32-.41-5.32l-4.22.41c0,4-3.66,14.37-4.52,13.63-1.11-1,3-13.34,3-13.34l-3.71.11a14.26,14.26,0,0,1-.22,2.39,2.58,2.58,0,0,0-2.67-2.76c-2,0-6.07,3.59-6.9,8.87a21.34,21.34,0,0,0-2.79.35c.15,2.17-1.94,8.09-4,5.93-1.16-1.23-1.35-3.47-.88-5.94a6.4,6.4,0,0,0,2.88.17c3.71-.45,7.69-6.87,4.81-9.1s-6.47,2-8,4.35a8.17,8.17,0,0,0-.52,1,8.06,8.06,0,0,1,1.52-6h-3.12c-.76,1.3-1,5.32-.07,7.09a9.5,9.5,0,0,0,.82,1.29c-1.15,3.85-1.73,9.43,3.37,9.48,2.93,0,4.94-3,5.77-6.06h0c.44,7.74,6.62,5.14,8.59-.27-.53,1.7-.55,7,3.44,4.14,2.78-2,4.93-12,4.93-12-.36,2.8,5.1,8.58,2.71,9.74-1,.49-1.4-1.32-1.4-1.32l-2.48,1a3.15,3.15,0,0,0,1,2c2.46,2.47,6,.25,6.28-2.17a2.93,2.93,0,0,0,0-.72,3.85,3.85,0,0,0,4.24.7,31,31,0,0,0-2.17,2.84c-5.28,7.82-.3,12.66,3.6,7.08,2-2.79,3-7.83,3.74-12.6a13.84,13.84,0,0,1,4.87-3.43c7.23-2.22,4.77,3.22,3.4,5.28,0,0,2.16,1.06,4.11,1.85C1925.45,622.59,1927.68,614.34,1920.69,614.72Zm-43.22-1.88c2,.24-.07,5.6-3.7,5.39a2.56,2.56,0,0,1-1.19-.35c.05-.17.1-.34.16-.51C1873.46,615.17,1875.8,612.63,1877.47,612.84Zm5.37,10.45c-2-2.3,2.32-11.39,3.87-10.77s-1.44,4-1.44,4l2.89.72q.21-.4.39-.78C1887,621,1884.27,624.92,1882.84,623.29Zm21.66,8.13c-.37-.87,2.11-5,5.24-8.69C1908.32,627.07,1905.7,634.21,1904.5,631.42Z"/>
          </g>
          <path class="cls-5" d="M1887.91,610.92c.46.35.69.81.52,1s-.69.15-1.15-.19-.69-.81-.52-1S1887.45,610.58,1887.91,610.92Z"/>
          <path class="cls-5" d="M1879.26,610.71c.46.34.69.81.52,1s-.69.15-1.15-.2-.69-.8-.51-1S1878.8,610.37,1879.26,610.71Z"/>
        </g>
        <rect class="cls-19" x="1801.23" y="707.21" width="301.55" height="3.95" transform="translate(3904.01 1418.38) rotate(-180)"/>
        <rect class="cls-19" x="1816.76" y="662.18" width="282.75" height="3.72"/>
        <polygon class="cls-5" points="1816.76 663.77 1816.76 664.74 2041.92 664.74 2101.12 664.74 2101.12 663.77 1816.76 663.77"/>
        <rect class="cls-5" x="1803.78" y="708.7" width="299.66" height="0.97"/>
        <rect class="cls-30" x="1803.13" y="732.48" width="295.14" height="2.2"/>
        <rect class="cls-30" x="1802.3" y="729.99" width="297.35" height="1.1"/>
        <g>
          <path class="cls-5" d="M2088.58,639.14a18.46,18.46,0,0,0-3.32-.32H1837.68c-1.67,0-3.07,0-4.22.13a23.78,23.78,0,0,1,4.81-.47c.85,0,1.38,0,1.39,0,1.09,0,105.82.17,177.11.17,41.88,0,64.2-.06,66.35-.16l1.08,0A13.71,13.71,0,0,1,2088.58,639.14Z"/>
          <path class="cls-19" d="M1838.27,637.94c-2.33,0-6.93.31-9.59,2.55.75-.43,2.89-1.11,9-1.11h247.58a15.73,15.73,0,0,1,6.71,1.48s-1.46-2.89-7.77-2.89c-.36,0-.72,0-1.11,0-2.42.12-30.27.16-66.32.16-72.12,0-177.06-.16-177.06-.16s-.56,0-1.44,0Zm-9.59,2.55c-.36.21-.39.36-.39.36l.39-.36Z"/>
        </g>
        <path class="cls-31" d="M1809.56,688.19a80,80,0,0,0-5.09,18.81h298.22a179.39,179.39,0,0,0-.47-19.83H1809.81C1809.73,687.51,1809.64,687.85,1809.56,688.19Z"/>
        <g>
          <rect class="cls-32" x="1854.87" y="670.61" width="46.83" height="29.01" rx="4.7" ry="4.7" transform="translate(3756.57 1370.23) rotate(-180)"/>
          <path class="cls-33" d="M1902.15,667.75h-47.52a2.44,2.44,0,0,0-2.21,1.47c-.56,1.47-3.14,20.58,0,29.29a6.8,6.8,0,0,0,7,5.34h38.13s5.71-.19,7-8.48c0,0,1-21.73-.64-26.34C1903.9,669,1903.8,667.75,1902.15,667.75Z"/>
          <polygon class="cls-34" points="1898.31 668.85 1880.37 703.85 1889.34 672.17 1875.32 695.37 1881.6 670.61 1875.32 679.33 1878.06 668.16 1898.31 668.85"/>
          <rect x="1850.89" y="667.47" width="54.34" height="2.85" rx="0.99" ry="0.99"/>
        </g>
        <path class="cls-35" d="M2100.75,662.18a115.83,115.83,0,0,0-3.46-12H1821.11c-.22.48-.44,1-.65,1.48,0,0-2,4.1-4.83,10.57Z"/>
        <path class="cls-5" d="M1812,749.2c1.1,0,126,2.35,126,2.35s1.29-13.27,9.21-15.2h20.08s7.83,2.86,8.89,13.91c0,0,.32,1.11,2.35,1.29,0,0,109-1.66,122.81-8.1,0,0,11.46-24.5,4.1-64.84,0,0-4-20.14-6.88-24.44,0,0,9.64,34.39,6.88,53.73,0,0-3.69,28.73-14.19,33.06,0,0-5.88-.92-7,.87l-104.7,2.61s-1.56-12.6-14.1-13.15l-18.43-.37s-8.94-.88-10.18,12.27l-126.86-.11s-10.15-15.84-6.27-34.63,17.73-58.32,17.73-58.32-22.88,38.34-23.43,64.91c0,0-.92,11.09,5.7,27.67C1803.78,742.71,1807.17,749.2,1812,749.2Z"/>
        <rect class="cls-36" x="1827.73" y="745.29" width="8.2" height="2.03" rx="1.01" ry="1.01"/>
      </g>
    </g>
    <g>
      <path class="cls-37" d="M1620.55,746.22h137.61l9.83-9.83V667.58H1655l-19.66,39.32s-24.57,0-24.57,9.83V741.3S1610.72,746.22,1620.55,746.22Z"/>
      <polygon class="cls-38" points="1659.86 672.49 1645.12 706.9 1664.78 706.9 1664.78 672.49 1659.86 672.49"/>
      <rect class="cls-38" x="1669.69" y="672.49" width="39.32" height="34.4"/>
      <rect class="cls-38" x="1718.84" y="672.49" width="29.49" height="34.4"/>
      <rect class="cls-38" x="1753.25" y="672.49" width="9.83" height="34.4"/>
      <rect class="cls-39" x="1610.72" y="726.56" width="157.28" height="9.83"/>
      <rect class="cls-40" x="1610.72" y="716.73" width="157.28" height="4.91"/>
      <circle class="cls-41" cx="1613.17" cy="724.1" r="7.37"/>
      <circle class="cls-15" cx="1733.59" cy="746.22" r="19.66"/>
      <circle class="cls-15" cx="1650.03" cy="746.22" r="19.66"/>
      <circle class="cls-14" cx="1650.03" cy="746.22" r="9.83"/>
      <circle class="cls-14" cx="1733.59" cy="746.22" r="9.83"/>
    </g>
    <polygon class="cls-5" points="1731.75 674.96 1722.71 684.6 1727.53 687.61 1720.3 698.46 1743.2 674.96 1731.75 674.96"/>
    <path class="cls-5" d="M1704.63,676.16l-19.28-.6-12.06,13.26,15.07-9-12,11.45,16.27-8.44-18.68,21.69h30.73l-11.75-11.75S1705.23,676.16,1704.63,676.16Z"/>
    <polygon class="cls-5" points="1661.24 677.97 1660.64 703.88 1656.22 688.21 1661.24 677.97"/>
    <polygon class="cls-5" points="1745.61 684.6 1745.61 703.88 1734.76 703.88 1745.61 684.6"/>
    <polygon class="cls-5" points="1754.65 674.35 1761.28 674.35 1761.28 703.28 1754.65 674.35"/>
    <path class="cls-42" d="M1676.31,741.24s-2.72-22-30.13-19.28"/>
    <path class="cls-42" d="M1757.66,741.24s-2.71-22-30.13-19.28"/>
  </g>
  <g>
    <polygon class="cls-43" points="436.44 943.44 71.56 943.44 71.56 933 60.76 933 60.76 1368.72 71.56 1368.72 71.56 958.39 436.44 958.39 436.44 1368.72 447.24 1368.72 447.24 933 436.44 933 436.44 943.44"/>
    <path class="cls-44" d="M94.37,937.06s-9.61,347.33,2.4,373.73c5.43,11.94,23.07,25.45,33.31,29.51,20.92,8.31,50.91-.85,73.48,2.75,24.55,3.92,48.89,13.48,74.12,12.19,15.18-.77,29.29-6.41,44.73-6.94,15.62-.53,25.24-3.63,39.68-8.37,15.89-5.22,57.23-6.17,45.54-38.87V935.67Z"/>
    <g class="cls-45">
      <g>
        <rect class="cls-5" x="87.16" y="919.63" width="43.21" height="449.09"/>
        <rect class="cls-5" x="180.38" y="919.63" width="43.21" height="449.09"/>
        <rect class="cls-5" x="273.6" y="919.63" width="43.21" height="449.09"/>
        <rect class="cls-5" x="366.82" y="919.63" width="43.21" height="449.09"/>
      </g>
    </g>
  </g>
  <g>
    <polygon class="cls-43" points="924.44 965.44 559.56 965.44 559.56 955 548.76 955 548.76 1390.72 559.56 1390.72 559.56 980.39 924.44 980.39 924.44 1390.72 935.24 1390.72 935.24 955 924.44 955 924.44 965.44"/>
    <path class="cls-44" d="M582.37,959.06s-9.61,347.33,2.4,373.73c5.43,11.94,23.07,25.45,33.31,29.51,20.92,8.31,50.91-.85,73.48,2.75,24.55,3.92,48.89,13.48,74.12,12.19,15.18-.77,29.29-6.41,44.73-6.94,15.62-.53,25.24-3.63,39.68-8.37,15.89-5.22,57.23-6.17,45.54-38.87V957.67Z"/>
    <g class="cls-46">
      <g>
        <rect class="cls-5" x="575.16" y="941.63" width="43.21" height="449.09"/>
        <rect class="cls-5" x="668.38" y="941.63" width="43.21" height="449.09"/>
        <rect class="cls-5" x="761.6" y="941.63" width="43.21" height="449.09"/>
        <rect class="cls-5" x="854.82" y="941.63" width="43.21" height="449.09"/>
      </g>
    </g>
  </g>
  <g>
    <polygon class="cls-43" points="1399.44 985.44 1034.56 985.44 1034.56 975 1023.76 975 1023.76 1410.72 1034.56 1410.72 1034.56 1000.39 1399.44 1000.39 1399.44 1410.72 1410.24 1410.72 1410.24 975 1399.44 975 1399.44 985.44"/>
    <path class="cls-44" d="M1057.37,979.06s-9.61,347.33,2.4,373.73c5.43,11.94,23.07,25.45,33.31,29.51,20.92,8.31,50.91-.85,73.48,2.75,24.55,3.92,48.89,13.48,74.12,12.19,15.18-.77,29.29-6.41,44.73-6.94,15.62-.53,25.24-3.63,39.68-8.37,15.89-5.22,57.23-6.17,45.54-38.87V977.67Z"/>
    <g class="cls-47">
      <g>
        <rect class="cls-5" x="1050.16" y="961.63" width="43.21" height="449.09"/>
        <rect class="cls-5" x="1143.38" y="961.63" width="43.21" height="449.09"/>
        <rect class="cls-5" x="1236.6" y="961.63" width="43.21" height="449.09"/>
        <rect class="cls-5" x="1329.82" y="961.63" width="43.21" height="449.09"/>
      </g>
    </g>
  </g>
  <g>
    <polygon class="cls-43" points="1882.44 956.44 1517.56 956.44 1517.56 946 1506.76 946 1506.76 1381.72 1517.56 1381.72 1517.56 971.39 1882.44 971.39 1882.44 1381.72 1893.24 1381.72 1893.24 946 1882.44 946 1882.44 956.44"/>
    <path class="cls-44" d="M1540.37,950.06s-9.61,347.33,2.4,373.73c5.43,11.94,23.07,25.45,33.31,29.51,20.92,8.31,50.91-.85,73.48,2.75,24.55,3.92,48.89,13.48,74.12,12.19,15.18-.77,29.29-6.41,44.73-6.94,15.62-.53,25.24-3.63,39.68-8.37,15.89-5.22,57.23-6.17,45.54-38.87V948.67Z"/>
    <g class="cls-48">
      <g>
        <rect class="cls-5" x="1533.16" y="932.63" width="43.21" height="449.09"/>
        <rect class="cls-5" x="1626.38" y="932.63" width="43.21" height="449.09"/>
        <rect class="cls-5" x="1719.6" y="932.63" width="43.21" height="449.09"/>
        <rect class="cls-5" x="1812.82" y="932.63" width="43.21" height="449.09"/>
      </g>
    </g>
  </g>
</svg>
